<svg xmlns="http://www.w3.org/2000/svg" xmlns:xlink="http://www.w3.org/1999/xlink" width="50px" height="50px" style="-ms-transform: rotate(360deg); -webkit-transform: rotate(360deg); transform: rotate(360deg);" preserveAspectRatio="xMidYMid meet" viewBox="0 0 24 24"><path d="M 12.679502964019775 5.242806673049927 L 13.545732021331787 5.083601117134094 C 15.305000782012939 9.648861408233643 14.907141208648682 9.765809297561646 19.393851757049561 20.227153301239014 C 20.209762403495720 21.319078479394435 20.865726035400300 22.552813428106347 21.043502632894118 22.738119816789691 C 20.767631221734437 22.694380516579610 19.424003912500424 22.709847291424037 12.997232437133789 22.660965442657471 C 13.184156886016389 21.395454794239157 13.910056918742617 20.895063892501067 13.131085998660321 18.421592456257816 C 12.260458868647468 18.344180230700594 10.879065399317085 18.172007771801329 8.829794168472290 17.896851539611816 C 8.106338739395142 17.802397727966309 7.647502899169922 19.126486301422119 7.985532760620117 20.254381656646729 C 8.587971925735474 21.283079624176025 9.690164566040039 22.610076427459717 8.535574436187744 22.696331977844238 L 2.562277615070343 22.657034397125244 C 2.656777739524841 21.101393222808838 4.406806111335754 21.216207504272461 5.125941395759583 17.875601291656494 C 7.046542438215816 14.402624483646340 8.956805800304661 10.104239272987250 10.124176232540677 5.474325348553617 C 10.247180985014376 5.467576334796555 11.552389297740135 5.254144449128439 12.679502964019775 5.242806673049927 M 10.258442401885986 11.100831270217896 C 9.852205038070679 12.031093597412109 9.415056467056274 14.326219081878662 8.694241762161255 15.753507614135742 C 8.799752712249756 16.126607894897461 8.826525449752808 15.959369659423828 12.338809490203857 15.906582355499268 C 12.935925006866455 15.726408004760742 12.878424167633057 15.545800209045410 11.123570680618286 12.088869094848633 C 10.612268686294556 10.875221014022827 10.746511459350586 10.509397745132446 10.258442401885986 11.100831270217896 " stroke-width="1.0" fill="rgb(0, 0, 0)" opacity="1.0"></path></svg>