
<svg xmlns="http://www.w3.org/2000/svg" xmlns:xlink="http://www.w3.org/1999/xlink" width="50px" height="50px" style="-ms-transform: rotate(360deg); -webkit-transform: rotate(360deg); transform: rotate(360deg);" preserveAspectRatio="xMidYMid meet" viewBox="0 0 24 24"><path d="M 4.424908876419067 5.101224660873413 L 14.096940994262695 5.310872912406921 C 15.650892734527588 5.465619921684265 16.598025798797607 5.647974014282227 17.167885780334473 6.065635442733765 C 18.217423439025879 6.812141418457031 18.761358261108398 7.748841047286987 18.672866821289062 9.116754770278931 C 18.686802864074707 10.056353330612183 18.406358242034912 11.126910209655762 17.655873298645020 12.095470905303955 C 17.098951970987336 12.793547069782569 16.286395226953740 13.170565595818218 14.755048049696747 13.307456531854895 C 16.019643749461931 13.256109823328128 17.331146343963834 13.920615820640265 16.891258762230823 13.751716259632850 C 17.157648830501458 13.907797737972952 17.624325120972582 14.255826010374298 18.351990222930908 14.973266601562500 C 19.510691642761230 16.217715740203857 19.790342330932617 17.425171852111816 19.617522239685059 18.912752151489258 C 19.699411869049072 18.565129280090332 19.406005382537842 20.132350444793701 18.558687686920166 20.872786045074463 C 17.742927074432373 21.616875171661377 16.227656364440918 22.561107158660889 13.891439437866211 22.720913887023926 L 4.408152937889099 22.712177753448486 C 4.572605609893799 22.072925090789795 5.432269334793091 21.371091842651367 5.386004090309143 20.896103382110596 C 5.658328413963318 20.467188835144043 5.793754935264587 18.604843139648438 5.880095243453979 15.795088291168213 C 6.061637163162231 12.207524299621582 5.876231074333191 9.370101213455200 5.860113501548767 8.435697555541992 C 5.773282527923584 7.493931055068970 5.666081786155701 6.252836465835571 4.668937325477600 5.643482923507690 C 4.572911292103574 5.513172250533849 4.581366717623342 5.557254515199914 4.581249291252980 5.695645772059345 C 4.571151645852903 5.518866878540640 4.523945426476109 5.321107942960516 4.424908876419067 5.101224660873413 M 11.234406709671021 7.281573772430420 C 11.205965280532837 7.313879728317261 10.658744573593140 7.426353693008423 10.893131732940674 7.690896749496460 C 10.619728088378906 7.580785274505615 10.740031242370605 8.692784786224365 10.708869695663452 9.778502941131592 C 10.667517900466919 11.363418102264404 10.727690219879150 11.886423110961914 10.752564668655396 12.213336467742920 C 10.985023498535156 12.496330261230469 11.367708206176758 12.211096286773682 11.896885156631470 12.168361186981201 C 12.220451831817627 11.920777559280396 12.738555908203125 11.841618061065674 12.908105850219727 11.597833156585693 C 13.508718967437744 11.010817050933838 13.492698669433594 10.817456245422363 13.607498645782471 9.924962997436523 C 13.584586143493652 9.151983976364136 13.515807151794434 8.493474483489990 12.948547840118408 8.080015182495117 C 12.526232242584229 7.845468521118164 12.063929557800293 7.541244506835938 11.234406709671021 7.281573772430420 M 10.836349725723267 14.351364612579346 C 10.697611846458141 14.165491460293298 10.716010024757225 14.640868864011537 10.738678770948077 15.220438922647906 C 10.821732186098352 15.950702485707343 10.975475651700386 16.782246273325001 10.926724433898926 17.265674114227295 C 11.070590972900391 17.679914474487305 10.952745437622070 18.997102260589600 11.440760135650635 19.700657844543457 C 12.471314907073975 20.010662555694580 12.826440811157227 19.584151268005371 13.386408805847168 19.378233432769775 C 13.842285633087158 18.906107425689697 14.204951763153076 18.171242237091064 14.148804187774658 17.483289241790771 C 14.273862361907959 16.176396846771240 13.744658946990967 15.608724117279053 13.328603267669678 15.118529319763184 C 12.474243164062500 14.462244987487793 12.462821960449219 14.338308334350586 10.836349725723267 14.351364612579346 " stroke-width="1.0" fill="rgb(0, 0, 0)" opacity="1.0"></path></svg>