
<svg xmlns="http://www.w3.org/2000/svg" xmlns:xlink="http://www.w3.org/1999/xlink" width="50px" height="50px" style="-ms-transform: rotate(360deg); -webkit-transform: rotate(360deg); transform: rotate(360deg);" preserveAspectRatio="xMidYMid meet" viewBox="0 0 24 24"><path d="M 13.474150657653809 5.117224216461182 C 14.336010932922363 5.053941249847412 15.740846157073975 5.308492898941040 18.204242706298828 5.548410773277283 C 18.261630535125732 4.772724509239197 18.178380489349365 6.488144874572754 18.048168182373047 11.514605283737183 C 16.548534393310547 8.653980016708374 14.601246356964111 7.646970033645630 13.251387119293213 7.925019264221191 C 12.706223487854004 8.010881423950195 12.225940704345703 8.659777164459229 11.582000970840454 10.625510215759277 C 11.447804709062506 11.271902323449188 11.342771673574322 11.904083074303468 11.263319668100991 12.256428951206978 C 11.299862933796522 13.661768144965801 11.260849434768001 14.851694041475678 11.791113853454590 15.955950736999512 C 12.390051841735840 17.631743431091309 13.552484035491943 18.227396965026855 14.703168869018555 18.612533569335938 C 15.442744731903076 18.641620159149170 17.119952201843262 19.802734851837158 19.011950969696045 17.340107917785645 C 18.622481346130371 20.554302692413330 18.313437938690186 21.848186016082764 17.536459922790527 21.802569866180420 C 16.325041294097900 23.002023696899414 13.088079929351807 23.129173278808594 11.616013526916504 22.775846958160400 C 9.622979164123535 22.210699081420898 7.544262170791626 20.922411918640137 6.363917112350464 18.541093826293945 C 5.213101744651794 16.244725227355957 5.472085475921631 13.307285785675049 5.433974146842957 15.840115070343018 C 5.360611438751221 13.245318889617920 5.463958382606506 10.868850231170654 7.199134826660156 8.578534841537476 C 8.617290973663330 6.187503576278687 12.209817409515381 5.104791998863220 13.474150657653809 5.117224216461182 " stroke-width="1.0" fill="rgb(0, 0, 0)" opacity="1.0"></path></svg>