
<svg xmlns="http://www.w3.org/2000/svg" xmlns:xlink="http://www.w3.org/1999/xlink" width="50px" height="50px" style="-ms-transform: rotate(360deg); -webkit-transform: rotate(360deg); transform: rotate(360deg);" preserveAspectRatio="xMidYMid meet" viewBox="0 0 24 24"><path d="M 4.376029014587402 5.045005917549133 L 12.003892421722412 5.333814382553101 C 14.079262733459473 5.288104891777039 16.224761009216309 6.086628913879395 17.344116210937500 7.320804119110107 C 18.992730617523193 8.838755607604980 19.754714012145996 10.890566110610962 20.020806312561035 13.384180068969727 C 20.163531303405762 15.209625720977783 19.661516189575195 18.405115127563477 18.117432117462158 20.071426391601562 C 16.259386539459229 21.919841766357422 14.541242122650146 22.677507877349854 12.101763725280762 22.634635448455811 L 3.550467610359192 22.760035514831543 C 3.674760460853577 21.265824794769287 5.022608757019043 22.101468086242676 5.155752182006836 19.288126945495605 C 5.385128259658813 17.127109050750732 5.498729109764099 12.146229743957520 5.274884462356567 7.437200546264648 C 4.640397557550067 5.797250061164722 4.322964708317612 5.348342891575932 3.940434173334054 5.663848464023085 L 4.376029014587402 5.045005917549133 M 10.543754339218140 8.232908248901367 C 10.336652040481567 9.470290660858154 10.402659416198730 9.887202501296997 10.352062940597534 10.197092771530151 C 10.388359308242798 10.525254964828491 10.213783979415894 14.244267940521240 10.538405656814575 17.862094402313232 C 10.710002660751343 18.258789539337158 10.527922868728638 18.627837181091309 11.006235837936401 19.475572586059570 C 11.491589784622192 19.848665714263916 12.852807998657227 18.546122074127197 12.556504726409912 18.966472148895264 C 13.962520122528076 17.784281730651855 14.361094951629639 15.892633438110352 14.406453609466553 14.560762882232666 C 14.718937397003174 12.637171268463135 14.104010581970215 11.167919397354126 13.437181949615479 9.842368125915527 C 12.375690937042236 8.596319675445557 11.207784891128540 7.942915678024292 10.543754339218140 8.232908248901367 " stroke-width="1.0" fill="rgb(0, 0, 0)" opacity="1.0"></path></svg>