
<svg xmlns="http://www.w3.org/2000/svg" xmlns:xlink="http://www.w3.org/1999/xlink" width="50px" height="50px" style="-ms-transform: rotate(360deg); -webkit-transform: rotate(360deg); transform: rotate(360deg);" preserveAspectRatio="xMidYMid meet" viewBox="0 0 24 24"><path d="M 5.371413588523865 5.382500767707825 L 18.120287989020984 5.350423062709292 C 17.676262544913161 5.545371749378019 17.428084819547408 6.558389583316379 17.863225936889648 10.670523405075073 C 17.053696408735949 9.721734992054365 16.259788802674709 9.062503348239240 15.698795966450856 8.611683478480565 C 15.435085295764788 8.620174186117932 15.022276726025005 8.518101290674936 14.512445926666260 8.311333179473877 C 13.372429847717285 8.365986585617065 12.061719417572021 8.193825960159302 12.050066471099854 8.510715007781982 C 11.657235280370793 9.263635913940051 11.673962205725864 11.764473264180577 11.664186493910448 12.311931557263126 C 11.828026584106619 12.267981281694532 12.646048414139775 12.380438464887675 13.441902637481689 12.253685474395752 C 15.723833084106445 11.070301294326782 14.724979877471924 10.928305149078369 17.025306701660156 12.501849174499512 C 17.039505170102199 12.466243591096234 17.053254527422016 12.430917244662375 17.066565928287101 12.395866459817054 C 16.981794670136864 12.648043729380618 16.901399269078659 12.900053252209673 16.848206772383577 13.210934083252567 C 16.884554127102263 12.980854215154681 16.939045947660361 12.734026998888840 17.019629001617432 12.502797603607178 C 15.435261726379395 11.438976287841797 15.405025005340576 10.652637004852295 15.884058952331543 14.883097171783447 C 15.785622596740723 15.720342636108398 16.274658679962158 16.444473266601562 15.645084857940674 16.500181674957275 C 14.595474243164062 15.009136676788330 13.789443969726562 15.216190338134766 13.096176624298096 15.115645408630371 C 12.669273376464844 14.955259323120117 12.071269512176514 15.052499771118164 11.765331029891968 15.076459407806396 C 11.807997465133667 16.088584899902344 11.998517274856567 18.484392642974854 12.268894672393799 18.461145401000977 C 12.567599773406982 19.247600555419922 12.692108631134033 18.744662761688232 14.695358276367188 19.108039855957031 C 15.239732265472412 18.963463783264160 17.089769840240479 18.628540992736816 17.687467575073242 17.740513801574707 C 18.183140702768402 17.385360903233963 18.598685903540645 17.301773535063461 18.695468870412391 17.108598032906176 C 18.699501209067829 18.001097945638286 18.091865245434949 19.967658431752675 17.746483325958252 22.685537338256836 L 5.166081190109253 22.695456504821777 C 6.588831424713135 20.450642108917236 6.541090965270996 20.362458229064941 6.657701969146729 16.790807247161865 C 6.983310699462891 13.320356369018555 6.745973110198975 8.952180147171021 6.542604446411133 7.632881641387939 C 6.368374586105347 6.344144582748413 5.058454871177673 5.459196209907532 5.371413588523865 5.382500767707825 " stroke-width="1.0" fill="rgb(0, 0, 0)" opacity="1.0"></path></svg>