
<svg xmlns="http://www.w3.org/2000/svg" xmlns:xlink="http://www.w3.org/1999/xlink" width="50px" height="50px" style="-ms-transform: rotate(360deg); -webkit-transform: rotate(360deg); transform: rotate(360deg);" preserveAspectRatio="xMidYMid meet" viewBox="0 0 24 24"><path d="M 9.094535350799561 5.252405047416687 L 18.428817272186279 5.072086572647095 C 18.654388904571533 4.761760354042053 18.248476982116699 6.247484922409058 18.338493347167969 8.347749710083008 C 18.554320191393838 10.069011063769853 18.574661990621635 10.561596170812221 18.639584336804884 10.722656273193493 C 18.190575715120993 10.429733852962134 17.576857347229698 9.971974024096337 17.028993129730225 9.216015815734863 C 16.144846916198730 8.527992725372314 14.579255104064941 7.977537631988525 12.725212097167969 8.237683296203613 C 12.390582561492920 8.250240325927734 12.565966129302979 9.362875699996948 12.350822925567627 10.208147764205933 C 12.404202461242676 10.616254806518555 12.271010398864746 11.253837347030640 12.334334850311279 12.225008010864258 C 12.167942047119141 12.276803970336914 11.962650060653687 12.399847984313965 13.024187564849854 12.385155200958252 C 13.207897051998806 12.357571553235775 13.364356975608089 12.349993855734240 13.482000104926888 12.355740724255428 C 14.107964400316988 12.249140761928855 14.832122410038814 12.045600013464199 15.825831413269043 11.457771778106689 C 16.239627189799471 11.503398760297248 16.369181241731162 12.707781903734810 16.331962483373310 16.423000461866611 C 16.197321765003995 16.111916739992726 15.198149640485552 14.938605782768574 12.218831062316895 15.057507991790771 C 12.174003124237061 15.654999732971191 12.243414402008057 16.996469020843506 12.283025264739990 18.285557270050049 C 12.325037956237793 20.350994110107422 13.750473976135254 22.557595252990723 13.257911682128906 22.690582752227783 C 12.105189800262451 22.695721149444580 9.756984472274780 22.673080444335938 8.983232975006104 22.699284553527832 C 8.995975255966187 22.665673255920410 7.507140398025513 22.718004226684570 5.685082197189331 22.669750213623047 C 6.935344482484026 20.796711385026498 7.047883995916103 20.813689461876585 6.708811425542672 20.992099975782722 C 6.833269444635943 20.890149308434268 6.937640472725422 20.713999388584824 6.972847938537598 20.402412414550781 C 7.245133638381958 19.120963096618652 7.237093448638916 17.661867141723633 7.268223524093628 16.276060581207275 C 7.346855878829956 14.935400962829590 7.441379785537720 13.104131698608398 7.323557138442993 10.761327981948853 C 7.133857011795044 8.330871820449829 7.319448709487915 6.784339427947998 6.202850103378296 5.919312357902527 C 5.369536399841309 4.995374679565430 5.545558333396912 5.012146711349487 9.094535350799561 5.252405047416687 " stroke-width="1.0" fill="rgb(0, 0, 0)" opacity="1.0"></path></svg>