
<svg xmlns="http://www.w3.org/2000/svg" xmlns:xlink="http://www.w3.org/1999/xlink" width="50px" height="50px" style="-ms-transform: rotate(360deg); -webkit-transform: rotate(360deg); transform: rotate(360deg);" preserveAspectRatio="xMidYMid meet" viewBox="0 0 24 24"><path d="M 12.323039531707764 5.189197182655334 C 14.402445316314697 5.111477136611938 14.883655071258545 5.645477414131165 17.331586360931396 5.642266631126404 C 18.177141666412354 6.032785177230835 18.005996704101562 6.095400094985962 17.577252388000488 11.265163421630859 C 15.164794921875000 9.489192724227905 15.625372409820557 8.253829479217529 12.707442283630371 7.886338949203491 C 11.095468282699585 7.844888448715210 10.444813013076782 9.413522958755493 10.423435449600220 9.553117275238037 C 10.057990550994873 10.102736234664917 9.382930755615234 11.851404905319214 9.539275646209717 14.049372196197510 C 9.711694478988647 15.936884880065918 9.465100049972534 17.816984653472900 9.611721754074097 14.914180755615234 C 9.636739969253540 16.200181961059570 10.248320817947388 17.435018062591553 10.985774517059326 18.329958915710449 C 10.993226554111709 18.344880864863370 11.000651663754436 18.359736489027188 11.008052551316842 18.374525910611549 C 12.403669209780393 19.334458502488960 13.863656783423323 20.403266705410882 13.529628753662109 16.169044017791748 C 11.933948894269385 15.931905439788657 12.058598901644348 15.659490465669574 12.037565530338934 15.215767389324315 C 12.214566597940863 15.084622379478439 11.839752056990450 14.331132786731626 11.994144916534424 13.769026279449463 C 14.655832725132157 13.861334928957278 13.731125310521055 13.793778849668483 18.968094111898679 13.603184572706182 C 19.208871125457499 13.645222667789469 19.452636556089576 13.689644325489761 19.624654769897461 13.725308418273926 C 19.372879028320312 16.387571811676025 18.811909675598145 14.225167751312256 19.064968585968018 18.425285339355469 C 19.049683570861816 19.702567577362061 19.520286083221436 20.724905490875244 19.385383129119873 21.855540275573730 C 16.420179567805473 21.506921500226891 17.217436306948365 22.860725161476047 13.492586826847134 22.865861636958606 C 13.464602911063512 22.971426361892313 13.436159600801517 23.006426145072062 13.406423091888428 22.940052509307861 C 12.238291740417480 23.103318214416504 10.557665348052979 23.058072566986084 8.588512659072876 22.208933830261230 C 7.526747703552246 21.634815216064453 5.697987914085388 20.547550678253174 4.897141098976135 18.372071743011475 C 4.478806775224024 17.369976948710573 4.252021209706344 16.305359763921935 4.146159085126972 15.654305871774888 C 3.982613903882839 13.095649377809352 4.462912409961540 10.711553758725067 5.907476305961609 8.435254096984863 C 6.996854782104492 6.487248659133911 9.781155109405518 5.587427616119385 11.896684169769287 5.187953352928162 L 12.323039531707764 5.189197182655334 " stroke-width="1.0" fill="rgb(0, 0, 0)" opacity="1.0"></path></svg>