
<svg xmlns="http://www.w3.org/2000/svg" xmlns:xlink="http://www.w3.org/1999/xlink" width="50px" height="50px" style="-ms-transform: rotate(360deg); -webkit-transform: rotate(360deg); transform: rotate(360deg);" preserveAspectRatio="xMidYMid meet" viewBox="0 0 24 24"><path d="M 3.566647410392761 5.068376898765564 L 10.969842195510864 5.285110831260681 C 11.251602172851562 5.318673133850098 10.527232646942139 5.977452993392944 10.270849227905273 6.898986339569092 C 10.132432222366333 7.771743535995483 9.871037721633911 8.344052553176880 9.916320562362671 10.784796953201294 C 9.852744259285055 10.796842822759935 9.976643685536708 11.490513307882591 9.972668196936631 11.574692313635648 C 11.236261725171518 11.639508207343084 12.122739879619164 11.500876861086640 11.803821086883545 11.592064619064331 C 12.472622394561768 11.442669868469238 14.106541156768799 11.634055852890015 13.948943138122559 11.398622274398804 C 14.065986574721926 10.476615824130819 14.088160195114297 9.513013345268932 13.927003243292525 7.302574415090365 C 13.747504077840157 6.971822213770603 13.406133907192434 6.278113405890838 12.955540180206299 5.326739430427551 C 15.996541500091553 5.524382829666138 15.922626972198486 5.379362940788269 15.805040359497070 5.479982972145081 L 20.478321075439453 5.270456314086914 C 20.979038715362549 5.586366534233093 19.826884746551514 6.330497503280640 19.536957263946533 7.101478815078735 C 19.220961570739746 9.515324592590332 19.097677230834961 12.037164688110352 19.242974281311035 15.103504657745361 C 19.228684902191162 16.245630741119385 19.251839160919189 18.394417762756348 19.462786674499512 20.134374618530273 C 19.549558639526367 21.409114837646484 20.099872112274170 21.748754024505615 20.217760562896729 22.692147731781006 L 12.719734668731689 22.681298732757568 C 14.095441818237305 20.303792953491211 13.881338596343994 21.433861255645752 14.015552043914795 17.776991844177246 C 14.039307117462158 15.016129016876221 14.298534393310547 14.767029762268066 12.992561817169189 14.752288341522217 C 12.987288511756098 14.750323932348770 12.982065248882407 14.748358936959482 12.976891690799343 14.746393473342007 C 12.502701070890396 14.734360862285721 11.764102975108191 14.683680839224898 9.947678089141846 14.766802310943604 C 9.836194038391113 14.756624221801758 9.818437814712524 17.397335529327393 9.993655443191528 18.914606094360352 C 10.222321987152100 21.428744316101074 10.615382194519043 20.738562583923340 11.288281917572021 22.659420490264893 L 3.009611248970032 22.731678485870361 C 5.021530151367188 20.450926780700684 4.505341887474060 20.866375923156738 4.766917705535889 15.834222793579102 C 4.725535869598389 11.200934886932373 4.979430198669434 8.743650913238525 4.771746397018433 7.725568056106567 C 4.656909942626953 6.477900266647339 3.656156659126282 5.725722312927246 3.566647410392761 5.068376898765564 " stroke-width="1.0" fill="rgb(0, 0, 0)" opacity="1.0"></path></svg>