
<svg xmlns="http://www.w3.org/2000/svg" xmlns:xlink="http://www.w3.org/1999/xlink" width="50px" height="50px" style="-ms-transform: rotate(360deg); -webkit-transform: rotate(360deg); transform: rotate(360deg);" preserveAspectRatio="xMidYMid meet" viewBox="0 0 24 24"><path d="M 10.139388799667358 5.452244281768799 L 16.784696102142334 5.254679203033447 C 17.054275989532471 4.922123908996582 16.220194816589355 6.539644002914429 15.985530853271484 7.582905292510986 C 15.873847961425781 9.054982423782349 15.627326488494873 11.710898637771606 15.632091522216797 15.432297706604004 C 15.669327409889011 17.514680659253951 15.689038376690181 18.940259782939812 15.148763921277359 20.319855818649113 C 14.396445916661513 21.546592798637533 13.128387350513394 23.860142177366733 10.864902734756470 23.871633052825928 C 9.825747805555180 23.249479218936372 8.192833555225196 22.726086282250535 7.181031132054323 22.384828726221791 C 7.332090223287668 19.743062718024728 6.307146448666985 19.512963828327312 7.476139783859253 18.496503353118896 C 8.637307405471802 18.305125236511230 8.170701742172241 19.837007045745850 9.562539339065552 20.215201377868652 C 9.663121025822374 20.191937040634642 9.760330471843830 20.172297018019091 9.853369332989931 20.155842726464979 C 10.397348299423685 19.977653991358846 10.633414024452859 19.434167314206352 10.805093765258789 18.211455345153809 C 10.956000867981253 17.670043190608340 11.099851680000498 16.758817122305047 11.170724510580024 15.760369451572897 C 11.195332044789932 15.254242797529574 11.253923887979603 13.995519785651210 11.315305709838867 12.232711315155029 C 11.375133275985718 9.318885326385498 11.534082412719727 9.887876987457275 11.064802408218384 7.041607618331909 C 10.571599960327148 6.123383760452271 10.521439790725708 5.772448182106018 10.195892572402954 5.546258211135864 C 10.124606588255789 5.430453586646223 10.049768480195201 5.309120930863502 9.972468664736237 5.183998421261188 L 10.139388799667358 5.452244281768799 " stroke-width="1.0" fill="rgb(0, 0, 0)" opacity="1.0"></path></svg>