
<svg xmlns="http://www.w3.org/2000/svg" xmlns:xlink="http://www.w3.org/1999/xlink" width="50px" height="50px" style="-ms-transform: rotate(360deg); -webkit-transform: rotate(360deg); transform: rotate(360deg);" preserveAspectRatio="xMidYMid meet" viewBox="0 0 24 24"><path d="M 3.516581296920776 5.140868782997131 L 10.436929464340210 5.163169741630554 C 11.085387468338013 5.329499959945679 10.129044055938721 5.784411191940308 9.844411611557007 7.057878255844116 C 9.698004484176636 8.076257944107056 9.419878005981445 10.638694524765015 9.760135889053345 11.518984794616699 C 10.053474051670969 11.342092228537840 10.275910690199693 11.226840145178429 10.440061478940486 11.162925113611291 C 10.663185121608993 10.766463657060649 11.015045025500068 10.298707639500972 11.425997972488403 9.854363679885864 C 12.806950092315674 8.495230436325073 13.502401828765869 7.608325481414795 13.571840286254883 6.519424438476562 C 13.815423488616943 5.473782062530518 13.774821281433105 5.322681427001953 13.919493198394775 5.347373127937317 L 19.844122409820557 5.467085838317871 C 19.865414142608643 5.741487264633179 18.222496032714844 6.897026538848877 17.093915462493896 8.038229227066040 C 15.304757595062256 9.750698804855347 13.757133007049561 11.295849323272705 13.677337646484375 12.202945232391357 C 15.085913658142090 13.982226848602295 15.712975502014160 15.140974044799805 16.557024478912354 16.233850479125977 C 17.590892314910889 17.668179988861084 18.411057472229004 19.183095932006836 19.360681056976318 20.397883415222168 C 20.105217933654785 21.293126106262207 20.837463855743408 21.966470718383789 21.612318992614746 22.718098640441895 L 15.077161788940430 22.674782752990723 C 14.052097320556641 22.192631721496582 12.802203655242920 19.732349395751953 12.619186878204346 19.104785442352295 C 12.134398217409736 18.047131301828255 11.124084398648257 16.947915806167892 10.279771844861887 15.064803509055579 C 9.642238449465038 15.468944099127961 9.802073822725891 17.376242660569705 9.745601892471313 18.255642414093018 C 9.982678413391113 20.955677032470703 10.190166234970093 20.537133693695068 11.095173597335815 22.660803794860840 L 3.079784631729126 22.716349124908447 C 5.077145934104919 20.742015838623047 4.583250761032104 20.000674724578857 4.825772523880005 16.006779670715332 C 4.885545372962952 13.137192249298096 5.080809831619263 8.489619255065918 4.704637527465820 7.366926670074463 C 4.320308446884155 5.926111578941345 3.586135983467102 5.820132851600647 3.516581296920776 5.140868782997131 " stroke-width="1.0" fill="rgb(0, 0, 0)" opacity="1.0"></path></svg>