
<svg xmlns="http://www.w3.org/2000/svg" xmlns:xlink="http://www.w3.org/1999/xlink" width="50px" height="50px" style="-ms-transform: rotate(360deg); -webkit-transform: rotate(360deg); transform: rotate(360deg);" preserveAspectRatio="xMidYMid meet" viewBox="0 0 24 24"><path d="M 5.954679965972900 5.127075076103210 L 12.629794120788574 5.168587446212769 C 13.295219421386719 5.123107910156250 12.418357372283936 5.817148089408875 12.215068817138672 8.165655612945557 C 11.990784645080566 10.203452825546265 11.861335515975952 11.475975751876831 11.891877651214600 14.761299133300781 C 11.962113618850708 15.219018459320068 11.842166662216187 16.897182941436768 12.008482933044434 17.723795413970947 C 12.091667175292969 18.764566898345947 12.374499320983887 19.321572303771973 12.824203491210938 19.160458087921143 C 15.358431816101074 19.167898178100586 15.073461055755615 19.070294380187988 17.597232341766357 17.869850635528564 C 18.158440763502870 17.625647725708404 18.384568627567809 17.621757475178669 18.447088383700503 17.703391017913532 C 18.329871134674050 18.344343646077451 17.807037388440456 19.614889412432667 17.505383491516113 22.694064617156982 L 5.158322453498840 22.672749996185303 C 6.460628986358643 20.566632270812988 6.809374809265137 22.020275115966797 6.997906923294067 17.747074127197266 C 7.157467603683472 15.281852245330811 7.319493055343628 14.284561157226562 7.071410894393921 10.069114923477173 C 6.993816375732422 7.371018648147583 6.892030477523804 6.819514989852905 6.225780487060547 6.087614536285400 C 5.288804411888123 4.939756035804749 6.494313240051270 4.925985217094421 5.954679965972900 5.127075076103210 " stroke-width="1.0" fill="rgb(0, 0, 0)" opacity="1.0"></path></svg>