
<svg xmlns="http://www.w3.org/2000/svg" xmlns:xlink="http://www.w3.org/1999/xlink" width="50px" height="50px" style="-ms-transform: rotate(360deg); -webkit-transform: rotate(360deg); transform: rotate(360deg);" preserveAspectRatio="xMidYMid meet" viewBox="0 0 24 24"><path d="M 2.309470653533936 5.008553266525269 L 8.806173563003540 5.202442646026611 C 9.225397825241089 6.874639034271240 10.004653930664062 8.657146453857422 10.482385396957397 9.861862421035767 C 10.871603250503540 10.993776082992554 11.611166238784790 12.807796955108643 12.130325317382812 14.077491760253906 C 13.436262130737305 10.851485252380371 13.962109565734863 9.755853652954102 14.566081523895264 8.115949630737305 C 15.107454299926758 6.360186338424683 15.650188922882080 4.932786226272583 15.918929100036621 5.301282763481140 L 21.209210872650146 5.390234827995300 C 21.837650299072266 5.473313927650452 21.125892162322998 6.654396057128906 20.934502601623535 7.675945043563843 C 20.725351810455322 10.015282630920410 20.981606483459473 11.659631967544556 21.144603252410889 13.735270500183105 C 21.207459926605225 16.275371074676514 21.391900062561035 18.691304683685303 21.723515510559082 19.874273300170898 C 22.018446922302246 21.155596733093262 22.825989246368408 21.998940467834473 22.243669509887695 22.656048774719238 L 15.524838924407959 22.702471733093262 C 16.151537418365479 20.541495323181152 16.050533294677734 20.811013698577881 15.776069641113281 17.914456844329834 C 15.761315345764160 16.360808372497559 15.519654750823975 14.433742046356201 15.429345130920410 12.343311309814453 C 14.669563293457031 14.172715187072754 13.353791713714600 16.213166713714600 13.420044422149658 17.892704486846924 C 12.617278575897217 19.659904003143311 12.308468341827393 23.650573253631592 10.284868955612183 22.381895542144775 L 6.406929731369019 12.540598869323730 C 5.679268598556519 11.048717737197876 5.642969727516174 16.300144672393799 5.357443571090698 17.177297115325928 C 5.369769573211670 22.547209739685059 6.344633817672729 20.541104793548584 6.702356100082397 22.630990505218506 L 0.168123465031385 22.852159023284912 C 2.392088949680328 20.260698795318604 1.960005283355713 19.838175773620605 2.627769291400909 15.501996517181396 C 2.996832847595215 12.976736068725586 3.758795142173767 8.965744972229004 3.575917840003967 8.078194141387939 C 3.262655496597290 5.344942331314087 2.582951009273529 6.672562122344971 2.309470653533936 5.008553266525269 " stroke-width="1.0" fill="rgb(0, 0, 0)" opacity="1.0"></path></svg>