
<svg xmlns="http://www.w3.org/2000/svg" xmlns:xlink="http://www.w3.org/1999/xlink" width="50px" height="50px" style="-ms-transform: rotate(360deg); -webkit-transform: rotate(360deg); transform: rotate(360deg);" preserveAspectRatio="xMidYMid meet" viewBox="0 0 24 24"><path d="M 3.416181206703186 5.190044045448303 L 9.222310781478882 5.230941653251648 C 9.857335567474365 6.556438207626343 11.917467355728149 9.392592430114746 15.787619590759277 14.736230850219727 C 16.426105499267578 14.091380596160889 16.685850620269775 5.955738544464111 13.444769382476807 5.554620623588562 C 16.770957469940186 4.532006263732910 17.040830612182617 6.067915678024292 15.991847991943359 5.209444999694824 L 20.198092460632324 5.066120624542236 C 20.958809852600098 5.151257872581482 20.331839561462402 6.352022409439087 19.402529239654541 7.058103561401367 C 18.974189758300781 10.181755542755127 18.807925701141357 13.235688686370850 18.933729171752930 17.552604675292969 C 18.898262500762939 18.494214534759521 18.966363430023193 19.945933341979980 19.304974079132080 21.826151847839355 C 19.119130611419678 23.264039039611816 20.884059906005859 22.615994453430176 15.468485355377197 22.680253028869629 C 13.071415901184082 19.978942394256592 12.559777736663818 18.218383312225342 7.958579778671265 13.098446846008301 C 7.616342067718506 15.272242069244385 8.019105434417725 19.646241188049316 8.101422786712646 19.429766178131104 C 8.661852121353149 21.034668445587158 9.357022762298584 21.613354682922363 9.665129184722900 22.646058082580566 L 2.888772189617157 22.755520820617676 C 4.309384346008301 20.923582077026367 4.701480388641357 21.084450244903564 4.740467548370361 17.274772167205811 C 4.776622295379639 13.127696514129639 5.395789146423340 9.391963005065918 4.677180290222168 7.828805208206177 C 3.507091641426086 5.748729944229126 3.176848411560059 5.542928338050842 3.416181206703186 5.190044045448303 " stroke-width="1.0" fill="rgb(0, 0, 0)" opacity="1.0"></path></svg>