
<svg xmlns="http://www.w3.org/2000/svg" xmlns:xlink="http://www.w3.org/1999/xlink" width="50px" height="50px" style="-ms-transform: rotate(360deg); -webkit-transform: rotate(360deg); transform: rotate(360deg);" preserveAspectRatio="xMidYMid meet" viewBox="0 0 24 24"><path d="M 11.983117818832397 4.928108811378479 C 13.836401939392090 4.918073773384094 16.419127464294434 5.822993159294128 17.433812141418457 7.018032789230347 C 19.128696441650391 8.918186187744141 20.051045894622803 10.653978824615479 20.036411762237549 13.438716888427734 C 20.137979507446289 15.699182510375977 19.632518291473389 18.526525497436523 18.080755233764648 20.231605052947998 C 16.057808876037598 22.254328250885010 14.625221729278564 22.908250808715820 11.393019676208496 22.972449302673340 C 8.485979318618774 22.782633304595947 6.153090476989746 21.313596725463867 4.984370112419128 19.141396522521973 C 3.681750655174255 16.894025802612305 3.623251676559448 14.150799751281738 3.714707136154175 15.050755977630615 C 3.517211437225342 13.097268104553223 4.117142558097839 10.232073783874512 5.521143436431885 8.246752738952637 C 6.920655727386475 6.008796930313110 10.056894779205322 4.908741831779480 11.983117818832397 4.928108811378479 M 10.849526882171631 8.217677593231201 C 10.538298368453979 8.180206060409546 9.970461845397949 9.640964984893799 9.707410097122192 11.121457815170288 C 9.644991152045037 11.837531592628888 9.576901089365576 12.464399407354804 9.518727158495999 12.718843285944228 C 9.532235438377914 13.673961385883700 9.518655085512490 14.627592355711252 9.730938434600830 15.696149826049805 C 9.968335390090942 16.594831466674805 10.729236602783203 18.303515911102295 11.237453699111938 19.046487808227539 C 12.385189533233643 20.009794235229492 13.569867610931396 18.580759048461914 13.851586818695068 17.392936706542969 C 14.237686157226562 16.454681396484375 14.257194042205811 14.184834480285645 14.275049686431885 13.481142997741699 C 14.194939613342285 12.191601276397705 13.870398044586182 11.078048229217529 13.303034305572510 9.962979555130005 C 12.813404560089111 8.761282682418823 11.840566635131836 8.002865552902222 10.849526882171631 8.217677593231201 " stroke-width="1.0" fill="rgb(0, 0, 0)" opacity="1.0"></path></svg>