
<svg xmlns="http://www.w3.org/2000/svg" xmlns:xlink="http://www.w3.org/1999/xlink" width="50px" height="50px" style="-ms-transform: rotate(360deg); -webkit-transform: rotate(360deg); transform: rotate(360deg);" preserveAspectRatio="xMidYMid meet" viewBox="0 0 24 24"><path d="M 5.111728191375732 5.302359580993652 L 13.804696083068848 5.320546746253967 C 16.343706607818604 5.415604233741760 16.925113677978516 5.763587236404419 17.889676094055176 6.449403762817383 C 18.892530441284180 7.110449552536011 19.528445720672607 8.341466903686523 19.749557018280029 9.934322834014893 C 19.692496776580811 11.899794816970825 19.392765998840332 13.244709491729736 18.192978858947754 14.404518127441406 C 17.024062156677246 15.537106990814209 15.513878345489502 16.238283634185791 14.021681785583496 16.088925361633301 C 11.752777576446533 16.384079933166504 12.003911018371582 15.656062602996826 11.495711803436279 16.011916637420654 C 11.246851613369495 16.984973384182680 11.295452263899069 17.730891160958912 11.426684450028787 20.397976232409029 C 11.714133570449434 20.764968006482711 12.139589784825727 21.517618987852231 12.592250347137451 22.650250911712646 L 5.015461921691895 22.761501789093018 C 4.830782532691956 22.238782882690430 5.660180211067200 21.501670360565186 5.931665897369385 20.643244743347168 C 6.538691282272339 16.540620803833008 6.488769292831421 11.423870801925659 6.416489839553833 9.790135860443115 C 6.218174457550049 8.468372583389282 6.771794557571411 7.375059843063354 5.111728191375732 5.302359580993652 M 11.488951921463013 8.557004213333130 C 11.383226238107488 9.153667331836186 11.534269807531009 9.692463513698531 11.410505723199700 9.956240090178451 C 11.405685949555787 10.199546972061604 11.398545539606104 10.470985741692274 11.388742446899414 10.772794246673584 C 11.379831790924072 11.313031196594238 11.312111377716064 11.770947217941284 11.367414951324463 13.877122879028320 C 11.061902046203613 14.381485462188721 12.895132541656494 14.023075103759766 13.711910247802734 13.577589511871338 C 14.376026630401611 12.695716381072998 14.657721519470215 11.942303180694580 14.640861511230469 11.384390115737915 C 14.647144317626953 9.143973112106323 14.022203922271729 8.589591979980469 12.928629398345947 8.056696414947510 C 11.676052093505859 7.773161888122559 11.785472631454468 7.470741033554077 11.488951921463013 8.557004213333130 " stroke-width="1.0" fill="rgb(0, 0, 0)" opacity="1.0"></path></svg>