
<svg xmlns="http://www.w3.org/2000/svg" xmlns:xlink="http://www.w3.org/1999/xlink" width="50px" height="50px" style="-ms-transform: rotate(360deg); -webkit-transform: rotate(360deg); transform: rotate(360deg);" preserveAspectRatio="xMidYMid meet" viewBox="0 0 24 24"><path d="M 3.925399303436279 5.268770813941956 L 13.017352581024170 5.331678628921509 C 15.243740558624268 5.531791090965271 15.995708942413330 5.909746527671814 16.742860794067383 6.413541555404663 C 17.754750251770020 7.328497409820557 18.095724105834961 8.352325916290283 18.196412086486816 9.317019224166870 C 18.197678089141846 10.104586601257324 18.115809917449951 12.205590248107910 17.070403575897217 13.184070110321045 C 16.606030941009521 13.998840808868408 15.178111553192139 14.681076049804688 15.435267448425293 14.697388172149658 C 15.606957435607910 15.455685138702393 15.811966896057129 15.496557712554932 16.561429023742676 16.656648159027100 C 17.227606773376465 17.848747730255127 17.747267246246338 18.738527297973633 18.283331394195557 19.462529182434082 C 19.389925003051758 21.623248100280762 20.759171962738037 21.346146583557129 20.981680870056152 22.676485061645508 L 15.169794559478760 22.629082202911377 C 12.364162445068359 21.224610328674316 12.829442024230957 18.786834239959717 10.343313932418823 14.859334945678711 C 10.262197504573829 15.008403142618139 10.184029827265631 15.150777612475769 10.108681554167104 15.286669654085598 C 9.880945787507370 18.556040077695680 9.620862460967077 19.555949341996293 11.421579122543335 22.652187824249268 L 3.343337175783925 22.741092331841692 C 4.131598576739182 22.491488360848280 4.939465766395090 21.258616637057326 5.002282977104187 19.531159400939941 C 5.235202074050903 15.853822231292725 5.269851207733154 8.953813076019287 4.956959366798401 7.200307130813599 C 4.215543091612390 5.612423382555879 3.984330808362153 5.308263108995742 3.641365749275070 5.687561528420179 L 3.925399303436279 5.268770813941956 M 10.113868474960327 7.422375440597534 C 9.872500419616699 9.252431631088257 9.965630292892456 9.707059621810913 9.895171880722046 10.738235235214233 C 9.918830340801357 11.006065077035130 9.905478694261831 11.239068573827010 9.862919147955953 11.459451139955796 C 9.871933751198901 11.469165917433800 9.880902721428466 11.478898965832348 9.889817476272583 11.488610029220581 C 9.835275736985153 12.229949706756255 9.898554887282824 12.753743252927784 9.915618134328245 12.981141904069437 C 10.272508769224908 13.111840325863684 10.635445190961914 12.960323385690824 11.687965393066406 12.642014980316162 C 12.053435325622559 12.511935710906982 12.817020893096924 11.435424327850342 12.675833702087402 11.360938310623169 C 12.710085868835449 10.043175458908081 12.657606124877930 9.909571409225464 12.148040771484375 8.814662218093872 C 11.761415004730225 8.364389419555664 10.741758584976196 7.541436195373535 10.113868474960327 7.422375440597534 " stroke-width="1.0" fill="rgb(0, 0, 0)" opacity="1.0"></path></svg>