
<svg xmlns="http://www.w3.org/2000/svg" xmlns:xlink="http://www.w3.org/1999/xlink" width="50px" height="50px" style="-ms-transform: rotate(360deg); -webkit-transform: rotate(360deg); transform: rotate(360deg);" preserveAspectRatio="xMidYMid meet" viewBox="0 0 24 24"><path d="M 12.444215297698975 5.017485022544861 C 14.527420520782471 5.112699151039124 14.486107349395752 5.681171536445618 16.577992916107178 5.561720967292786 C 17.033120155334473 5.508912563323975 17.327044486999512 6.932441711425781 16.814051628112793 11.200024366378784 C 15.028002634829340 8.529314914815339 14.131232002143497 7.762598526238892 11.716230042778879 7.628580097982419 C 12.581404197312978 7.679395050617593 11.471502311081666 7.811045255546247 11.193311691284180 8.099327087402344 C 10.784063100814819 8.405307054519653 10.905590772628784 8.430221557617188 10.766394853591919 8.839980125427246 C 10.738584280014038 9.822901010513306 10.982688903808594 10.360091686248779 12.488262176513672 11.272389650344849 C 12.641389846801758 11.490687131881714 14.020783424377441 11.948040962219238 14.196667671203613 12.144089698791504 C 14.186917351834403 12.143746510124148 14.177259714856849 12.143407020101181 14.167693976386076 12.143071159240174 C 15.010007621992756 12.406491822332482 15.518559530467481 12.832478704551137 15.591599464416504 12.821375370025635 C 16.182177543640137 13.239224910736084 17.557228088378906 14.585919857025146 18.161849498748779 16.131548881530762 C 18.554673671722412 17.580134868621826 18.318304538726807 18.524498462677002 17.872313976287842 19.563729286193848 C 17.004811763763428 20.904190063476562 15.935234069824219 22.116695880889893 14.844058513641357 22.531465530395508 C 13.450476179753917 23.032676981031678 12.051696170230619 23.139973644382973 10.816341247809595 22.903441099372948 C 11.507633403239808 23.057947217061340 9.834341850420421 22.740679341656556 8.398055076599121 22.476440906524658 C 7.566116168866616 22.323746891988193 6.959844263660425 22.126958077824312 6.630190287487675 22.001244208898079 L 6.140531301498413 16.736506462097168 C 7.456562519073486 19.082633972167969 8.961207389831543 18.676139831542969 10.749305963516235 19.786753177642822 C 11.322830798622316 19.909670065378307 11.843021216483852 19.907244460137079 12.045752980762579 19.917345395049630 C 12.377392962958007 19.707601356592622 12.774719232354105 19.328865792544953 12.756651878356934 19.284441947937012 C 12.961880207061768 18.730276107788086 13.136378288269043 18.467518329620361 12.287007808685303 17.298299789428711 C 11.818556785583496 17.038840770721436 11.022133111953735 16.574004650115967 10.387615442276001 16.253444194793701 C 9.578586816787720 15.837986469268799 8.626405477523804 15.234558105468750 8.080485820770264 14.586765289306641 C 7.242673873901367 13.897790908813477 6.775892972946167 12.967184543609619 6.478319406509399 11.593168258666992 C 6.311213493347168 9.232112646102905 6.637162685394287 8.003362655639648 7.446808576583862 7.133372068405151 C 8.438506364822388 6.033306598663330 10.446244239807129 5.028640866279602 12.444215297698975 5.017485022544861 " stroke-width="1.0" fill="rgb(0, 0, 0)" opacity="1.0"></path></svg>