
<svg xmlns="http://www.w3.org/2000/svg" xmlns:xlink="http://www.w3.org/1999/xlink" width="50px" height="50px" style="-ms-transform: rotate(360deg); -webkit-transform: rotate(360deg); transform: rotate(360deg);" preserveAspectRatio="xMidYMid meet" viewBox="0 0 24 24"><path d="M 4.863555192947388 5.325685501098633 L 19.372195086750644 5.292708515480478 C 19.314381806418105 5.829249401540218 19.213487743715731 7.673245640375809 19.286918163299561 10.973243951797485 C 18.160144329071045 11.076583385467529 17.951793193817139 8.750560283660889 16.303635120391846 8.607702970504761 C 15.587890454527638 8.204921431961663 14.768103887045616 8.080132071265410 14.330291094130903 7.999600198181065 C 14.192067337270704 9.039448847648826 13.776643752861620 11.346123521643911 14.038660526275635 17.623187541961670 C 14.381803035736084 20.989913463592529 14.792046546936035 20.629012584686279 15.624152183532715 22.689644336700439 L 7.527958631515503 22.685329914093018 C 7.615989446640015 21.383545875549316 8.922361850738525 21.818439960479736 9.096544504165649 19.734387874603271 C 9.593818902969360 16.947880268096924 9.449018239974976 11.840714693069458 9.548533201217651 7.683982372283936 C 9.410077433454294 8.339155646152451 8.494217561043502 8.362996300387593 8.193483231284782 8.345406744068445 C 7.600790504696575 8.607157337630857 6.175703271795136 9.088527698253964 6.119675159454346 9.232503890991211 C 5.639860085317158 9.652110054304442 4.936775950803024 10.208067437193037 5.058052542676594 10.171138383610614 L 3.621449589729309 10.929840803146362 C 4.024733304977417 10.238855838775635 4.274478077888489 8.420448303222656 4.568456768989563 6.857954978942871 C 4.707594394683838 6.144942283630371 4.727302193641663 5.742051959037781 4.863555192947388 5.325685501098633 " stroke-width="1.0" fill="rgb(0, 0, 0)" opacity="1.0"></path></svg>