
<svg xmlns="http://www.w3.org/2000/svg" xmlns:xlink="http://www.w3.org/1999/xlink" width="50px" height="50px" style="-ms-transform: rotate(360deg); -webkit-transform: rotate(360deg); transform: rotate(360deg);" preserveAspectRatio="xMidYMid meet" viewBox="0 0 24 24"><path d="M 3.785548567771912 5.191436648368835 L 11.068924427032471 5.236908674240112 C 11.803142309188843 5.404660463333130 10.603539705276489 6.133990287780762 10.488580942153931 7.981093883514404 C 10.253686666488647 9.326977729797363 10.258900880813599 11.249140977859497 10.282240390777588 13.556891441345215 C 10.451932668685913 15.022872447967529 10.219801425933838 16.130647659301758 10.948004007339478 17.416863441467285 C 11.392677783966064 18.299098491668701 12.035199165344238 18.881671428680420 13.085145950317383 18.941326618194580 C 14.840415000915527 18.532258987426758 15.439587593078613 17.812060832977295 15.363867759704590 16.414258003234863 C 15.418700695037842 15.424571514129639 15.499161243438721 14.379289627075195 15.489535331726074 12.815540313720703 C 15.540932214718206 11.329941323552209 15.320896124453512 9.223115640080906 15.332005470236318 9.633969443221718 C 15.100346947459210 6.094312370215721 14.894343006763499 7.942646455042794 13.477980136871338 5.384820342063904 L 20.279665946960449 5.253498673439026 C 20.434767723083496 5.018325805664062 19.816134452819824 6.514972686767578 19.086620807647705 6.941955327987671 C 18.751286029815674 8.193820953369141 18.596996784210205 10.983035802841187 18.653961181640625 14.053532123565674 C 18.874990940093994 19.540012836456299 18.700398445129395 18.692454814910889 17.908942222595215 20.392601966857910 C 18.143593594417627 20.205008754598786 18.347391371210129 20.042890900445165 18.521641814082940 19.904874704404861 L 15.430123329162598 22.420065879821777 C 9.725656270980835 23.465146064758301 7.716012239456177 22.642476081848145 5.920928120613098 20.429494857788086 C 4.689744472503662 18.324819087982178 5.392280101776123 15.980918884277344 5.140893101692200 12.323362827301025 C 5.258392810821533 9.731049299240112 5.190843343734741 7.376676321029663 4.578886985778809 6.614022016525269 C 4.190580169746180 6.322747307095124 3.952330570060456 5.753491495563469 3.779303437315324 5.167467571986057 L 3.785548567771912 5.191436648368835 " stroke-width="1.0" fill="rgb(0, 0, 0)" opacity="1.0"></path></svg>