
<svg xmlns="http://www.w3.org/2000/svg" xmlns:xlink="http://www.w3.org/1999/xlink" width="50px" height="50px" style="-ms-transform: rotate(360deg); -webkit-transform: rotate(360deg); transform: rotate(360deg);" preserveAspectRatio="xMidYMid meet" viewBox="0 0 24 24"><path d="M 14.172712326049805 5.142604708671570 C 13.654320716857910 5.279084086418152 16.546198368072510 5.784244179725647 21.139949798583984 5.277793765068054 C 19.439329147338867 7.022388696670532 18.589797019958496 8.277958631515503 17.700535297393799 10.719573497772217 C 16.086258888244629 14.222858905792236 15.482777595520020 16.901656150817871 14.351071357727051 19.310977935791016 C 12.970647811889648 22.207627773284912 13.991861343383789 23.226227760314941 10.282334804534912 22.698134422302246 C 9.328403234481812 20.139338493347168 8.452546119689941 17.417783260345459 7.214479923248291 14.380313873291016 C 6.017231941223145 11.800609588623047 4.957740068435669 8.434607505798340 4.031586170196533 6.923526763916016 C 2.896379113197327 5.697069525718689 2.567831575870514 5.013293623924255 2.916812002658844 5.072071909904480 L 10.142948627471924 5.103304624557495 C 10.110595370097974 5.835132099230056 10.036929530885070 6.419785508528883 9.943905765591959 6.854747127443400 C 10.164478671332716 7.767812608691939 10.277475664547726 8.735734525038756 10.605368614196777 9.576303720474243 C 11.407987411166822 12.362318523724696 12.837636973293852 14.495854880098445 12.782372264499980 14.820175897791010 C 12.890852464055374 14.965962496223428 13.003227622447451 15.118115747511112 13.119452476501465 15.276708126068115 C 14.846580505371094 11.259316921234131 14.542845726013184 9.095896482467651 15.337178707122803 7.262436389923096 C 14.252378060123199 5.737605435337579 14.405592612570333 5.303249136720214 14.062867941135679 5.112656251194794 L 14.172712326049805 5.142604708671570 " stroke-width="1.0" fill="rgb(0, 0, 0)" opacity="1.0"></path></svg>