
<svg xmlns="http://www.w3.org/2000/svg" xmlns:xlink="http://www.w3.org/1999/xlink" width="50px" height="50px" style="-ms-transform: rotate(360deg); -webkit-transform: rotate(360deg); transform: rotate(360deg);" preserveAspectRatio="xMidYMid meet" viewBox="0 0 24 24"><path d="M 14.627675056457520 5.301679015159607 C 13.407265663146973 7.438358545303345 19.944083690643311 8.225247859954834 18.707775592803955 6.517290830612183 C 18.491842471418643 5.889445545184177 18.616371066981252 5.646133679620673 18.749632296667894 5.571480596211986 C 19.284234591042107 5.457390160263689 20.063954198167497 5.553330700668301 23.921094417572021 5.612966179847717 C 24.662198066711426 6.722044229507446 22.917450428009033 7.803093194961548 22.315140724182129 10.161297082901001 C 21.747436523437500 11.524880647659302 20.554789066314697 13.870237827301025 19.613033294677734 16.838710784912109 C 16.800670623779297 22.473200798034668 18.247089385986328 23.072520732879639 14.549340248107910 22.612913131713867 C 12.942933082580566 18.425538539886475 12.696513175964355 16.360417842864990 11.620339393615723 14.118659019470215 C 11.440617084503174 15.232605457305908 10.332886934280396 18.431663990020752 9.446619987487793 20.781947135925293 C 8.502558231353760 22.515918731689453 9.980322360992432 22.785591602325439 5.773817181587219 22.737112998962402 C 4.492097854614258 19.519230365753174 3.605770468711853 17.114524841308594 3.157426714897156 15.604811668395996 C 2.668946385383606 14.315925121307373 2.309812366962433 12.813199996948242 1.418036788702011 10.500733852386475 C 0.561745539307594 8.192375421524048 -1.296535491943359 7.496626853942871 -3.589237689971924 5.095382094383240 C 0.250183666635463 5.150077991043203 0.881720313693749 5.145790603849554 3.303244581881583 5.069744588345981 C 3.187889121549185 5.075032417569242 3.061476672325998 5.082339702910327 2.924224913120270 5.092174172401428 L 6.505584955215454 5.099150061607361 C 6.785791397094727 4.984270691871643 6.235098838806152 5.095078825950623 5.762154936790466 6.093561172485352 C 6.097425699234009 6.914348602294922 6.184460878372192 8.263235092163086 6.735159158706665 9.585464000701904 C 7.046315431594849 10.766103744506836 7.341790437698364 12.207673072814941 7.642859458923340 12.926811218261719 C 7.861380815505981 14.031237602233887 8.423875808715820 15.025892257690430 8.675733804702759 15.617195606231689 C 9.676147699356079 13.999380111694336 9.708972215652466 12.877834796905518 9.975174665451050 11.996931552886963 C 10.172769069671631 11.008471012115479 10.538701772689819 10.464706420898438 10.275674343109131 8.873027086257935 C 10.064766168594360 7.072611093521118 9.983110427856445 8.579353094100952 10.099865913391113 5.553642868995667 C 10.545617042598639 5.006386708054809 10.647467390101381 5.184700050493909 14.228641831418084 5.146616738321892 L 14.627675056457520 5.301679015159607 M 18.644046306610107 7.334479808807373 C 14.673169612884521 7.919262170791626 14.300731658935547 5.226840376853943 14.603476524353027 6.752933263778687 C 15.088554382324219 10.150960922241211 15.185369968414307 9.724372386932373 16.119345188140869 12.210884571075439 C 16.334416866302490 12.547422409057617 16.621471881866455 13.311465740203857 16.859082698822021 14.045791625976562 C 17.292735099792480 15.183324337005615 17.431486129760742 14.242285251617432 17.541120529174805 16.580047130584717 C 17.609677791595459 14.588938236236572 18.149894714355469 14.338575839996338 18.125109672546387 13.335757255554199 C 18.351472926826787 12.543727831721526 18.515927743476766 11.820541612703192 18.805498480189829 11.104382071438032 C 18.853908196709540 10.826575635279543 18.944986712924418 10.469436307281457 19.099093437194824 10.055029392242432 C 20.290037155151367 7.885574340820312 18.850446224212646 6.363336324691772 18.644046306610107 7.334479808807373 " stroke-width="1.0" fill="rgb(0, 0, 0)" opacity="1.0"></path></svg>