
<svg xmlns="http://www.w3.org/2000/svg" xmlns:xlink="http://www.w3.org/1999/xlink" width="50px" height="50px" style="-ms-transform: rotate(360deg); -webkit-transform: rotate(360deg); transform: rotate(360deg);" preserveAspectRatio="xMidYMid meet" viewBox="0 0 24 24"><path d="M 2.940985321998596 5.076494693756104 L 10.300637976667430 5.027934054922966 C 10.267958044502468 5.034600217271283 10.244959725229227 5.044006853044501 10.233783245086670 5.057003617286682 C 10.415107011795044 6.492889165878296 11.030566692352295 7.335222959518433 11.467086553573608 8.357593059539795 C 12.120612144470215 9.153148412704468 12.407339572906494 9.963370800018311 12.861844539642334 10.131696939468384 C 13.351661682128906 9.403231143951416 13.968977451324463 8.150801181793213 14.503243446350098 7.447968006134033 C 14.949924945831299 6.202430963516235 13.008708000183105 5.353118062019348 14.429376125335693 5.071927428245544 C 13.307019710540771 4.438735842704773 13.322649478912354 5.364618301391602 20.394704818725586 5.357477903366089 C 19.338212013244629 6.289830207824707 18.308142185211182 7.080574035644531 17.400323867797852 8.437934160232544 C 16.164427757263184 9.880366802215576 15.036024570465088 11.499331712722778 14.069532394409180 12.841690063476562 C 14.585055828094482 13.987936019897461 15.493517875671387 15.062490463256836 16.164884090423584 16.281058788299561 C 17.303765773773193 17.799695491790771 18.066836357116699 19.372803211212158 19.056272506713867 20.446373462677002 C 19.962839126586914 21.271658420562744 20.859201908111572 22.241889953613281 20.651889324188232 22.650293827056885 L 13.019085101304537 22.700176465107653 C 13.050821378432584 22.466249070245510 12.569404479155004 20.727903360599313 12.096249263730783 19.794870685041928 C 12.042615973115534 19.624582157747870 11.777537986876650 19.026543216818077 11.379135847091675 18.317021369934082 C 11.227309216948647 17.796967999717523 10.930436771653103 17.293955095382412 10.767826386889189 16.976655065580623 C 10.108458614088404 17.549089758867471 9.627341300984643 18.526625350846132 9.335531473159790 19.284540653228760 C 9.071122964824870 19.709290895620594 8.940643512912157 20.318853531114705 8.809059597715077 20.966009079937137 C 8.868588198354223 21.337014542104392 8.906688260603021 21.908519118700795 8.881574392318726 22.656822681427002 L 2.901981711387634 22.713646888732910 C 2.389639914035797 22.749255180358887 3.072811603546143 21.759919166564941 4.693860054016113 20.469453334808350 C 5.657320618629456 19.180632591247559 6.611150264739990 17.976415157318115 9.310989618301392 14.365525245666504 C 9.018502235412598 11.431923151016235 7.251925706863403 13.752194881439209 8.662945032119751 12.681046485900879 C 6.466644287109375 8.872655868530273 5.256995916366577 6.868901968002319 2.774018347263336 5.428753137588501 C 2.876476849855187 5.202757488057879 2.873866380792251 4.961051705208888 2.813628928702976 4.687211508206972 L 2.940985321998596 5.076494693756104 " stroke-width="1.0" fill="rgb(0, 0, 0)" opacity="1.0"></path></svg>