
<svg xmlns="http://www.w3.org/2000/svg" xmlns:xlink="http://www.w3.org/1999/xlink" width="50px" height="50px" style="-ms-transform: rotate(360deg); -webkit-transform: rotate(360deg); transform: rotate(360deg);" preserveAspectRatio="xMidYMid meet" viewBox="0 0 24 24"><path d="M 6.714498281478882 5.242146849632263 L 10.567932434014510 5.108437135334356 C 10.462848466367451 5.140550976362988 10.405225780689927 5.285601828329955 10.358890771865845 5.796726822853088 C 10.323383331298828 6.880097150802612 10.822273492813110 7.997398138046265 10.933299064636230 8.458105802536011 C 11.120257616043091 8.590527534484863 11.356764078140259 9.612248897552490 12.944036006927490 11.991488456726074 C 13.892715454101562 10.764744043350220 14.267995834350586 9.031756639480591 14.509474754333496 8.919347047805786 C 15.125138096291968 6.967134124878158 15.186491957304614 7.434458094998294 14.853647997271771 6.466672560976388 C 14.778681857358322 6.407259023369511 14.489928645917047 6.015915251069321 14.328281879425049 5.382246851921082 L 20.374839305877686 5.395681858062744 C 19.753704071044922 6.055666208267212 19.072434425354004 6.606905937194824 17.864729404449463 8.654966354370117 C 16.825425624847412 10.236751556396484 15.925138950347900 11.926192045211792 14.237315654754639 15.093977451324463 C 14.002850490740837 17.455777208925085 14.325581682470551 20.158415800138869 14.354379849099756 19.641449105524242 C 14.380001480362825 20.891373471442371 15.012927864685009 20.863342261197392 15.383731842041016 22.682457447052002 L 7.224786758422852 22.708509922027588 C 7.502925395965576 21.820873260498047 8.468772411346436 21.328764438629150 8.902755260467529 20.003624439239502 C 9.125143289566040 18.947464942932129 9.632683038711548 16.278711318969727 9.207381248474121 15.430485248565674 C 7.161251306533813 11.989033699035645 5.557616472244263 8.063653707504272 3.818654537200928 6.451559543609619 C 2.401479363441467 5.519764780998230 2.445871353149414 5.154393196105957 2.823919057846069 5.116699576377869 L 6.714498281478882 5.242146849632263 " stroke-width="1.0" fill="rgb(0, 0, 0)" opacity="1.0"></path></svg>