
<svg xmlns="http://www.w3.org/2000/svg" xmlns:xlink="http://www.w3.org/1999/xlink" width="50px" height="50px" style="-ms-transform: rotate(360deg); -webkit-transform: rotate(360deg); transform: rotate(360deg);" preserveAspectRatio="xMidYMid meet" viewBox="0 0 24 24"><path d="M 9.233267784118652 5.349250674247742 L 19.135758876800537 5.413877248764038 L 14.610174179077148 11.875197172164917 C 9.753638505935669 11.456740379333496 8.241935491561890 15.623581409454346 9.017069578170776 14.591540336608887 C 9.531110286712646 13.286932468414307 9.896916389465332 12.656732082366943 10.293420553207397 12.090956211090088 C 10.733824968338013 11.463342189788818 11.259390592575073 10.893698930740356 11.587753057479858 10.217463254928589 C 11.821610927581787 9.620895624160767 12.433402061462402 8.706624984741211 12.755553245544434 8.712281942367554 C 11.738701343536377 7.465965986251831 12.136128902435303 7.480826854705811 18.623223781585693 5.882577180862427 C 18.802391052246094 4.869173884391785 19.515649795532227 5.231516361236572 17.719810009002686 7.982026576995850 C 16.114994114567722 11.504216448546980 15.206850681958617 11.937493596628606 12.262931241794197 19.254746282723392 C 12.533266356772453 19.266777914395398 15.420114265585054 19.994089655303238 16.970450423304648 18.105172102380461 C 16.395807568388619 18.949256769405295 16.105605346094755 19.094831502590857 18.290934562683105 17.421562671661377 C 19.949126243591309 16.281357765197754 18.312036037445068 19.930731296539307 18.282138347625732 22.695997238159180 L 4.492602825164795 22.674003124237061 C 6.071186542510986 19.370698928833008 9.097030162811279 14.716844558715820 12.404349803924561 8.177815675735474 C 9.959720849990845 8.479414701461792 7.380413532257080 8.982265949249268 7.243833303451538 9.276077270507812 C 6.560897111892700 9.371631860733032 6.036464452743530 10.397935867309570 5.206128716468811 10.777367591857910 C 5.064497351646423 10.729827404022217 5.510142445564270 9.824136972427368 6.125079631805420 5.206406593322754 C 6.381108808397835 5.108219568548282 6.453667480324732 5.069554986779854 6.404022087281593 5.049708724469644 L 9.233267784118652 5.349250674247742 " stroke-width="1.0" fill="rgb(0, 0, 0)" opacity="1.0"></path></svg>