
<svg xmlns="http://www.w3.org/2000/svg" xmlns:xlink="http://www.w3.org/1999/xlink" width="50px" height="50px" style="-ms-transform: rotate(360deg); -webkit-transform: rotate(360deg); transform: rotate(360deg);" preserveAspectRatio="xMidYMid meet" viewBox="0 0 24 24"><path d="M 10.517982244491577 10.027277469635010 C 13.405335903167725 9.795844316482544 13.824791908264160 10.078067779541016 14.230785369873047 10.302377700805664 C 15.254086017608643 10.565475225448608 15.646492481231689 11.055361747741699 16.020873069763184 11.580903768539429 C 16.388364315032959 12.165050983428955 16.549778938293457 12.525494098663330 16.717706680297852 13.561589241027832 C 16.927565574645996 13.871438026428223 16.795630931854248 15.780687332153320 16.902555942535400 16.919229984283447 C 16.896031379699707 17.599880218505859 16.983917713165283 18.576895236968994 17.200879096984863 20.013583660125732 C 17.295759201049805 21.038649559020996 18.789374828338623 21.670247554779053 17.561555385589600 22.600142955780029 L 13.290912151336670 22.722151279449463 C 12.885183861346341 22.341607415727452 12.654605627693098 21.826291277935077 12.531029020634595 21.403446955851827 C 12.371824136333791 21.878673404392170 11.807357012583486 22.323489989558936 11.659109830856323 22.247580528259277 C 11.444689750671387 22.479599475860596 10.184377670288086 22.989665508270264 8.822580099105835 22.922149658203125 C 8.262913227081299 22.683742046356201 6.974611759185791 22.410781860351562 6.384620904922485 21.505991935729980 C 5.540431022644043 20.205172061920166 5.839440822601318 19.842912197113037 5.858165144920349 18.457252979278564 C 5.940590143203735 18.304464340209961 6.227231740951538 16.891867160797119 7.013975143432617 16.452847480773926 C 7.685826301574707 15.580688953399658 9.347153663635254 15.304191112518311 10.958011150360107 15.165302753448486 C 12.620784759521484 14.466648101806641 12.359629154205322 14.792547225952148 11.621968030929565 12.867166042327881 C 11.623192724354967 12.865240912776629 11.624423325717730 12.863316098863400 11.625659789533499 12.861391964603072 C 11.524878529539423 12.763388114274482 11.412453400233279 12.655864684411924 11.286821365356445 12.543408393859863 C 11.112119554790933 12.434796663309507 10.857134192658362 12.358455656115925 10.728315561479745 12.304550496600260 C 10.300763317906117 12.388728869279710 9.919733550208711 12.517864575812689 9.792991161346436 12.759778976440430 C 9.306626558303833 13.035142421722412 8.623490810394287 14.135619163513184 7.629049301147461 13.874261856079102 L 7.563367366790771 12.026856422424316 C 7.716514348983765 14.143648624420166 7.600054264068604 11.918014526367188 7.757519960403442 10.659499168395996 C 8.781189773698845 10.111842610381599 10.198317632085605 10.229171073713669 9.657929773125987 10.110179963412699 C 9.917948604188728 10.135217368098806 10.219904328504640 10.125528688117441 10.517982244491577 10.027277469635010 M 12.643044948577881 15.720052242279053 C 13.598131656646729 15.741275310516357 12.748602390289307 16.046786785125732 12.500132560729980 16.393519878387451 C 12.171947479248047 16.609281063079834 11.655220985412598 16.364138603210449 10.976446151733398 17.138208389282227 C 10.505538940429688 17.238033771514893 10.791406631469727 17.624490737915039 10.477638244628906 18.327548503875732 C 10.443313121795654 19.240568161010742 10.595146179199219 19.081872940063477 11.014619350433350 19.773731231689453 C 11.270561456680298 20.200193881988525 12.143643379211426 19.745660305023193 12.012515544891357 19.633625507354736 C 12.132767200469971 19.533579826354980 12.256031513214111 19.158023357391357 12.365638732910156 18.298739433288574 C 12.550593852996826 20.432121276855469 12.032524108886719 20.605965614318848 12.643044948577881 15.720052242279053 " stroke-width="1.0" fill="rgb(0, 0, 0)" opacity="1.0"></path></svg>