
<svg xmlns="http://www.w3.org/2000/svg" xmlns:xlink="http://www.w3.org/1999/xlink" width="50px" height="50px" style="-ms-transform: rotate(360deg); -webkit-transform: rotate(360deg); transform: rotate(360deg);" preserveAspectRatio="xMidYMid meet" viewBox="0 0 24 24"><path d="M 10.775128126144409 4.092166185379028 C 11.178774833679199 4.935716629028320 10.460153818130493 7.407287120819092 10.680353879928589 11.442390203475952 C 11.505706071853638 10.953124523162842 12.785020351409912 9.827437162399292 13.905512809753418 10.093566656112671 C 13.944258213043213 9.941906690597534 14.631023883819580 10.123409271240234 15.876236915588379 10.716941356658936 C 17.077889442443848 11.619784355163574 18.148175239562988 12.785771369934082 18.537995338439941 15.394701004028320 C 18.652573585510254 17.984627723693848 18.226205348968506 19.326338768005371 17.043873310089111 20.850040912628174 C 16.001410961151123 22.083829879760742 14.419185161590576 23.020211219787598 12.258728027343750 22.940627574920654 C 11.467319104595436 22.496211561125016 10.686385540620680 22.301592564237346 9.985128930261256 22.207181868499401 C 9.866744573892404 22.284537518937356 9.562982645747587 22.368630114838300 9.119208097457886 22.442071437835693 C 8.164486169815063 22.759999752044678 5.238750457763672 22.761569023132324 5.390794157981873 22.602680683135986 C 5.901991009712219 21.190571308135986 6.529003858566284 20.658541202545166 6.549490928649902 16.565690517425537 C 6.660779714584351 14.144126415252686 6.457760810852051 6.921345949172974 6.269902467727661 6.712906837463379 C 6.153617620468140 5.801200032234192 5.070048451423645 5.108671188354492 5.878759503364563 4.837119340896606 C 9.653366804122925 4.797209143638611 8.060023784637451 4.256474375724792 10.775128126144409 4.092166185379028 M 14.285522460937500 12.960944652557373 C 13.329670429229736 13.976710796356201 13.832010269165039 13.835846900939941 12.268156528472900 12.674885272979736 C 10.329216957092285 13.042539596557617 10.951886415481567 13.486943721771240 10.912703990936279 14.120012283325195 C 11.126907168450778 16.193363485264129 11.199050631445147 17.500766803343861 11.207693607994432 17.610705297472734 C 11.236244288986599 18.993385939832649 11.029752367655833 19.455513471536712 11.794404029846191 19.861455917358398 C 12.677960872650146 19.864365577697754 13.003970146179199 19.392557144165039 13.313562870025635 18.775693416595459 C 13.672837257385254 18.168438434600830 13.914944171905518 17.099834918975830 13.878427505493164 16.659563541412354 C 13.933077335357666 15.025956630706787 13.381400585174561 13.743402957916260 12.946585178375244 13.268827915191650 C 13.959183229671797 12.083099604941248 14.281104057595453 11.505649065351520 14.259781899119806 12.961556356064127 C 14.268289208021789 12.961360241111205 14.276869245261567 12.961156402606587 14.285522460937500 12.960944652557373 " stroke-width="1.0" fill="rgb(0, 0, 0)" opacity="1.0"></path></svg>