
<svg xmlns="http://www.w3.org/2000/svg" xmlns:xlink="http://www.w3.org/1999/xlink" width="50px" height="50px" style="-ms-transform: rotate(360deg); -webkit-transform: rotate(360deg); transform: rotate(360deg);" preserveAspectRatio="xMidYMid meet" viewBox="0 0 24 24"><path d="M 11.093671560287476 10.298257112503052 C 13.781710624694824 9.382462978363037 14.554993629455566 9.822385311126709 15.527933120727539 9.996783256530762 C 17.039922237396240 10.689916849136353 17.158982276916504 10.395886659622192 16.881925106048584 12.570284843444824 C 16.428997993469238 13.480293273925781 16.718012809753418 13.980740547180176 15.709947109222412 14.101919174194336 C 13.860912322998047 12.259992599487305 12.996987819671631 11.147475957870483 12.040875434875488 13.549355506896973 C 12.034331472766182 13.543384760028321 12.027817227682570 13.537426906251699 12.021332819172386 13.531481951972705 C 11.964491993271173 13.769786828624991 11.900772223505564 14.031374200617993 11.824790239334106 14.318325519561768 C 11.813366456984758 14.333011826783611 11.801909219907294 14.347505312277796 11.790423086165100 14.361790337741269 C 11.822250371831435 14.606462736242541 11.814640873144132 14.866799801551949 11.757451772689819 15.150321006774902 C 11.766093492507935 16.680653572082520 12.106441497802734 17.320554256439209 12.240424633026123 17.628792285919189 C 13.028942584991455 19.062227725982666 14.356926441192627 19.274682998657227 15.345169544219971 19.066539287567139 C 16.228761712470764 18.700605540652461 16.534069948189568 18.655043172657535 16.920932303261882 18.207239796437804 L 16.711780071258545 18.497517585754395 C 17.918779850006104 17.708055496215820 17.021837711334229 19.603593349456787 16.577462196350098 21.669589519500732 C 15.242501735687256 22.500387668609619 13.665244102478027 23.151699542999268 11.507278919219971 22.745145320892334 C 9.586287975311279 22.239140510559082 7.438146114349365 20.605779647827148 7.018577814102173 18.422364234924316 C 6.793250167005418 17.499529340264878 6.792559953866668 16.625347529467987 6.798152438368183 16.333194795629005 C 7.057025746058406 14.658504596520352 7.512324181649352 13.109542846233065 8.662308454513550 12.118934154510498 C 9.817259851135072 10.642890835979241 11.140601429809758 10.443524545873641 11.033651194247700 10.269699974718165 L 11.093671560287476 10.298257112503052 " stroke-width="1.0" fill="rgb(0, 0, 0)" opacity="1.0"></path></svg>