
<svg xmlns="http://www.w3.org/2000/svg" xmlns:xlink="http://www.w3.org/1999/xlink" width="50px" height="50px" style="-ms-transform: rotate(360deg); -webkit-transform: rotate(360deg); transform: rotate(360deg);" preserveAspectRatio="xMidYMid meet" viewBox="0 0 24 24"><path d="M 12.618560314178467 5.602577090263367 L 17.665467739105225 4.771737813949585 C 17.510071277618408 5.830443263053894 17.422584056854248 8.404464483261108 17.379282474517822 10.599905490875244 C 17.371931076049805 13.089759349822998 17.342097759246826 15.228076457977295 17.361730098724365 14.215538978576660 C 17.447217464447021 15.907007217407227 17.369771003723145 17.895419597625732 17.508271694183350 19.076685905456543 C 17.643537998199463 21.040081501007080 17.582317829132080 20.408609390258789 18.690952777862549 22.668331146240234 L 10.877301367703900 22.624360217837868 C 10.883951092095316 22.645236975636887 10.890588363462051 22.666063441488962 10.897225141525269 22.686830520629883 C 8.468539237976074 23.310823917388916 7.460522174835205 22.211774826049805 6.625696420669556 21.552366256713867 C 5.513678669929504 20.102395534515381 5.397487163543701 19.487495899200439 5.215789675712585 17.593162536621094 C 5.118632041402589 16.018384989550139 5.590611488226286 14.925761446807693 5.428693960860790 15.210410969755598 C 5.499601382477953 14.934144835515447 5.630761167685606 14.468988068920641 5.846501111984253 13.817122936248779 C 6.312904357910156 12.277074337005615 7.647605895996094 11.129150390625000 8.873229503631592 10.607034444808960 C 9.440217018127441 10.229327201843262 10.704661130905151 10.191626787185669 9.853144168853760 10.195311784744263 C 11.293690681457520 10.098095655441284 10.648263216018677 9.905764818191528 12.940445423126221 10.713725566864014 C 13.374924659729004 10.022300004959106 13.170279979705811 6.982334375381470 12.472313404083252 7.090542554855347 C 11.421895265579224 5.632833480834961 12.998432636260986 5.357350587844849 12.618560314178467 5.602577090263367 M 10.739970445632935 13.111121177673340 C 10.467711210250854 13.402958393096924 10.291083812713623 14.108516693115234 10.199373722076416 15.093489646911621 C 10.196770332969709 15.148594697631992 10.190748667012802 15.201082552202029 10.181605753625222 15.251426272621028 C 10.188570983286308 15.259176520183129 10.195519154614466 15.266932488103382 10.202448606491089 15.274683952331543 C 10.172656059265137 16.432325363159180 10.222413539886475 16.851684093475342 10.311015844345093 17.180136680603027 C 10.568594455718994 19.131082534790039 11.263656377792358 20.071294784545898 12.485218048095703 19.606013774871826 C 12.597980976104736 18.924533843994141 12.857025146484375 17.302901744842529 12.871868133544922 13.439808368682861 C 12.486913204193115 11.993921756744385 10.555759191513062 12.630143165588379 10.739970445632935 13.111121177673340 " stroke-width="1.0" fill="rgb(0, 0, 0)" opacity="1.0"></path></svg>