
<svg xmlns="http://www.w3.org/2000/svg" xmlns:xlink="http://www.w3.org/1999/xlink" width="50px" height="50px" style="-ms-transform: rotate(360deg); -webkit-transform: rotate(360deg); transform: rotate(360deg);" preserveAspectRatio="xMidYMid meet" viewBox="0 0 24 24"><path d="M 11.708702802658081 10.052870035171509 C 13.187603473663330 9.748682498931885 14.430117130279541 10.366036891937256 15.196503639221191 11.051992177963257 C 15.953812122344971 11.422174930572510 18.018279075622559 12.918146610260010 17.609478950500488 16.149026870727539 C 17.338263946683366 16.631061568450111 18.793965288387255 15.819363708084200 11.513386757322493 16.704290721701060 C 11.537866960852480 16.740296614788885 11.562554210413680 16.777372589945866 11.587422609329224 16.815495014190674 C 10.464420318603516 16.587500095367432 11.034384012222290 18.405395507812500 13.008632183074951 19.347345829010010 C 14.539678573608398 19.774332046508789 15.944329261779785 19.682513236999512 16.940677642822266 18.830007076263428 C 16.954056884244530 18.760570533839839 16.961883180644445 18.651749175067657 16.966222630433570 18.499762772773071 L 16.963110923767090 19.686123847961426 C 16.506743431091309 22.458951473236084 15.692215919494629 22.359118938446045 15.177673816680908 22.585093975067139 C 13.949541091918945 22.754450798034668 12.772709369659424 23.209105968475342 10.313256740570068 22.560197353363037 C 9.004472494125366 21.912561893463135 6.955134630203247 20.887581825256348 6.558311462402344 18.978857517242432 C 6.063127766969217 17.598735853689146 6.336854501607283 15.879662652459023 6.381605464193399 15.328778485328240 C 6.417393121915375 15.648385093843318 6.606683585075451 13.574902632658626 7.710887432098389 12.399506092071533 C 9.324914932250977 10.545424461364746 11.227606773376465 10.196034908294678 11.708702802658081 10.052870035171509 M 9.983931541442871 11.639675617218018 C 12.092369556427002 11.638753652572632 11.344744205474854 11.987304925918579 10.812408685684204 13.723497390747070 C 10.633436466678489 14.314022530775308 10.603754868314098 14.780064185172012 10.534656198670886 15.114139750500783 L 12.046829223632812 14.780273437500000 C 14.792176723480225 14.930989265441895 12.675903797149658 11.401089906692505 11.471292972564697 12.271974563598633 C 11.011348485946655 12.872262954711914 10.316762924194336 12.071406841278076 9.983931541442871 11.639675617218018 " stroke-width="1.0" fill="rgb(0, 0, 0)" opacity="1.0"></path></svg>