
<svg xmlns="http://www.w3.org/2000/svg" xmlns:xlink="http://www.w3.org/1999/xlink" width="50px" height="50px" style="-ms-transform: rotate(360deg); -webkit-transform: rotate(360deg); transform: rotate(360deg);" preserveAspectRatio="xMidYMid meet" viewBox="0 0 24 24"><path d="M 14.489443302154541 4.736379504203796 C 12.722725868225098 4.641546249389648 14.910192489624023 4.599072575569153 15.936089515686035 4.904062271118164 C 16.942892074584961 5.215654134750366 16.936124324798584 5.622653245925903 16.959411621093750 6.040703058242798 C 16.883281230926514 6.816103935241699 16.582581996917725 8.498589992523193 15.897744655609131 8.615768909454346 C 14.348105907440186 8.625612258911133 14.473145484924316 7.515185594558716 13.593164920806885 7.315070629119873 C 13.412779874860806 7.498823696773328 13.255212413958890 7.634230993521525 13.117220366694889 7.728653061572248 C 13.045990767842998 7.976662572819841 12.955404629660979 8.231827126516016 12.842621326446533 8.481077671051025 C 12.836336243512843 8.499439457926782 12.830017671215995 8.517524040946999 12.823673965814507 8.535306999318411 C 12.893340422238213 9.153872334319129 12.839202975172789 9.920913502393383 12.930449008941650 10.599946260452271 C 13.072212696075439 10.711496829986572 15.128724575042725 10.592319488525391 15.604207992553711 10.726522207260132 L 15.449372291564941 11.566236734390259 C 15.371628284454346 11.717424631118774 15.505951881408691 13.135977745056152 15.129788875579834 12.988670825958252 C 12.404311180114746 12.909167289733887 13.287062644958496 12.490269184112549 13.017374038696289 13.633362293243408 C 12.854880809783936 17.989922046661377 12.772948265075684 19.629547119140625 13.055136680603027 20.152740955352783 C 13.146430492401123 21.150956153869629 13.638936996459961 21.662053585052490 13.777909755706787 22.676892757415771 L 7.216611385345459 22.705010890960693 C 8.564436435699463 20.869935035705566 8.324008226394653 20.966644763946533 8.685975551605225 17.487775325775146 C 8.650939464569092 12.441902160644531 9.174254894256592 12.465594291687012 7.671169996261597 12.412144660949707 C 7.034844875335693 9.399538278579712 9.047869920730591 12.660010814666748 8.939025163650513 8.874754428863525 C 9.551130515619860 7.568930334751924 9.919342093706309 6.886018704561370 10.013919023542918 6.682350932216038 C 11.127332638814313 5.505174874586107 12.613002445811633 4.502556599434463 14.489443302154541 4.736379504203796 " stroke-width="1.0" fill="rgb(0, 0, 0)" opacity="1.0"></path></svg>