
<svg xmlns="http://www.w3.org/2000/svg" xmlns:xlink="http://www.w3.org/1999/xlink" width="50px" height="50px" style="-ms-transform: rotate(360deg); -webkit-transform: rotate(360deg); transform: rotate(360deg);" preserveAspectRatio="xMidYMid meet" viewBox="0 0 24 24"><path d="M 11.085117816925049 5.043304324150085 C 11.784900426864624 4.584276795387268 12.801655769348145 4.560533165931702 12.973301410675049 4.897269487380981 C 13.476101875305176 4.927818059921265 14.184845924377441 5.721323847770691 14.258563041687012 6.698299884796143 C 14.273596286773682 7.136455535888672 14.016719341278076 8.008613348007202 13.724116802215576 8.287451505661011 C 13.062184810638428 8.934818029403687 12.747927188873291 8.836086273193359 11.918540239334106 9.079266071319580 C 10.666368484497070 8.841353416442871 9.961626291275024 8.491489648818970 9.607345819473267 7.344768047332764 C 9.397265799835198 6.813732809823262 9.601306790590410 6.190558352642441 9.656659106088199 6.014099008817401 C 9.449340058913799 6.746578424937590 9.638025056347500 6.003275143667760 10.218259334564209 5.541140198707581 C 10.730301618576050 5.110829830169678 11.766867399215698 4.822404384613037 11.085117816925049 5.043304324150085 M 14.188761234283447 10.144109487533569 C 14.036826610565186 11.277779102325439 14.210410594940186 12.717339992523193 14.087216377258301 14.249510765075684 C 14.188256263732910 13.133385658264160 14.031921386718750 15.809533596038818 14.142738819122314 18.558427333831787 C 14.434458732604980 20.859558105468750 14.192544937133789 20.227452278137207 15.271768569946289 22.689698696136475 L 8.726373910903931 22.684772014617920 C 9.118555784225464 21.345871925354004 9.788149595260620 21.582042217254639 9.732278823852539 18.712018489837646 C 10.141746282577515 12.733071327209473 9.831202268600464 12.766449451446533 9.327190160751343 11.664954900741577 C 9.048068761825562 10.690057039260864 8.707423925399780 10.727106571197510 10.657542228698730 10.801159143447876 L 14.188761234283447 10.144109487533569 " stroke-width="1.0" fill="rgb(0, 0, 0)" opacity="1.0"></path></svg>