
<svg xmlns="http://www.w3.org/2000/svg" xmlns:xlink="http://www.w3.org/1999/xlink" width="50px" height="50px" style="-ms-transform: rotate(360deg); -webkit-transform: rotate(360deg); transform: rotate(360deg);" preserveAspectRatio="xMidYMid meet" viewBox="0 0 24 24"><path d="M 11.413041114807129 4.978850841522217 C 12.263251304626465 4.762134790420532 12.624043464660645 4.662333369255066 13.398084640502930 5.194139957427979 C 13.815390586853027 5.526938796043396 13.992932796478271 5.985329389572144 14.005311012268066 5.872865796089172 C 14.249552249908447 6.535239458084106 14.313652038574219 7.127359628677368 13.870259284973145 7.973301887512207 C 13.486611843109131 8.474412918090820 12.655933856964111 8.708523273468018 12.021728038787842 8.972738027572632 C 11.117829322814941 9.054585456848145 10.259394407272339 8.456677436828613 9.940333127975464 8.077694177627563 C 9.291360855102539 6.896793365478516 9.473447799682617 6.816231250762939 9.887313365936279 5.962937235832214 C 9.761328935623169 6.362907886505127 10.106170177459717 5.533264517784119 10.556324243545532 5.406348824501038 C 11.254280090332031 5.025114655494690 12.235440731048584 4.701864123344421 11.413041114807129 4.978850841522217 M 14.058892250061035 10.144934177398682 C 13.968515396118164 11.071008682250977 13.815118789672852 11.908018827438354 13.801395893096924 21.774101257324219 C 13.663135528564453 24.172988891601562 13.332633018493652 24.919798851013184 11.770057439804077 24.443198204040527 C 12.460621833801270 27.760951995849609 11.727939605712891 28.584051132202148 10.863744735717773 29.259707450866699 C 9.957253217697144 29.968431472778320 8.587774515151978 30.490748405456543 7.220248460769653 30.497580528259277 C 5.871999621391296 30.504318237304688 5.302619218826294 30.413698196411133 4.884614467620850 29.923398971557617 C 4.523815870285034 29.500199317932129 4.353982329368591 28.875434875488281 4.359160423278809 28.012661933898926 C 4.363610386848450 27.271162033081055 4.511279225349426 26.539343833923340 4.879799008369446 25.951429367065430 C 5.289851903915405 25.297253608703613 5.769926905632019 24.932187080383301 6.256454229354858 24.873290061950684 C 6.598691940307617 24.831862449645996 7.126678705215454 25.056026458740234 7.525559663772583 25.367534637451172 C 7.915992736816406 25.672448158264160 8.126348018646240 26.121047973632812 8.207819938659668 26.591285705566406 C 8.277419328689575 26.992993354797363 8.312993288040161 27.433582305908203 8.397065162658691 27.855099678039551 C 8.470645666122437 28.224017143249512 8.671818494796753 28.555157661437988 8.865620613098145 28.594522476196289 C 9.129341840744019 28.648092269897461 9.236419916152954 28.462615013122559 9.506215095520020 27.268389701843262 C 9.673988342285156 26.525751113891602 9.699961423873901 25.622162818908691 9.386320352554321 24.532782554626465 L 10.039523363113403 16.050038337707520 C 10.039098501205444 12.760694503784180 10.072322130203247 12.841587066650391 9.100264549255371 11.182686567306519 C 9.149515628814697 10.549891948699951 10.029798746109009 10.998561859130859 14.058892250061035 10.144934177398682 " stroke-width="1.0" fill="rgb(0, 0, 0)" opacity="1.0"></path></svg>