
<svg xmlns="http://www.w3.org/2000/svg" xmlns:xlink="http://www.w3.org/1999/xlink" width="50px" height="50px" style="-ms-transform: rotate(360deg); -webkit-transform: rotate(360deg); transform: rotate(360deg);" preserveAspectRatio="xMidYMid meet" viewBox="0 0 24 24"><path d="M 10.666532993316650 4.138260483741760 C 10.577615261077881 5.650440931320190 10.344578504562378 6.328756570816040 10.329000949859619 15.136572360992432 C 11.485749006271362 13.997667789459229 13.282373428344727 12.208511352539062 13.190882205963135 10.495393753051758 C 14.358222872490185 10.177946481050878 14.780128384548119 10.532576382496858 14.887366701128178 10.359785305137649 C 14.995453926797673 10.438855833660849 15.798771185351548 10.433214601197973 18.079825401306152 10.268846511840820 C 16.280260562896729 12.723528385162354 14.800904273986816 13.131385803222656 13.821720600128174 14.816531181335449 C 15.078673839569092 16.269943714141846 16.088373184204102 17.700146198272705 17.025619983673096 19.210412979125977 C 17.796948909759521 20.709656238555908 18.553874015808105 20.892547130584717 19.921947956085205 22.648116588592529 L 13.999637940807146 22.707401369559996 C 14.157124334259557 22.629405919910038 13.649311488178366 22.291350012152996 12.737504482269287 21.068356990814209 C 12.018155759668804 19.183064894781701 11.303533615350071 18.245818039993864 10.659810205197791 17.698191414060958 C 10.633186457408783 17.859091931269578 10.587976282142519 18.026318573881987 10.526940107345581 18.195364952087402 C 10.379956833291120 18.872099406453057 10.506897560140565 20.110121129248995 10.490307800038025 20.376826458487333 C 10.660477524245053 20.778307233816399 10.963288184358534 21.409944593760351 11.568552017211914 22.678225994110107 L 4.449115633964539 22.679215908050537 C 5.586890816688538 21.313503742218018 6.008138179779053 20.390188694000244 5.973074197769165 16.954745292663574 C 6.292010307312012 13.381705284118652 6.354010105133057 7.903651714324951 5.883814930915833 6.462099552154541 C 5.263384112358159 5.158022804290322 5.435588940578657 4.949917878642124 5.338675855993710 4.915328859931169 C 6.521620688675532 4.968185501808769 8.267495534476595 4.739399430291491 10.666532993316650 4.138260483741760 " stroke-width="1.0" fill="rgb(0, 0, 0)" opacity="1.0"></path></svg>