
<svg xmlns="http://www.w3.org/2000/svg" xmlns:xlink="http://www.w3.org/1999/xlink" width="50px" height="50px" style="-ms-transform: rotate(360deg); -webkit-transform: rotate(360deg); transform: rotate(360deg);" preserveAspectRatio="xMidYMid meet" viewBox="0 0 24 24"><path d="M 7.152096748352051 9.978436231613159 L 7.165077924728394 10.838225126266479 C 7.228609800338745 12.441254138946533 6.382994413375854 12.212679862976074 9.339626312255859 10.108619213104248 C 9.779337644577026 10.181825637817383 10.886853218078613 9.587243556976318 11.942846775054932 10.112362861633301 C 12.878479957580566 10.795721769332886 13.445055484771729 11.057142734527588 13.854692459106445 11.980954170227051 C 15.855703353881836 10.813638925552368 15.474114418029785 10.378260612487793 18.019083023071289 10.133284091949463 C 19.765429973602295 10.347685575485229 19.673598289489746 10.283064365386963 20.682054519653320 11.082497835159302 C 21.500734806060791 11.955398082733154 21.422457218170166 12.571894168853760 21.652177333831787 13.939653396606445 C 21.572402000427246 17.014689445495605 21.453424930572510 16.696824073791504 21.801175117492676 20.298880577087402 C 22.105743885040283 22.036933422088623 22.971303462982178 22.500922679901123 21.791566371917725 22.657829761505127 L 16.756563663482666 22.698788166046143 C 15.658318519592285 22.171528816223145 16.631556987762451 22.523460388183594 16.751509666442871 19.658351898193359 C 16.908931732177734 18.768558025360107 16.872922897338867 14.451561927795410 16.819963932037354 14.679511070251465 C 16.954639434814453 14.072715282440186 16.585441589355469 12.866967201232910 15.724907398223877 12.862359523773193 C 14.849717617034912 12.828739643096924 14.377035140991211 13.216977596282959 14.166253566741943 13.889687061309814 C 14.107586860656738 14.430118560791016 13.993440628051758 15.342772006988525 14.049742698669434 18.500318527221680 C 14.120417118072510 19.883747577667236 13.794312000274658 20.696834564208984 14.391981124877930 21.558646202087402 C 14.918231964111328 22.628402709960938 14.698093414306641 22.667302608489990 14.384323596954346 22.687625885009766 L 9.467223644256592 22.686836242675781 C 9.363244056701660 21.944217681884766 9.727921485900879 21.057645320892334 9.782421112060547 19.059106349945068 C 10.023988008499146 14.234903812408447 10.216848850250244 13.440759658813477 8.718456745147705 12.911396026611328 C 7.996593475341797 12.939868927001953 7.264690876007080 13.598087310791016 7.380584478378296 13.775110244750977 C 7.204413414001465 14.986342906951904 7.177770137786865 16.704922199249268 7.147799491882324 18.645266532897949 C 7.161323547363281 20.378452777862549 7.084933519363403 20.885383129119873 7.457912921905518 22.210003852844238 C 7.417850017547607 22.858892440795898 7.431503534317017 23.050337791442871 7.412446260452271 22.676113128662109 L 1.228457897901535 22.714633941650391 C 1.664858758449554 21.421385765075684 2.186794817447662 21.629811286926270 2.238745629787445 17.836139202117920 C 2.335910081863403 16.212759017944336 2.477956473827362 14.719476699829102 2.410600304603577 12.438733577728271 C 2.226351141929626 10.771851539611816 1.247919470071793 11.853969097137451 1.473427802324295 10.362889766693115 C 4.799887776374817 10.275302410125732 5.151819348335266 9.942953109741211 7.152096748352051 9.978436231613159 " stroke-width="1.0" fill="rgb(0, 0, 0)" opacity="1.0"></path></svg>