
<svg xmlns="http://www.w3.org/2000/svg" xmlns:xlink="http://www.w3.org/1999/xlink" width="50px" height="50px" style="-ms-transform: rotate(360deg); -webkit-transform: rotate(360deg); transform: rotate(360deg);" preserveAspectRatio="xMidYMid meet" viewBox="0 0 24 24"><path d="M 10.077195167541504 9.932758569717407 C 10.279963016510010 10.081896543502808 10.208762884140015 9.614863157272339 10.444689989089966 11.637562751770020 C 11.513197660446167 10.670822381973267 12.984662532806396 9.966136693954468 14.125685691833496 9.912381649017334 C 15.346002101898193 9.818062305450439 16.917672157287598 10.072207689285278 17.676123619079590 12.052544116973877 C 18.002685070037842 13.403843879699707 17.832839012145996 15.507768630981445 17.768484592437744 18.267249584197998 C 17.857412338256836 19.114573001861572 17.726057052612305 21.296397686004639 18.588827133178711 21.919528484344482 C 18.897750300364212 22.524824665621168 18.770279122371679 22.700876719658382 18.745951508343776 22.743789804422832 C 18.647004662663129 22.638015445325902 17.232505772976612 22.729064034171159 13.248802185058594 22.666385650634766 C 12.720999240875244 22.663764953613281 12.836637496948242 20.220062255859375 13.353062152862549 17.623095989227295 C 13.407156944274902 15.051704406738281 13.542899608612061 13.017532825469971 12.374718189239502 12.658006668090820 C 10.811637639999390 13.099788665771484 10.775200366973877 13.551023483276367 10.618595123291016 14.392217159271240 C 10.562513351440430 16.244882583618164 10.686910629272461 16.829259395599365 10.610841035842896 17.983506202697754 C 10.630670070648193 18.957003593444824 10.604041814804077 20.379777431488037 11.159522294998169 21.171302318572998 C 11.391058444976807 21.605971813201904 11.528874635696411 22.187802314758301 11.615045785903931 22.687202453613281 L 4.917489051818848 22.686670303344727 C 5.190898418426514 21.345203876495361 5.973532676696777 22.181256294250488 6.159634351730347 19.133397102355957 C 6.248466253280640 17.489705085754395 6.324647426605225 14.190065860748291 6.216053724288940 12.836089611053467 C 6.082280158996582 10.831583261489868 4.571726202964783 11.181068658828735 4.880340099334717 10.401176691055298 C 7.250933647155762 10.282373428344727 8.394273519515991 9.969284534454346 10.077195167541504 9.932758569717407 " stroke-width="1.0" fill="rgb(0, 0, 0)" opacity="1.0"></path></svg>