
<svg xmlns="http://www.w3.org/2000/svg" xmlns:xlink="http://www.w3.org/1999/xlink" width="50px" height="50px" style="-ms-transform: rotate(360deg); -webkit-transform: rotate(360deg); transform: rotate(360deg);" preserveAspectRatio="xMidYMid meet" viewBox="0 0 24 24"><path d="M 11.325015306472778 9.761014223098755 C 13.465716361999512 9.674676418304443 14.643483638763428 10.188191413879395 15.702933311462402 11.030650377273560 C 16.940082550048828 12.068930625915527 18.152526855468750 13.045839786529541 18.414845466613770 15.752271652221680 C 18.411263465881348 18.022895336151123 17.854386806488037 19.339848518371582 16.605581760406494 20.838051795959473 C 15.427529811859131 22.207596302032471 13.899415969848633 22.791320800781250 11.634917736053467 22.864800453186035 C 8.869515895843506 22.603451728820801 7.454828023910522 21.547890186309814 6.384627342224121 19.769555568695068 C 5.454690814018250 17.993655681610107 5.717914223670959 16.388195514678955 5.666478753089905 16.533312320709229 C 5.726847767829895 14.974432468414307 6.386208772659302 12.804170608520508 7.486716985702515 11.659264326095581 C 8.799622535705566 10.135078668594360 10.728225946426392 9.729482889175415 11.325015306472778 9.761014223098755 M 11.128231287002563 11.703847646713257 C 11.087589740753174 11.675916910171509 10.768008470535278 12.527885913848877 10.624702692031860 13.287242889404297 C 10.564931917309018 13.604069445082956 10.550195176844280 13.959406350706441 10.551560566059258 14.150201780196658 C 10.492734481636736 15.396787044542380 10.522520532716058 16.543790473869517 10.627468585968018 17.146463871002197 C 10.943294048309326 18.129581451416016 10.862577438354492 19.407181262969971 11.797237873077393 19.985385417938232 C 12.099165916442871 20.032698154449463 12.820956230163574 19.319930076599121 13.091454505920410 18.749263286590576 C 13.342110157012939 18.001998424530029 13.585156917572021 16.959042549133301 13.542752265930176 15.884907245635986 C 13.408370018005371 13.972342014312744 13.146875381469727 12.827277660369873 12.822007656097412 12.537052631378174 C 12.408930301666260 11.755769491195679 11.900390625000000 11.641382217407227 11.128231287002563 11.703847646713257 " stroke-width="1.0" fill="rgb(0, 0, 0)" opacity="1.0"></path></svg>