
<svg xmlns="http://www.w3.org/2000/svg" xmlns:xlink="http://www.w3.org/1999/xlink" width="50px" height="50px" style="-ms-transform: rotate(360deg); -webkit-transform: rotate(360deg); transform: rotate(360deg);" preserveAspectRatio="xMidYMid meet" viewBox="0 0 24 24"><path d="M 10.492846012115479 10.049083471298218 L 10.910709857940674 11.302810907363892 C 11.843648672103882 10.617622375488281 13.096685886383057 9.848893404006958 13.816150188446045 10.082241296768188 C 14.287736892700195 9.873511075973511 15.835975170135498 10.500346899032593 16.647099494934082 11.291317462921143 C 17.684822559356689 12.413193225860596 18.218118667602539 13.301914215087891 18.348712921142578 15.416645050048828 C 18.297649383544922 17.198045253753662 17.908513069152832 19.022755622863770 16.983917713165283 20.365186214447021 C 16.079124927520752 21.861611366271973 14.846341609954834 22.730851650238037 13.136123657226562 22.739868164062500 C 11.457806825637817 22.047948360443115 10.634355068206787 22.044742584228516 10.918393135070801 22.069993972778320 L 10.779293775558472 24.956451416015625 C 10.163520097732544 25.045635223388672 10.298804998397827 25.826528549194336 10.599353313446045 26.297186851501465 L 4.690913915634155 26.296305656433105 C 5.180675625801086 25.787286758422852 5.276734471321106 25.163841247558594 6.187723875045776 24.583674430847168 L 6.660552978515625 15.283091068267822 C 6.787769079208374 10.705020189285278 5.737367749214172 11.979241847991943 5.558285951614380 10.119937419891357 C 5.971347212791443 10.429065942764282 9.054604768753052 9.963073968887329 10.492846012115479 10.049083471298218 M 11.805526971817017 12.807011604309082 C 11.110417842864990 13.130859375000000 11.023702383041382 13.171451568603516 11.143519163131714 14.191075801849365 C 11.234807968139648 14.897995948791504 11.248211145401001 15.737959384918213 11.388365507125854 17.146415233612061 L 11.274786472320557 15.686197757720947 C 11.528468370437622 17.130882740020752 11.303581953048706 18.190890312194824 11.443675518035889 18.852888107299805 C 11.492524238896127 19.137120662847728 11.629077280252769 19.386246451600599 11.591659453349145 19.527621701684204 C 11.863081175377545 19.547035538004529 12.126473662282748 19.538896093536856 12.463655948638916 19.324489116668701 C 13.152086734771729 18.981479644775391 13.826366901397705 18.032036304473877 13.765460014343262 16.611322402954102 C 13.848920345306396 15.010631561279297 13.475363731384277 14.401808738708496 13.188516139984131 13.543337345123291 C 12.588174819946289 12.874845027923584 12.560570240020752 12.708744049072266 11.805526971817017 12.807011604309082 " stroke-width="1.0" fill="rgb(0, 0, 0)" opacity="1.0"></path></svg>