
<svg xmlns="http://www.w3.org/2000/svg" xmlns:xlink="http://www.w3.org/1999/xlink" width="50px" height="50px" style="-ms-transform: rotate(360deg); -webkit-transform: rotate(360deg); transform: rotate(360deg);" preserveAspectRatio="xMidYMid meet" viewBox="0 0 24 24"><path d="M 11.616659402847290 9.870898246765137 C 12.279034137725830 9.953848600387573 12.778494358062744 10.421134471893311 14.054753780364990 10.966147899627686 C 15.100215911865234 10.135643005371094 15.189810276031494 10.288688421249390 17.113316059112549 9.940981149673462 L 17.751482963562012 9.929244518280029 C 17.937536716461182 10.167265892028809 17.574807643890381 11.860747575759888 17.544698238372803 14.604351997375488 C 17.495352745056152 16.995164394378662 17.549115657806396 19.408547401428223 17.563447952270508 21.468652725219727 C 17.652367115020752 23.536531448364258 17.549343109130859 24.959209442138672 17.288000106811523 26.058912277221680 C 16.307733535766602 25.556799888610840 16.419455051422119 26.154853820800781 16.586810588836670 27.242640495300293 L 10.534663438796997 25.932495117187500 C 12.172966003417969 24.562093734741211 13.016479969024658 24.694350242614746 12.834806442260742 21.744795799255371 C 11.903135024575906 22.536547962508546 11.299193054895401 22.764109072112625 10.954125664791995 22.718686202244346 C 10.448741571420776 22.927140092959604 9.608677223386838 22.920363025622585 8.564465761184692 22.421482086181641 C 7.203347682952881 21.808294773101807 6.510498762130737 20.992022037506104 5.939849495887756 19.918509006500244 C 5.469227313995361 18.724993228912354 5.235347270965576 17.700066089630127 5.459166169166565 15.967499256134033 C 5.881154894828796 13.662928104400635 6.476426839828491 12.423625946044922 7.354010581970215 11.429497718811035 C 8.544043779373169 10.103845596313477 10.214376926422119 9.688784122467041 11.616659402847290 9.870898246765137 M 11.244044780731201 12.332871437072754 C 12.575151443481445 12.126604557037354 12.054262161254883 12.164746284484863 11.036684989929199 12.429556846618652 C 10.858642101287842 12.559010982513428 10.469000101089478 13.873729705810547 10.302394866943359 15.048578739166260 C 10.146021366119385 16.534302234649658 10.422396183013916 17.466326236724854 10.632825136184692 18.321666240692139 C 10.892050266265869 19.070261478424072 11.328012228012085 19.812036037445068 12.021347522735596 19.881445884704590 C 13.048795223236084 19.896245956420898 12.814122676849365 18.955381393432617 12.766386508941650 17.056953907012939 C 12.739668243119731 16.528609240844965 12.810883402688397 15.933505542092856 12.877744036245218 15.441029182322577 C 12.861530492568802 15.377266673881305 12.923473023749910 14.195891735844377 12.949649333953857 13.168291568756104 C 12.861348152160645 12.544625759124756 12.014667034149170 12.404236793518066 11.244044780731201 12.332871437072754 " stroke-width="1.0" fill="rgb(0, 0, 0)" opacity="1.0"></path></svg>