
<svg xmlns="http://www.w3.org/2000/svg" xmlns:xlink="http://www.w3.org/1999/xlink" width="50px" height="50px" style="-ms-transform: rotate(360deg); -webkit-transform: rotate(360deg); transform: rotate(360deg);" preserveAspectRatio="xMidYMid meet" viewBox="0 0 24 24"><path d="M 10.027301073074341 10.032988786697388 C 12.364235401153564 10.139002561569214 11.942121505737305 9.635679960250854 12.158316135406494 11.876083374023438 C 12.861349794387079 10.769920085947319 14.098306797262934 9.954746827672126 15.246714287135370 9.849352322995962 C 15.366082649194409 9.859042314881634 15.922960676434208 9.900524487757970 16.348724842071533 10.047432661056519 C 16.927399635314941 10.394097805023193 17.105142116546631 11.243434667587280 17.093173027038574 11.532032489776611 C 17.173177242279053 12.069095134735107 16.962953567504883 14.476962089538574 15.801727294921875 14.607484817504883 C 14.637531280517578 14.601337909698486 14.049519538879395 13.455930233001709 13.699576377868652 13.626492977142334 C 13.040566921234131 13.545518875122070 12.477353096008301 13.726860523223877 12.295007228851318 15.734162807464600 C 12.258975505828857 16.647774696350098 12.234329223632812 18.159544944763184 12.267388343811035 19.134575843811035 C 12.339666366577148 21.121496200561523 13.167921066284180 21.314320564270020 13.193392753601074 22.669116497039795 L 6.405382633209229 22.679675102233887 C 8.026622772216797 20.941722393035889 7.704052448272705 20.020291328430176 7.986735105514526 17.277777671813965 C 8.056571245193481 11.977543830871582 8.242302417755127 12.005239963531494 6.722956895828247 10.730872392654419 C 6.742726959296053 10.584824607505070 6.764267631163919 10.453193985703372 6.785584747198580 10.337831278950883 C 7.152204156673379 10.352069303974833 8.213928398360771 10.291112215037895 10.027301073074341 10.032988786697388 " stroke-width="1.0" fill="rgb(0, 0, 0)" opacity="1.0"></path></svg>