
<svg xmlns="http://www.w3.org/2000/svg" xmlns:xlink="http://www.w3.org/1999/xlink" width="50px" height="50px" style="-ms-transform: rotate(360deg); -webkit-transform: rotate(360deg); transform: rotate(360deg);" preserveAspectRatio="xMidYMid meet" viewBox="0 0 24 24"><path d="M 12.634045600891113 6.940413951873779 C 14.119462966918945 6.170263767242432 13.535263538360596 5.494968295097351 13.313424110412598 10.387770652770996 L 16.345929622650146 10.489789724349976 L 15.890314579010010 12.646608352661133 C 15.120156374126267 12.563469082729050 14.029581077858477 12.590068944302796 13.350721652849955 12.621385430954291 C 13.393719291106216 13.595848695639495 13.178929838900853 14.637464502693506 13.229796409606934 15.896917819976807 C 13.180202007293701 17.641177654266357 13.263987064361572 18.723285198211670 13.733908653259277 19.652974605560303 C 14.307794094085693 20.083791732788086 14.095547676086426 20.281331062316895 16.130514621734619 20.027626991271973 C 16.737952709197998 20.451081275939941 15.393396377563477 22.125882625579834 15.016739845275879 22.160174846649170 C 13.983233928680420 22.944864749908447 11.742914199829102 22.897449016571045 11.086508989334106 22.546925067901611 C 8.952146530151367 21.861481189727783 9.107454299926758 20.197773456573486 9.135278463363647 18.560704708099365 C 9.111723661422729 16.518652439117432 9.338749408721924 14.089340686798096 9.245407819747925 13.156270980834961 C 9.173247098922729 11.971112966537476 8.540277242660522 12.458593368530273 7.307800769805908 12.153299331665039 C 6.805070400238037 11.658603429794312 7.341606616973877 10.947164297103882 7.733446598052979 10.660408973693848 L 9.031767368316650 10.245608568191528 C 10.606874942779541 9.406047105789185 11.207674741744995 8.154147863388062 11.594000816345215 7.843856334686279 C 12.221988201141357 7.131058931350708 12.626963138580322 7.058728694915771 12.634045600891113 6.940413951873779 " stroke-width="1.0" fill="rgb(0, 0, 0)" opacity="1.0"></path></svg>