
<svg xmlns="http://www.w3.org/2000/svg" xmlns:xlink="http://www.w3.org/1999/xlink" width="50px" height="50px" style="-ms-transform: rotate(360deg); -webkit-transform: rotate(360deg); transform: rotate(360deg);" preserveAspectRatio="xMidYMid meet" viewBox="0 0 24 24"><path d="M 10.909101963043213 10.024358510971069 C 11.071716070175171 9.581208944320679 10.483000516891479 12.815218448638916 10.803772687911987 17.140013694763184 C 10.801105658046772 17.148802431200789 10.798440340141083 17.157594953352838 10.795777113364988 17.166388468566488 C 10.909136676283929 17.625778211362352 10.882330576182152 17.972506689434127 10.966943979263306 18.326253890991211 C 11.192740201950073 18.999857425689697 11.274235010147095 19.269566059112549 11.866238594055176 19.634734153747559 C 12.410900115966797 19.902441501617432 12.760485649108887 19.432650089263916 12.951441764831543 19.205868244171143 C 12.971880912780762 17.506280422210693 13.940378665924072 13.634166240692139 12.693647861480713 10.397181987762451 C 12.806089087963407 10.316468431587161 12.913676233844734 10.240891162368960 13.011715326062738 10.173062460908989 L 17.863454907797518 9.993683537010169 C 17.826855973038786 10.295976557132960 17.661887396092869 11.810884145800832 17.675149440765381 12.014074802398682 C 17.711570262908936 15.197198867797852 17.586546421051025 17.605882644653320 17.678735733032227 18.839465618133545 C 17.818094730377197 21.643991947174072 18.161265850067139 21.218078613281250 18.721012115478516 22.441639423370361 L 12.179804988407255 22.331772818298660 C 11.244254324850131 22.843355391346147 9.265429232613325 23.172345920966976 8.575226783752441 22.678134441375732 C 7.416905879974365 22.274621486663818 6.830374717712402 21.356253147125244 6.516956090927124 20.532764911651611 C 6.221370935440063 19.376885890960693 6.146772623062134 18.362628936767578 6.315161705017090 16.665950775146484 C 6.361147642135620 15.210760116577148 6.457827329635620 13.729426860809326 6.311318635940552 12.429930210113525 C 6.140126466751099 15.983107566833496 6.248961925506592 14.532714843750000 6.289850950241089 12.212649822235107 C 5.020430593969112 10.627034632815063 5.065700706379297 10.150899373171237 5.320845834658241 10.023879859917026 C 5.497559175056998 10.069899090657735 7.467778182298606 10.067916375144641 10.909101963043213 10.024358510971069 " stroke-width="1.0" fill="rgb(0, 0, 0)" opacity="1.0"></path></svg>