
<svg xmlns="http://www.w3.org/2000/svg" xmlns:xlink="http://www.w3.org/1999/xlink" width="50px" height="50px" style="-ms-transform: rotate(360deg); -webkit-transform: rotate(360deg); transform: rotate(360deg);" preserveAspectRatio="xMidYMid meet" viewBox="0 0 24 24"><path d="M 13.112989425659180 9.986178159713745 C 13.721986770629883 10.097275257110596 17.967287063598633 9.960906744003296 18.618594646453857 10.114000797271729 C 18.459849357604980 11.227142572402954 17.028898715972900 12.556749343872070 16.368252754211426 14.402624130249023 C 15.467575550079346 16.558015823364258 14.869670391082764 18.455550670623779 14.054811000823975 20.086173534393311 C 12.756279945373535 22.156219482421875 13.700447559356689 23.119451522827148 10.783977985382080 22.729813098907471 C 9.874348640441895 21.641881942749023 10.065181732177734 20.227219104766846 6.677119731903076 13.508348464965820 C 6.080538511276245 12.470129013061523 5.411918878555298 11.529284477233887 4.317958474159241 10.108662843704224 C 6.928336166974693 9.938737810130680 8.942973600959412 10.097808785370940 10.462734241900838 10.017661610027286 C 10.672758236113397 10.045878448378186 10.982118146860079 10.095100488678201 11.410256624221802 10.177521944046021 C 10.302688121795654 10.607671022415161 10.992691755294800 12.867553710937500 13.234487056732178 16.354541301727295 C 13.961454391479492 15.276110172271729 14.078061103820801 13.663119792938232 14.540047645568848 12.721857547760010 C 14.957199096679688 10.158929586410522 13.970588207244873 11.544196844100952 13.688581466674805 10.118770837783813 C 13.577532291412354 10.003707647323608 14.810747623443604 10.127161502838135 13.112989425659180 9.986178159713745 " stroke-width="1.0" fill="rgb(0, 0, 0)" opacity="1.0"></path></svg>