
<svg xmlns="http://www.w3.org/2000/svg" xmlns:xlink="http://www.w3.org/1999/xlink" width="50px" height="50px" style="-ms-transform: rotate(360deg); -webkit-transform: rotate(360deg); transform: rotate(360deg);" preserveAspectRatio="xMidYMid meet" viewBox="0 0 24 24"><path d="M 14.249743938446045 9.954505205154419 C 15.082117080688477 9.907025098800659 14.262522697448730 10.879066228866577 16.685876369476318 16.257146358489990 C 18.022762298583984 13.225563526153564 18.551323413848877 11.412577629089355 17.177543163299561 11.151389122009277 C 17.404533014817801 9.278165618559566 18.683701626411317 10.213824054870141 19.904722736305867 9.853771947897433 C 20.146930915100839 9.842605661536297 20.621183903812724 9.833651154449019 21.451177597045898 9.853815078735352 C 22.708283901214600 10.276775836944580 21.764624118804932 11.407659530639648 20.897250652313232 12.636394500732422 C 19.561298847198486 14.728418827056885 19.119506835937500 16.735964298248291 18.325475692749023 18.293837070465088 C 17.454218387603760 19.775962829589844 16.871704101562500 21.325075149536133 16.323610782623291 22.725690364837646 C 14.662229061126709 22.496293544769287 13.928124904632568 23.227290630340576 13.684420108795166 21.817661762237549 C 12.945246219635010 19.414738655090332 12.432888507843018 17.524384975433350 11.708558320999146 16.047718048095703 C 11.314368724822998 16.538331985473633 10.877218723297119 18.327127933502197 9.275359869003296 22.640856742858887 L 6.684399604797363 22.771382331848145 C 4.858232617378235 19.096328258514404 3.911672472953796 14.008260726928711 1.104211270809174 10.105700254440308 C 1.095451980829239 9.988912582397461 3.332955479621887 10.047578573226929 3.524183750152588 10.031487464904785 L 7.310740400970234 10.030496478546043 C 7.516278345815805 10.036734444671513 7.760128641577094 10.044823530233144 8.042752504348755 10.055165290832520 C 6.769929885864258 10.995617866516113 8.174598455429077 13.407727718353271 9.175791978836060 16.429467201232910 C 10.445765018463135 15.348079204559326 10.414743661880493 13.071385860443115 10.887860298156738 10.682026147842407 C 10.702709040644308 10.234236414401595 10.994863687598627 10.056671446970494 11.186999031259591 9.995229025020528 L 14.249743938446045 9.954505205154419 " stroke-width="1.0" fill="rgb(0, 0, 0)" opacity="1.0"></path></svg>