
<svg xmlns="http://www.w3.org/2000/svg" xmlns:xlink="http://www.w3.org/1999/xlink" width="50px" height="50px" style="-ms-transform: rotate(360deg); -webkit-transform: rotate(360deg); transform: rotate(360deg);" preserveAspectRatio="xMidYMid meet" viewBox="0 0 24 24"><path d="M 5.461113452911377 10.058589220046997 L 10.123771905899048 9.972332954406738 C 11.021495103836060 10.165066480636597 11.130770444869995 9.751605749130249 11.086898088455200 10.808345317840576 C 11.489243745803833 10.972615242004395 11.452106237411499 11.382515430450439 12.082541942596436 12.325458526611328 C 12.280657768249512 12.840279579162598 12.900544166564941 13.075724601745605 12.722944736480713 13.427189826965332 C 13.239123344421387 12.625927448272705 13.631976127624512 11.743696689605713 13.816758155822754 11.351793050765991 C 13.985545635223389 10.625768423080444 14.236627578735352 11.035853147506714 13.805020809173584 10.034739017486572 L 18.289133548736572 10.021792173385620 C 18.180872440338135 10.965886831283569 16.838709354400635 11.656025648117065 15.895601749420166 12.920044898986816 C 14.813358306884766 13.859587669372559 13.772263526916504 15.305035114288330 13.802719116210938 15.426391124725342 C 14.639143466949463 16.398819923400879 15.209395408630371 17.461691379547119 16.857995510101318 20.070106029510498 C 17.456974983215332 20.940207481384277 18.302697658538818 21.316480636596680 18.874990940093994 22.659503459930420 L 12.170106846786462 22.701066946287810 C 11.961282663516011 20.888804679015220 11.704918618295524 20.258705512850806 10.631602764129639 18.602315425872803 C 9.994974020902152 19.870705436456731 9.482853294556548 20.312621628527165 9.518883374975010 21.470596530712346 C 9.568038275374207 21.622312042674992 9.618990396937974 22.087215542699205 9.475154399871826 22.658730983734131 L 4.066738486289978 22.700793743133545 C 4.081598281860352 22.049915313720703 5.291921854019165 20.848337173461914 5.970545768737793 20.307935714721680 C 6.691248893737793 19.558600902557373 8.690124034881592 17.487871170043945 9.597450256347656 16.672923088073730 C 8.752703905105591 14.885570526123047 6.546544075012207 11.834277391433716 5.575978517532349 11.068830013275146 C 3.934987306594849 9.659723281860352 4.933682799339294 10.235981225967407 5.461113452911377 10.058589220046997 " stroke-width="1.0" fill="rgb(0, 0, 0)" opacity="1.0"></path></svg>