
<svg xmlns="http://www.w3.org/2000/svg" xmlns:xlink="http://www.w3.org/1999/xlink" width="50px" height="50px" style="-ms-transform: rotate(360deg); -webkit-transform: rotate(360deg); transform: rotate(360deg);" preserveAspectRatio="xMidYMid meet" viewBox="0 0 24 24"><path d="M 13.813522338867188 10.060009717941284 C 13.172854900360107 9.876839876174927 17.875152111053467 9.957660913467407 18.591386318206787 10.076807498931885 C 18.248537063598633 11.420054912567139 16.732727050781250 13.450314044952393 16.468490123748779 14.530802249908447 C 15.752260208129883 16.204823970794678 15.626495361328125 16.587285518646240 13.638745307922363 21.661594390869141 C 12.751815319061279 23.918911457061768 12.287635803222656 24.236446380615234 10.930938720703125 23.960595130920410 C 12.212872982025146 27.008239746093750 10.780102014541626 27.688513755798340 10.156236648559570 28.553463935852051 C 9.414286851882935 29.585549354553223 7.998646974563599 30.535689353942871 6.505253791809082 30.809752464294434 C 5.556658744812012 30.983837127685547 4.423595666885376 31.121435165405273 3.654565930366516 31.048788070678711 C 2.923866569995880 30.979763031005859 2.137610614299774 30.924402236938477 1.824527084827423 27.537657737731934 C 2.613973438739777 27.133827209472656 2.834161341190338 25.758221626281738 4.013458013534546 24.334373474121094 C 4.781230330467224 24.306627273559570 5.784995555877686 25.753689765930176 6.505548477172852 25.518859863281250 C 7.027780294418335 25.352019309997559 7.829222202301025 24.927861213684082 7.975281000137329 24.148418426513672 C 8.768162727355957 23.630717754364014 10.340904951095581 23.292214393615723 10.001492500305176 21.789536476135254 C 9.666709184646606 20.595924854278564 9.345607280731201 20.308721065521240 6.922199964523315 14.188649654388428 C 6.050471305847168 12.817139625549316 5.859967947006226 11.925040483474731 3.813178896903992 10.017726659774780 L 10.522060892034057 9.917733534331372 C 10.445359704542835 9.927390491355352 10.537710992293503 9.957068420736803 10.747286796569824 10.040157079696655 C 10.237693548202515 10.320578098297119 10.700182914733887 12.550226211547852 11.423596858978271 13.708462715148926 C 11.569256544113159 13.921425819396973 11.934845924377441 14.735532760620117 12.363070964813232 15.432413578033447 C 12.567881454842368 15.706961348116506 12.721706931978073 15.912887997926255 12.794738773553357 16.078705490589424 C 13.097511925034956 15.928218514058033 13.378974789228845 15.679363703394852 13.551538467407227 15.161237239837646 C 13.909955978393555 14.035461902618408 14.180694580078125 12.951838016510010 14.440461158752441 12.152103424072266 C 14.726766586303711 11.060938596725464 13.337436676025391 9.982639789581299 13.813522338867188 10.060009717941284 " stroke-width="1.0" fill="rgb(0, 0, 0)" opacity="1.0"></path></svg>