
<svg xmlns="http://www.w3.org/2000/svg" xmlns:xlink="http://www.w3.org/1999/xlink" width="50px" height="50px" style="-ms-transform: rotate(360deg); -webkit-transform: rotate(360deg); transform: rotate(360deg);" preserveAspectRatio="xMidYMid meet" viewBox="0 0 24 24"><path d="M 7.044390678405762 10.043557405471802 L 17.564849853515625 10.283393383026123 L 15.200048446655273 14.524053096771240 C 10.242558002471924 10.136215209960938 8.564229011535645 12.523720264434814 8.898619651794434 15.881621360778809 C 9.291465282440186 17.823446273803711 8.983752250671387 17.379354000091553 8.377079486846924 18.094376564025879 C 11.503858566284180 12.556652069091797 11.280905485153198 11.849107503890991 12.271679878234863 12.229345321655273 C 16.853539466857910 12.757382869720459 15.812317371368408 13.201161861419678 14.894323825836182 15.095941543579102 C 11.780370985281001 20.634197419182190 12.013815523124959 21.063225801691342 17.578854683598767 17.837158786546134 C 17.529232415866531 18.385901005470583 17.364412143380108 19.729014570608612 16.874267578125000 22.692860126495361 L 5.477503895759583 22.673755645751953 L 9.105685472488403 16.947293758392334 C 8.427867484648191 14.310298153789367 9.248851871864767 12.567762873072798 9.949866592178356 12.422402457507003 C 8.575884505694225 12.291946724627088 8.422819908141085 13.221096032381583 6.612140178680420 14.171706676483154 C 6.222883701324463 13.355873107910156 6.827560186386108 12.478318691253662 6.881400346755981 11.490249395370483 C 7.008271179219252 10.419369271245371 7.096182476469092 10.163955799998796 6.954824528979761 9.967373915440907 L 7.044390678405762 10.043557405471802 " stroke-width="1.0" fill="rgb(0, 0, 0)" opacity="1.0"></path></svg>