<svg xmlns="http://www.w3.org/2000/svg" xmlns:xlink="http://www.w3.org/1999/xlink" width="50px" height="50px" viewBox="0 0 24 24">
<style type="text/css">
.path {
		stroke-dasharray: 100;
		animation: dash 30s linear infinite;
}
@keyframes dash {
	to {
		stroke-dashoffset: 1000;
	}
}
</style>
<path class="path" d="M 10.938553333282471 11.529441833496094 C 16.749641418457031 11.036514043807983 18.488124847412109 11.845888137817383 17.834660053253174 14.541556835174561 L 15.856408596038818 22.760560512542725 L 14.640134811401367 22.647112369537354 L 14.855451107025146 20.704025745391846 C 14.565569400787354 22.645168304443359 12.593439102172852 22.816520690917969 10.794497251510620 22.753613948822021 C 7.648688077926636 23.193739414215088 5.957087874412537 21.540235519409180 7.032933712005615 18.599673271179199 C 7.315165758132935 16.168910980224609 11.355909347534180 15.634650707244873 15.180607795715332 15.992468833923340 L 16.038824558258057 15.577687740325928 C 16.606806278228760 12.074585437774658 14.901008605957031 13.046446323394775 14.932262420654297 12.739510059356689 C 11.071235418319702 12.206992149353027 10.928788661956787 13.613602638244629 8.605404853820801 14.385432243347168 L 9.438948869705200 12.554909706115723 L 10.938553333282471 11.529441833496094 M 15.421404361724854 17.271243095397949 L 11.128161191940308 17.385220527648926 C 8.977334260940552 17.562383651733398 8.760897159576416 18.002931118011475 8.610322952270508 19.537035942077637 C 8.644660234451294 21.228282451629639 9.000876903533936 21.509252071380615 11.408638715744019 21.394495010375977 C 13.830192089080811 21.259520530700684 14.684507846832275 20.575638771057129 15.240487575531006 18.163730621337891 L 15.421404361724854 17.271243095397949 " fill="none" stroke="black" stroke-width="0.3">
</path>
</svg>
