<svg xmlns="http://www.w3.org/2000/svg" xmlns:xlink="http://www.w3.org/1999/xlink" width="50px" height="50px" viewBox="0 0 24 24">
<style type="text/css">
.path {
		stroke-dasharray: 100;
		animation: dash 30s linear infinite;
}
@keyframes dash {
	to {
		stroke-dashoffset: 1000;
	}
}
</style>
<path class="path" d="M 13.222512245178223 11.352391719818115 C 16.728494167327881 10.967963933944702 18.235317707061768 12.772873878479004 17.841115951538086 15.263291358947754 L 17.527859687805176 17.391800880432129 L 8.894538402557373 17.592191219329834 C 8.367027282714844 18.687160491943359 8.293136358261108 21.277766704559326 10.495266437530518 21.334984302520752 C 14.987289905548096 21.459061145782471 13.870694160461426 21.121870994567871 15.517134189605713 19.571814537048340 L 16.505217075347900 19.742661952972412 C 15.664466857910156 22.785574436187744 13.463916778564453 22.745847702026367 10.999946594238281 22.773031711578369 C 6.997246742248535 23.031290531158447 5.492026805877686 20.599928855895996 7.938182830810547 15.821950435638428 C 7.893657445907593 13.089910984039307 10.464401721954346 11.064781665802002 13.222512245178223 11.352391719818115 M 13.922937870025635 12.554969787597656 C 10.705550193786621 12.460131168365479 10.378978729248047 13.371328353881836 8.876847982406616 15.987723827362061 L 15.969899654388428 15.976661682128906 C 16.421680927276611 13.479622364044189 15.366976261138916 12.487960338592529 13.922937870025635 12.554969787597656 " fill="none" stroke="black" stroke-width="0.3">
</path>
</svg>
