<svg xmlns="http://www.w3.org/2000/svg" xmlns:xlink="http://www.w3.org/1999/xlink" width="50px" height="50px" viewBox="0 0 24 24">
<style type="text/css">
.path {
		stroke-dasharray: 100;
		animation: dash 30s linear infinite;
}
@keyframes dash {
	to {
		stroke-dashoffset: 1000;
	}
}
</style>
<path class="path" d="M 9.620749711990356 11.417030096054077 C 12.079492092132568 11.028536081314087 13.456621170043945 11.596230268478394 13.805002212524414 12.439375877380371 C 14.703446388244629 12.447948932647705 15.891689300537109 11.509605646133423 17.125305175781250 11.486168146133423 C 20.007598400115967 11.220769643783569 21.762529850006104 11.960864782333374 20.922009944915771 14.775741577148438 L 19.051352977752686 22.703807830810547 L 17.250161647796631 22.662290096282959 L 19.195137977600098 15.050544261932373 C 19.525965213775635 12.420649051666260 18.294520854949951 13.056208133697510 17.080687522888184 12.729919910430908 C 14.420592784881592 13.213761806488037 14.201053619384766 13.852309226989746 13.401994228363037 16.175528526306152 L 11.796787977218628 22.669976234436035 L 10.137264490127563 22.697813987731934 L 11.869543075561523 15.255447864532471 C 12.364328384399414 13.206194400787354 11.939206123352051 12.238463401794434 9.300125598907471 12.570849895477295 C 7.509263277053833 13.464291572570801 6.906386375427246 13.541464805603027 6.386131525039673 15.489694118499756 L 4.515982031822205 22.743051052093506 L 2.772964775562286 22.761473178863525 L 5.482544302940369 11.492813587188721 L 7.172163248062134 11.447817564010620 L 7.116382365707362 12.917650533035392 C 7.239599405987228 11.999092664371883 8.301654658804875 11.447415004554953 9.620749711990356 11.417030096054077 " fill="none" stroke="black" stroke-width="0.3">
</path>
</svg>
