<svg xmlns="http://www.w3.org/2000/svg" xmlns:xlink="http://www.w3.org/1999/xlink" width="50px" height="50px" viewBox="0 0 24 24">
<style type="text/css">
.path {
		stroke-dasharray: 100;
		animation: dash 30s linear infinite;
}
@keyframes dash {
	to {
		stroke-dashoffset: 1000;
	}
}
</style>
<path class="path" d="M 11.959573030471802 11.309962034225464 C 13.140561810241495 10.855581990782152 15.891382269673382 11.634693956423485 15.829776289493719 12.079663349493893 L 16.687070846557617 11.565688848495483 L 18.468003273010254 11.565870523452759 L 14.575807571411133 27.445578575134277 L 13.366948127746582 27.800582885742188 L 14.132165908813477 21.754616260528564 C 13.468764781951904 22.701315879821777 12.192315101623535 22.786611557006836 10.305845975875854 22.824384212493896 C 7.888917446136475 23.152031421661377 5.533759474754333 21.691655158996582 6.961636304855347 17.893959045410156 C 8.113984823226929 13.890794277191162 8.062154531478882 11.575515747070312 11.959573030471802 11.309962034225464 M 13.298491001129150 12.645124912261963 C 9.613364696502686 12.467797279357910 9.501132488250732 14.548065662384033 8.631078243255615 17.792630195617676 C 7.802393674850464 20.181452751159668 8.262515544891357 21.676377296447754 11.168857812881470 21.329011917114258 C 14.110565185546875 21.184784889221191 14.533471584320068 20.610064029693604 15.286328315734863 17.438378334045410 C 16.163251876831055 12.742891788482666 16.171418666839600 13.639700889587402 13.298491001129150 12.645124912261963 " fill="none" stroke="black" stroke-width="0.3">
</path>
</svg>
