<svg xmlns="http://www.w3.org/2000/svg" xmlns:xlink="http://www.w3.org/1999/xlink" width="50px" height="50px" viewBox="0 0 24 24">
<style type="text/css">
.path {
		stroke-dasharray: 100;
		animation: dash 30s linear infinite;
}
@keyframes dash {
	to {
		stroke-dashoffset: 1000;
	}
}
</style>
<path class="path" d="m 10.98046875 6.670572757720947 l 0.0 4.03125 c 0.0 0.609375 -0.01171875 1.0234375 -0.03515625 1.2421875 c 0.5546875 -1.125 1.49609375 -1.6875 2.82421875 -1.6875 c 1.4296875 0.0 2.414441610297361 0.677213777870648 2.96484375 2.02734375 c 0.357089101916899 0.875935365148127 0.5390625 2.31640625 0.5390625 4.32421875 c 0.0 2.28125 -0.28854418928843373 3.888572134240434 -0.8554688096046448 4.828125 c -0.6209061235463568 1.0290153343847148 -1.578125 1.546875 -2.8828125 1.546875 c -1.3671875 0.0 -2.27734375 -0.63671875 -2.73046875 -1.91015625 c 0.015625 0.2187500149011612 0.02734375 0.53515625 0.03515625 0.94921875 l 0.0 0.64453125 l -3.87890625 0.0 l 0.0 -15.996092796325684 l 4.019531309604645 -9.5367431640625e-07 m 1.0781249403953552 6.574220180511475 c -0.5 0.0 -0.8224862533663271 0.28951009959752394 -0.9726563096046448 0.8671875 c -0.11585196149123915 0.44566181582552333 -0.17578125 1.3046875 -0.17578125 2.578125 c 0.0 1.296875 0.07869125303841096 2.159950762050382 0.234375 2.58984375 c 0.1725027264788485 0.47633560961078264 0.4765625 0.71484375 0.9140625 0.71484375 c 0.4921875 0.0 0.820321803011925 -0.29977780336223425 0.97265625 -0.9023438096046448 c 0.1202843353067911 -0.4757902954477986 0.1757812350988388 -1.35546875 0.17578125 -2.63671875 c 0.0 -1.2421875 -0.059571879219387114 -2.075097417524855 -0.1875 -2.496093988418579 c -0.14512281886685738 -0.4775823230152445 -0.46874988079071045 -0.7148433923721313 -0.9609374403953552 -0.7148434519767761" fill="none" stroke="black" stroke-width="0.3">
</path>
</svg>
