<svg xmlns="http://www.w3.org/2000/svg" xmlns:xlink="http://www.w3.org/1999/xlink" width="50px" height="50px" style="-ms-transform: rotate(360deg); -webkit-transform: rotate(360deg); transform: rotate(360deg);" preserveAspectRatio="xMidYMid meet" viewBox="0 0 24 24"><path d="M 8.183712244033813 5.772815108299255 L 13.261859893798828 5.830832362174988 C 16.349790573120117 5.616689801216125 19.110298633575439 6.809170961380005 18.790447711944580 9.727093935012817 C 18.842340946197510 12.238649368286133 17.501269340515137 13.168803691864014 16.041439533233643 13.909350872039795 C 17.052224636077881 14.459843158721924 18.137552261352539 14.877000331878662 18.087382793426514 16.947721481323242 C 18.124578952789307 20.328154563903809 15.359760761260986 22.683945178985596 12.183129787445068 22.688509941101074 L 5.534352779388428 22.687757492065430 L 8.183712244033813 5.772815108299255 M 12.169950188687718 9.544857406011364 L 12.169950188687718 9.544857406011364 L 11.787729978561401 12.351937294006348 L 12.691427707672119 12.192714214324951 C 13.378469467163086 12.348262310028076 14.563011646270752 11.594805479049683 14.246621131896973 10.239317178726196 C 13.900382284576981 9.585714933668497 13.149751957722579 9.436818142287105 12.169950188687718 9.544857406011364 M 11.062205257678411 15.693218806307781 L 11.062205257678411 15.693218806307781 L 10.568674564361572 19.005429267883301 L 11.469032049179077 18.993125438690186 C 12.809995651245117 19.115751743316650 13.379655361175537 18.306334018707275 13.495237827301025 16.822292804718018 C 13.321716660869217 15.757086701170254 11.567132377586008 15.384090073251700 11.062205257678411 15.693218806307783 " stroke-width="1.0" fill="rgb(0, 0, 0)" opacity="1.0"></path></svg>
