<svg xmlns="http://www.w3.org/2000/svg" xmlns:xlink="http://www.w3.org/1999/xlink" width="50px" height="50px" style="-ms-transform: rotate(360deg); -webkit-transform: rotate(360deg); transform: rotate(360deg);" preserveAspectRatio="xMidYMid meet" viewBox="0 0 24 24"><path d="M 14.555255413055420 5.604100227355957 C 15.258666515350342 5.703788280487061 18.132276535034180 5.889574527740479 18.877231121063232 7.214288949966431 L 18.049444198608398 10.349618911743164 C 16.099352359771729 10.156150102615356 16.380363464355469 9.619780540466309 14.879377841949463 9.542366266250610 C 12.088757514953613 9.486702919006348 10.870704174041748 12.301833629608154 10.632508993148804 15.237071514129639 C 10.333005804100498 16.964110566600276 10.865912736217780 18.822666845136347 12.373728455553154 18.628223535740929 C 12.045538702465942 18.766955655892140 13.224949959232490 19.003049599867271 13.437797069549561 18.323886394500732 L 13.878045558929443 16.291517257690430 L 12.213586807250977 16.146620750427246 L 12.567375183105469 12.895281314849854 L 18.842126369476318 12.784406661987305 L 17.423927307128906 19.340071678161621 C 16.218365192413330 22.358455181121826 16.243811130523682 22.193162441253662 12.415088653564453 23.012967109680176 C 7.663536071777344 22.902249813079834 5.141381978988647 20.107033252716064 5.896257877349854 14.400918960571289 C 6.634456157684326 9.370268583297729 9.677313566207886 5.793875813484192 14.555255413055420 5.604100227355957 " stroke-width="1.0" fill="rgb(0, 0, 0)" opacity="1.0"></path></svg>
