<svg xmlns="http://www.w3.org/2000/svg" xmlns:xlink="http://www.w3.org/1999/xlink" width="50px" height="50px" style="-ms-transform: rotate(360deg); -webkit-transform: rotate(360deg); transform: rotate(360deg);" preserveAspectRatio="xMidYMid meet" viewBox="0 0 24 24"><path d="M 13.835912704467773 5.395717978477478 C 17.237465858459473 5.495319485664368 19.642667770385742 7.689170837402344 19.440157413482666 12.538998126983643 C 19.160110473632812 16.729494094848633 17.527770996093750 20.245699882507324 16.025333404541016 21.189688682556152 C 14.758881568908691 22.273760318756104 17.571242809295654 22.862660408020020 16.813209056854248 22.683699131011963 L 17.906684875488281 24.761833190917969 C 15.246322889309818 25.027001010831366 14.059729306522964 24.511325905436369 13.838476122170920 24.035607475976910 C 13.677822829656854 24.312712472152967 12.245385747560643 24.445095330000228 12.444857597351074 22.942720413208008 C 7.369269132614136 23.341672897338867 4.812980890274048 20.420660018920898 5.539888858795166 14.698695659637451 C 5.985573291778564 9.416189432144165 9.212022542953491 5.349494218826294 13.835912704467773 5.395717978477478 M 12.598933696746826 9.792820215225220 C 11.849721193313599 9.822163581848145 10.688601493835449 12.151104927062988 10.236496925354004 14.972024917602539 C 10.028753757476807 17.297248363494873 10.575385808944702 18.991594791412354 11.678745031356812 18.627452373504639 C 12.935367107391357 18.608722686767578 13.145057201385498 18.236125946044922 13.495340824127197 17.278427124023438 C 13.990067481994629 15.971051216125488 14.424961566925049 14.232702255249023 14.712723255157471 13.006093025207520 C 14.976582527160645 10.293551445007324 14.175084114074707 9.436523437500000 12.598933696746826 9.792820215225220 " stroke-width="1.0" fill="rgb(0, 0, 0)" opacity="1.0"></path></svg>
