<svg xmlns="http://www.w3.org/2000/svg" xmlns:xlink="http://www.w3.org/1999/xlink" width="50px" height="50px" style="-ms-transform: rotate(360deg); -webkit-transform: rotate(360deg); transform: rotate(360deg);" preserveAspectRatio="xMidYMid meet" viewBox="0 0 24 24"><path d="M 8.237061023712158 5.717173576354980 L 13.545135498046875 5.723340153694153 C 17.001040935516357 5.713979244232178 19.344343185424805 6.916956424713135 18.959939002990723 10.826738834381104 C 18.834743499755859 13.177160739898682 17.084774494171143 14.864034175872803 16.067101478576660 15.334081649780273 L 18.008528709411621 22.676945686340332 L 12.754373073577881 22.691762924194336 L 12.115096092224121 16.943531513214111 L 11.210371971130371 16.351329803466797 L 10.234386205673218 22.686595916748047 L 5.510290861129761 22.689551353454590 C 6.596159934997559 16.544032573699951 7.283569335937500 11.615314722061157 8.237061023712158 5.717173576354980 M 12.273868560791016 9.685144901275635 L 12.211154937744141 9.587955951690674 L 11.722588714335497 13.018724034355136 C 11.722588714335496 13.018724034355133 11.722588714335496 13.018724034355133 11.722588714335496 13.018724034355133 C 13.304984869561025 12.999573638142557 14.449072234275553 12.327654864267037 14.387829780578613 10.617871284484863 C 14.400833129882812 9.673086404800415 12.465783119201660 9.153969526290894 12.273868560791016 9.685144901275635 " stroke-width="1.0" fill="rgb(0, 0, 0)" opacity="1.0"></path></svg>
