<svg xmlns="http://www.w3.org/2000/svg" xmlns:xlink="http://www.w3.org/1999/xlink" width="50px" height="50px" style="-ms-transform: rotate(360deg); -webkit-transform: rotate(360deg); transform: rotate(360deg);" preserveAspectRatio="xMidYMid meet" viewBox="0 0 24 24"><path d="M 14.821592330932617 5.417285799980164 C 16.193239688873291 5.882023930549622 17.849547386169434 5.757730722427368 18.007884979248047 6.347599983215332 L 16.792024612426758 10.196910381317139 C 15.841847419738770 9.462997913360596 14.926744937896729 9.272194862365723 13.966292381286621 9.451908588409424 C 13.682789325714111 9.472445011138916 13.020559787750244 9.657493829727173 12.845874309539795 10.468518018722534 C 12.662658691406250 11.190094470977783 13.375807285308838 11.540400266647339 14.403313636779785 12.400619029998779 C 15.798002243041992 13.162150382995605 16.899248600006104 15.134360790252686 16.698324680328369 17.569952487945557 C 16.085327625274658 20.593651771545410 14.172138690948486 22.920337200164795 9.879494905471802 22.893795490264893 C 7.980807781219482 22.609468460083008 7.068344593048096 22.549675941467285 6.367828130722046 22.029191493988037 L 7.562969684600830 17.772103786468506 C 8.345304965972900 18.530985832214355 8.138163328170776 18.776571750640869 10.536652565002441 18.828702449798584 C 11.443475246429443 18.541321277618408 12.241039752960205 18.008251190185547 12.014323711395264 17.186732769012451 C 11.733475685119629 16.359915733337402 10.792866468429565 15.781970500946045 10.046376943588257 15.234074592590332 C 8.491687059402466 13.770266532897949 7.810573339462280 12.561847686767578 8.050367832183838 10.696487903594971 C 8.289446353912354 7.181027412414551 11.382782936096191 5.383512854576111 14.821592330932617 5.417285799980164 " stroke-width="1.0" fill="rgb(0, 0, 0)" opacity="1.0"></path></svg>
