<svg xmlns="http://www.w3.org/2000/svg" xmlns:xlink="http://www.w3.org/1999/xlink" width="50px" height="50px" style="-ms-transform: rotate(360deg); -webkit-transform: rotate(360deg); transform: rotate(360deg);" preserveAspectRatio="xMidYMid meet" viewBox="0 0 24 24"><path d="M 8.730512380599976 5.250300049781799 L 13.301333427429199 5.247905373573303 L 12.345936775827711 11.543739357479735 C 12.611121816031917 11.067925023080427 13.925619783820780 10.449384180745387 14.913259506225586 10.376500368118286 C 16.919405937194824 10.317967414855957 18.542122364044189 12.039261817932129 18.210419654846191 15.131014823913574 C 18.063856601715088 19.576719760894775 16.006153106689453 23.503558158874512 11.331780195236206 22.766880512237549 C 10.264135837554932 22.096630096435547 10.269109010696411 22.987193584442139 6.356180191040039 22.613121986389160 L 6.255722522735596 21.154546737670898 L 8.730512380599976 5.250300049781799 M 12.686066150665283 14.273127079010010 C 11.654934167861938 14.559368133544922 12.021100044250488 15.480616092681885 11.413810729980469 16.830413818359375 L 11.204099679477958 18.831775579486404 C 11.204099679477961 18.831775579486404 11.204099679477961 18.831775579486404 11.204099679477961 18.831775579486404 C 12.777852403364149 19.588264739776260 13.233413961635195 18.004191439972661 13.721766471862793 16.513425350189209 C 13.791718482971191 15.117316246032715 13.895803928375244 14.008327960968018 12.686066150665283 14.273127079010010 " stroke-width="1.0" fill="rgb(0, 0, 0)" opacity="1.0"></path></svg>
