<svg xmlns="http://www.w3.org/2000/svg" xmlns:xlink="http://www.w3.org/1999/xlink" width="50px" height="50px" style="-ms-transform: rotate(360deg); -webkit-transform: rotate(360deg); transform: rotate(360deg);" preserveAspectRatio="xMidYMid meet" viewBox="0 0 24 24"><path d="M 19.108280181884766 5.245377659797668 L 16.192255496978760 22.679646492004395 L 12.345645904541016 22.693387985229492 C 12.379297516479065 22.228255726562104 12.263542598377402 21.598611574889084 12.152305009194425 21.130077953777747 C 12.122970983075685 22.510542352728290 10.424053838973837 23.150950553365945 9.002289533615112 22.918898105621338 C 6.663252353668213 22.370940685272217 5.758221387863159 20.767604827880859 5.964222550392151 17.603359222412109 C 6.333724737167358 13.793911457061768 8.202756643295288 10.091860771179199 12.082676410675049 10.482999801635742 C 13.008640766143799 10.451115846633911 13.638114452362061 11.507555723190308 13.926466941833496 10.323784589767456 L 14.662792682647705 5.254394173622131 L 19.108280181884766 5.245377659797668 M 12.430184841156006 14.135865211486816 C 11.699084043502808 14.006814479827881 10.694119691848755 15.306936264038086 10.417584657669067 17.334577560424805 C 10.217251539230347 18.389388084411621 10.779787302017212 19.350448608398438 11.602268457412720 19.031281471252441 C 12.188695907592773 19.156102180480957 12.672563552856445 17.646780967712402 12.971137046813965 16.099051952362061 C 12.991121292114258 14.239701747894287 13.442593574523926 14.453733444213867 12.430184841156006 14.135865211486816 " stroke-width="1.0" fill="rgb(0, 0, 0)" opacity="1.0"></path></svg>
