<svg xmlns="http://www.w3.org/2000/svg" xmlns:xlink="http://www.w3.org/1999/xlink" width="50px" height="50px" style="-ms-transform: rotate(360deg); -webkit-transform: rotate(360deg); transform: rotate(360deg);" preserveAspectRatio="xMidYMid meet" viewBox="0 0 24 24"><path d="M 13.832357883453369 10.274410486221313 C 16.333374023437500 10.217237234115601 18.301029682159424 12.075775623321533 17.559265136718750 15.433529376983643 C 17.106987476348877 16.444355964660645 18.274442195892334 17.091207504272461 11.219533681869507 17.865762233734131 C 11.320322513580322 17.912738800048828 11.043986320495605 19.567181110382080 12.423836231231689 19.302572250366211 C 12.732217311859131 19.495415210723877 13.408800601959229 18.978720188140869 14.222738742828369 18.870695114135742 L 16.390407085418701 18.582073688507080 C 15.651911258697510 22.512305259704590 16.278691291809082 22.120222091674805 12.185050964355469 23.005827426910400 C 8.309105873107910 22.905223846435547 6.584686517715454 20.705841064453125 6.960213661193848 17.473505973815918 C 7.132509469985962 12.932152748107910 10.091420173645020 9.895510911941528 13.832357883453369 10.274410486221313 M 12.910311698913574 13.563560485839844 C 12.401943366006162 13.694991569443026 11.958516928271207 14.329598405718311 11.626849796194076 15.381266796147823 C 11.815921536822581 15.374741885026696 12.056850803915481 15.377073940047175 12.352605342864990 15.384344100952148 C 13.628428459167480 15.100489139556885 13.955716609954834 15.062151432037354 13.888933181762695 14.322761535644531 C 13.322330474853516 13.042362213134766 12.843955993652344 13.876197338104248 12.910311698913574 13.563560485839844 " stroke-width="1.0" fill="rgb(0, 0, 0)" opacity="1.0"></path></svg>
