<svg xmlns="http://www.w3.org/2000/svg" xmlns:xlink="http://www.w3.org/1999/xlink" width="50px" height="50px" style="-ms-transform: rotate(360deg); -webkit-transform: rotate(360deg); transform: rotate(360deg);" preserveAspectRatio="xMidYMid meet" viewBox="0 0 24 24"><path d="M 14.751561641693115 4.801841497421265 C 15.159225940704346 4.632107734680176 16.999833583831787 5.157110095024109 17.181924819946289 5.237085700035095 L 16.561386108398438 7.974452018737793 C 16.364082813262939 8.588687181472778 15.929338932037354 8.326972961425781 15.049816131591797 8.402030467987061 C 14.606160163879395 8.515708923339844 13.619376182556152 9.989361047744751 14.154906749725342 10.670893907546997 L 15.988965511322021 10.694552421569824 L 15.589542388916016 14.332460403442383 L 13.468018054962158 14.364403724670410 L 12.111292362213135 22.659361839294434 L 7.832277059555054 22.751944541931152 C 8.299906709009957 19.875416915475263 8.859921239058870 17.159194468476677 9.216079713972837 14.189634318849427 C 8.928627224638539 14.193088729928714 7.842639301821808 14.123344971152116 8.021437168121338 13.919969558715820 L 8.476714611053467 11.817200660705566 C 8.658065557479858 11.179856300354004 8.058878660202026 10.521662235260010 9.195031642913818 10.710806608200073 C 10.275106430053711 10.537581682205200 9.809494256973267 9.437604188919067 10.433616399765015 7.764093875885010 C 10.864420652389526 5.874104261398315 13.029931068420410 4.478456497192383 14.751561641693115 4.801841497421265 " stroke-width="1.0" fill="rgb(0, 0, 0)" opacity="1.0"></path></svg>
