<svg xmlns="http://www.w3.org/2000/svg" xmlns:xlink="http://www.w3.org/1999/xlink" width="50px" height="50px" style="-ms-transform: rotate(360deg); -webkit-transform: rotate(360deg); transform: rotate(360deg);" preserveAspectRatio="xMidYMid meet" viewBox="0 0 24 24"><path d="M 11.950120925903320 10.431798219680786 C 13.432442665100098 10.339754819869995 14.327766895294189 10.739564895629883 14.675857543945312 10.578559398651123 L 15.277416229248047 10.547668933868408 L 18.052765846252441 10.876772403717041 L 16.436038970947266 22.340506553649902 C 15.308710098266602 26.341057777404785 15.952445983886719 31.359775543212891 11.077316522598267 29.839113235473633 C 8.221099376678467 29.207983016967773 6.730479240417480 28.946036338806152 6.532605886459351 28.566370010375977 L 7.362573623657227 25.873875617980957 C 7.983708143234253 26.245430946350098 8.844676494598389 26.594904899597168 6.978610038757324 24.361493110656738 C 9.654384613037109 24.938630104064941 11.206618309020996 24.811082839965820 12.111253738403320 23.150656700134277 L 12.279368877410889 21.396600723266602 C 10.843938589096069 22.971573829650879 10.143108129501343 22.685068130493164 9.784384489059448 22.667475700378418 C 7.736236095428467 23.004750251770020 6.050585746765137 21.075203418731689 6.210430383682251 18.047803401947021 C 6.215133190155029 13.678908348083496 8.700677633285522 10.268779277801514 11.950120925903320 10.431798219680786 M 12.521132469177246 14.353468894958496 C 11.744151592254639 14.083949089050293 11.018588304519653 15.698241233825684 10.790083408355713 17.323047637939453 C 10.771341562271118 18.621425628662109 10.978056192398071 19.149816513061523 11.377533674240112 18.990962505340576 C 12.223578929901123 19.237538337707520 12.760229587554932 18.233483791351318 12.981425285339355 16.914932727813721 C 13.185228389495899 16.064778604250488 13.207057748812282 14.707214401762162 13.241513787060025 14.432950655929496 C 12.742325673826002 14.288014180528442 12.372614632487322 14.151914386500907 12.521132469177246 14.353468894958496 " stroke-width="1.0" fill="rgb(0, 0, 0)" opacity="1.0"></path></svg>
