<svg xmlns="http://www.w3.org/2000/svg" xmlns:xlink="http://www.w3.org/1999/xlink" width="50px" height="50px" style="-ms-transform: rotate(360deg); -webkit-transform: rotate(360deg); transform: rotate(360deg);" preserveAspectRatio="xMidYMid meet" viewBox="0 0 24 24"><path d="M 11.815946817398071 10.361534357070923 C 13.829526901245117 10.210421562194824 14.160992145538330 10.869431734085083 14.631610393524170 11.896803617477417 C 16.016736030578613 10.732291460037231 16.443511962890625 10.258874416351318 18.419988155364990 10.329765558242798 C 20.007053375244141 10.435283660888672 21.091516971588135 11.451695680618286 20.932022094726562 13.676937103271484 C 20.973883152008057 13.754669666290283 20.655249595642090 16.348382949829102 20.541101932525635 16.466089725494385 L 19.702305793762207 22.719820976257324 L 15.254543781280518 22.677278995513916 L 16.367219924926758 16.051278591156006 C 16.368169784545898 15.990205764770508 16.445802211761475 15.399373054504395 16.472495555877686 15.581568717956543 C 16.562388896942139 14.415834903717041 16.681756496429443 14.161316871643066 15.535107135772705 14.284087657928467 C 14.716970443725586 14.489798069000244 14.837727069854736 14.646881103515625 14.446878433227539 15.968450546264648 L 13.335714340209961 22.690309524536133 L 9.120350360870361 22.685957908630371 L 10.237172126770020 15.984113216400146 C 10.218518119590641 15.799690618498346 10.235436883764496 15.637612521254052 10.258897583444718 15.524885718563212 C 10.184916674621757 14.482730982795607 10.359096672319803 14.263898474508292 9.580302000045776 14.219711780548096 C 8.382181406021118 14.456308364868164 8.709182739257812 15.267813205718994 8.282564878463745 16.638638019561768 L 7.364157199859619 22.689847469329834 L 3.178485631942749 22.685514450073242 L 4.797751665115356 10.489600181579590 L 8.685280323028564 10.334137916564941 L 8.528141498565674 11.960397005081177 C 9.861070632934570 11.090872764587402 10.239139795303345 10.196020603179932 11.815946817398071 10.361534357070923 " stroke-width="1.0" fill="rgb(0, 0, 0)" opacity="1.0"></path></svg>
