<svg xmlns="http://www.w3.org/2000/svg" xmlns:xlink="http://www.w3.org/1999/xlink" width="50px" height="50px" style="-ms-transform: rotate(360deg); -webkit-transform: rotate(360deg); transform: rotate(360deg);" preserveAspectRatio="xMidYMid meet" viewBox="0 0 24 24"><path d="M 13.393219470977783 10.396616935729980 C 16.881318569183350 9.746965885162354 18.570575237274170 12.002110004425049 17.794857501983643 16.600564956665039 C 17.206749916076660 21.116545200347900 13.955969810485840 24.101640701293945 10.311709642410278 22.316416740417480 C 10.044687509536743 25.480464935302734 10.240390062332153 24.756314277648926 8.897096157073975 23.972592830657959 L 8.100018024444580 29.443531036376953 L 4.535889029502869 30.428672790527344 L 7.468500852584839 11.437632322311401 L 7.673682839901119 10.634695353471603 L 7.673682839901118 10.634695353471603 C 10.536013970082070 10.394509195464783 13.532466526333961 10.745893679148425 13.393219470977783 10.396616935729980 M 11.886920928955078 14.555142402648926 C 11.618118067779035 15.199340726662566 11.245933378767743 16.033011261133151 10.977451246441721 18.213860760726881 C 11.004313802821054 18.471497424034936 11.021547326234394 18.768634128832744 11.014511346817017 19.050986766815186 C 12.513755321502686 19.255299568176270 12.847063064575195 18.346973419189453 13.426134109497070 16.346989631652832 C 13.658010005950928 14.276495933532715 12.896807670593262 13.909144878387451 11.886920928955078 14.555142402648926 " stroke-width="1.0" fill="rgb(0, 0, 0)" opacity="1.0"></path></svg>
