<svg xmlns="http://www.w3.org/2000/svg" xmlns:xlink="http://www.w3.org/1999/xlink" width="50px" height="50px" style="-ms-transform: rotate(360deg); -webkit-transform: rotate(360deg); transform: rotate(360deg);" preserveAspectRatio="xMidYMid meet" viewBox="0 0 24 24"><path d="M 11.915410280227661 10.454627752304077 C 13.152915000915527 10.408244132995605 13.660077095031738 10.499809026718140 14.053373336791992 10.727344751358032 L 15.120805263519287 10.464168548583984 L 18.202561855316162 10.852834939956665 L 15.706838607788086 28.725525856018066 L 11.536431312561035 28.634373664855957 L 12.316553592681885 21.247372627258301 C 11.564037322998047 22.550753116607666 10.799040555953979 22.956600666046143 10.061754941940308 22.932952880859375 C 7.710426807403564 22.934170246124268 6.096115350723267 21.497918128967285 6.239355325698853 18.051793098449707 C 6.280272960662842 14.237053871154785 8.463784217834473 10.466568231582642 11.915410280227661 10.454627752304077 M 12.659923553466797 14.240728855133057 C 11.736067771911621 14.032240390777588 10.985743761062622 15.769573688507080 10.813410758972168 17.575052261352539 C 10.678193807601929 19.284014225006104 11.438254594802856 19.361303329467773 11.701214075088501 19.279266357421875 C 12.645709991455078 19.329278469085693 13.033189773559570 17.994506835937500 13.316330909729004 14.814069271087646 C 13.409035205841064 14.657928943634033 13.333072185516357 14.189848423004150 12.659923553466797 14.240728855133057 " stroke-width="1.0" fill="rgb(0, 0, 0)" opacity="1.0"></path></svg>
