<svg xmlns="http://www.w3.org/2000/svg" xmlns:xlink="http://www.w3.org/1999/xlink" width="50px" height="50px" style="-ms-transform: rotate(360deg); -webkit-transform: rotate(360deg); transform: rotate(360deg);" preserveAspectRatio="xMidYMid meet" viewBox="0 0 24 24"><path d="M 13.616226196289062 10.296410322189331 C 14.473784923553467 10.340503692626953 15.724790096282959 10.287662029266357 16.774762630462646 10.974744558334351 L 15.864269256591797 14.093377590179443 C 14.901540321176260 14.065452642325523 15.089757549779605 13.451023425017079 12.909701233405581 13.791261864859626 C 13.202165965582902 13.750954107034746 12.718635784751172 13.910310512017901 12.732238769531250 14.307809829711914 C 12.638367176055908 14.352958202362061 12.825636863708496 14.884923934936523 13.311766147613525 15.180830955505371 C 14.955240726470947 15.445275306701660 16.013468742370605 16.860537528991699 15.809626579284668 18.823043346405029 C 15.446528434753418 21.518400192260742 13.589384078979492 23.084199428558350 9.995356321334839 22.893811225891113 C 8.187824964523315 22.513601303100586 7.720050573348999 22.630256652832031 7.066811084747314 22.104324817657471 L 7.961732625961304 18.744718551635742 C 8.872425556182861 18.513623714447021 9.401277065277100 19.608927726745605 10.967762947082520 19.310297012329102 C 11.352806568145752 19.146456241607666 11.728894472122192 18.949580669403076 11.110958576202393 18.206409931182861 C 10.754254817962646 17.941725254058838 10.273572921752930 17.739875793457031 9.803645610809326 17.478989124298096 C 8.637320995330811 16.683242797851562 8.069954395294189 15.363378524780273 8.455541610717773 13.767728805541992 C 9.164849281311035 11.074708700180054 11.400375366210938 10.404875278472900 13.616226196289062 10.296410322189331 " stroke-width="1.0" fill="rgb(0, 0, 0)" opacity="1.0"></path></svg>
