<svg xmlns="http://www.w3.org/2000/svg" xmlns:xlink="http://www.w3.org/1999/xlink" width="50px" height="50px" style="-ms-transform: rotate(360deg); -webkit-transform: rotate(360deg); transform: rotate(360deg);" preserveAspectRatio="xMidYMid meet" viewBox="0 0 24 24"><path d="M 7.625525236129761 10.693214178085327 L 12.075064659118652 10.425898790359497 L 11.011884927749634 17.175375938415527 C 10.792525326261512 18.919649207164824 11.151342400494920 18.975441928591444 11.218019721449465 18.906891905033135 C 11.215045069295298 18.919050546795365 11.213848178624403 18.931160419900053 11.213934169118543 18.943016208789693 C 11.441573363151777 19.012134952278732 11.705951089152414 19.067444618095649 12.190003395080566 18.907035827636719 C 12.390681266784668 18.514140129089355 12.675549030303955 18.418486118316650 12.967875480651855 16.971108913421631 L 13.944906234741211 10.780539751052856 L 18.241790771484375 10.782191276550293 L 16.170106887817383 22.610522747039795 L 11.312685370373105 22.729126787065905 C 11.312685370373110 22.729126787065908 11.312685370373110 22.729126787065908 11.312685370373110 22.729126787065908 C 10.748089851389510 22.982369455278612 9.984437089139227 23.068776538518463 8.997469425201416 22.866052150726318 C 7.341551542282104 22.576603889465332 6.319169998168945 21.265136718750000 6.535696506500244 19.358716964721680 C 6.570389986038208 17.601156234741211 7.464494705200195 12.648274898529053 7.625525236129761 10.693214178085327 " stroke-width="1.0" fill="rgb(0, 0, 0)" opacity="1.0"></path></svg>
