<svg xmlns="http://www.w3.org/2000/svg" xmlns:xlink="http://www.w3.org/1999/xlink" width="50px" height="50px" style="-ms-transform: rotate(360deg); -webkit-transform: rotate(360deg); transform: rotate(360deg);" preserveAspectRatio="xMidYMid meet" viewBox="0 0 24 24"><path d="M 13.396123409271240 5.225816845893860 C 14.842399120330811 5.703083753585815 15.635164260864258 5.422913074493408 15.780057907104492 5.879188656806946 L 16.055451393127441 10.273231029510498 L 14.851640224456787 9.920065641403198 L 14.597675800323486 9.447217226028442 C 14.246416568756104 7.880697011947632 14.087601184844971 7.004557371139526 12.563920497894287 7.228827953338623 C 11.397811174392700 7.656249046325684 10.711258649826050 9.706897258758545 10.832824945449829 14.582091808319092 C 10.896298885345459 18.930570602416992 11.621385097503662 20.684728145599365 13.191671848297119 21.185460090637207 C 14.259183883666992 21.041052818298340 14.504595279693604 19.778107166290283 15.024028301239014 19.004148960113525 L 16.234200954437256 18.404437065124512 C 16.159229278564453 21.636038303375244 15.299912452697754 23.014337539672852 12.338031291961670 23.076234340667725 C 9.365849733352661 22.828903198242188 7.732208490371704 19.503772258758545 7.718036413192749 13.970456600189209 C 7.803969383239746 8.176002502441406 10.200998067855835 4.816321134567261 13.396123409271240 5.225816845893860 " stroke-width="1.0" fill="rgb(0, 0, 0)" opacity="1.0"></path></svg>
