<svg xmlns="http://www.w3.org/2000/svg" xmlns:xlink="http://www.w3.org/1999/xlink" width="50px" height="50px" style="-ms-transform: rotate(360deg); -webkit-transform: rotate(360deg); transform: rotate(360deg);" preserveAspectRatio="xMidYMid meet" viewBox="0 0 24 24"><path d="M 8.040696144104004 5.336770892143250 L 16.030351638793945 5.356391429901123 L 16.133199691772461 8.940994262695312 L 15.965835571289062 9.405790328979492 C 15.018586635589600 9.226536512374878 14.667207241058350 6.727168321609497 14.570727825164795 7.458324909210205 C 15.042902469635010 7.390058755874634 14.196945190429688 7.057180881500244 12.582648754119873 7.071616172790527 C 12.386047840118408 6.968379020690918 11.803912639617920 7.225567102432251 11.801125288009644 6.895534515380859 L 11.698287963867188 12.760248184204102 L 12.429350852966309 12.753513336181641 C 14.032622337341309 12.706953048706055 14.031146049499512 11.544329166412354 14.606321811676025 11.669254302978516 L 14.873981952667236 11.873653650283813 C 14.894062042236328 14.175693511962891 15.120479106903076 16.168796539306641 14.691408634185791 16.734785556793213 L 14.186586856842041 15.265023708343506 C 13.591316699981689 14.512258529663086 12.469847202301025 14.778980255126953 11.831992149353027 14.662560939788818 L 11.759057521820068 14.516491413116455 L 11.750907182693481 21.014229297637939 C 11.910252571105957 21.367997646331787 12.406604290008545 21.243794918060303 12.515939712524414 21.747270584106445 L 12.556490421295166 22.688871860504150 L 8.115823745727539 22.685400009155273 L 8.009416580200195 22.112212657928467 C 8.102944850921631 21.030465602874756 8.929906368255615 22.227880954742432 8.871251106262207 20.399155139923096 L 8.952851772308350 7.032834291458130 C 8.635881185531616 6.381282091140747 8.183245182037354 6.223005294799805 8.187382936477661 6.256802558898926 L 8.040696144104004 5.336770892143250 " stroke-width="1.0" fill="rgb(0, 0, 0)" opacity="1.0"></path></svg>
