<svg xmlns="http://www.w3.org/2000/svg" xmlns:xlink="http://www.w3.org/1999/xlink" width="50px" height="50px" style="-ms-transform: rotate(360deg); -webkit-transform: rotate(360deg); transform: rotate(360deg);" preserveAspectRatio="xMidYMid meet" viewBox="0 0 24 24"><path d="M 12.240640640258789 5.043420910835266 C 13.481196481278117 4.956815661615527 13.973606134734482 5.644408231875204 15.388169244655158 5.695845103638905 L 15.388169244655158 5.695845103638904 L 15.740132331848145 6.731550693511963 L 15.876889228820801 9.983937978744507 L 15.030744552612305 9.721274614334106 C 13.610568523406982 9.815270662307739 14.320156574249268 6.804286479949951 12.133609771728516 7.178578376770020 C 11.711692571640015 6.918582916259766 10.464827299118042 8.360558509826660 10.433835268020630 13.042748451232910 C 10.318853616714478 18.586053371429443 10.854969978332520 21.187860488891602 12.789437770843506 20.984313011169434 C 13.308596134185791 20.944932460784912 13.588783264160156 20.190869808197021 13.546387195587158 18.607769966125488 L 13.506430149078369 16.024543762207031 L 12.052393913269043 15.643512725830078 L 11.834930419921875 14.026262283325195 L 16.535881519317627 14.033726692199707 L 16.219741344451904 16.216628551483154 L 16.106294631958008 17.349881172180176 L 16.080548286437988 22.325660705566406 L 12.833177089691162 22.912410736083984 L 12.836313816658235 22.887295898721007 C 12.533035974536141 22.954761045443217 12.116635878201983 22.969172907197461 11.625805377960205 22.959627628326416 C 8.595577239990234 22.440842628479004 6.717021703720093 18.568024635314941 7.308195590972900 12.189926147460938 C 7.982617378234863 7.521607160568237 9.602850437164307 5.417616963386536 12.240640640258789 5.043420910835266 " stroke-width="1.0" fill="rgb(0, 0, 0)" opacity="1.0"></path></svg>
