<svg xmlns="http://www.w3.org/2000/svg" xmlns:xlink="http://www.w3.org/1999/xlink" width="50px" height="50px" style="-ms-transform: rotate(360deg); -webkit-transform: rotate(360deg); transform: rotate(360deg);" preserveAspectRatio="xMidYMid meet" viewBox="0 0 24 24"><path d="M 6.820369720458984 5.371728301048279 L 11.287445068359375 5.331630349159241 L 11.237276315689087 5.597925424575806 C 10.962006568908691 6.793654918670654 10.666405677795410 6.208514928817749 10.599275350570679 7.481904029846191 L 10.722807168960571 12.708083152770996 L 13.435213565826416 12.715978145599365 L 13.569643020629883 7.392679452896118 L 12.988899707794189 6.583913326263428 L 12.942220687866211 5.337545514106750 L 16.783987998962402 5.355950474739075 L 16.854011535644531 6.398792266845703 L 16.355272293090820 6.923375129699707 L 16.256067752838135 20.878526687622070 L 16.946535587310791 21.471764087677002 L 16.932417869567871 22.688465595245361 L 12.848666667938232 22.686784744262695 L 12.889815330505371 21.723661422729492 L 13.453136444091797 20.970535755157471 L 13.427065372467041 14.755411148071289 L 10.718304634094238 14.740907192230225 L 10.595548868179321 21.098380565643311 L 11.168694019317627 21.682168006896973 L 11.284710645675659 22.685771942138672 L 6.892843723297119 22.690109252929688 L 6.936199665069580 21.700212478637695 L 7.737583637237549 21.023347377777100 L 7.762216329574585 6.982725620269775 L 6.822956800460815 6.394603729248047 L 6.820369720458984 5.371728301048279 " stroke-width="1.0" fill="rgb(0, 0, 0)" opacity="1.0"></path></svg>
