<svg xmlns="http://www.w3.org/2000/svg" xmlns:xlink="http://www.w3.org/1999/xlink" width="50px" height="50px" style="-ms-transform: rotate(360deg); -webkit-transform: rotate(360deg); transform: rotate(360deg);" preserveAspectRatio="xMidYMid meet" viewBox="0 0 24 24"><path d="M 10.074449300765991 5.465959668159485 L 14.737059116363525 5.420727610588074 L 14.534538745880127 6.286936283111572 C 14.079467296600342 6.904418706893921 13.814759731292725 6.456313848495483 13.793520927429199 8.210631608963013 L 13.918723583221436 17.565078735351562 C 13.824817657470703 21.432237625122070 13.757935523986816 23.207525253295898 10.179447412490845 22.895969867706299 C 8.426033020019531 22.920098304748535 8.237908601760864 22.738553524017334 8.600322246551514 20.213969707489014 C 9.079043971028806 20.209807866137005 9.327013313020398 19.731834971891928 9.509739430306563 19.304363967839642 C 9.509739430306562 19.304363967839642 9.509739430306562 19.304363967839642 9.509739430306562 19.304363967839642 C 9.439222778653399 19.478297893673044 9.282046670736143 19.830419159272957 8.989743232727051 20.094703674316406 C 9.373646635520823 20.322414869084156 9.611984216764968 20.554320097859268 9.751863720318063 20.739553758843648 C 10.899559147067510 21.250514539273777 10.951846365260664 20.069418203177861 11.040974378585815 19.076215267181396 C 11.012130975723267 17.586597919464111 11.072017192840576 16.140877246856689 11.061892747879028 14.145514011383057 C 11.160177469253540 9.276660203933716 11.060326337814331 8.245348691940308 11.217787027359009 7.532889604568481 C 11.437326908111572 6.411548137664795 10.549212455749512 6.707674026489258 10.279981613159180 6.387940406799316 L 10.074449300765991 5.465959668159485 " stroke-width="1.0" fill="rgb(0, 0, 0)" opacity="1.0"></path></svg>
