<svg xmlns="http://www.w3.org/2000/svg" xmlns:xlink="http://www.w3.org/1999/xlink" width="50px" height="50px" style="-ms-transform: rotate(360deg); -webkit-transform: rotate(360deg); transform: rotate(360deg);" preserveAspectRatio="xMidYMid meet" viewBox="0 0 24 24"><path d="M 7.022511005401611 5.528059244155884 L 11.402571916580200 5.539863467216492 L 11.381461143493652 5.748233199119568 L 10.842164754867554 7.072596788406372 L 10.938033342361450 12.769975662231445 L 13.593761444091797 6.931311607360840 C 13.185230255126953 7.768388986587524 13.673652648925781 7.111279964447021 13.252199649810791 6.372931480407715 L 13.193055152893066 5.535547971725464 L 16.809183597564697 5.535217881202698 L 16.533928871154785 6.426660060882568 C 15.597202777862549 7.044384241104126 15.651695251464844 7.293090105056763 15.133422374725342 8.128956556320190 L 12.990892410278320 12.698757648468018 L 16.497715473175049 20.724473476409912 L 17.388609409332275 21.549319267272949 L 17.393717765808105 22.690973281860352 L 13.463973999023438 22.683893680572510 L 13.231694698333740 22.387241363525391 L 13.495784282684326 21.409385204315186 C 12.660421371459961 18.675312995910645 11.412909507751465 16.560191631317139 10.833186149597168 14.727471828460693 L 10.659807443618774 21.000097274780273 L 11.168095350265503 21.765081882476807 L 11.295598983764648 22.687567234039307 L 7.177222967147827 22.688979148864746 L 7.173489332199097 21.629462242126465 L 7.988684177398682 20.932009220123291 L 8.021618127822876 6.989165067672729 L 7.020077705383301 6.437176465988159 L 7.022511005401611 5.528059244155884 " stroke-width="1.0" fill="rgb(0, 0, 0)" opacity="1.0"></path></svg>
