<svg xmlns="http://www.w3.org/2000/svg" xmlns:xlink="http://www.w3.org/1999/xlink" width="50px" height="50px" style="-ms-transform: rotate(360deg); -webkit-transform: rotate(360deg); transform: rotate(360deg);" preserveAspectRatio="xMidYMid meet" viewBox="0 0 24 24"><path d="M 5.972699761390686 5.557157635688782 L 9.926748275756836 5.452929496765137 L 11.995187759399414 14.856335163116455 L 14.179583072662354 5.536815404891968 L 17.664958477020264 5.516412019729614 L 17.426846981048584 6.675346612930298 C 17.301674365997314 7.193137407302856 16.760842323303223 7.411037206649780 17.565678119659424 5.979057669639587 C 16.909256458282471 6.643120765686035 17.541525363922119 13.428962230682373 17.519127845764160 21.199268817901611 L 18.391556739807129 21.826017379760742 L 18.412160396575928 22.689275264739990 L 14.528275966644287 22.683925151824951 L 14.502834320068359 21.894025325775146 L 14.743708133697510 20.844716548919678 C 14.617304846781961 18.306215760193801 14.592552635876185 13.326306542321969 14.945809275353637 10.366167450820067 L 12.156909942626953 22.431926250457764 L 11.179785490036011 22.671698570251465 C 9.856075286865234 18.405999183654785 8.949380636215210 12.192448139190674 8.653589487075806 11.114390373229980 L 8.500560522079468 20.088721275329590 L 8.717056989669800 22.054159641265869 L 8.842626571655273 22.687374114990234 L 5.832784652709961 22.690268039703369 L 5.892114400863647 22.110162734985352 L 6.678237676620483 21.199662208557129 C 6.863827228546143 17.140814781188965 7.069372415542603 9.098854064941406 6.901424646377563 7.179847955703735 L 5.948623538017273 6.458450317382812 L 5.972699761390686 5.557157635688782 " stroke-width="1.0" fill="rgb(0, 0, 0)" opacity="1.0"></path></svg>
