<svg xmlns="http://www.w3.org/2000/svg" xmlns:xlink="http://www.w3.org/1999/xlink" width="50px" height="50px" style="-ms-transform: rotate(360deg); -webkit-transform: rotate(360deg); transform: rotate(360deg);" preserveAspectRatio="xMidYMid meet" viewBox="0 0 24 24"><path d="M 7.208420276641846 5.636016011238098 L 10.474748611450195 5.603973627090454 L 14.392667770385742 15.695607662200928 L 14.312819480895996 7.168430328369141 L 13.775030136108398 6.180103540420532 L 13.555253505706787 5.544592022895813 L 16.792154788970947 5.492895483970642 L 16.781890869140625 6.523786783218384 C 16.392303943634033 7.001155614852905 16.200582504272461 6.926394939422607 16.243123054504395 8.260902643203735 L 16.238279342651367 22.691562652587891 L 14.198814868927002 22.685664653778076 C 12.820867538452148 18.826329231262207 10.082449436187744 12.779428482055664 9.730797529220581 10.979726314544678 L 9.656493902206421 20.471128463745117 C 9.689098697549580 21.129143064864973 9.965606219068572 21.516199356522627 10.050590735834124 21.558760641623852 L 10.443631410598755 22.693253517150879 L 6.823649883270264 22.679035663604736 L 6.931856632232666 21.747067451477051 C 7.126502752304077 21.630975723266602 7.600466251373291 21.504667282104492 7.750641345977783 20.608135700225830 L 7.935945510864258 7.349912166595459 C 7.345310211181641 6.065032482147217 6.614456892013550 7.692802190780640 6.772626399993896 5.617134332656860 L 7.208420276641846 5.636016011238098 " stroke-width="1.0" fill="rgb(0, 0, 0)" opacity="1.0"></path></svg>
