<svg xmlns="http://www.w3.org/2000/svg" xmlns:xlink="http://www.w3.org/1999/xlink" width="50px" height="50px" style="-ms-transform: rotate(360deg); -webkit-transform: rotate(360deg); transform: rotate(360deg);" preserveAspectRatio="xMidYMid meet" viewBox="0 0 24 24"><path d="M 7.538187503814697 5.340222001075745 L 11.770722627639771 5.343632698059082 C 14.821519374847412 5.178382158279419 16.927133560180664 6.616225004196167 16.802684783935547 10.435235738754272 C 16.762544631958008 13.273163795471191 14.581997394561768 15.461880683898926 12.084440231323242 15.234131813049316 L 11.327840566635132 15.284070968627930 L 11.289851188659668 21.152808666229248 L 12.034049034118652 21.808444976806641 L 12.086631774902344 22.688428401947021 L 7.616103887557983 22.684564590454102 L 7.639985561370850 21.709998607635498 L 8.318125247955322 21.207557201385498 L 8.457517862319946 6.954471588134766 L 7.575237751007080 6.096737623214722 L 7.538187503814697 5.340222001075745 M 11.430145740509033 6.937838315963745 C 11.002152442932129 7.197420358657837 11.594779729843140 7.330695390701294 11.286180496215820 7.227440357208252 L 11.284192848306535 13.448476680230312 C 11.284192848306530 13.448476680230307 11.284192848306530 13.448476680230307 11.284192848306530 13.448476680230307 C 12.852344976011807 13.436428134322565 13.756779198713577 12.349290146423542 13.718406200408936 10.048571348190308 C 13.647166728973389 7.665290594100952 12.956678867340088 7.168418169021606 11.430145740509033 6.937838315963745 " stroke-width="1.0" fill="rgb(0, 0, 0)" opacity="1.0"></path></svg>
