<svg xmlns="http://www.w3.org/2000/svg" xmlns:xlink="http://www.w3.org/1999/xlink" width="50px" height="50px" style="-ms-transform: rotate(360deg); -webkit-transform: rotate(360deg); transform: rotate(360deg);" preserveAspectRatio="xMidYMid meet" viewBox="0 0 24 24"><path d="M 11.942314624786377 5.100562691688538 C 15.024345874786377 5.023441672325134 16.973263263702393 8.451781511306763 17.056696414947510 13.818325996398926 C 16.914613804053744 18.154148131602149 15.997907184441692 21.029685155988435 14.024206761775822 22.424510147620087 C 14.332492049201118 22.749939254585652 14.644828495505548 23.350430674921597 14.968324184417725 23.696624279022217 C 15.384768962860107 25.854517936706543 15.644554138183594 26.286798477172852 15.429795742034912 26.869239807128906 L 13.852884292602539 27.442279815673828 C 13.286566257476807 26.459086418151855 12.698109626770020 25.474448204040527 13.461161613464355 24.090559959411621 C 11.942422628402710 24.645275115966797 12.484255313873291 22.773159027099609 11.249745368957520 23.080016613006592 C 10.234130859375000 22.708448410034180 9.776875019073486 22.466430187225342 9.575709342956543 22.262691020965576 C 8.234187126159668 20.944291591644287 7.039177894592285 18.961006164550781 7.055809736251831 14.284561157226562 C 7.086681604385376 8.832906246185303 8.879823446273804 5.223273396492004 11.942314624786377 5.100562691688538 M 11.933433294296265 6.950524091720581 C 10.722239971160889 6.911468982696533 10.220341444015503 9.823897361755371 10.237797975540161 13.748805999755859 C 10.194279670715332 18.867985725402832 10.711501836776733 20.758362293243408 11.748551130294800 21.181416034698486 C 13.421539306640625 20.908913612365723 13.648328304290771 18.603401184082031 13.860448837280273 13.746464252471924 C 13.703031063079834 9.514080762863159 13.445202827453613 7.378121852874756 11.933433294296265 6.950524091720581 " stroke-width="1.0" fill="rgb(0, 0, 0)" opacity="1.0"></path></svg>
