<svg xmlns="http://www.w3.org/2000/svg" xmlns:xlink="http://www.w3.org/1999/xlink" width="50px" height="50px" style="-ms-transform: rotate(360deg); -webkit-transform: rotate(360deg); transform: rotate(360deg);" preserveAspectRatio="xMidYMid meet" viewBox="0 0 24 24"><path d="M 7.088606357574463 5.398025393486023 L 11.650594711303711 5.325670123100281 C 14.248728275299072 5.277814865112305 16.497317790985107 6.582304000854492 16.301446437835693 10.121000289916992 C 16.434447126115554 12.491186211364500 14.150666160099631 14.063163487717452 14.102573596628943 13.973965837383959 L 15.787671713777090 17.845585545195423 C 15.622726485288329 17.743467177377543 16.179111634142956 21.779508617616177 17.099884986877441 21.298935413360596 L 17.113581967479039 22.696558457877593 C 17.046178223438236 22.668256486680509 15.986425683610349 22.709975316465538 13.987539768218994 22.686125278472900 C 13.681281566619873 22.857254505157471 13.264812469482422 20.623635292053223 13.094633102416992 20.370278835296631 L 11.838332891464233 15.221101284027100 L 10.917860269546509 14.715442657470703 L 10.814058780670166 20.875738620758057 C 10.844766139984131 21.269687175750732 11.409378290176392 21.804769992828369 11.388085126876831 21.889564990997314 L 11.521097660064697 22.685708999633789 L 7.099468946456909 22.689788818359375 L 7.119410276412964 21.625006198883057 C 7.550175189971924 21.092160701751709 7.963665246963501 21.610423564910889 7.960904359817505 20.293331623077393 L 7.958594799041748 8.339281082153320 C 7.886988401412964 6.449018239974976 7.814336299896240 7.165735244750977 7.195482730865479 6.262965917587280 L 7.088606357574463 5.398025393486023 M 11.121095895767212 7.110041856765747 C 10.783704757690430 7.047034978866577 10.903136014938354 6.985883474349976 10.898367404937744 8.085237979888916 L 10.907388210296631 12.998740196228027 C 11.429414033889771 13.070098400115967 12.453579425811768 12.534748077392578 11.494396448135376 12.939838886260986 C 12.525240898132324 13.139958858489990 13.421776771545410 11.367590904235840 13.274365425109863 9.910665035247803 C 13.299777030944824 8.813363313674927 13.147519111633301 7.071097612380981 11.121095895767212 7.110041856765747 " stroke-width="1.0" fill="rgb(0, 0, 0)" opacity="1.0"></path></svg>
