<svg xmlns="http://www.w3.org/2000/svg" xmlns:xlink="http://www.w3.org/1999/xlink" width="50px" height="50px" style="-ms-transform: rotate(360deg); -webkit-transform: rotate(360deg); transform: rotate(360deg);" preserveAspectRatio="xMidYMid meet" viewBox="0 0 24 24"><path d="M 12.370645523071289 5.090866684913635 C 13.063407601902810 5.070700704608039 13.674685224607900 5.603962336252703 15.339512944278013 5.675176457512904 L 15.339512944278013 5.675176457512905 L 15.325753211975098 5.671599626541138 L 15.405607223510742 9.868464231491089 L 14.709470272064209 9.765656948089600 C 13.242683887481689 8.527035713195801 14.187526702880859 7.495687007904053 12.031908988952637 6.957170963287354 C 11.155192852020264 7.128152132034302 10.917135715484619 7.363097906112671 10.762814283370972 8.811249732971191 C 10.700911760330200 9.995336294174194 11.482748508453369 11.246276378631592 12.646448135375977 12.321960926055908 C 14.296796321868896 14.152819633483887 16.495093345642090 15.540746212005615 16.049460411071777 19.060599803924561 C 15.610118865966797 21.439867973327637 13.866323947906494 23.329969882965088 11.111279010772705 22.851257801055908 C 9.833988901605725 22.528625373930218 9.019821107626312 22.403002669660708 8.643304888727252 22.150462248108997 L 8.731938600540161 22.412921905517578 L 8.301470518112183 21.411197662353516 L 8.390767335891724 18.558458805084229 L 8.688537597656250 17.627509117126465 C 9.766893625259399 18.256260395050049 9.400259971618652 20.914818763732910 11.741010904312134 20.989301204681396 C 12.876821994781494 20.731149673461914 13.333394050598145 19.656643867492676 13.295808792114258 18.668540954589844 C 13.256501197814941 17.354318618774414 12.355148792266846 16.273927688598633 11.520877361297607 15.622951984405518 C 10.080395221710205 14.025393962860107 7.995853185653687 12.658501625061035 8.276254177093506 9.228155851364136 C 8.245056152343750 7.021827936172485 10.163543701171875 4.989452004432678 12.370645523071289 5.090866684913635 " stroke-width="1.0" fill="rgb(0, 0, 0)" opacity="1.0"></path></svg>
