<svg xmlns="http://www.w3.org/2000/svg" xmlns:xlink="http://www.w3.org/1999/xlink" width="50px" height="50px" style="-ms-transform: rotate(360deg); -webkit-transform: rotate(360deg); transform: rotate(360deg);" preserveAspectRatio="xMidYMid meet" viewBox="0 0 24 24"><path d="M 4.333020687103271 5.456899166107178 L 8.694040060043335 5.465703606605530 L 8.615194559097290 6.025049686431885 C 8.376683950424194 6.639322757720947 8.174912452697754 6.569069623947144 8.179219007492065 7.313731670379639 C 8.220731786324423 8.137537361175005 8.473219933233478 9.570016428785282 8.133887126511684 7.752963461071223 L 9.667706966400146 15.983458042144775 L 10.582546949386597 10.998560428619385 L 10.856913328170776 6.839285373687744 L 10.184748888015747 6.029235363006592 L 10.156065702438354 5.529353499412537 L 14.055865287780762 5.529631376266479 L 14.047644138336182 5.542375087738037 L 13.361968517303467 5.559397101402283 C 13.282775402069092 5.515350580215454 13.302513599395752 6.742105722427368 13.454631328582764 7.289912939071655 C 13.453944069673639 7.297353410244436 13.453477135335577 7.306212142238311 13.453197096101174 7.316212276545508 L 15.006827831268311 15.975944995880127 L 16.532197952270508 7.381050109863281 C 16.523662090301514 6.582748889923096 16.241430759429932 7.195801734924316 15.783960342407227 6.102139234542847 L 15.826446533203125 5.574249386787415 L 16.026370525360107 5.439721584320068 L 19.353243827819824 5.438909769058228 L 18.965549468994141 6.405452728271484 C 18.761302471160889 6.383085966110229 18.270019054412842 7.313895463943481 18.281939506530762 8.349228143692017 L 15.492944240570068 22.703704833984375 L 13.751100540161133 22.805590152740479 L 11.894658565521240 13.330354213714600 L 10.184065818786621 22.749904632568359 L 8.140837669372559 22.754815578460693 C 7.256070613861084 16.602168560028076 6.484947681427002 12.983613967895508 5.531825780868530 8.033168792724609 C 5.374175906181335 6.564105749130249 4.928894877433777 6.912019014358521 4.460560441017151 5.867358684539795 L 4.569425225257874 6.414105176925659 L 4.333020687103271 5.456899166107178 " stroke-width="1.0" fill="rgb(0, 0, 0)" opacity="1.0"></path></svg>
