<svg xmlns="http://www.w3.org/2000/svg" xmlns:xlink="http://www.w3.org/1999/xlink" width="50px" height="50px" style="-ms-transform: rotate(360deg); -webkit-transform: rotate(360deg); transform: rotate(360deg);" preserveAspectRatio="xMidYMid meet" viewBox="0 0 24 24"><path d="M 6.968621492385864 5.413728117942810 L 11.421087909584651 5.488669156566895 L 11.421087909584653 5.488669156566894 L 11.390768051147461 5.485709309577942 C 11.359049320220947 6.607938766479492 10.765718221664429 6.459333658218384 10.947222232818604 6.751678705215454 C 10.686239004135132 6.901454687118530 10.783775568008423 7.401760339736938 12.175324916839600 10.873537302017212 L 13.604892273530519 7.435003255634456 C 13.617247254601718 7.333968297762917 13.640421073471595 6.920131183105157 13.294359683990479 6.290750026702881 L 13.209264278411865 5.931595087051392 L 13.193540096282959 5.529830574989319 L 16.592438220977783 5.531150579452515 L 16.372512817382812 6.440574645996094 C 15.528156280517578 6.987050771713257 15.530675411224365 7.859499692916870 15.162218570709229 8.403594017028809 L 13.189111232757568 13.277675628662109 L 16.245975494384766 20.973907470703125 C 16.478629589080811 21.326658725738525 16.751509666442871 21.488582611083984 17.042266845703125 21.829716682434082 L 17.034065723419189 22.688432693481445 L 12.819674491882324 22.688212394714355 L 12.802728652954102 22.772983074188232 C 12.537963867187500 21.611951351165771 13.147800922393799 22.060339450836182 13.051184177398682 21.065576076507568 C 13.117598753804897 20.737209293006945 11.737005218059135 17.771812877839920 11.667883975100974 16.772522744462211 L 9.931574106216431 21.039517879486084 C 9.919392585754395 21.327363967895508 10.327072620391846 22.248064041137695 10.348679065704346 22.482936859130859 L 10.447408676147461 22.694601058959961 L 6.863762140274048 22.679667949676514 L 7.011610507965088 22.118069171905518 C 7.149659156799316 21.717949390411377 7.737190961837769 21.391417980194092 8.109713315963745 20.432740688323975 L 10.476004600524902 14.281715869903564 L 8.005828857421875 7.241076707839966 C 7.676074504852295 6.535702943801880 7.135107278823853 6.724546909332275 6.972134828567505 6.049808263778687 L 6.968621492385864 5.413728117942810 " stroke-width="1.0" fill="rgb(0, 0, 0)" opacity="1.0"></path></svg>
