<svg xmlns="http://www.w3.org/2000/svg" xmlns:xlink="http://www.w3.org/1999/xlink" width="50px" height="50px" style="-ms-transform: rotate(360deg); -webkit-transform: rotate(360deg); transform: rotate(360deg);" preserveAspectRatio="xMidYMid meet" viewBox="0 0 24 24"><path d="M 6.796115398406982 5.339362621307373 L 11.336855649948120 5.347396016120911 L 11.220686674118042 6.428541898727417 L 10.626556400830795 6.774666134530488 C 10.654459654237268 6.981436465369939 10.660323838168001 7.252264024083936 10.649982736838703 7.338425326865961 L 12.157457828521729 11.924519062042236 L 13.623112678527832 8.017538309097290 C 13.638858318328857 8.213990449905396 13.757443428039551 7.401801824569702 13.824769020080566 7.515735626220703 C 13.998783588409424 6.894249200820923 13.608560085296631 6.608133316040039 13.419905662536621 6.208921194076538 L 13.379649639129639 5.807507514953613 L 13.388191223144531 5.340421915054321 L 16.757542133331299 5.348647713661194 L 16.441482067108154 6.476771593093872 C 15.931919574737549 7.128014087677002 16.036155223846436 6.521276235580444 15.563960552215576 8.150047302246094 L 13.174850463867188 14.856206417083740 L 13.259510993957520 20.553451538085938 C 13.154966354370117 21.408017635345459 13.679720878601074 21.237087249755859 13.909116268157959 22.031051158905029 L 13.814831256866455 21.814646244049072 L 14.005009174346924 22.688924789428711 L 9.661640882492065 22.687000751495361 L 9.591435670852661 22.318688392639160 L 9.692109346389771 21.914068222045898 C 10.226720094680786 21.357328891754150 10.558879137039185 21.767090320587158 10.482497692108154 20.217292785644531 L 10.500255346298218 15.384903430938721 L 8.029827833175659 7.675600290298462 C 7.885900497436523 7.092140436172485 7.532647132873535 6.785438776016235 6.913578271865845 6.345527172088623 L 6.796115398406982 5.339362621307373 " stroke-width="1.0" fill="rgb(0, 0, 0)" opacity="1.0"></path></svg>
