<svg xmlns="http://www.w3.org/2000/svg" xmlns:xlink="http://www.w3.org/1999/xlink" width="50px" height="50px" style="-ms-transform: rotate(360deg); -webkit-transform: rotate(360deg); transform: rotate(360deg);" preserveAspectRatio="xMidYMid meet" viewBox="0 0 24 24"><path d="M 12.774298667907715 11.823894023895264 C 14.399547100067139 12.399287223815918 15.007743358612061 11.878815650939941 15.216585159301758 14.205900192260742 L 15.172057628631592 18.843358039855957 C 15.107454500581120 19.791939615865243 15.134954963348754 20.479412770650370 15.166624470578551 20.693187405403471 C 15.063546816765877 20.664405700098953 15.261900517150510 21.318106790896426 15.313030242919922 21.217450618743896 L 15.834247112274170 21.713976860046387 C 15.799229621887207 22.938164234161377 16.089513301849365 22.514312267303467 13.557967185974121 22.604215621948242 C 12.902792930603027 22.629933357238770 13.145884037017822 21.564479827880859 12.528717041015625 22.088600635528564 C 12.493027210235596 22.043500900268555 11.833323240280151 23.194026947021484 10.205255985260010 22.868752956390381 C 9.112333774566650 22.752485275268555 8.312028408050537 21.288113594055176 8.405442237854004 19.618459224700928 C 8.320701599121094 17.725524902343750 9.928447723388672 16.361336231231689 11.620178461074829 16.265819549560547 L 12.566491127014160 15.930367469787598 C 12.789012908935547 14.020165443420410 12.037796974182129 13.378596782684326 11.432680606842041 13.559609413146973 C 10.603973150253296 14.011837005615234 10.504220724105835 15.029181003570557 9.486263751983643 15.119863986968994 L 8.900706052780151 14.961846828460693 C 8.298290491104126 13.292721748352051 9.967381954193115 11.107377290725708 12.774298667907715 11.823894023895264 M 12.629553794860840 17.381411075592041 C 10.964305400848389 17.560845851898193 10.619509220123291 18.643747329711914 11.162759542465210 20.572794914245605 C 11.649801338250159 21.368097201288172 12.309137157491755 20.837336738742696 12.646241674123385 20.520657434686882 C 12.646241674123385 20.520657434686882 12.646241674123385 20.520657434686882 12.646241674123385 20.520657434686882 L 12.629553794860840 17.381411075592041 " stroke-width="1.0" fill="rgb(0, 0, 0)" opacity="1.0"></path></svg>
