<svg xmlns="http://www.w3.org/2000/svg" xmlns:xlink="http://www.w3.org/1999/xlink" width="50px" height="50px" style="-ms-transform: rotate(360deg); -webkit-transform: rotate(360deg); transform: rotate(360deg);" preserveAspectRatio="xMidYMid meet" viewBox="0 0 24 24"><path d="M 7.927232980728149 5.755679011344910 L 11.146727800369263 5.521478533744812 L 11.071141004562378 12.590053081512451 C 11.600949525833130 12.224721908569336 11.864380359649658 11.662317752838135 13.373115062713623 11.643095970153809 C 15.141487598419189 12.053586959838867 16.054331302642822 13.818931102752686 16.051619052886963 17.137212753295898 C 16.037929058074951 20.590451717376709 14.974043369293213 22.988516807556152 12.319217205047607 22.997337341308594 C 11.438836812973022 23.010353565216064 10.058906793594360 21.509415149688721 10.517245531082153 21.978133678436279 L 9.894022464752197 22.632247924804688 L 8.496206760406494 22.709109306335449 L 8.467361211776733 22.025014400482178 L 8.613276958465576 20.503462314605713 L 8.601424455642700 7.193191766738892 L 7.803956508636475 6.377931118011475 L 7.927232980728149 5.755679011344910 M 11.860515832901001 13.891997337341309 C 11.156600475311279 14.176687717437744 11.330924749374390 13.840006828308105 11.164187192916870 15.787532329559326 L 11.138928651809692 19.954699516296387 C 11.298291938084061 21.483894897822061 12.262652671588050 21.082291918537361 11.680071556907762 21.166726102818629 C 12.100040379583820 21.149383723717229 12.534981922813969 21.180446210653709 12.802860260009766 20.527745246887207 C 13.418954372406006 18.811738014221191 13.297528266906738 16.979797840118408 13.166360378265381 14.995778560638428 C 12.817079544067383 13.746342658996582 12.556863784790039 13.830219268798828 11.860515832901001 13.891997337341309 " stroke-width="1.0" fill="rgb(0, 0, 0)" opacity="1.0"></path></svg>
