<svg xmlns="http://www.w3.org/2000/svg" xmlns:xlink="http://www.w3.org/1999/xlink" width="50px" height="50px" style="-ms-transform: rotate(360deg); -webkit-transform: rotate(360deg); transform: rotate(360deg);" preserveAspectRatio="xMidYMid meet" viewBox="0 0 24 24"><path d="M 15.601879119873047 5.520399928092957 L 15.510759830474854 21.032871723175049 L 15.978868961334229 21.927699565887451 L 15.969617843627930 22.702221393585205 L 13.184206008911133 22.649361133575439 L 13.091902256011963 21.358889579772949 C 13.161243438720703 22.464068412780762 11.300255298614502 23.242096424102783 10.540846109390259 22.828104972839355 C 9.208265304565430 22.733701229095459 7.922999382019043 20.494969367980957 8.168851375579834 16.974869728088379 C 8.070604562759399 14.066473960876465 9.718567371368408 11.577820301055908 11.554031610488892 11.750352144241333 C 11.969634532928467 11.560820817947388 12.843855857849121 12.325678825378418 12.967939853668213 11.822849035263062 L 12.969085693359375 7.407551765441895 L 12.213243484497070 5.991936206817627 L 12.422159671783447 5.545045495033264 L 15.601879119873047 5.520399928092957 M 11.780209779739380 13.540863990783691 C 10.997750759124756 13.689897537231445 10.891330003738403 14.809879302978516 10.850908041000366 16.068416118621826 C 10.804928541183472 18.834484577178955 10.877768039703369 20.826591968536377 11.853697299957275 20.915316581726074 C 12.527123451232910 20.820230484008789 13.005100250244141 20.727902412414551 13.033460140228271 19.297748565673828 L 12.982420921325684 15.053840160369873 C 12.891401767730713 13.188719272613525 12.051501274108887 13.569481372833252 11.780209779739380 13.540863990783691 " stroke-width="1.0" fill="rgb(0, 0, 0)" opacity="1.0"></path></svg>
