<svg xmlns="http://www.w3.org/2000/svg" xmlns:xlink="http://www.w3.org/1999/xlink" width="50px" height="50px" style="-ms-transform: rotate(360deg); -webkit-transform: rotate(360deg); transform: rotate(360deg);" preserveAspectRatio="xMidYMid meet" viewBox="0 0 24 24"><path d="M 12.246527194976807 11.572028875350952 C 14.349866867065430 11.941070079803467 15.505275249481201 13.360686779022217 15.560982227325439 17.333285808563232 L 11.331504821777344 17.377082347869873 C 10.726663827896118 17.398311138153076 11.352136373519897 20.608652114868164 11.562765598297119 20.649468898773193 C 12.063898086547852 21.381239891052246 13.534418106079102 21.749114513397217 13.803071022033691 19.402763843536377 L 15.249785900115967 19.267559051513672 C 15.395642280578613 22.356943130493164 13.896185874938965 23.088892936706543 11.736081361770630 23.037427425384521 C 9.544104337692261 22.598745346069336 8.382833719253540 20.602141857147217 8.394784927368164 17.268239021301270 C 8.492413759231567 13.598200321197510 9.950609207153320 11.695758819580078 12.246527194976807 11.572028875350952 M 11.987193346023560 13.295742988586426 C 11.428283929824829 13.384660720825195 11.176514625549316 14.415301322937012 10.903264045715332 15.977126598358154 L 13.158345222473145 15.811579227447510 C 13.083322048187256 14.238913536071777 12.574966907501221 13.140898704528809 11.987193346023560 13.295742988586426 " stroke-width="1.0" fill="rgb(0, 0, 0)" opacity="1.0"></path></svg>
