<svg xmlns="http://www.w3.org/2000/svg" xmlns:xlink="http://www.w3.org/1999/xlink" width="50px" height="50px" style="-ms-transform: rotate(360deg); -webkit-transform: rotate(360deg); transform: rotate(360deg);" preserveAspectRatio="xMidYMid meet" viewBox="0 0 24 24"><path d="M 11.986999511718750 5.661659359931946 C 13.665337085723877 4.779396414756775 15.003510475158691 5.400318503379822 15.005249977111816 5.777752161026001 C 15.295444965362549 7.537118196487427 15.177290439605713 8.564618110656738 14.228576660156250 7.951919317245483 C 13.991878509521484 7.101147651672363 13.910267829895020 6.601057291030884 13.328527450561523 6.841785907745361 C 12.851840972900391 6.934505939483643 12.829254627227783 7.440437078475952 12.862056255340576 9.628171205520630 L 12.928168773651123 10.894328355789185 L 12.909602165222168 11.621043920516968 L 14.771920680999756 13.246780872344971 L 12.925476551055908 13.973832607269287 L 12.865163326263428 18.773158550262451 C 12.934025287628174 21.226110935211182 12.630203247070312 21.296572208404541 13.524776458740234 21.891381740570068 L 13.664265632629395 22.688069343566895 L 9.844570974961080 22.686179242928652 L 9.844570974961078 22.686179242928660 C 9.677499154897420 21.736664438810951 10.345457924056937 21.569028854963776 10.368874311447144 21.014599800109863 L 10.341159582138062 13.740652084350586 L 9.147582292556763 13.647678852081299 L 9.212090492248535 11.875100612640381 C 9.724995511379840 11.854652996854888 10.142938496289094 11.748863780428518 10.384837332352706 11.672819778003527 C 10.362185662888241 10.547780015444884 10.430278616724536 9.719435176047320 10.493519342226165 9.245142742841621 C 10.545911975640845 8.166997348662266 10.762651772892456 6.665895963446512 11.450323104858398 6.053064823150635 L 11.986999511718750 5.661659359931946 " stroke-width="1.0" fill="rgb(0, 0, 0)" opacity="1.0"></path></svg>
