<svg xmlns="http://www.w3.org/2000/svg" xmlns:xlink="http://www.w3.org/1999/xlink" width="50px" height="50px" style="-ms-transform: rotate(360deg); -webkit-transform: rotate(360deg); transform: rotate(360deg);" preserveAspectRatio="xMidYMid meet" viewBox="0 0 24 24"><path d="M 12.140532016754150 11.710679054260254 C 12.940887451171875 11.961350440979004 13.528326988220215 12.539510250091553 13.974404811859131 11.977289915084839 L 14.692275524139404 11.818404436111450 L 15.881329536437988 12.114224910736084 L 15.629101753234863 12.645714282989502 L 15.268881797790527 12.856394290924072 L 14.573018074035645 21.172099113464355 C 16.525480270385742 22.090278625488281 14.756638526916504 27.508898735046387 13.848760128021240 28.822068214416504 C 10.411273241043091 26.732923507690430 9.483005762100220 25.641626358032227 9.894642591476440 24.755659103393555 L 10.319140708251059 24.239468239989314 C 10.315989767468766 24.228688100845446 10.312785334675784 24.217788556733773 10.309526681900024 24.206768989562988 C 12.309572494898452 24.126656115394997 13.984779718365793 22.832884972393188 12.231415687554419 22.715548485428624 L 12.231415687554421 22.715548485428620 C 11.819318703561269 22.789799272982684 11.040907322302724 22.783087146347924 9.805149078369141 22.727571487426758 C 7.667614459991455 21.424989223480225 9.279429674148560 19.029918193817139 8.542357921600342 17.329082965850830 C 7.727580070495605 12.753271579742432 10.652611255645752 11.250061511993408 12.140532016754150 11.710679054260254 M 12.055014610290527 13.458546638488770 C 11.168494462966919 12.820632934570312 10.576211214065552 13.951854228973389 10.956390380859375 16.337644100189209 C 11.218742609024048 19.421612262725830 15.109085083007812 24.075591087341309 14.742434978485107 18.415896892547607 C 10.117140054702759 22.036229610443115 10.180441617965698 19.199292182922363 12.860484123229980 17.896263599395752 L 12.912082672119141 15.442707538604736 C 12.600683212280273 12.876106739044189 11.696637153625488 13.624475955963135 12.055014610290527 13.458546638488770 " stroke-width="1.0" fill="rgb(0, 0, 0)" opacity="1.0"></path></svg>
