<svg xmlns="http://www.w3.org/2000/svg" xmlns:xlink="http://www.w3.org/1999/xlink" width="50px" height="50px" style="-ms-transform: rotate(360deg); -webkit-transform: rotate(360deg); transform: rotate(360deg);" preserveAspectRatio="xMidYMid meet" viewBox="0 0 24 24"><path d="M 11.093842506408691 5.481132388114929 L 11.045822381973267 12.674224376678467 C 12.174083232879639 12.176447868347168 11.558728694915771 11.923438310623169 13.256677150726318 11.638019800186157 C 14.659675598144531 11.654640197753906 15.658463001251221 12.898710250854492 15.567446708679199 14.806333065032959 L 15.547081947326660 20.694879055023193 C 15.550613880157471 21.354909896850586 15.833825111389160 21.373872756958008 16.178313732147217 21.790626525878906 L 16.162590980529785 22.688963413238525 L 12.599458694458008 22.687328338623047 L 12.571198940277100 21.989398956298828 C 12.767972946166992 21.420178413391113 13.106248855590820 21.368100643157959 12.989265918731689 20.448513507843018 L 12.949951171875000 14.930568695068359 C 12.737983703613281 14.086046218872070 13.037229537963867 13.996496200561523 12.191193580627441 13.865295410156250 C 11.089009523391724 14.167782783508301 11.305038928985596 14.106957435607910 11.172321081161499 15.547306537628174 L 11.091144561767578 20.717551231384277 C 10.988548994064331 21.603818893432617 11.485459327697754 21.322680473327637 11.520236492156982 22.232593059539795 L 11.616460561752319 22.688325405120850 L 7.859401702880859 22.684920787811279 L 7.796180248260498 21.786456584930420 C 8.799084663391113 21.029797554016113 8.383009672164917 21.798006534576416 8.576452016830444 18.935091018676758 L 8.564105272293091 8.919460773468018 C 8.803956270217896 6.835295677185059 8.482383728027344 7.167031288146973 7.892656087875366 6.447366714477539 L 7.919152021408081 5.786359548568726 L 11.093842506408691 5.481132388114929 " stroke-width="1.0" fill="rgb(0, 0, 0)" opacity="1.0"></path></svg>
