<svg xmlns="http://www.w3.org/2000/svg" xmlns:xlink="http://www.w3.org/1999/xlink" width="50px" height="50px" style="-ms-transform: rotate(360deg); -webkit-transform: rotate(360deg); transform: rotate(360deg);" preserveAspectRatio="xMidYMid meet" viewBox="0 0 24 24"><path d="M 12.134716987609863 6.593511343002319 C 12.507545471191406 6.624941110610962 13.499279022216797 7.011079072952271 13.361844062805176 8.101578712463379 C 13.182673931121826 9.097920656204224 12.747272014617920 9.783004760742188 12.061128616333008 9.549746274948120 C 11.005215883255005 9.546677112579346 10.674044609069824 9.441322088241577 10.577491521835327 7.957753658294678 C 10.662788629531860 7.163224697113037 11.167633295059204 6.435218811035156 12.134716987609863 6.593511343002319 M 10.513851642608643 11.842200279235840 L 13.237109184265137 11.805981159210205 L 13.167450428009033 20.601609706878662 C 12.998642921447754 21.759039402008057 13.763058185577393 21.373914241790771 14.001597404479980 21.899482727050781 L 14.020493030548096 22.637733936309814 C 13.601155757904053 22.727231025695801 12.200340270996094 22.679145812988281 10.717971324920654 22.688552856445312 C 10.893179631623509 22.666370073359467 10.008495426989485 22.695601626944665 9.906272409416179 22.729206137748850 L 9.920285224914551 22.124286174774170 C 10.102141857147217 21.349704265594482 10.605718374252319 21.870978355407715 10.650705099105835 20.602643966674805 L 10.563282251358032 13.971852779388428 C 10.505481719970703 12.613080024719238 9.544173002243042 13.687894821166992 9.797122478485107 12.064840793609619 L 10.513851642608643 11.842200279235840 " stroke-width="1.0" fill="rgb(0, 0, 0)" opacity="1.0"></path></svg>
