<svg xmlns="http://www.w3.org/2000/svg" xmlns:xlink="http://www.w3.org/1999/xlink" width="50px" height="50px" style="-ms-transform: rotate(360deg); -webkit-transform: rotate(360deg); transform: rotate(360deg);" preserveAspectRatio="xMidYMid meet" viewBox="0 0 24 24"><path d="M 11.085097074508667 5.343899846076965 L 11.024493455886841 16.380688190460205 L 13.014983654022217 13.905943393707275 C 11.796621322631836 15.373417854309082 13.222864151000977 13.646161079406738 12.944496631622314 13.240804195404053 L 12.516381740570068 12.275337696075439 L 15.962393760681152 12.294659614562988 L 15.881871700286865 13.165443420410156 C 14.750062465667725 13.827738761901855 14.582310676574707 14.357173919677734 14.129940032958984 14.837468147277832 L 13.338063240051270 16.239850044250488 L 15.742336750030518 21.198978424072266 C 16.048065624213436 21.459406764733696 16.316598104750351 21.734081039896143 16.372590437230812 21.761426397627691 L 16.500563621520996 22.698051452636719 L 13.107825279235840 22.667871952056885 L 12.895268440246582 22.224622249603271 C 13.036362907588599 21.841374198198977 13.021560384018848 21.637466808896811 13.042056090828718 21.643486369839984 C 12.696601583505496 20.841988101798339 12.329915075221571 19.525849532404532 11.333423852920532 17.924775123596191 L 11.196164131164551 19.179410934448242 C 10.931332826614380 20.884573459625244 11.020160436630249 21.221863746643066 11.169963598251343 21.333364963531494 L 11.460305213928223 21.850062847137451 L 11.615408420562744 22.688970565795898 L 7.969629764556885 22.683078289031982 L 7.879958152770996 21.824326515197754 L 8.034017086029053 21.669735431671143 C 8.630760669708252 21.387778759002686 8.572297811508179 21.601418495178223 8.631736993789673 20.671342849731445 L 8.599106311798096 10.536961555480957 C 8.674126625061035 7.631436109542847 8.827780008316040 7.290729045867920 8.482965946197510 6.910485506057739 L 8.316966533660889 7.130749225616455 L 8.498565017452419 6.875629214525627 L 8.498565017452419 6.875629214525627 L 8.392720699310303 6.791069984436035 L 7.829724311828613 6.289795875549316 L 7.751449584960938 5.935073375701904 L 7.953073740005493 5.548952937126160 L 9.468505382537842 5.399935841560364 L 9.070125102996826 5.368537902832031 L 11.085097074508667 5.343899846076965 " stroke-width="1.0" fill="rgb(0, 0, 0)" opacity="1.0"></path></svg>
