<svg xmlns="http://www.w3.org/2000/svg" xmlns:xlink="http://www.w3.org/1999/xlink" width="50px" height="50px" style="-ms-transform: rotate(360deg); -webkit-transform: rotate(360deg); transform: rotate(360deg);" preserveAspectRatio="xMidYMid meet" viewBox="0 0 24 24"><path d="M 10.855062961578369 11.652124643325806 C 12.041557788848877 11.603719711303711 12.903511047363281 12.134262084960938 13.047971248626709 12.917100906372070 C 13.764608860015869 12.462161064147949 14.812874794006348 11.605685949325562 14.854727268218994 11.861469984054565 C 16.370608806610107 11.505241870880127 17.648756504058838 12.710793972015381 17.640326499938965 15.205801963806152 L 17.626301765441895 20.530845165252686 C 17.683407783508301 21.350004673004150 17.609810829162598 21.210722923278809 18.199984073638916 21.879404067993164 L 18.316632270812988 22.687268257141113 L 15.011934757232666 22.689517021179199 L 14.848523139953613 22.435668468475342 C 14.748682022094727 22.110959529876709 15.258632183074951 21.331900119781494 15.120812416076660 20.644545078277588 L 15.025065422058105 15.380222797393799 C 14.825848102569580 14.041882038116455 14.885384559631348 13.932506561279297 13.766469955444336 14.053323268890381 C 13.567039489746094 14.040721893310547 13.553485393524170 13.769196510314941 13.288011074066162 15.362151145935059 L 13.266227245330811 19.134664535522461 C 13.385941028594971 21.299278736114502 13.204779624938965 21.128685951232910 13.745870590209961 21.755733489990234 L 14.354829311370850 22.664766311645508 L 9.592195987701416 22.696130275726318 L 9.859281778335571 22.245759487152100 C 10.845369815826416 21.914053916931152 10.735666036605835 21.902353763580322 10.723423004150391 18.557011127471924 L 10.815880537033081 15.385419845581055 C 10.728075027465820 14.127918720245361 10.713612556457520 13.700079917907715 10.033174037933350 13.730792999267578 C 8.894878864288330 13.934367656707764 9.138041496276855 14.362485408782959 8.953835248947144 15.342513084411621 L 8.921136617660522 20.326134681701660 C 8.677485466003418 21.455011367797852 8.972927570343018 22.448410034179688 9.099403381347656 22.236449718475342 L 9.242176294326782 22.689166545867920 L 5.700534224510193 22.686256885528564 L 5.898727655410767 21.929275989532471 C 6.431970834732056 21.888088703155518 6.422346353530884 21.523869037628174 6.490480184555054 20.845790863037109 L 6.502206802368164 13.967761516571045 C 6.321219094294896 12.558649458332830 5.521171106813795 12.723495101861356 6.174491774851099 12.125929855248586 L 6.174491774851097 12.125929855248586 L 8.318867683410645 11.764958381652832 L 8.510613441467285 13.096411228179932 C 8.482915878295898 12.512449264526367 10.175118684768677 11.771161079406738 10.855062961578369 11.652124643325806 " stroke-width="1.0" fill="rgb(0, 0, 0)" opacity="1.0"></path></svg>
