<svg xmlns="http://www.w3.org/2000/svg" xmlns:xlink="http://www.w3.org/1999/xlink" width="50px" height="50px" style="-ms-transform: rotate(360deg); -webkit-transform: rotate(360deg); transform: rotate(360deg);" preserveAspectRatio="xMidYMid meet" viewBox="0 0 24 24"><path d="M 11.484610319137573 11.625817537307739 C 12.160171508789062 11.388937711715698 13.166297435760498 12.366439819335938 13.812539577484131 12.221630573272705 L 13.615658283233643 12.408443927764893 L 14.333740711212158 11.790148973464966 L 15.720790386199951 11.865670680999756 L 15.594650745391846 13.131737709045410 L 15.426199436187744 28.099611282348633 L 15.968846797943115 27.906792640686035 L 15.962798595428467 28.689356803894043 L 12.021224498748779 28.680061340332031 L 12.019665241241455 28.035696029663086 L 12.744884490966797 28.113730430603027 L 12.929669380187988 22.167516231536865 C 11.892743110656738 22.408866405487061 11.635833263397217 23.131597995758057 11.440715789794922 22.836612224578857 C 9.637773513793945 23.027259349822998 8.235262870788574 21.264232635498047 8.226339340209961 17.757077693939209 C 8.085251569747925 14.406015872955322 9.289986848831177 11.904960393905640 11.484610319137573 11.625817537307739 M 11.720936536788940 13.417439460754395 C 11.053238868713379 13.630697250366211 10.899441719055176 15.550559520721436 10.948848724365234 18.799816131591797 C 11.040963545663400 20.429787995420483 11.321535391328478 20.839329092694207 12.181169804791054 20.949474391936469 C 12.384852518723633 20.792676378134519 12.644278662134655 20.530322387909322 12.896188259124756 20.107280731201172 L 12.986233234405518 16.300699710845947 C 12.935969352722168 13.708864688873291 12.848642349243164 13.426627635955811 11.720936536788940 13.417439460754395 " stroke-width="1.0" fill="rgb(0, 0, 0)" opacity="1.0"></path></svg>
