<svg xmlns="http://www.w3.org/2000/svg" xmlns:xlink="http://www.w3.org/1999/xlink" width="50px" height="50px" style="-ms-transform: rotate(360deg); -webkit-transform: rotate(360deg); transform: rotate(360deg);" preserveAspectRatio="xMidYMid meet" viewBox="0 0 24 24"><path d="M 7.955273151397705 11.882183790206909 L 11.086087703704834 11.829226970672607 L 11.073426961898804 19.484830856323242 C 11.363783597946167 20.342495441436768 10.891391515731812 20.984345912933350 12.271655559539795 20.791514396667480 C 12.893985271453857 20.801792621612549 12.906997203826904 20.214929580688477 12.901245117187500 19.129819393157959 L 12.892561912536621 13.946033477783203 L 12.504160881042480 13.052910804748535 L 12.490764141082764 12.070532798767090 L 15.502341270446777 11.961071491241455 L 15.499853610992432 19.748095035552979 L 15.426635742187500 20.480185031890869 L 15.472945690155029 20.639714241027832 L 16.095285415649414 22.675259113311768 L 13.214635848999023 22.690112113952637 L 13.103383541107178 21.536378860473633 C 12.826372146606445 22.540283203125000 11.126613378524780 23.097610473632812 10.554375886917114 22.848047733306885 C 9.130420446395874 22.707278251647949 8.482185602188110 21.484491348266602 8.512295722961426 19.600004196166992 L 8.588607788085938 13.788040637969971 C 8.467115879058838 13.235517024993896 7.911126136779785 13.087949752807617 7.714525938034058 12.287753105163574 L 7.955273151397705 11.882183790206909 " stroke-width="1.0" fill="rgb(0, 0, 0)" opacity="1.0"></path></svg>
