<svg xmlns="http://www.w3.org/2000/svg" xmlns:xlink="http://www.w3.org/1999/xlink" width="50px" height="50px" style="-ms-transform: rotate(360deg); -webkit-transform: rotate(360deg); transform: rotate(360deg);" preserveAspectRatio="xMidYMid meet" viewBox="0 0 24 24"><path d="M 5.976749539375305 12.288472652435303 L 8.984388671912104 12.154946962302624 L 8.984388671912104 12.154946962302624 L 9.019721746444702 12.909597873687744 C 8.820219039916992 13.779913902282715 9.242837905883789 13.147978305816650 10.038015604019165 18.368276596069336 L 11.005393226996574 13.998937991453019 L 11.005393226996574 13.998937991453019 L 10.744032382965088 12.208627223968506 L 13.041501660061485 12.142505596001451 L 13.041501660061485 12.142505596001451 L 13.092066764831543 12.933860778808594 C 13.381847576544304 14.631704858777114 14.194991695847657 16.509456024180061 14.189688306224596 18.275869608270838 C 14.590289319655891 16.039522934718761 15.370569757978956 14.289814494972362 15.110730171203613 13.678115844726562 C 14.806044101715088 13.341786861419678 14.639475345611572 13.196873188018799 14.669905185699463 13.024960041046143 L 14.518386840820312 12.190575599670410 L 17.613810539245605 12.184661865234375 L 17.416718959808350 12.687935829162598 C 17.482197761535645 13.539590835571289 17.173521995544434 12.534154415130615 16.592795848846436 14.749631881713867 L 14.821529388427734 22.702054023742676 L 13.367860794067383 22.776489257812500 C 12.763815879821777 20.901359081268311 12.083305835723877 18.292114734649658 11.721436500549316 17.151184558868408 L 9.945059537887573 24.428770065307617 L 9.414985656738281 23.990017890930176 C 8.117921590805054 20.489018440246582 7.646976470947266 17.108682632446289 6.992254972457886 14.046067714691162 C 6.756877899169922 13.439556598663330 6.452536582946777 13.327836513519287 6.040035724639893 12.986834049224854 L 5.976749539375305 12.288472652435303 " stroke-width="1.0" fill="rgb(0, 0, 0)" opacity="1.0"></path></svg>
