<svg xmlns="http://www.w3.org/2000/svg" xmlns:xlink="http://www.w3.org/1999/xlink" width="50px" height="50px" style="-ms-transform: rotate(360deg); -webkit-transform: rotate(360deg); transform: rotate(360deg);" preserveAspectRatio="xMidYMid meet" viewBox="0 0 24 24"><path d="M 7.846705913543701 12.135334968566895 L 10.962549448013306 12.009977817535400 L 11.564729690551758 12.313736915588379 L 11.176875829696655 13.105815410614014 L 12.342804908752441 15.232679843902588 L 13.091644763946533 13.529414176940918 L 12.823911666870117 12.699826240539551 L 12.818736076354980 12.284517288208008 L 15.819635868072510 12.278157234191895 L 15.617400169372559 12.865641117095947 L 14.903270244598389 13.431601524353027 C 14.720641136169434 13.575486660003662 13.706130981445312 15.625280857086182 13.063582420349121 16.859039783477783 L 15.152233600616455 21.128804683685303 L 15.879778861999512 21.891762256622314 L 16.056950569152832 22.693880081176758 L 12.151154994964600 22.677073001861572 L 12.156804084777832 22.225357532501221 L 12.688151836395264 21.738352775573730 C 12.112065888437066 20.155072271111546 11.581164695530743 19.289395243074097 11.623551904573205 19.177827786819609 C 11.316613944501880 19.667465841893939 10.375865411825263 21.281248651121079 10.547636032104492 21.672975540161133 L 10.932765483856201 22.502145767211914 L 10.902962923049927 22.724996566772461 L 7.930404424667358 22.763400077819824 L 8.089007377624512 21.966579437255859 L 8.748531818389893 21.419783592224121 C 9.649225473403931 19.391283988952637 10.595377206802368 17.872949123382568 10.715708971023560 17.357671737670898 L 8.864812374114990 13.740576267242432 L 8.406073808670044 13.242578029632568 L 7.846705913543701 12.135334968566895 " stroke-width="1.0" fill="rgb(0, 0, 0)" opacity="1.0"></path></svg>
