<svg xmlns="http://www.w3.org/2000/svg" xmlns:xlink="http://www.w3.org/1999/xlink" width="50px" height="50px" viewBox="0 0 24 24">
<style type="text/css">
.path {
		stroke-dasharray: 100;
		animation: dash 30s linear infinite;
}
@keyframes dash {
	to {
		stroke-dashoffset: 1000;
	}
}
</style>
<path class="path" d="M 6.277869701385498 6.563939809799194 L 10.745827674865723 6.564316034317017 L 13.503270149230957 13.583766460418701 C 14.030050277709961 14.266562461853027 14.183180809020996 15.871699333190918 14.153520584106445 15.522555828094482 C 14.243103504180908 15.279273033142090 14.105591297149658 14.191464900970459 14.185592651367188 11.618627786636353 C 14.099757671356201 9.431586027145386 13.989808559417725 6.781908988952637 14.048917293548584 6.609088182449341 L 17.926282882690430 6.675803661346436 C 17.797176361083984 8.438658714294434 17.984644889831543 11.121279001235962 17.833934783935547 22.686422824859619 L 13.659168720245361 22.688837528228760 C 12.711044311523438 20.298387050628662 11.203541278839111 17.401027679443359 10.659539222717285 15.567069053649902 C 10.437493461598342 15.036843925317150 10.254524953195999 14.415226707524443 10.150575555380797 13.842668775657980 C 10.050824495191053 14.557348955145311 9.970257703463680 15.746613522761960 10.027836084365845 18.296454906463623 C 10.194077253341675 19.670409679412842 10.147184371948242 20.163187980651855 10.158681392669678 22.687255382537842 L 6.368134260177612 22.691024780273438 C 6.363485097885132 20.011094570159912 6.415762424468994 14.405197620391846 6.277869701385498 6.563939809799194 " fill="none" stroke="black" stroke-width="0.3">
</path>
</svg>
