<svg xmlns="http://www.w3.org/2000/svg" xmlns:xlink="http://www.w3.org/1999/xlink" width="50px" height="50px" viewBox="0 0 24 24">
<style type="text/css">
.path {
		stroke-dasharray: 100;
		animation: dash 30s linear infinite;
}
@keyframes dash {
	to {
		stroke-dashoffset: 1000;
	}
}
</style>
<path class="path" d="M 12.912573337554932 6.127015113830566 L 17.007765769958496 6.170343875885010 L 17.016171455383301 22.688335418701172 L 13.336708545684814 22.688342571258545 L 13.183343410491943 21.535939693450928 C 12.348235130310059 22.413292407989502 11.771394252777100 23.104548454284668 10.292741060256958 22.976710796356201 C 7.728955507278442 22.730435371398926 6.653096437454224 20.277731895446777 6.624781608581543 16.485290050506592 C 6.614732980728149 12.614137172698975 7.924168825149536 10.204744577407837 11.092337608337402 10.237383127212524 C 11.374933004379272 10.269076108932495 12.726264953613281 10.598922729492188 13.005997180938721 11.284583330154419 L 12.912573337554932 6.127015113830566 M 11.822248220443726 13.268428802490234 C 10.932485103607178 13.232484340667725 10.814708232879639 13.760437488555908 10.700710058212280 16.268732070922852 C 10.844856262207031 18.368406772613525 10.648464918136597 19.788720130920410 11.845421791076660 20.018311500549316 C 13.123928546905518 19.913050174713135 12.945702552795410 18.818623065948486 12.880577087402344 15.259009838104248 C 12.864591121673584 13.438156127929688 12.700620174407959 13.478955745697021 11.822248220443726 13.268428802490234 " fill="none" stroke="black" stroke-width="0.3">
</path>
</svg>
