<svg xmlns="http://www.w3.org/2000/svg" xmlns:xlink="http://www.w3.org/1999/xlink" width="50px" height="50px" viewBox="0 0 24 24">
<style type="text/css">
.path {
		stroke-dasharray: 100;
		animation: dash 30s linear infinite;
}
@keyframes dash {
	to {
		stroke-dashoffset: 1000;
	}
}
</style>
<path class="path" d="M 10.282778978347778 10.326509714126587 C 11.500396728515625 10.251445055007935 12.021497726440430 10.236073493957520 13.229563236236572 11.308806896209717 L 13.659184455871582 10.677711009979248 L 16.769233703613281 10.708892583847046 L 16.763394355773926 23.579875946044922 C 16.380270481109619 25.598856925964355 14.166011810302734 28.093708992004395 11.717524766921997 28.070397377014160 C 9.506624937057495 27.856407165527344 8.053142309188843 26.417730331420898 7.996302366256714 26.455521583557129 L 9.137716054916382 24.105271339416504 C 9.245078802108765 24.721372604370117 10.236705780029297 25.048662185668945 11.172037839889526 24.306827545166016 C 12.712125029434866 24.244746182902478 12.988980124969183 23.265322936217657 12.642146400150597 21.651793022102829 L 12.642146400150601 21.651793022102833 C 12.074755296533956 22.061908364509222 11.268259463021630 22.609574815685978 9.961624860763550 22.769591331481934 C 7.236831665039062 22.005892753601074 6.864185571670532 20.652322769165039 6.678117513656616 16.464200019836426 C 6.716986656188965 12.798591613769531 7.386951684951782 10.847637891769409 10.282778978347778 10.326509714126587 M 11.717290163040161 13.306908130645752 C 10.761312961578369 13.207965373992920 10.467882871627808 13.144964218139648 10.547195434570312 16.119260787963867 C 10.713300704956055 18.389961719512939 10.562139987945557 19.203283309936523 11.487819671630859 19.259440898895264 C 12.521391391754150 19.360984325408936 12.998062133789062 18.002411842346191 12.749094486236572 15.551603794097900 C 12.642572879791260 14.065764427185059 12.978076457977295 13.480638027191162 11.717290163040161 13.306908130645752 " fill="none" stroke="black" stroke-width="0.3">
</path>
</svg>
