<svg xmlns="http://www.w3.org/2000/svg" xmlns:xlink="http://www.w3.org/1999/xlink" width="50px" height="50px" viewBox="0 0 24 24">
<style type="text/css">
.path {
		stroke-dasharray: 100;
		animation: dash 30s linear infinite;
}
@keyframes dash {
	to {
		stroke-dashoffset: 1000;
	}
}
</style>
<path class="path" d="M 4.210608243942261 10.703774929046631 L 8.193703651428223 10.638613700866699 L 8.890330553054810 15.730390548706055 C 8.861328467862251 16.540209424689444 9.038687291212550 17.520468991088187 9.081484369197863 18.352310336599658 C 9.150450059131282 17.257050443576318 9.279694137018058 15.908800540274065 9.825395107269287 14.100006580352783 L 10.308614730834961 10.695903539657593 L 14.073649406433105 10.676301240921021 L 14.963207244873047 16.252567291259766 C 15.113689877140093 16.771558383351874 15.221154251111532 17.429233190153148 15.294635897328622 18.065459203734999 C 15.301066361860620 17.486464863764787 15.344519724904842 16.872430814314924 15.450718402862549 16.260479450225830 L 15.972910881042480 10.661045551300049 L 19.717047214508057 10.655449390411377 L 17.287120342254639 22.688858985900879 L 13.120210647583008 22.686557292938232 C 12.588688373565674 19.958716392517090 12.607223510742188 18.754583358764648 12.322281360626221 17.172347545623779 C 12.143199982948600 16.171160402997607 12.158135385655070 14.712390043472331 12.216809079153919 13.970622055669143 C 11.981355876585088 15.202111181987668 11.738843117467830 16.622493398805510 11.783776760101318 16.570757389068604 C 11.615882635116577 18.024331569671631 11.136516094207764 20.480934619903564 10.726584434509277 22.689790248870850 L 6.748042345046997 22.681709289550781 C 6.095249891281128 19.298116207122803 5.408122301101685 15.699585914611816 4.210608243942261 10.703774929046631 " fill="none" stroke="black" stroke-width="0.3">
</path>
</svg>
