<svg xmlns="http://www.w3.org/2000/svg" xmlns:xlink="http://www.w3.org/1999/xlink" width="50px" height="50px" viewBox="0 0 24 24">
<style type="text/css">
.path {
		stroke-dasharray: 100;
		animation: dash 30s linear infinite;
}
@keyframes dash {
	to {
		stroke-dashoffset: 1000;
	}
}
</style>
<path class="path" d="m 13.104000091552734 6.634666442871094 l -1.6079998016357422 6.239999771118164 c 0.9599999785423279 -1.2960000038146973 2.4960000514984095 -1.5839999324083358 3.815999984741211 -1.5839998722076416 c 4.007999897003169 1.7917155759050724e-07 4.173245435724493 1.9495537805432228 3.2160000801086426 5.567999839782715 c -0.9157079218312687 3.4614320160717167 -1.8960000276565552 5.9039998054504395 -6.119999885559082 5.9039998054504395 c -1.3680000305175781 0.0 -2.687999963760376 -0.31200000643730164 -3.191999912261963 -1.5119998455047607 l -0.2639999985694885 1.4159998893737793 l -1.6559998989105225 0.0 l 3.1679999828338623 -12.288000106811523 l 0.984000027179718 -3.743999719619751 l 1.6559994220733643 2.384185791015625e-07 m 1.5600006580352783 5.999999761581421 c -2.880000114440918 0.0 -3.4560000896453857 1.5119999647140503 -4.127999782562256 4.104000091552734 l -0.16799992322921753 0.6240000128746033 c -0.6959999799728394 2.7360000610351562 -0.8159999847412109 4.0320000648498535 2.25600004196167 4.0320000648498535 c 1.8240000009536743 0.0 2.695361539476966 -0.438402187428121 3.431999921798706 -2.328000068664551 c 0.28165993537847667 -0.7225037819002822 0.4774171692085485 -1.440671377515768 0.671999990940094 -2.184000015258789 c 0.7105766692236409 -2.7144841607583707 1.1039996147155762 -4.248000085353851 -2.0640002489089966 -4.248000085353851" fill="none" stroke="black" stroke-width="0.3">
</path>
</svg>
