
<svg xmlns="http://www.w3.org/2000/svg" xmlns:xlink="http://www.w3.org/1999/xlink" width="50px" height="50px" style="-ms-transform: rotate(360deg); -webkit-transform: rotate(360deg); transform: rotate(360deg);" preserveAspectRatio="xMidYMid meet" viewBox="0 0 24 24"><path d="M 8.836750745773315 6.559783458709717 L 16.367175579071045 6.560739040374756 C 18.770981311798096 6.512979269027710 20.546171665191650 7.165291786193848 19.898220062255859 10.205522060394287 C 19.386199951171875 12.537601947784424 18.770284652709961 13.555259227752686 16.795303344726562 14.430866718292236 C 18.268944740295410 14.532001018524170 18.547224998474121 15.614931106567383 18.397245883941650 17.410542011260986 C 18.080168724060059 20.554789066314697 15.606576919555664 22.867774486541748 12.638155460357666 22.683770656585693 L 4.858596324920654 22.690343856811523 L 8.836750745773315 6.559783458709717 M 12.749351978302002 8.127697706222534 L 10.353288888931274 8.090683937072754 L 9.090443372726440 13.518758296966553 L 13.260744094848633 13.378161907196045 C 16.471857547760010 13.662720680236816 17.577459812164307 12.684956073760986 18.218502044677734 10.275214433670044 C 18.630154609680176 7.704913616180420 16.702374458312988 8.384727001190186 12.749351978302002 8.127697706222534 M 11.360703706741333 15.253304958343506 L 8.493683338165283 15.366477012634277 L 7.241496562957764 21.083235740661621 C 8.104910373687744 21.199481964111328 9.320987462997437 20.983880996704102 11.184477567672729 21.039290428161621 C 14.664659500122070 21.199337482452393 15.946516513824463 20.565198898315430 16.682284355163574 17.661007404327393 C 16.978141307830811 15.008344173431396 15.313449382781982 15.308808803558350 11.360703706741333 15.253304958343506 " fill="none" stroke="black" stroke-width="0.3"></path></svg>