
<svg xmlns="http://www.w3.org/2000/svg" xmlns:xlink="http://www.w3.org/1999/xlink" width="50px" height="50px" style="-ms-transform: rotate(360deg); -webkit-transform: rotate(360deg); transform: rotate(360deg);" preserveAspectRatio="xMidYMid meet" viewBox="0 0 24 24"><path d="M 13.849164962768555 6.492000818252563 C 19.272099494934082 6.028573036193848 21.047647476196289 7.678233861923218 20.084710121154785 11.914078474044800 C 18.678537368774414 17.458082199096680 18.393364906311035 20.441283702850342 16.045412063598633 21.722309589385986 L 17.110837395790043 22.210269202975958 L 17.110837395790039 22.210269202975958 L 15.974400043487549 21.702514171600342 C 13.805847644805908 24.155645370483398 17.737734317779541 22.654911518096924 11.129975080490112 22.768318176269531 C 6.054555416107178 23.130775451660156 4.445261478424072 21.043839454650879 6.125597476959229 15.253190517425537 C 7.181249141693115 9.379683494567871 8.278940677642822 6.025043249130249 13.849164962768555 6.492000818252563 M 13.718396186828613 8.004989147186279 C 9.762662172317505 7.672337293624878 9.215405702590942 10.128711462020874 8.001249790191650 14.947794914245605 C 6.622041463851929 20.266419410705566 7.350715398788452 21.100470542907715 10.890458106994629 21.230426788330078 C 14.764424800872803 21.173512458801270 14.793273925781250 20.955526828765869 16.205141544342041 19.260001659393311 L 14.577105045318604 17.625287532806396 L 14.702798366546631 17.753095149993896 L 16.201489448547363 19.258426666259766 C 17.455337047576904 17.283954620361328 17.123554229736328 15.426212310791016 17.878625392913818 13.537289142608643 C 19.000594139099121 9.265128135681152 19.037926197052002 7.724205493927002 13.718396186828613 8.004989147186279 " fill="none" stroke="black" stroke-width="0.3"></path></svg>