
<svg xmlns="http://www.w3.org/2000/svg" xmlns:xlink="http://www.w3.org/1999/xlink" width="50px" height="50px" style="-ms-transform: rotate(360deg); -webkit-transform: rotate(360deg); transform: rotate(360deg);" preserveAspectRatio="xMidYMid meet" viewBox="0 0 24 24"><path d="M 8.665304660797119 6.561165332794189 L 16.780825138092041 6.564067840576172 C 18.847917079925537 6.463176012039185 20.612254142761230 7.225776672363281 19.992593765258789 10.424735069274902 C 19.366128444671631 13.790253639221191 18.588622570037842 14.668501853942871 17.267754077911377 15.459892272949219 C 16.006200313568115 16.342655181884766 16.797494888305664 15.901466846466064 17.352839469909668 17.703951358795166 L 16.906562805175781 22.675997257232666 L 15.381719112396240 22.693991661071777 C 15.171355247497559 20.759729862213135 15.471764087677002 20.130865573883057 15.429262161254883 17.784021377563477 C 15.146367073059082 15.984477996826172 14.709398746490479 15.981267929077148 13.732709884643555 15.874002456665039 L 8.385706901550293 15.691733837127686 L 6.582080841064453 22.690346717834473 L 4.775691390037537 22.687645912170410 L 8.665304660797119 6.561165332794189 M 15.982877254486084 8.239336252212524 L 10.260976552963257 8.113899707794189 L 8.803794394675959 14.134938288254631 C 9.561722152048688 14.054896297506808 11.630239709333214 14.007656699339567 13.010235786437988 13.948717117309570 C 15.911656379699707 13.614028930664062 16.893881320953369 14.465815544128418 18.073558330535889 11.529440402984619 C 19.097293853759766 8.086207151412964 17.486060142517090 8.470652103424072 15.982877254486084 8.239336252212524 " fill="none" stroke="black" stroke-width="0.3"></path></svg>