
<svg xmlns="http://www.w3.org/2000/svg" xmlns:xlink="http://www.w3.org/1999/xlink" width="50px" height="50px" style="-ms-transform: rotate(360deg); -webkit-transform: rotate(360deg); transform: rotate(360deg);" preserveAspectRatio="xMidYMid meet" viewBox="0 0 24 24"><path d="M 7.121271371841431 7.960361480712891 L 11.588685035705566 6.328893899917603 L 10.297901330569744 12.647347030800466 C 11.001867582078178 11.430563396371356 12.288026960639804 11.500273200545363 13.464870929718018 11.335063219070435 C 16.906994819641113 10.934998512268066 18.661159515380859 12.276535034179688 17.908143997192383 15.965676784515381 C 17.120522975921631 20.580751419067383 15.623505592346191 23.633046627044678 9.941155672073364 22.783457279205322 C 6.481696844100952 20.961108684539795 5.255037546157837 25.798951148986816 7.040187120437622 18.979704380035400 L 9.728854179382324 7.014704704284668 L 7.121271371841431 7.960361480712891 M 10.296586990356445 13.529913425445557 C 9.211257934570312 17.147748470306396 8.235692024230957 17.430207252502441 9.768968582153320 15.113358020782471 C 9.567335844039917 16.706211090087891 7.845597982406616 19.944130897521973 9.544639348983765 20.949603080749512 C 12.978308200836182 22.082941532135010 15.111888885498047 21.049451351165771 15.601394176483154 18.155224800109863 C 17.132771015167236 12.681943416595459 15.933425903320312 11.730287790298462 10.296586990356445 13.529913425445557 " fill="none" stroke="black" stroke-width="0.3"></path></svg>