
<svg xmlns="http://www.w3.org/2000/svg" xmlns:xlink="http://www.w3.org/1999/xlink" width="50px" height="50px" style="-ms-transform: rotate(360deg); -webkit-transform: rotate(360deg); transform: rotate(360deg);" preserveAspectRatio="xMidYMid meet" viewBox="0 0 24 24"><path d="M 11.832138061523438 11.406952857971191 C 16.201314926147461 11.038326501846313 18.027700424194336 11.806896686553955 17.890219688415527 13.334607124328613 C 17.836715698242188 14.625809669494629 17.921174526214600 14.578462600708008 16.330252647399902 14.447645187377930 L 15.895721912384033 13.833656787872314 C 15.921755790710449 12.848914146423340 14.993834495544434 12.751699447631836 13.450122356414795 12.596208572387695 C 10.527847766876221 12.845988750457764 10.441029310226440 13.681850910186768 9.611159563064575 15.671605110168457 C 9.092853069305420 18.763159275054932 8.810829877853394 16.957533359527588 8.792587280273438 19.897481918334961 C 9.222380876541138 21.188568592071533 9.822957515716553 21.218187332153320 11.211110830307007 21.310363769531250 C 14.189317703247070 21.186799049377441 14.209343433380127 21.238503456115723 15.279421806335449 19.084917068481445 L 16.659120082855225 19.107354640960693 C 16.134944915771484 22.092789173126221 14.077051162719727 22.985388278961182 12.055402278900146 22.664985179901123 C 7.887185811996460 23.340441226959229 6.486670017242432 21.382671833038330 6.926737546920776 19.287408828735352 C 7.835771799087524 15.254523754119873 8.610291481018066 12.451822757720947 10.685048103332520 11.687027692794800 L 11.832138061523438 11.406952857971191 " fill="none" stroke="black" stroke-width="0.3"></path></svg>