
<svg xmlns="http://www.w3.org/2000/svg" xmlns:xlink="http://www.w3.org/1999/xlink" width="50px" height="50px" style="-ms-transform: rotate(360deg); -webkit-transform: rotate(360deg); transform: rotate(360deg);" preserveAspectRatio="xMidYMid meet" viewBox="0 0 24 24"><path d="M 19.648036479949951 6.475271701812744 L 15.527252197265625 22.679922580718994 L 13.995426177978516 22.695864200592041 L 14.015976054987242 21.431633437917412 C 13.603775668720152 22.203933146426607 12.123420464842024 22.851254034051493 10.769589900970459 22.652104854583740 C 6.860081434249878 23.319684505462646 5.312001585960388 21.392540931701660 6.623032808303833 17.465593814849854 C 7.859640598297119 13.538177490234375 8.090587377548218 11.350669384002686 11.919302701950073 11.326359987258911 C 15.470789909362793 10.964530706405640 15.783940315246582 12.716382980346680 16.475117683410645 12.363315582275391 L 17.863333225250244 6.464325428009033 L 19.648036479949951 6.475271701812744 M 12.453439235687256 12.607957363128662 C 9.520088911056519 12.735965251922607 9.411198377609253 13.950306415557861 8.414719104766846 17.263083457946777 C 7.375776529312134 20.096516132354736 8.168635368347168 21.309054851531982 10.107661485671997 21.244055271148682 C 14.845298767089844 21.350825786590576 14.297468662261963 19.806429862976074 15.472113132476807 15.644764423370361 C 16.105503559112549 13.958471775054932 15.002025604248047 12.978667259216309 12.453439235687256 12.607957363128662 " fill="none" stroke="black" stroke-width="0.3"></path></svg>