
<svg xmlns="http://www.w3.org/2000/svg" xmlns:xlink="http://www.w3.org/1999/xlink" width="50px" height="50px" style="-ms-transform: rotate(360deg); -webkit-transform: rotate(360deg); transform: rotate(360deg);" preserveAspectRatio="xMidYMid meet" viewBox="0 0 24 24"><path d="M 13.097200870513916 11.263589859008789 C 17.024007797241211 11.581468105316162 15.162727832794189 12.781132221221924 16.842824935913086 11.617099285125732 L 18.651331901550293 11.556520700454712 L 15.262983798980713 24.826126098632812 C 14.679026126861572 28.219279289245605 12.262906551361084 29.861852645874023 8.904388904571533 29.893034934997559 C 6.841561317443848 29.912186622619629 4.717831134796143 29.230427742004395 4.697346568107605 27.807889938354492 C 4.690066695213318 27.302352905273438 4.748913288116455 26.830272674560547 6.103664159774780 26.479050636291504 C 6.814802169799805 27.167218208312988 7.889841556549072 27.716171264648438 8.195860147476196 27.889729499816895 C 8.667882442474365 28.157435417175293 9.315208911895752 28.281194686889648 10.998408079147339 29.036375999450684 C 12.549319267272949 28.404038429260254 13.495925903320312 25.823736190795898 14.123515605926514 22.697450637817383 L 14.188008785247803 21.779933452606201 C 13.427586078643799 22.270890712738037 12.860471248626709 22.912742614746094 10.617987155914307 22.761584758758545 C 7.274912595748901 23.267583847045898 5.791865944862366 21.282360076904297 7.103710412979126 17.844467639923096 C 8.336493015289307 12.483295440673828 8.496855497360229 11.439908266067505 13.097200870513916 11.263589859008789 M 13.640427589416504 12.718379974365234 C 10.469069480895996 12.438900947570801 9.594669342041016 13.376702785491943 8.924337387084961 17.271692276000977 C 7.681310176849365 20.380987644195557 8.376973628997803 21.690500736236572 10.999274253845215 21.335526466369629 C 15.129761695861816 21.390924453735352 14.801257610321045 19.434608459472656 15.847885608673096 15.428421020507812 C 16.017203807830811 12.754611968994141 16.127607822418213 13.875424861907959 13.640427589416504 12.718379974365234 " fill="none" stroke="black" stroke-width="0.3"></path></svg>