<svg xmlns="http://www.w3.org/2000/svg" xmlns:xlink="http://www.w3.org/1999/xlink" width="50px" height="50px" viewBox="0 0 24 24">
<style type="text/css">
.path {
		stroke-dasharray: 100;
		animation: dash 30s linear infinite;
}
@keyframes dash {
	to {
		stroke-dashoffset: 1000;
	}
}
</style>
<path class="path" d="M 11.387010812759399 6.431573152542114 C 13.908004760742188 6.040474176406860 17.097082614898682 7.137709379196167 16.984442710876465 9.403367757797241 L 17.130168914794922 11.464985847473145 L 13.744550228118896 11.098939418792725 L 13.495224952697754 9.995887756347656 C 11.562789916992188 9.520515918731689 10.659228801727295 10.380794048309326 11.696813821792603 9.810785293579102 C 10.630999803543091 10.227278709411621 10.599605083465576 10.661367416381836 10.355506181716919 13.686339855194092 L 10.305039882659912 16.021845817565918 C 10.460483551025391 18.939328193664551 10.605671882629395 19.581760883331299 12.042164325714111 19.635322093963623 C 11.036197900772095 19.543892383575439 12.576460361480713 19.801596164703369 13.242536544799805 19.351422786712646 L 13.543290138244629 16.641424655914307 L 12.018970012664795 16.627139568328857 L 12.036279201507568 13.938762187957764 L 17.571475982666016 13.854349136352539 L 17.490882396697998 22.581038475036621 L 14.039842128753662 22.511448383331299 C 13.341320375124592 22.784527717655955 12.799748884351278 22.910437312059507 12.400813732581728 22.941906802423784 C 11.915004817070400 23.014250153046966 11.206273367882245 22.987549007787258 10.285295963287354 22.860845088958740 C 6.523566484451294 21.794886589050293 5.941380500793457 19.741855144500732 5.932306408882141 14.754804611206055 C 5.872531771659851 9.601663112640381 7.048572778701782 7.145658016204834 11.387010812759399 6.431573152542114 " fill="none" stroke="black" stroke-width="0.3">
</path>
</svg>
