<svg xmlns="http://www.w3.org/2000/svg" xmlns:xlink="http://www.w3.org/1999/xlink" width="50px" height="50px" viewBox="0 0 24 24">
<style type="text/css">
.path {
		stroke-dasharray: 100;
		animation: dash 30s linear infinite;
}
@keyframes dash {
	to {
		stroke-dashoffset: 1000;
	}
}
</style>
<path class="path" d="M 15.571045875549316 10.411095142364502 C 16.321409225463867 10.410139560699463 15.945909976959229 11.230160236358643 16.039136409759521 12.043119907379150 L 15.956934928894043 14.442139148712158 C 13.955051422119141 13.517452239990234 12.990059852600098 14.300306797027588 12.850603580474854 15.451096057891846 C 12.841987551666206 15.440361431162833 12.833371242914934 15.429674063663871 12.824757469003297 15.419034110946951 L 12.735481457330300 18.122779598283291 C 12.735481457330300 18.122779598283294 12.735481457330300 18.122779598283294 12.735481457330300 18.122779598283294 L 12.761022090911865 18.478739261627197 C 12.753062725067139 19.188447475433350 12.772912502288818 19.832214832305908 12.755484580993652 20.130490779876709 L 12.749244689941406 21.627759933471680 C 12.813547047228148 21.326968627696932 12.814318136838354 21.202743384010134 12.907013885030635 21.126705856008648 C 12.907013885030624 21.126705856008641 12.907013885030624 21.126705856008641 12.907013885030624 21.126705856008641 C 12.775341882567874 21.255725823538619 12.808210234295995 21.436288377450758 12.736830711364746 21.824210643768311 C 12.832414627075195 23.144175052642822 12.782823085784912 22.542676448822021 12.349954605102539 22.685477256774902 C 10.547275543212891 22.692126274108887 9.010725259780884 22.671684265136719 8.819203376770020 22.715785503387451 C 8.657037734985352 22.584164142608643 8.753126621246338 23.019647598266602 8.770814895629883 21.269282341003418 L 8.780313491821289 14.045269489288330 C 8.573569536209106 12.255835533142090 8.720990180969238 11.338065862655640 8.638675689697266 11.642700433731079 C 8.561408042907715 11.023323297500610 8.573886394500732 11.146139144897461 8.552207708358765 11.151731014251709 C 8.489212274551392 10.885888338088989 8.559038400650024 11.524894952774048 8.522708415985107 11.227611064910889 C 8.566394805908203 10.557006597518921 8.540667772293091 10.807501316070557 12.090923309326172 10.680680036544800 C 12.578211307525635 10.899398803710938 12.298945426940918 10.522790193557739 12.457640647888184 11.229668855667114 C 12.266474246978760 12.133026123046875 12.489698410034180 11.730365753173828 12.405550003051758 13.066284656524658 C 12.766333580017090 10.956567049026489 12.871311664581299 12.492545127868652 12.490732669830322 12.223241329193115 C 13.528049468994141 11.106108427047729 13.687241077423096 10.550976991653442 15.571045875549316 10.411095142364502 " fill="none" stroke="black" stroke-width="0.3">
</path>
</svg>
