
<svg xmlns="http://www.w3.org/2000/svg" xmlns:xlink="http://www.w3.org/1999/xlink" width="50px" height="50px" style="-ms-transform: rotate(360deg); -webkit-transform: rotate(360deg); transform: rotate(360deg);" preserveAspectRatio="xMidYMid meet" viewBox="0 0 24 24"><path d="M 13.634293556213379 6.361470937728882 C 15.993022441864014 7.173095226287842 16.760928153991699 6.977396965026855 16.934597969055176 11.136473894119263 L 14.094958305358887 11.197472333908081 C 13.203419208526611 10.840826511383057 14.087179183959961 9.512909173965454 11.833646535873413 9.281511068344116 C 10.762579679489136 9.667034626007080 10.659499883651733 9.397731542587280 10.692255735397339 10.931377887725830 C 10.982427835464478 12.051042079925537 12.194058895111084 12.227776050567627 13.571004867553711 12.885819911956787 C 15.230638504028320 13.821518898010254 17.458090782165527 14.266237735748291 17.609506130218506 18.002024173736572 C 17.476216793060303 21.201533317565918 15.204461574554443 22.996726512908936 11.191062211990356 22.981279850006104 C 7.468302726745605 22.452747344970703 6.249145746231079 21.699741840362549 6.517707824707031 17.481668472290039 L 9.850904703140259 17.468759536743164 C 9.976496458053589 17.730128288269043 9.907525777816772 20.102933406829834 12.072867393493652 19.643298625946045 C 13.108005523681641 19.773050308227539 13.948958873748779 18.670921325683594 13.282619476318359 17.465210437774658 C 12.452585220336914 16.586483001708984 10.961615324020386 16.360553741455078 10.455267190933228 15.924297809600830 C 7.866177320480347 14.555614471435547 6.357662916183472 13.659753799438477 6.389450311660767 10.843176841735840 C 6.452895641326904 7.362078666687012 9.192900896072388 5.832588315010071 13.634293556213379 6.361470937728882 " fill="none" stroke="black" stroke-width="0.3"></path></svg>