
<svg xmlns="http://www.w3.org/2000/svg" xmlns:xlink="http://www.w3.org/1999/xlink" width="50px" height="50px" style="-ms-transform: rotate(360deg); -webkit-transform: rotate(360deg); transform: rotate(360deg);" preserveAspectRatio="xMidYMid meet" viewBox="0 0 24 24"><path d="M 3.230848431587219 6.565245866775513 L 7.347179889678955 6.561264038085938 L 8.309896230697632 13.873306274414062 C 8.364071846008301 15.403007984161377 8.617926836013794 16.357602596282959 8.627537012100220 16.529633045196533 C 8.957972288131714 14.913807392120361 9.119999170303345 14.557466983795166 9.416402578353882 12.044623374938965 C 9.784654140472412 9.734102725982666 9.853955984115601 7.127955436706543 10.103021621704102 6.554529905319214 L 14.423635482788086 6.665471792221069 C 14.629647731781006 7.623056173324585 15.189331054687500 12.419744968414307 15.332276344299316 14.503581047058105 C 15.738866329193115 15.919198036193848 15.697206974029541 16.182582378387451 15.878478527069092 18.128212451934814 C 15.868300437927246 15.808579444885254 16.023608207702637 14.250974178314209 16.345237255096436 12.597972393035889 C 16.531592845916748 10.058902502059937 16.982830524444580 8.940683126449585 17.256518840789795 6.565370321273804 L 20.866255760192871 6.561785459518433 C 20.451171398162842 9.639715433120728 18.932218551635742 16.184589385986328 18.011312484741211 22.686239719390869 L 13.519167423248291 22.687595844268799 C 13.198380947113037 19.565856456756592 12.643070697784424 17.320448398590088 12.454565048217773 15.646213531494141 C 12.279754121771582 14.781024406755279 12.100462019475163 13.346570238490006 12.125768174791993 12.553042276624257 C 11.704879722616624 13.817134219470692 11.618920627747091 15.883433811090674 11.117767095565796 18.405063629150391 C 10.939695596694946 19.946551322937012 10.483743667602539 22.171175479888916 10.378386497497559 22.687412738800049 L 5.946944475173950 22.690052032470703 C 5.577223420143127 19.929890155792236 4.315179705619812 13.556327819824219 3.230848431587219 6.565245866775513 " fill="none" stroke="black" stroke-width="0.3"></path></svg>