
<svg xmlns="http://www.w3.org/2000/svg" xmlns:xlink="http://www.w3.org/1999/xlink" width="50px" height="50px" style="-ms-transform: rotate(360deg); -webkit-transform: rotate(360deg); transform: rotate(360deg);" preserveAspectRatio="xMidYMid meet" viewBox="0 0 24 24"><path d="M 11.308399200439453 10.120633363723755 C 14.793927669525146 10.087209463119507 16.624441623687744 11.387547254562378 16.642436027526855 14.807370185852051 L 16.542531967163086 19.862184047698975 C 16.568748950958252 20.696661472320557 16.902315616607666 21.067324161529541 16.799509048461914 22.688651561737061 L 13.567771911621094 22.685967922210693 C 13.437053203582764 22.577575206756592 12.870954036712646 21.753065586090088 13.102459430694580 21.572589397430420 C 12.048306941986084 22.346373081207275 11.578999757766724 23.113836765289307 9.686044692993164 23.033547878265381 C 7.591210842132568 22.786346912384033 6.340385913848877 21.069087982177734 6.678473711013794 18.746153354644775 C 6.799971342086792 16.591245174407959 8.810312747955322 15.153119087219238 11.568178653717041 14.887922286987305 C 13.125384807586670 14.836056232452393 12.585499763488770 14.497598648071289 12.729183197021484 14.756173610687256 L 12.778535842895508 13.870957374572754 C 12.681491374969482 12.878293991088867 11.909767627716064 12.825799942016602 11.810577392578125 12.864960193634033 C 9.783148527145386 12.748319149017334 10.892218351364136 13.452785968780518 9.145127534866333 13.913251876831055 L 7.542876720428467 13.929519653320312 C 6.782506745255839 12.586534716001353 7.866930542091097 10.981775065750474 7.818791429936646 11.288631078224167 C 8.325452508089883 10.524370976139304 9.996594343425793 10.394691990361986 11.308399200439453 10.120633363723755 M 12.794643402099609 17.150064468383789 C 11.528106451034546 17.399286746978760 10.611724376678467 17.606266021728516 10.463541984558105 18.748191833496094 C 10.381793260574341 20.023325443267822 10.633016824722290 20.175586223602295 11.570852994918823 20.445053100585938 C 12.583261013031006 20.214012622833252 12.638782024383545 19.373396873474121 12.765688419342041 18.871280193328857 L 12.794643402099609 17.150064468383789 " fill="none" stroke="black" stroke-width="0.3"></path></svg>