
<svg xmlns="http://www.w3.org/2000/svg" xmlns:xlink="http://www.w3.org/1999/xlink" width="50px" height="50px" style="-ms-transform: rotate(360deg); -webkit-transform: rotate(360deg); transform: rotate(360deg);" preserveAspectRatio="xMidYMid meet" viewBox="0 0 24 24"><path d="M 6.996339797973633 6.555269479751587 L 10.915087223052979 6.564112901687622 L 10.888541936874390 11.853267431259155 C 11.267160415649414 10.872415065765381 12.148512840270996 10.172145366668701 13.628901958465576 10.273497104644775 C 15.855281352996826 10.603936672210693 17.420478343963623 12.181550502777100 17.144206523895264 16.708971977233887 C 17.406921386718750 20.964539051055908 16.166210174560547 22.876496315002441 13.051352977752686 22.944966316223145 C 11.911098718643188 22.845322608947754 10.872953653335571 22.165710926055908 10.513280868530273 21.718940734863281 L 9.985563755035400 22.693184852600098 L 7.097008466720581 22.677436351776123 L 6.996339797973633 6.555269479751587 M 11.740970849990845 13.206517696380615 C 10.764751911163330 13.511927604675293 11.027341604232788 14.241610050201416 10.980188369750977 16.189998149871826 L 11.011876344680786 18.658019542694092 C 11.145391868811327 19.406554667299464 11.413275899162524 19.766227431228145 11.527374283772346 19.913402197103458 C 12.958305050134125 19.973837713522190 12.998120349965374 19.352145732616982 13.078881740570068 17.238544464111328 C 12.976653099060059 13.698359012603760 13.090845108032227 13.396890163421631 11.740970849990845 13.206517696380615 " fill="none" stroke="black" stroke-width="0.3"></path></svg>