
<svg xmlns="http://www.w3.org/2000/svg" xmlns:xlink="http://www.w3.org/1999/xlink" width="50px" height="50px" style="-ms-transform: rotate(360deg); -webkit-transform: rotate(360deg); transform: rotate(360deg);" preserveAspectRatio="xMidYMid meet" viewBox="0 0 24 24"><path d="M 12.282217025756836 10.331957817077637 C 15.153814315795898 10.494925260543823 17.028276443481445 12.572619438171387 17.153104305267334 15.886186122894287 L 17.220065116882324 17.394533157348633 L 10.689077854156494 17.666795253753662 C 10.462245225906372 17.505522251129150 10.737663745880127 20.184684276580811 12.245936393737793 20.220758914947510 C 13.936650753021240 20.521818637847900 15.201344490051270 19.291800498962402 16.450704574584961 19.404251575469971 L 16.588155269622803 19.459323406219482 C 17.308027267456055 22.203440666198730 15.268491268157959 22.802581787109375 12.353353500366211 23.077407360076904 C 8.908980846405029 23.003750324249268 6.736362934112549 20.667401790618896 6.849242448806763 16.643872261047363 C 6.787899971008301 12.964678287506104 8.928619623184204 10.497156143188477 12.282217025756836 10.331957817077637 M 12.334098815917969 12.968586444854736 C 11.180169582366943 12.707000255584717 10.865969896316528 13.553242206573486 10.506625413894653 15.205455780029297 L 12.952795028686523 15.178683757781982 C 13.973094463348389 15.041082859039307 13.205214500427246 12.810785293579102 12.334098815917969 12.968586444854736 " fill="none" stroke="black" stroke-width="0.3"></path></svg>