
<svg xmlns="http://www.w3.org/2000/svg" xmlns:xlink="http://www.w3.org/1999/xlink" width="50px" height="50px" style="-ms-transform: rotate(360deg); -webkit-transform: rotate(360deg); transform: rotate(360deg);" preserveAspectRatio="xMidYMid meet" viewBox="0 0 24 24"><path d="M 10.305011987686157 10.408372879028320 C 12.553566455841064 10.237095594406128 12.535071372985840 10.768492698669434 13.630405426025391 12.043805122375488 C 14.323791503906250 11.305709838867188 14.627019882202148 10.358222007751465 16.555087566375732 10.326734304428101 C 18.437383174896240 10.188748598098755 19.713422298431396 11.430499076843262 19.716341972351074 13.628223896026611 L 19.777583599090576 22.687289714813232 L 15.777691841125488 22.688884735107422 L 15.702476978302002 14.376066684722900 C 15.842056274414062 13.681850910186768 15.313294887542725 13.371412754058838 15.052953243255615 13.410161018371582 C 14.233391761779785 13.524870872497559 13.728086471557617 13.571132183074951 13.852971553802490 14.901630878448486 L 13.866705894470215 22.687764644622803 L 9.842264413833618 22.686713218688965 L 10.018622159957886 15.531875610351562 C 9.746216297149658 13.491166591644287 9.914201259613037 13.704129695892334 9.212827920913696 13.415458202362061 C 8.120924234390259 13.421527862548828 8.177257061004639 13.687402725219727 8.085177183151245 15.555810928344727 L 8.015364646911621 22.689920425415039 L 4.203910589218140 22.686904907226562 L 4.147406816482544 10.709503412246704 L 7.850769281387329 10.725346326828003 L 7.816150903701782 11.955421686172485 C 8.913574218750000 11.003590822219849 9.475655078887939 10.424843072891235 10.305011987686157 10.408372879028320 " fill="none" stroke="black" stroke-width="0.3"></path></svg>