
<svg xmlns="http://www.w3.org/2000/svg" xmlns:xlink="http://www.w3.org/1999/xlink" width="50px" height="50px" style="-ms-transform: rotate(360deg); -webkit-transform: rotate(360deg); transform: rotate(360deg);" preserveAspectRatio="xMidYMid meet" viewBox="0 0 24 24"><path d="M 13.358264923095703 10.372502803802490 C 16.123178958892822 10.443049192428589 17.438661575317383 12.530170440673828 17.456779003143311 15.620804786682129 C 17.762133121490479 20.896496772766113 16.493080615997314 22.728844642639160 13.548319816589355 22.996876716613770 C 12.713491916656494 22.972525119781494 11.249170303344727 22.481453418731689 10.820776462554932 21.664700031280518 L 10.886781692504883 28.025176048278809 L 6.999637842178345 28.656126022338867 L 6.878442049026489 10.732497453689575 L 10.717006444931030 10.668480634689331 L 10.880874395370483 12.566466808319092 C 10.956268072128296 11.249533653259277 12.362061023712158 10.453361749649048 13.358264923095703 10.372502803802490 M 12.439624786376953 13.187843799591064 C 10.876273870468140 12.946346282958984 10.898157835006714 13.500307559967041 10.915493488311768 16.166833877563477 C 10.991156101226807 19.008599281311035 10.728604316711426 20.740586757659912 12.451911449432373 20.143637180328369 C 13.347570419311523 19.797958374023438 13.379217624664307 17.866425991058350 13.182290554046631 15.257377624511719 C 13.259056091308594 14.794677257537842 13.109590530395508 13.208587646484375 12.439624786376953 13.187843799591064 " fill="none" stroke="black" stroke-width="0.3"></path></svg>