
<svg xmlns="http://www.w3.org/2000/svg" xmlns:xlink="http://www.w3.org/1999/xlink" width="50px" height="50px" style="-ms-transform: rotate(360deg); -webkit-transform: rotate(360deg); transform: rotate(360deg);" preserveAspectRatio="xMidYMid meet" viewBox="0 0 24 24"><path d="M 10.560165882110596 10.561330318450928 C 12.507860183715820 10.334474802017212 12.330606937408447 11.288990020751953 13.615968704223633 11.420700073242188 L 14.091749668121338 10.797035694122314 L 16.939448833465576 10.907669305801392 L 16.932015895843506 27.818673133850098 L 13.527221202850342 27.360394477844238 L 12.925240516662598 21.454253196716309 C 12.596343040466309 22.695965766906738 11.025645732879639 23.004464149475098 10.578757524490356 23.053811073303223 C 8.017579793930054 22.867797374725342 6.755770683288574 20.765283107757568 6.681527853012085 16.837759494781494 C 6.715819358825684 13.319399356842041 7.583411693572998 10.911794185638428 10.560165882110596 10.561330318450928 M 12.290164947509766 13.457884311676025 C 10.787379741668701 12.792762279510498 10.486608266830444 14.149515151977539 10.640268802642822 17.671002388000488 C 10.612782955169678 18.757036685943604 10.880234241485596 20.164142131805420 11.890683174133301 20.138567447662354 C 13.029789447784424 20.230626583099365 13.142124652862549 18.751082897186279 13.059062004089355 16.595533847808838 C 12.892247200012207 13.541669368743896 12.925379276275635 13.786687374114990 12.290164947509766 13.457884311676025 " fill="none" stroke="black" stroke-width="0.3"></path></svg>