
<svg xmlns="http://www.w3.org/2000/svg" xmlns:xlink="http://www.w3.org/1999/xlink" width="50px" height="50px" style="-ms-transform: rotate(360deg); -webkit-transform: rotate(360deg); transform: rotate(360deg);" preserveAspectRatio="xMidYMid meet" viewBox="0 0 24 24"><path d="M 11.046803712844849 10.425855159759521 C 13.143659591674805 10.228847265243530 15.649018764495850 10.825281858444214 16.211155414581299 12.308677196502686 L 16.537060260772705 14.083515644073486 C 12.418078422546387 14.011025905609131 14.346728324890137 14.469643592834473 12.735278606414795 12.969228744506836 C 10.980544567108154 12.728791236877441 10.795257568359375 13.443818092346191 11.298815488815308 14.192115783691406 C 11.341624975204468 14.363532543182373 11.900422811508179 14.613554477691650 13.588584423065186 15.242465972900391 C 15.759448528289795 16.038219451904297 17.034530639648438 16.696088790893555 17.011696815490723 19.282668113708496 C 16.703872203826904 21.938002109527588 14.755680084228516 23.220777511596680 11.268729686737061 23.019747734069824 C 10.224344015121460 22.928174972534180 7.845864057540894 22.388859272003174 7.362414121627808 20.662173271179199 L 7.135798931121826 18.740200996398926 C 10.874265432357788 18.146591663360596 9.604219436645508 18.760115146636963 10.769582748413086 20.008438110351562 C 11.959203243255615 20.842138767242432 13.461391925811768 20.142617225646973 13.038362503051758 19.267810821533203 C 13.057721614837646 18.560331344604492 12.561391353607178 18.578420162200928 10.977149248123169 18.002253055572510 C 8.950340509414673 16.757363319396973 7.548074483871460 16.765819072723389 7.270791292190552 14.351243019104004 C 7.111378669738770 12.162546157836914 8.352333068847656 10.904846906661987 11.046803712844849 10.425855159759521 " fill="none" stroke="black" stroke-width="0.3"></path></svg>