<svg xmlns="http://www.w3.org/2000/svg" xmlns:xlink="http://www.w3.org/1999/xlink" width="50px" height="50px" style="-ms-transform: rotate(360deg); -webkit-transform: rotate(360deg); transform: rotate(360deg);" preserveAspectRatio="xMidYMid meet" viewBox="0 0 24 24"><path d="m 13.51200008392334 4.930666446685791 l 4.751999855041504 14.784000396728516 c 0.4320000112056732 1.343999981880188 1.440000057220459 2.0880000591278076 2.687999963760376 2.0880000591278076 l 0.4560000002384186 0.0 l 0.0 0.8640000224113464 l -8.184000015258789 0.0 l 0.0 -0.8640000224113464 l 0.8159999847412109 0.0 c 0.6959999799728394 0.0 1.0800000429153442 -0.3840000033378601 1.0800000429153442 -1.055999994277954 c 0.0 -0.3839999735355377 -0.09600000083446503 -0.7440000176429749 -0.16799992322921753 -0.9359999299049377 l -0.9599999785423279 -2.9519999027252197 l -6.168000221252441 0.0 l -1.055999994277954 2.8320000171661377 c -0.04800000041723251 0.1679999977350235 -0.11999999721818178 0.4320000112056732 -0.12000000476837158 0.7440000176429749 c -1.9225617450373347e-08 0.8160000443458555 0.6000000238418579 1.3680000305175781 1.4639999866485596 1.3680000305175781 l 0.8159999847412109 0.0 l 0.0 0.8640000224113464 l -6.239999771118164 0.0 l 0.0 -0.8640000224113464 l 0.527999997138977 0.0 c 0.8159999847412109 0.0 1.8480000495910645 -0.6480000019073486 2.4240000247955322 -2.135999917984009 l 5.184000015258789 -13.751999855041504 l 2.688000053167343 -0.9840009212493896 m -2.3520000874996185 3.048000991344452 l -0.04799997806549072 0.0 l -2.9040000438690186 7.800000190734863 l 5.423999786376953 0.0 l -2.471999764442444 -7.800000190734863" fill="currentColor"/></svg>