<svg xmlns="http://www.w3.org/2000/svg" xmlns:xlink="http://www.w3.org/1999/xlink" width="50px" height="50px" style="-ms-transform: rotate(360deg); -webkit-transform: rotate(360deg); transform: rotate(360deg);" preserveAspectRatio="xMidYMid meet" viewBox="0 0 24 24"><path d="m 3.75600004196167 5.314666748046875 l 9.359999656677246 0.0 c 1.055999994277954 0.0 5.9039998054504395 0.07199999690055847 5.9039998054504395 4.007999897003174 c 0.0 3.2159998416900635 -3.240000009536743 3.81600022315979 -4.584000110626221 4.0320000648498535 l 0.0 0.04799997806549072 c 1.3919999599456787 0.1679999977350235 5.5679996008198405 0.7440000176429535 5.567999839782715 4.559999942779541 c 2.692916579220254e-07 4.320000171661369 -5.136000156402588 4.703999996185303 -7.415999412536621 4.703999996185303 l -8.831998825073242 0.0 l 0.0 -0.8640000224113464 l 0.7919999957084656 0.0 c 0.8640000224113464 0.0 1.4639999866485596 -0.6240000128746033 1.4639999866485596 -1.6080000400543213 l 0.0 -12.503999710083008 c 0.0 -1.055999994277954 -0.8640000224113464 -1.5119999647140503 -1.7999999523162842 -1.5119998455047607 l -0.45600003004074097 0.0 l -9.5367431640625e-07 -0.8640002608299255 m 8.40000057220459 0.8640002608299255 l -1.2239999771118164 0.0 c -0.8880000114440918 0.0 -1.5360000133514404 0.5040000081062317 -1.5360000133514404 1.559999942779541 l 0.0 5.328000068664551 l 1.7280001640319824 0.0 c 2.447999954223633 0.0 4.056000232696533 -0.9359999299049377 4.056000232696533 -3.623999834060669 c 0.0 -2.496000051498413 -1.6080005168914795 -3.2639999389648438 -3.024000406265259 -3.264000177383423 m -0.45599955320358276 7.752000093460083 l -2.303999900817871 0.0 l 0.0 6.360000133514404 c 0.0 1.128000020980835 0.7919999957084656 1.5119999647140503 1.7280001640319824 1.5120000839233398 l 1.1519999504089355 0.0 c 2.5439999103546143 0.0 3.815999984741211 -1.440000057220459 3.815999984741211 -3.743999719619751 c 0.0 -3.359999895095825 -2.111999988555908 -4.128000497817993 -4.392000198364258 -4.128000497817993" fill="currentColor"/></svg>