<svg xmlns="http://www.w3.org/2000/svg" xmlns:xlink="http://www.w3.org/1999/xlink" width="50px" height="50px" style="-ms-transform: rotate(360deg); -webkit-transform: rotate(360deg); transform: rotate(360deg);" preserveAspectRatio="xMidYMid meet" viewBox="0 0 24 24"><path d="m 12.444000244140625 4.930666446685791 c 0.7680000066757202 0.0 1.4444954163804091 0.08150005231032864 2.4719998836517334 0.40799999237060547 c 0.14466157329444285 0.04596767850079645 0.8880000114440918 0.2400000023841855 1.3680000305175781 0.23999999463558197 c 0.38400000333786005 -5.7220459481754915e-09 1.0800000429153442 -0.2879999876022339 1.3919999599456787 -0.43199998140335083 l 1.6319999694824219 4.440000057220459 l -0.7919999957084656 0.31200000643730164 c -0.984000027179718 -1.4160000085830688 -2.7119998931884766 -4.007999897003174 -5.664000034332275 -4.007999897003174 c -4.056000232696533 0.0 -4.535999774932861 4.9679999351501465 -4.535999774932861 7.152000427246094 c 0.0 1.9439998865127563 0.335999995470047 7.800000190734863 5.4720001220703125 7.800000190734863 c 3.0480000972747803 0.0 4.51200008392334 -2.184000015258789 5.25600004196167 -3.3359999656677246 l 0.7680000066757202 0.3840000033378601 c -0.5759999752044678 1.3919999599456787 -2.447999954223633 5.159999847412109 -7.36799955368042 5.159999847412109 c -4.631999969482422 0.0 -7.871999977111809 -3.1440002918243266 -7.871999740600586 -8.520000457763672 c 2.446174676151713e-07 -5.472000122070307 3.263998806476593 -9.600000217556953 7.871999084949493 -9.600000217556953" fill="currentColor"/></svg>