<svg xmlns="http://www.w3.org/2000/svg" xmlns:xlink="http://www.w3.org/1999/xlink" width="50px" height="50px" style="-ms-transform: rotate(360deg); -webkit-transform: rotate(360deg); transform: rotate(360deg);" preserveAspectRatio="xMidYMid meet" viewBox="0 0 24 24"><path d="m 3.2880001068115234 5.314666748046875 l 8.855999946594238 0.0 c 7.631999969482422 0.0 8.399999618530273 6.648000240325928 8.399999618530273 8.543999671936035 c 0.0 2.5920000076293945 -1.0087426076471573 5.3031497788463415 -2.5199999809265137 6.624000072479248 c -2.4972279122972907 2.1825959492709104 -4.968000411987305 2.184000015258789 -5.880000114440918 2.184000015258789 l -8.855999946594238 0.0 l 0.0 -0.8640000224113464 l 0.671999990940094 0.0 c 1.0800000429153442 0.0 1.6080000400543213 -0.5759999752044678 1.6080000400543213 -1.679999828338623 l 0.0 -12.312000274658203 c 0.0 -1.0800000429153442 -0.335999995470047 -1.6319999694824219 -1.871999979019165 -1.6319999694824219 l -0.40800005197525024 0.0 l 4.76837158203125e-07 -0.8639996647834778 m 7.559999465942383 0.8639996647834778 c -1.3199999332427979 0.0 -1.8960000276565552 0.5759999752044678 -1.8959999084472656 1.6319999694824219 l 0.0 12.26400089263916 c 0.0 1.2960000038146973 0.5279999971389735 1.7280001045583315 1.9680001735687256 1.7280001640319824 c 1.2960000038146962 5.376206791589094e-08 2.6395262368623857 -0.43248596590787436 3.624000072479248 -1.3919999599456787 c 1.823122900808274 -1.776900383624883 2.0880000591278076 -4.895999908447266 2.0880000591278076 -6.4079999923706055 c 0.0 -1.5120000839233398 -0.23954800431476464 -4.200366744261346 -1.5839998722076416 -5.855999946594238 c -1.2475806954405615 -1.5363406242268314 -3.024000644683838 -1.968001127243042 -4.200000524520874 -1.968001127243042" fill="currentColor"/></svg>