<svg xmlns="http://www.w3.org/2000/svg" xmlns:xlink="http://www.w3.org/1999/xlink" width="50px" height="50px" style="-ms-transform: rotate(360deg); -webkit-transform: rotate(360deg); transform: rotate(360deg);" preserveAspectRatio="xMidYMid meet" viewBox="0 0 24 24"><path d="m 4.007999897003174 5.314666748046875 l 13.704000473022461 0.0 l 1.6560001373291016 4.343999862670898 l -0.7919999957084656 0.335999995470047 c -1.7280000448226929 -2.184000015258789 -3.2160000801086177 -3.8159999861304748 -6.480000019073486 -3.815999746322632 c -1.776000022888179 1.2897183728400598e-07 -2.447999954223633 0.36000001430511475 -2.447999954223633 1.7039999961853027 l 0.0 5.495999813079834 l 1.0080000162124634 0.0 c 0.9359999895095825 0.0 2.063739993921395 -0.28828434700768923 2.9040000438690186 -1.055999994277954 c 0.5518293653326495 -0.5041868150410408 0.7440000176429749 -0.9600000381469727 0.9120000004768372 -1.871999979019165 l 0.8640000224113464 0.0 l 0.0 6.696000576019287 l -0.8640000224113464 0.0 c -0.09600000083446503 -0.6000000238418579 -0.26093025908827805 -1.419858286140368 -0.984000027179718 -1.991999864578247 c -0.5496820688065595 -0.4349455341164273 -1.2960000038146973 -0.9120000004768372 -2.880000114440918 -0.9120000004768372 l -0.9599999785423279 0.0 l 0.0 5.831999778747559 c 0.0 1.2719999551773071 0.6000000238418544 1.7280001033587915 2.111999988555908 1.7280001640319824 c 4.271999835968014 1.6538770706206506e-07 5.616000175476074 -1.656000018119812 7.440000057220459 -3.9599997997283936 l 0.8159999847412109 0.2879999876022339 l -1.5839998722076416 4.535999774932861 l -14.423999786376953 0.0 l 0.0 -0.8640000224113464 l 0.6240000128746033 0.0 c 1.055999994277954 0.0 1.6319999694824219 -0.671999990940094 1.6319999694824219 -1.7279999256134033 l 0.0 -11.928000450134277 c 0.0 -1.3200000524520874 -0.5759999752044678 -1.9679999351501465 -1.9199998378753662 -1.9679999351501465 l -0.3360000252723694 0.0 l -1.0728836059570312e-06 -0.8640002310276031" fill="currentColor"/></svg>