<svg xmlns="http://www.w3.org/2000/svg" xmlns:xlink="http://www.w3.org/1999/xlink" width="50px" height="50px" style="-ms-transform: rotate(360deg); -webkit-transform: rotate(360deg); transform: rotate(360deg);" preserveAspectRatio="xMidYMid meet" viewBox="0 0 24 24"><path d="m 4.392000198364258 5.314666748046875 l 13.751999855041504 0.0 l 1.6080000400543213 4.368000030517578 l -0.7919999957084656 0.335999995470047 c -1.7760000228881836 -2.2799999713897705 -3.191999912261963 -3.8399999141693115 -6.5279998779296875 -3.8399999141693115 c -1.7039999961853027 0.0 -2.4240000247955322 0.36000001430511475 -2.4240000247955322 1.6319999694824219 l 0.0 5.567999839782715 l 0.984000027179718 0.0 c 1.0800000429153442 0.0 2.1147433200459336 -0.2849938243776524 2.9040000438690186 -1.0079998970031738 c 0.6261855876742968 -0.5736232189268912 0.8159999847412109 -1.031999945640564 0.984000027179718 -1.944000005722046 l 0.8640000224113464 0.0 l 0.0 6.696000576019287 l -0.8640000224113464 0.0 c -0.2879999876022339 -1.7279999256134033 -1.3919999599456787 -2.880000114440918 -3.9600000381469727 -2.880000114440918 l -0.9120000004768372 0.0 l 0.0 6.0 c 0.0 0.887999951839447 0.6000000238418579 1.559999942779541 1.6080000400543213 1.559999942779541 l 0.7200000286102295 0.0 l 0.0 0.8640000224113464 l -7.943999290466309 0.0 l 0.0 -0.8640000224113464 l 0.6240000128746033 0.0 c 1.055999994277954 0.0 1.6080000400543213 -0.6240000128746033 1.6080000400543213 -1.679999828338623 l 0.0 -12.119998931884766 c 0.0 -1.2960000038146973 -0.6480000019073486 -1.8240000009536743 -1.8239998817443848 -1.8239998817443848 l -0.40800005197525024 0.0 l -9.5367431640625e-07 -0.8640017807483673" fill="currentColor"/></svg>