<svg xmlns="http://www.w3.org/2000/svg" xmlns:xlink="http://www.w3.org/1999/xlink" width="50px" height="50px" style="-ms-transform: rotate(360deg); -webkit-transform: rotate(360deg); transform: rotate(360deg);" preserveAspectRatio="xMidYMid meet" viewBox="0 0 24 24"><path d="m 17.11199951171875 4.930666446685791 l 1.440000057220459 4.51200008392334 l -0.7679999470710754 0.31200000643730164 c -0.671999990940094 -1.055999994277954 -2.4719998836517263 -3.8639999628179034 -5.495999813079834 -3.864000082015991 c -1.1519999504089347 -4.541732938066802e-08 -2.4965787392615066 0.40762038457649474 -3.503999710083008 1.944000005722046 c -0.9125243067183931 1.391656307788183 -1.2000001657009172 3.3840000629424978 -1.200000286102295 6.02400016784668 c -7.510185007220113e-08 1.6799999475479108 -0.024000000208616257 8.232000350952148 4.607999801635742 8.232000350952148 c 2.0160000324249268 0.0 3.0959997177124023 -1.2239999771118164 3.0959999561309814 -2.927999973297119 l 0.0 -1.6319999694824219 c 0.0 -1.0080000162124634 -0.47999998927116394 -1.7039999961853027 -1.5839998722076416 -1.7039999961853027 l -0.8399999737739563 0.0 l 0.0 -0.8640000224113464 l 7.8480000495910645 0.0 l 0.0 0.8640000224113464 l -0.43199998140335083 0.0 c -1.0800000429153442 0.0 -1.6080000400543213 0.671999990940094 -1.6079998016357422 1.6080000400543213 l 0.0 4.48799991607666 c -0.9120000004768372 0.024000002071261406 -1.3906218774663266 0.05274910991742843 -3.119999885559082 0.5519999861717224 c -1.8465425390594412 0.533074883774549 -2.615999937057495 0.5759999752044678 -3.4079999923706055 0.5759999752044678 c -3.5999999046325684 0.0 -4.966568981742794 -1.153471359341001 -5.9039998054504395 -2.063999891281128 c -1.5096984232295636 -1.4663732557232627 -2.568000078201294 -3.6480000019073486 -2.568000078201294 -6.696000099182129 c 0.0 -4.631999969482422 2.6640000343322754 -9.359999656677246 8.32800006866455 -9.359999656677246 c 0.5040000081062317 0.0 1.775498671437811 0.19535692246624325 2.568000078201294 0.31200000643730164 c 0.5036904071095606 0.07413488727021314 0.671999990940094 0.07199999690055847 0.8640000224113464 0.07199999690055847 c 0.48000001907348633 0.0 0.86399906873703 -0.12000086158514023 1.6799991130828857 -0.38400086760520935" fill="currentColor"/></svg>