<svg xmlns="http://www.w3.org/2000/svg" xmlns:xlink="http://www.w3.org/1999/xlink" width="50px" height="50px" style="-ms-transform: rotate(360deg); -webkit-transform: rotate(360deg); transform: rotate(360deg);" preserveAspectRatio="xMidYMid meet" viewBox="0 0 24 24"><path d="m 3.059999942779541 5.314666748046875 l 7.584000110626221 0.0 l 0.0 0.8640000224113464 l -0.40800005197525024 0.0 c -1.0080000162124634 0.0 -1.6799999475479126 0.4560000002384186 -1.679999828338623 1.7280001640319824 l 0.0 5.23199987411499 l 6.815999984741211 0.0 l 0.0 -5.136000156402588 c 0.0 -1.8240000009536743 -1.2719999551773071 -1.8240000009536743 -2.135999917984009 -1.8239998817443848 l 0.0 -0.8640000224113464 l 7.631999969482422 0.0 l 0.0 0.8640000224113464 l -0.31199997663497925 0.0 c -1.1519999504089355 0.0 -1.7999999523162842 0.4320000112056732 -1.7999999523162842 1.7280001640319824 l 0.0 12.071999549865723 c 0.0 1.343999981880188 0.47999998927116394 1.8239998817443848 1.3919999599456787 1.8240001201629639 l 0.7919999957084656 0.0 l 0.0 0.8640000224113464 l -7.7039995193481445 0.0 l 0.0 -0.8640000224113464 l 0.6240000128746033 0.0 c 1.031999945640564 0.0 1.5119999647140503 -0.47999998927116394 1.5119999647140503 -1.8239998817443848 l 0.0 -5.760000228881836 l -6.815999984741211 0.0 l 0.0 5.855999946594238 c 0.0 1.2239999771118164 0.36000001430511475 1.7280000448226929 1.3200000524520874 1.7280001640319824 l 0.7680000066757202 0.0 l 0.0 0.8640000224113464 l -7.5839996337890625 0.0 l 0.0 -0.8640000224113464 l 0.7680000066757202 0.0 c 0.9120000004768372 0.0 1.343999981880188 -0.5040000081062317 1.343999981880188 -1.7279999256134033 l 0.0 -11.880000114440918 c 0.0 -1.031999945640564 -0.3840000033378601 -2.0160000324249268 -1.679999828338623 -2.0160000324249268 l -0.43199998140335083 0.0 l -1.3709068298339844e-06 -0.8639997839927673" fill="currentColor"/></svg>