<svg xmlns="http://www.w3.org/2000/svg" xmlns:xlink="http://www.w3.org/1999/xlink" width="50px" height="50px" style="-ms-transform: rotate(360deg); -webkit-transform: rotate(360deg); transform: rotate(360deg);" preserveAspectRatio="xMidYMid meet" viewBox="0 0 24 24"><path d="m 9.767999649047852 5.314666748046875 l 7.992000102996826 0.0 l 0.0 0.8640000224113464 l -0.45600003004074097 0.0 c -1.4639999866485596 0.0 -1.7039999961853027 0.5040000081062317 -1.7039999961853027 1.6080000400543213 l 0.0 9.960000038146973 c 0.0 3.74399995803833 -3.0 5.303999900817871 -5.5920000076293945 5.303999900817871 c -2.7599997520446777 0.0 -3.671999931335449 -1.6080001592636108 -3.671999931335449 -2.5920000076293945 c 0.0 -0.9839999675750732 0.7680000066757149 -1.727999985239002 1.7039999961853027 -1.7279999256134033 c 1.4639999866485567 9.319500132949046e-08 1.5982093551336671 1.534578235354818 1.6319999694824219 1.944000005722046 c 0.041502420847863805 0.5028613698076856 0.09600000083446503 1.3680000305175781 1.1519999504089355 1.3680000305175781 c 1.1519999504089355 0.0 1.3919999599456787 -1.2480000257492065 1.3919999599456787 -2.2320001125335693 l 0.0 -12.02400016784668 c 0.0 -1.1759999990463257 -0.4320000112056732 -1.6080001592636108 -1.6079998016357422 -1.6080000400543213 l -0.8399999737739563 0.0 l -2.384185791015625e-07 -0.8639997839927673" fill="currentColor"/></svg>