<svg xmlns="http://www.w3.org/2000/svg" xmlns:xlink="http://www.w3.org/1999/xlink" width="50px" height="50px" style="-ms-transform: rotate(360deg); -webkit-transform: rotate(360deg); transform: rotate(360deg);" preserveAspectRatio="xMidYMid meet" viewBox="0 0 24 24"><path d="m 3.239999771118164 5.314666748046875 l 7.559999942779541 0.0 l 0.0 0.8640000224113464 l -0.6480000615119934 0.0 c -0.9599999785423279 0.0 -1.4639999866485596 0.4320000112056732 -1.4639999866485596 1.3919999599456787 l 0.0 6.696000576019287 l 6.383999824523926 -6.216000080108643 c 0.09600000083446503 -0.09600000083446503 0.4560000002384186 -0.4559999704360962 0.4560000002384186 -0.9359999299049377 c 0.0 -0.5519999861717224 -0.47999998927116394 -0.9359999299049377 -1.1519999504089355 -0.9359999299049377 l -0.5039998888969421 0.0 l 0.0 -0.8640000224113464 l 6.191999912261963 0.0 l 0.0 0.8640000224113464 l -0.6959999203681946 0.0 c -1.031999945640564 0.0 -2.0399999618530273 0.8640000224113464 -2.5199999809265137 1.343999981880188 l -3.74399995803833 3.624000072479248 l 5.495999813079834 9.600000381469727 c 0.48000001907348633 0.8160000443458557 1.2480000257492065 1.055999994277954 2.063999891281128 1.055999994277954 l 0.335999995470047 0.0 l 0.0 0.8640000224113464 l -8.184000015258789 0.0 l 0.0 -0.8640000224113464 l 0.527999997138977 0.0 c 0.5040000081062317 0.0 1.4160000085830688 -0.04800000041723251 1.4160000085830688 -0.5999999642372131 c 0.0 -0.2879999876022339 -0.2160000056028366 -0.671999990940094 -0.2639999985694885 -0.7440000176429749 l -3.888000011444092 -6.9120001792907715 l -1.9199998378753662 1.8960001468658447 l 0.0 4.800000190734863 c 0.0 1.055999994277954 0.4320000112056732 1.559999942779541 1.7760000228881836 1.559999942779541 l 0.335999995470047 0.0 l 0.0 0.8640000224113464 l -7.559999465942383 0.0 l 0.0 -0.8640000224113464 l 0.4320000112056732 0.0 c 1.2239999771118164 0.0 1.6319999694824219 -0.5519999861717224 1.6319999694824219 -1.559999942779541 l 0.0 -12.624000549316406 c 0.0 -1.0080000162124634 -0.40799999237060547 -1.440000057220459 -1.4639999866485596 -1.440000057220459 l -0.5999999642372131 0.0 l -3.5762786865234375e-07 -0.8640006184577942" fill="currentColor"/></svg>