<svg xmlns="http://www.w3.org/2000/svg" xmlns:xlink="http://www.w3.org/1999/xlink" width="50px" height="50px" style="-ms-transform: rotate(360deg); -webkit-transform: rotate(360deg); transform: rotate(360deg);" preserveAspectRatio="xMidYMid meet" viewBox="0 0 24 24"><path d="m 4.211999893188477 5.314666748046875 l 8.13599967956543 0.0 l 0.0 0.8640000224113464 l -0.7200000882148743 0.0 c -1.0080000162124634 0.0 -1.6799999475479126 0.4560000002384186 -1.679999828338623 1.559999942779541 l 0.0 12.407999992370605 c 0.0 1.1519999504089355 0.5519999861717224 1.656000018119812 1.7280001640319824 1.6560001373291016 l 1.0800000429153442 0.0 c 3.5280001163482666 0.0 5.3520002365112305 -2.687999963760376 6.047999858856201 -3.743999719619751 l 0.8399999737739563 0.2879999876022339 l -1.6079998016357422 4.320000171661377 l -13.824000358581543 0.0 l 0.0 -0.8640000224113464 l 0.7919999957084656 0.0 c 1.0080000162124634 0.0 1.559999942779541 -0.7440000176429749 1.559999942779541 -1.944000005722046 l 0.0 -12.119998931884766 c 0.0 -1.031999945640564 -0.6959999799728394 -1.559999942779541 -1.7039999961853027 -1.559999942779541 l -0.6480000615119934 0.0 l 4.76837158203125e-07 -0.8640016317367554" fill="currentColor"/></svg>