<svg xmlns="http://www.w3.org/2000/svg" xmlns:xlink="http://www.w3.org/1999/xlink" width="50px" height="50px" style="-ms-transform: rotate(360deg); -webkit-transform: rotate(360deg); transform: rotate(360deg);" preserveAspectRatio="xMidYMid meet" viewBox="0 0 24 24"><path d="m 1.5839999914169312 5.314666748046875 l 6.047999858856201 0.0 l 4.343999862670898 12.2160005569458 l 0.0480000376701355 0.0 l 4.248000144958496 -12.215999603271484 l 6.288000106811523 0.0 l 0.0 0.8640000224113464 l -0.43199998140335083 0.0 c -0.9359999895095825 0.0 -1.7760000228881836 0.4560000002384186 -1.7760000228881836 1.5360000133514404 l 0.0 12.432000160217285 c 0.0 1.2239999771118164 0.5519999861717224 1.656000018119812 1.7280001640319824 1.6560001373291016 l 0.47999998927116394 0.0 l 0.0 0.8640000224113464 l -7.871999740600586 0.0 l 0.0 -0.8640000224113464 l 0.4560000002384186 0.0 c 1.128000020980835 0.0 1.8240000009536743 -0.5040000081062317 1.8240001201629639 -1.751999855041504 l 0.0 -13.48799991607666 l -0.04799997806549072 0.0 l -5.5920000076293945 16.104000091552734 l -0.8399999737739563 0.0 l -5.711999893188477 -16.104000091552734 l -0.04799997806549072 0.0 l 0.0 12.887999534606934 c 0.0 1.055999994277954 0.335999995470047 2.3519999980926514 1.8480000495910645 2.3519999980926514 l 0.335999995470047 0.0 l 0.0 0.8640000224113464 l -5.328000068664551 0.0 l 0.0 -0.8640000224113464 c 0.671999990940094 -0.023999998345971107 2.135999917984009 -0.04800000041723251 2.135999917984009 -2.447999954223633 l 0.0 -11.520000457763672 c 0.0 -1.0080000162124634 -0.5999999642372131 -1.656000018119812 -1.5839998722076416 -1.6559998989105225 l -0.5519999861717224 0.0 l -7.450580596923828e-07 -0.8640007376670837" fill="currentColor"/></svg>