<svg xmlns="http://www.w3.org/2000/svg" xmlns:xlink="http://www.w3.org/1999/xlink" width="50px" height="50px" style="-ms-transform: rotate(360deg); -webkit-transform: rotate(360deg); transform: rotate(360deg);" preserveAspectRatio="xMidYMid meet" viewBox="0 0 24 24"><path d="m 3.312000036239624 5.314666748046875 l 4.872000217437744 0.0 l 9.336000442504883 12.623998641967773 l 0.0480000376701355 0.0 l 0.0 -9.744000434875488 c 0.0 -1.0800000429153442 -0.5327576280248323 -1.5047725163361303 -0.8640000224113464 -1.7279999256134033 c -0.4141426586242358 -0.2790946881274358 -0.6240000128746033 -0.2879999876022339 -1.200000286102295 -0.28800004720687866 l 0.0 -0.8640000224113464 l 5.280000686645508 0.0 l 0.0 0.8640000224113464 l -0.43199998140335083 0.0 c -0.9359999895095825 0.0 -1.7039999961853027 0.9120000600814819 -1.7039999961853027 2.4000000953674316 l 0.0 14.088000297546387 l -1.6079998016357422 0.0 l -10.343999862670898 -14.039999008178711 l -0.04799997806549072 0.0 l 0.0 10.824000358581543 c 0.0 1.055999994277954 0.31200000643730164 2.3519999980926514 1.8240001201629639 2.3519999980926514 l 0.5519999861717224 0.0 l 0.0 0.8640000224113464 l -5.711999893188477 0.0 l 0.0 -0.8640000224113464 l 0.36000001430511475 0.0 c 1.0800000429153442 0.0 1.8960000276565552 -0.7440000176429749 1.8960001468658447 -1.7760000228881836 l 0.0 -12.84000015258789 c -0.6959999799728394 -0.7679999470710754 -1.1519999504089355 -0.9839999675750732 -2.25600004196167 -1.0079998970031738 l -1.7881393432617188e-06 -0.8639999032020569" fill="currentColor"/></svg>