<svg xmlns="http://www.w3.org/2000/svg" xmlns:xlink="http://www.w3.org/1999/xlink" width="50px" height="50px" style="-ms-transform: rotate(360deg); -webkit-transform: rotate(360deg); transform: rotate(360deg);" preserveAspectRatio="xMidYMid meet" viewBox="0 0 24 24"><path d="m 11.807999610900879 4.930666446685791 c 3.2160000801086426 0.0 4.8026515378321974 1.125170980829993 5.9039998054504395 2.1600000858306885 c 1.2991360496783142 1.2206709131799804 2.8079999669635853 3.4080002307891775 2.807999849319458 6.863999366760254 c -1.5935521949881385e-07 4.559999942779538 -3.0 9.095999717712402 -8.616000175476074 9.095999717712402 c -5.4720001220703125 0.0 -8.399999618530273 -4.440000057220459 -8.399999618530273 -9.0 c 0.0 -4.703999996185303 3.0480003356933594 -9.119999170303345 8.30400013923645 -9.119999170303345 m 0.1679997444152832 0.9599992632865906 c -4.584000110626221 0.0 -4.535999774932861 6.71999979019165 -4.535999774932861 8.184000015258789 c 0.0 6.9599995613098145 3.0 8.015999794006348 4.535999774932861 8.015999794006348 c 1.6319999694824219 0.0 4.631999969482422 -1.2480000257492065 4.631999969482422 -7.943999767303467 c 0.0 -6.480000019073486 -2.4719998836517334 -8.25600004196167 -4.631999969482422 -8.25600004196167" fill="currentColor"/></svg>