<svg xmlns="http://www.w3.org/2000/svg" xmlns:xlink="http://www.w3.org/1999/xlink" width="50px" height="50px" style="-ms-transform: rotate(360deg); -webkit-transform: rotate(360deg); transform: rotate(360deg);" preserveAspectRatio="xMidYMid meet" viewBox="0 0 24 24"><path d="m 4.283999919891357 5.314666748046875 l 8.687999725341797 0.0 c 1.4160000085830688 0.0 6.480000254409196 -1.7763568394002505e-14 6.480000019073486 4.584000110626221 c -2.301217944184526e-07 4.368000030517572 -4.176000118255615 4.776000022888184 -8.135998725891113 4.776000022888184 l -1.4159998893737793 0.0 l 0.0 5.400000095367432 c 0.0 0.9359999895095825 0.4320000112056732 1.7280000448226929 1.4880000352859497 1.7280001640319824 l 1.1519999504089355 0.0 l 0.0 0.8640000224113464 l -8.255999565124512 0.0 l 0.0 -0.8640000224113464 l 0.9359999895095825 0.0 c 0.9359999895095825 0.0 1.2960000038146973 -0.7440000176429749 1.2960000038146973 -1.7039999961853027 l 0.0 -12.263999938964844 c 0.0 -1.031999945640564 -0.671999990940094 -1.656000018119812 -1.6079998016357422 -1.6559998989105225 l -0.6240000128746033 0.0 l -1.7285346984863281e-06 -0.8640005588531494 m 7.704002201557159 0.8640005588531494 c -1.1519999504089355 0.0 -2.0880000591278076 0.07199999690055847 -2.0880000591278076 2.0880000591278076 l 0.0 5.544000148773193 l 1.2960000038146973 0.0 c 2.8320000171661377 0.0 4.343999862670898 -1.0800000429153442 4.343999862670898 -3.815999746322632 c 0.0 -3.81600022315979 -2.7839996814727783 -3.8160009384155273 -3.551999807357788 -3.816000461578369" fill="currentColor"/></svg>