<svg xmlns="http://www.w3.org/2000/svg" xmlns:xlink="http://www.w3.org/1999/xlink" width="50px" height="50px" style="-ms-transform: rotate(360deg); -webkit-transform: rotate(360deg); transform: rotate(360deg);" preserveAspectRatio="xMidYMid meet" viewBox="0 0 24 24"><path d="m 12.04800033569336 4.930666446685791 c 5.544000148773193 0.0 8.543999671936035 4.535999774932861 8.543999671936035 9.02400016784668 c 0.0 4.823999881744385 -2.7119998931884766 6.863999366760254 -3.9119997024536133 7.751999855041504 c 0.6240000128746033 0.7680000066757202 1.5119999647140503 1.8960001468658447 2.496000051498413 1.8960001468658447 c 0.1679999977350235 0.0 0.9359999895095825 0.0 1.7280001640319824 -1.1040000915527344 l 0.6480000019073486 0.47999998927116394 c -0.4320000112056732 0.8160000443458557 -1.6319999694824219 2.9760000705718994 -4.296000003814697 2.9760000705718994 c -2.7599997520446777 0.0 -3.384000062942505 -2.25600004196167 -3.5759997367858887 -2.9760000705718994 c -0.3840000033378601 0.024000002071261406 -0.6962280581214539 0.03702850404536662 -0.9599999785423279 0.04799997806549072 c -0.28874858275380944 0.012010367020782734 -0.527999997138977 0.02399999500454797 -0.7919999957084656 0.02399998903274536 c -5.087999820709228 -1.0029660260072686e-07 -8.375999929088675 -4.127999782562185 -8.37600040435791 -9.02400016784668 c -4.5260869020910256e-07 -4.6319999694824 3.0479997396469116 -9.095999866724014 8.495999932289124 -9.095999866724014 m -0.02399963140487671 0.9600001275539398 c -4.51200008392334 0.0 -4.559999942779541 6.552000045776367 -4.559999942779541 8.496000289916992 c 0.0 3.0480003356933594 0.4560000002384186 4.176000118255615 0.984000027179718 5.328000068664551 l 0.0480000376701355 0.0 c 0.5040000081062317 -2.2799999713897705 2.5680000782012304 -2.2799998521955747 2.9040000438690186 -2.2799997329711914 c 2.1119999885557754 7.492207358740295e-07 3.384000062942505 1.7280000448226929 3.9839999675750732 2.568000078201294 c 0.40799999237060547 -0.7200000286102295 1.2960000038146973 -2.1600000858306885 1.2960000038146973 -6.047999858856201 c 0.0 -6.311999797821045 -2.5439999103546143 -8.064000844955444 -4.656000137329102 -8.064000844955444 m -0.8399999737739563 12.504000425338745 c -1.2960000038146973 0.0 -1.944000005722046 1.1039999723434448 -1.944000005722046 1.7999999523162842 c 0.0 1.128000020980835 1.4160000085830688 1.8960001468658447 2.7360000610351562 1.8960001468658447 c 0.6480000019073486 0.0 1.1039999723434448 -0.14399999380111694 1.4880000352859497 -0.28800004720687866 c -0.04800000041723251 -1.128000020980835 -0.16800011694431305 -3.4080002903938293 -2.28000009059906 -3.4080000519752502" fill="currentColor"/></svg>