<svg xmlns="http://www.w3.org/2000/svg" xmlns:xlink="http://www.w3.org/1999/xlink" width="50px" height="50px" style="-ms-transform: rotate(360deg); -webkit-transform: rotate(360deg); transform: rotate(360deg);" preserveAspectRatio="xMidYMid meet" viewBox="0 0 24 24"><path d="m 3.7920000553131104 5.314666748046875 l 9.456000328063965 0.0 c 2.0399999618530273 0.0 5.5920000076293945 0.6959999799728394 5.5920000076293945 4.368000030517578 c 0.0 3.696000099182129 -3.503999948501587 4.296000003814697 -4.872000217437744 4.51200008392334 c 0.4560000002384186 0.335999995470047 0.8640000224113464 0.6480000019073486 1.2480000257492065 1.3680000305175781 l 2.4240000247955322 4.559999942779541 c 0.7919999957084656 1.5119998455047607 1.6799999475479126 1.6319999694824219 2.687999963760376 1.6800000667572021 l 0.0 0.8640000224113464 l -5.184000015258789 0.0 l -3.5279998779296875 -6.768000602722168 c -0.4560000002384186 -0.8880000114440918 -0.9359999895095825 -1.5360000133514404 -1.679999828338623 -1.5360000133514404 l -0.6240000128746033 0.0 l 0.0 5.855999946594238 c 0.0 1.0080000162124634 0.7200000286102295 1.5839999914169312 1.559999942779541 1.5840001106262207 l 0.5040000081062317 0.0 l 0.0 0.8640000224113464 l -7.5839996337890625 0.0 l 0.0 -0.8640000224113464 l 0.3840000033378601 0.0 c 1.1759999990463257 0.0 1.7519999742507935 -0.5519999861717224 1.752000093460083 -1.751999855041504 l 0.0 -12.215999603271484 c 0.0 -1.031999945640564 -0.671999990940094 -1.656000018119812 -1.6079998016357422 -1.6559998989105225 l -0.5279999375343323 0.0 l -1.0728836059570312e-06 -0.8640002608299255 m 7.584001183509827 0.8640002608299255 c -1.440000057220459 0.0 -2.063999891281128 0.3840000033378601 -2.063999891281128 1.5840001106262207 l 0.0 5.639999866485596 l 1.5839999914169312 0.0 c 4.007999897003174 0.0 4.0320000648498535 -2.5920000076293945 4.0320000648498535 -3.5759999752044678 c 0.0 -1.9919999837875366 -0.6960000991821289 -3.6480000019073486 -3.5520001649856567 -3.6480000019073486" fill="currentColor"/></svg>