<svg xmlns="http://www.w3.org/2000/svg" xmlns:xlink="http://www.w3.org/1999/xlink" width="50px" height="50px" style="-ms-transform: rotate(360deg); -webkit-transform: rotate(360deg); transform: rotate(360deg);" preserveAspectRatio="xMidYMid meet" viewBox="0 0 24 24"><path d="m 11.196000099182129 4.930666446685791 c 0.7440000176429749 0.0 1.34619414510634 0.06296462277830539 2.3519997596740723 0.31200000643730164 c 0.841904377616332 0.20845377739712345 1.055999994277954 0.21599999809265213 1.2239999771118164 0.21599999070167542 c 0.6240000128746026 -2.7894974330422422e-08 1.1519999504089355 -0.1679999977350235 1.5839999914169312 -0.31199997663497925 l 1.559999942779541 4.392000198364258 l -0.8160000443458557 0.31200000643730164 c -1.055999994277954 -1.5120000839233398 -2.7839999198913574 -4.007999897003174 -5.688000202178955 -4.007999897003174 c -2.1600000858306885 0.0 -3.3359999656677246 1.4160000085830688 -3.3359999656677246 2.615999937057495 c 0.0 1.7760000228881836 1.7983144945785519 2.478191278222763 4.079999923706055 3.0959999561309814 c 2.6860356090172313 0.7272939938332686 6.552000045776367 1.9919999837875366 6.552000045776367 6.0960001945495605 c 0.0 2.927999973297119 -2.2079999446868896 5.400000095367432 -5.4720001220703125 5.400000095367432 c -0.8640000224113464 0.0 -1.6750652901860636 -0.1590959073510625 -2.9760000705718994 -0.5760000348091125 c -0.9325885761268546 -0.29886204325492943 -1.2719999551773054 -0.3360000103202232 -1.5360000133514404 -0.3360000252723694 c -0.768000006675719 -4.3200499510823237e-08 -1.2960000038146973 0.36000001430511475 -1.7760000228881836 0.6959999799728394 l -1.7760000228881836 -4.631999969482422 l 0.7919999957084656 -0.36000001430511475 c 2.927999973297119 3.7200000286102295 5.567999362945493 4.1759998796043085 6.9120001792907715 4.175999641418457 c 1.7039999961852759 -3.025755797428699e-07 3.2160000801086426 -1.343999981880188 3.2160000801086426 -2.9519999027252197 c 0.0 -2.0399999618530273 -2.2281962367538544 -2.9170434023515526 -4.51200008392334 -3.5759999752044678 c -2.036674245205027 -0.587651116492119 -5.760000228881836 -1.6799999475479126 -5.760000228881836 -5.616000175476074 c 0.0 -2.303999900817871 1.5120009183883667 -4.944000035524368 5.376000881195068 -4.944000035524368" fill="currentColor"/></svg>