<svg xmlns="http://www.w3.org/2000/svg" xmlns:xlink="http://www.w3.org/1999/xlink" width="50px" height="50px" style="-ms-transform: rotate(360deg); -webkit-transform: rotate(360deg); transform: rotate(360deg);" preserveAspectRatio="xMidYMid meet" viewBox="0 0 24 24"><path d="m 3.4560000896453857 5.314666748046875 l 7.679999828338623 0.0 l 0.0 0.8640000224113464 l -0.3840000033378601 0.0 c -1.3919999599456787 0.0 -1.9199999570846558 0.5759999752044678 -1.9199998378753662 1.7280001640319824 l 0.0 8.880000114440918 c 0.0 2.7119998931884766 0.8880000114440918 5.159999847412109 4.1519999504089355 5.159999847412109 c 3.503999948501587 0.0 4.559999942779541 -2.759999990463257 4.559999942779541 -5.9039998054504395 l 0.0 -7.896000385284424 c 0.0 -1.2239999771118164 -0.984000027179718 -1.9679999351501465 -1.9199998378753662 -1.9679999351501465 l -0.40800005197525024 0.0 l 0.0 -0.8640000224113464 l 5.4720001220703125 0.0 l 0.0 0.8640000224113464 c -0.6959999799728394 0.024000002071261406 -2.063999891281128 0.09599999338388443 -2.063999891281128 2.496000051498413 l 0.0 7.079999923706055 c 0.0 5.0879998207092285 -2.0160000324249268 7.296000003814697 -6.503999710083008 7.296000003814697 c -4.800000190734863 0.0 -6.671999931335449 -2.3519999980926514 -6.671999454498291 -6.791999816894531 l 0.0 -8.35200023651123 c 0.0 -1.6080000400543213 -1.031999945640564 -1.7039999961853027 -1.991999864578247 -1.7279999256134033 l -1.1920928955078125e-06 -0.8640000224113464" fill="currentColor"/></svg>