<svg xmlns="http://www.w3.org/2000/svg" xmlns:xlink="http://www.w3.org/1999/xlink" width="50px" height="50px" style="-ms-transform: rotate(360deg); -webkit-transform: rotate(360deg); transform: rotate(360deg);" preserveAspectRatio="xMidYMid meet" viewBox="0 0 24 24"><path d="m 3.4200000762939453 5.314666748046875 l 7.679999828338623 0.0 l 0.0 0.8640000224113464 l -0.45600003004074097 0.0 c -0.671999990940094 0.0 -1.559999942779541 0.1679999977350235 -1.559999942779541 1.055999994277954 c 0.0 0.2639999985694885 0.09600000083446503 0.527999997138977 0.14399999380111694 0.6480000019073486 l 3.9119999408721924 10.824000358581543 l 0.0480000376701355 0.0 l 3.624000072479248 -10.272000312805176 c 0.07199999690055847 -0.19200000166893005 0.14399999380111694 -0.47999998927116394 0.14399999380111694 -0.8160000443458557 c 0.0 -0.8400000333786011 -0.5759999752044678 -1.440000057220459 -1.4639999866485596 -1.440000057220459 l -0.5279999375343323 0.0 l 0.0 -0.8640000224113464 l 5.760000228881836 0.0 l 0.0 0.8640000224113464 l -0.3360000252723694 0.0 c -1.3199999332427979 0.0 -2.063999891281128 1.2000000476837158 -2.5439999103546143 2.5439999103546143 l -5.0879998207092285 14.32800006866455 l -1.4159998893737793 0.0 l -5.495999813079834 -15.071999549865723 c -0.6480000019073486 -1.7279999256134033 -1.6319999694824219 -1.7760000228881836 -2.4240000247955322 -1.7999999523162842 l -7.152557373046875e-07 -0.8640004396438599" fill="currentColor"/></svg>