<svg xmlns="http://www.w3.org/2000/svg" xmlns:xlink="http://www.w3.org/1999/xlink" width="50px" height="50px" style="-ms-transform: rotate(360deg); -webkit-transform: rotate(360deg); transform: rotate(360deg);" preserveAspectRatio="xMidYMid meet" viewBox="0 0 24 24"><path d="m 0.24376732110977173 5.7248382568359375 l 7.047091484069824 0.0 l 0.0 0.7977839112281799 l -0.42105263471603394 0.0 c -0.6204985976219177 0.0 -1.4182825088500977 0.2659279704093933 -1.4182825088500977 1.108033299446106 c 0.0 0.19944599270820618 0.06648199260234833 0.39889195561408997 0.0886426568031311 0.48753461241722107 l 3.213296413421631 9.750692367553711 l 0.04432135820388794 0.0 l 2.725761890411377 -8.110803604125977 c -0.7091412544250488 -2.3933517932891846 -1.263157844543457 -3.168975353240967 -2.9030468463897705 -3.235456943511963 l 0.0 -0.7977839112281799 l 7.290858745574951 0.0 l 0.0 0.7977839112281799 l -0.5096953511238098 0.0 c -0.6648199558258057 0.0 -1.3296399116516113 0.2880886495113373 -1.3296399116516113 1.108033299446106 c 0.0 0.2659279704093933 0.06648199260234833 0.509695291519165 0.11080330610275269 0.6426593065261841 l 3.1468143463134766 9.418282508850098 l 0.04432135820388794 0.0 l 2.9473683834075928 -8.8421049118042 c 0.0886426568031311 -0.2659279704093933 0.19944596971835082 -0.6426593065261841 0.1994459629058838 -1.0858724117279053 c -1.0919739804971317e-08 -0.598337948322296 -0.33240997791290283 -1.2409971952438354 -1.3961217403411865 -1.240997076034546 l -0.2880886197090149 0.0 l 0.0 -0.7977839112281799 l 5.09695291519165 0.0 l 0.0 0.7977839112281799 c -1.0415512323379517 0.06648199260234833 -1.9058171510696411 0.39889195561408997 -2.459833860397339 2.03878116607666 l -4.587257385253906 13.540164947509766 l -1.1966757774353027 0.0 l -3.6565093994140625 -10.880885124206543 l -0.04432135820388794 0.0 l -3.6121883392333984 10.88088607788086 l -1.2853186130523682 0.0 l -4.476454257965088 -13.540166854858398 c -0.39889195561408997 -1.1745152473449707 -1.1301939487457275 -2.03878116607666 -2.016620397567749 -2.03878116607666 l -0.3545706272125244 0.0 l -1.1920928955078125e-06 -0.7977834045886993" fill="currentColor"/></svg>