<svg xmlns="http://www.w3.org/2000/svg" xmlns:xlink="http://www.w3.org/1999/xlink" width="50px" height="50px" style="-ms-transform: rotate(360deg); -webkit-transform: rotate(360deg); transform: rotate(360deg);" preserveAspectRatio="xMidYMid meet" viewBox="0 0 24 24"><path d="m 2.8919997215270996 5.314666748046875 l 8.13599967956543 0.0 l 0.0 0.8640000224113464 c -0.4560000002384186 0.024000002071261406 -1.5360000133514404 0.047999996691942215 -1.5360000133514404 0.671999990940094 c 0.0 0.31200000643730164 0.12000000476837158 0.5040000081062317 0.2879999876022339 0.7440000176429749 l 2.7119998931884766 4.104000091552734 l 2.7839999198913574 -3.6480000019073486 c 0.04800000041723251 -0.07199999690055847 0.2879999876022339 -0.3840000033378601 0.2879999876022339 -0.7679999470710754 c 0.0 -0.9599999785423279 -1.1039999723434448 -1.055999994277954 -1.4159998893737793 -1.1040000915527344 l 0.0 -0.8640000224113464 l 6.168000221252441 0.0 l 0.0 0.8640000224113464 c -1.2960000038146973 0.024000002071261406 -2.2799999713897705 0.07199999690055847 -3.552000045776367 1.7039999961853027 l -3.6479997634887695 4.751999855041504 l 5.280000686645508 7.920000076293945 c 0.671999990940094 0.984000027179718 1.8480000495910645 1.2480000257492065 2.375999927520752 1.2480000257492065 l 0.7440000176429749 0.0 l 0.0 0.8640000224113464 l -8.495999336242676 0.0 l 0.0 -0.8640000224113464 c 0.527999997138977 -0.023999998345971107 1.6319999694824219 -0.04800000041723251 1.6319999694824219 -0.671999990940094 c 0.0 -0.36000001430511475 -0.2879999876022339 -0.7919999957084656 -0.36000001430511475 -0.8880000710487366 l -3.2639999389648438 -4.895999908447266 l -3.2880001068115234 4.343999862670898 c -0.14399999380111694 0.19200000166893005 -0.36000001430511475 0.527999997138977 -0.36000001430511475 0.9120000004768372 c 0.0 1.055999994277954 1.1759999990463257 1.1759999990463257 1.5119999647140503 1.2000000476837158 l 0.0 0.8640000224113464 l -6.168000221252441 0.0 l 0.0 -0.8640000224113464 l 0.671999990940094 0.0 c 0.8880000114440918 0.0 1.7280000448226929 -0.4320000112056732 2.5920000076293945 -1.559999942779541 l 4.464000225067139 -5.831999778747559 l -4.368000030517578 -6.624000072479248 c -0.984000027179718 -1.5360000133514404 -1.944000005722046 -1.6080001592636108 -3.191999912261963 -1.6080000400543213 l -1.1920928955078125e-06 -0.864000141620636" fill="currentColor"/></svg>