<svg xmlns="http://www.w3.org/2000/svg" xmlns:xlink="http://www.w3.org/1999/xlink" width="50px" height="50px" style="-ms-transform: rotate(360deg); -webkit-transform: rotate(360deg); transform: rotate(360deg);" preserveAspectRatio="xMidYMid meet" viewBox="0 0 24 24"><path d="m 3.4200000762939453 5.314666748046875 l 7.992000102996826 0.0 l 0.0 0.8640000224113464 l -0.6240000128746033 0.0 c -0.7680000066757202 0.0 -1.3919999599456787 0.335999995470047 -1.3919999599456787 0.9120000004768372 c 0.0 0.31200000643730164 0.19200000166893005 0.6000000238418579 0.24000000953674316 0.6959999799728394 l 3.6480000019073486 5.495999813079834 l 3.3359999656677246 -5.0159993171691895 c 0.09600000083446503 -0.14399999380111694 0.31200000643730164 -0.527999997138977 0.31200000643730164 -0.9599999785423279 c 0.0 -0.527999997138977 -0.5040000081062317 -1.128000020980835 -1.5839998722076416 -1.128000259399414 l -0.3840000033378601 0.0 l 0.0 -0.8640000224113464 l 5.664000034332275 0.0 l 0.0 0.8640000224113464 c -0.4560000002384186 0.024000002071261406 -1.3919999599456787 0.07199999690055847 -2.4240000247955322 1.6080000400543213 l -4.464000225067139 6.76800012588501 l 0.0 5.567999839782715 c 0.0 1.1519999504089355 0.7200000286102295 1.6799999475479126 1.4639999866485596 1.6800000667572021 l 0.9599999785423279 0.0 l 0.0 0.8640000224113464 l -8.15999984741211 0.0 l 0.0 -0.8640000224113464 l 0.7919999957084656 0.0 c 1.0800000429153442 0.0 1.559999942779541 -0.6480000019073486 1.559999942779541 -1.5119998455047607 l 0.0 -5.495999336242676 l -4.271999835968018 -6.455999374389648 c -1.3199999332427979 -1.9919999837875366 -2.1600000858306885 -2.0880000591278076 -2.6640000343322754 -2.1600000858306885 l -2.086162567138672e-07 -0.8640016913414001" fill="currentColor"/></svg>