<svg xmlns="http://www.w3.org/2000/svg" xmlns:xlink="http://www.w3.org/1999/xlink" width="50px" height="50px" style="-ms-transform: rotate(360deg); -webkit-transform: rotate(360deg); transform: rotate(360deg);" preserveAspectRatio="xMidYMid meet" viewBox="0 0 24 24"><path d="m 12.144000053405762 11.074666976928711 c 1.9919999837875366 0.0 4.392000675201416 0.335999995470047 4.392000198364258 3.240000009536743 l 0.0 5.688000202178955 c 0.0 0.23999999463558197 -1.862645149230957e-09 1.3200000524520874 0.6480000019073486 1.3200000524520874 c 0.23999999463558197 0.0 0.40800002217292786 -0.04800000041723251 0.7440000176429749 -0.2160000205039978 l 0.6000000238418579 0.6000000238418579 c -0.5040000081062317 0.48000001907348633 -1.3200000524520874 1.2960000038146973 -2.5920000076293945 1.2960000038146973 c -1.656000018119812 0.0 -1.9199999570846558 -0.9839999675750732 -2.063999891281128 -1.679999828338623 c -1.5119999647140503 0.9359999895095825 -2.6879999637603724 1.6800000079351527 -4.415999889373779 1.6800000667572021 c -2.4960000514984118 8.722601777778357e-08 -3.191999912261963 -1.4160000085830688 -3.191999912261963 -2.7119998931884766 c 0.0 -3.239999771118164 4.679999828338623 -4.248000144958496 7.559999942779541 -4.679999828338623 l 0.0 -1.559999942779541 c 0.0 -1.3200000524520874 -0.7919999957084656 -2.111999988555908 -1.9199998378753662 -2.111999988555908 c -0.984000027179718 0.0 -1.497443781125389 0.4778426021367803 -1.7999999523162842 1.8240001201629639 c -0.12387256228285319 0.5511438763184549 -0.36000001430511475 1.559999942779541 -1.6559998989105225 1.559999942779541 c -0.9599999785423279 0.0 -1.6079999207625182 -0.6719999909400673 -1.6079998016357422 -1.4879999160766602 c 2.1753213547265426e-07 -1.488000035285934 1.8959991335868835 -2.760001242160797 5.3039990067481995 -2.760001003742218 m 1.6800009608268738 5.25600129365921 c -3.8399999141693115 0.7919999957084656 -4.392000198364258 2.5199999809265137 -4.392000198364258 3.503999948501587 c 0.0 0.9359999895095825 0.5519999861717224 1.8960001468658447 1.6560001373291016 1.8960001468658447 c 1.0080000162124634 0.0 2.2320001125335693 -0.8880000114440918 2.7360000610351562 -1.247999906539917 l 0.0 -4.152000188827515" fill="currentColor"/></svg>