<svg xmlns="http://www.w3.org/2000/svg" xmlns:xlink="http://www.w3.org/1999/xlink" width="50px" height="50px" style="-ms-transform: rotate(360deg); -webkit-transform: rotate(360deg); transform: rotate(360deg);" preserveAspectRatio="xMidYMid meet" viewBox="0 0 24 24"><path d="m 9.107999801635742 5.098666667938232 l 0.5759999752044678 0.0 l 0.0 7.584000110626221 c 0.6240000128746033 -0.6240000128746033 1.6319999694824183 -1.6080000985721465 3.552000045776367 -1.6080000400543213 c 2.32800006866455 7.358839944494468e-08 5.039999961853027 1.7760000228881836 5.039999961853027 5.880000114440918 c 0.0 3.431999921798706 -1.9199999570846558 6.047999858856201 -5.136000156402588 6.047999858856201 c -1.7519999742507935 0.0 -2.807999849319458 -0.7680000066757202 -3.5279998779296875 -1.2719998359680176 l -2.25600004196167 1.2719999551773071 l -0.6480000615119934 0.0 l 0.0 -14.399999618530273 c 0.0 -0.9839999675750732 -0.31200000643730164 -1.4639999866485596 -1.2960000038146973 -1.4639999866485596 l -0.40800005197525024 0.0 l 0.0 -0.8640000224113464 l 4.104000210762024 -1.1760005354881287 m 3.095999836921692 7.3200008273124695 c -1.2719999551773071 0.0 -2.063999891281128 0.7440000176429749 -2.5199999809265137 1.1759998798370361 l 0.0 7.176000595092773 c 0.48000001907348633 0.4079999625682831 1.1759999990463257 0.984000027179718 2.328000068664551 0.984000027179718 c 2.6640000343322754 0.0 2.927999973297119 -3.2160000801086426 2.927999973297119 -4.751999855041504 c 0.0 -1.8720000982284546 -0.3840002417564392 -4.584000647068024 -2.7360000610351562 -4.584000647068024" fill="currentColor"/></svg>