<svg xmlns="http://www.w3.org/2000/svg" xmlns:xlink="http://www.w3.org/1999/xlink" width="50px" height="50px" style="-ms-transform: rotate(360deg); -webkit-transform: rotate(360deg); transform: rotate(360deg);" preserveAspectRatio="xMidYMid meet" viewBox="0 0 24 24"><path d="m 12.767999649047852 11.074666976928711 c 2.063999891281128 0.0 4.104000091552734 0.8399999141693115 4.104000091552734 2.4240000247955322 c 0.0 0.8160000443458557 -0.5519999861717224 1.4639999866485596 -1.5360000133514404 1.4639999866485596 c -1.3199999332427979 0.0 -1.4844479367731456 -1.104575026788753 -1.559999942779541 -1.559999942779541 c -0.09169452806672834 -0.5527314885334642 -0.2160000056028366 -1.4639999866485596 -1.559999942779541 -1.4639999866485596 c -2.3519999980926514 0.0 -2.5199999809265137 3.0239999294281006 -2.5199999809265137 4.0320000648498535 c 0.0 3.624000072479248 1.656000018119812 5.3520002365112305 3.624000072479248 5.3520002365112305 c 1.8240000009536743 0.0 3.0 -1.3919999599456787 3.552000045776367 -2.0399999618530273 l 0.6240000128746033 0.4320000112056732 c -0.5759999752044678 0.887999951839447 -2.135999917984009 3.2880001068115234 -5.519999980926514 3.2880001068115234 c -3.1440000534057617 0.0 -5.495999813079834 -2.328000068664551 -5.495999813079834 -5.5199995040893555 c 0.0 -2.447999954223633 1.535999357700348 -6.408001512289047 6.287999451160431 -6.408001035451889" fill="currentColor"/></svg>