<svg xmlns="http://www.w3.org/2000/svg" xmlns:xlink="http://www.w3.org/1999/xlink" width="50px" height="50px" style="-ms-transform: rotate(360deg); -webkit-transform: rotate(360deg); transform: rotate(360deg);" preserveAspectRatio="xMidYMid meet" viewBox="0 0 24 24"><path d="m 16.308000564575195 5.098666667938232 l 0.8640000224113464 0.0 l 0.0 15.456000328063965 c 0.0 1.1519999504089355 0.8399999737739563 1.2239999771118164 1.559999942779541 1.2480000257492065 l 0.0 0.8640000224113464 l -2.615999937057495 0.0 c -0.527999997138977 0.0 -1.0080000162124634 0.07199999690055847 -1.4159998893737793 0.12000000476837158 l -0.5039998888969421 0.0 l 0.0 -1.0799999237060547 c -0.5040000081062317 0.36000001430511475 -1.7760000228881836 1.2960000038146973 -3.552000045776367 1.2960000038146973 c -2.7599997520446777 0.0 -4.992000102996826 -2.2799999713897705 -4.992000102996826 -5.975999355316162 c 0.0 -3.888000011444092 2.4719998836517334 -5.952000141143799 4.9679999351501465 -5.952000141143799 c 1.8480000495910645 0.0 2.9519999027252197 0.984000027179718 3.5759999752044678 1.5360000133514404 l 0.0 -4.176000118255615 c 0.0 -1.4880000352859497 -1.1519999504089355 -1.5360000133514404 -2.184000015258789 -1.5360000133514404 l 0.0 -0.8640000224113464 l 4.296000003814697 -0.9360008239746094 m -4.679999828338623 7.320001065731049 c -2.5920000076293945 0.0 -2.640000104904175 3.7199997901916504 -2.640000104904175 4.584000110626221 c 0.0 2.687999963760376 0.671999990940094 4.751999855041504 2.759999990463257 4.751999855041504 c 1.128000020980835 0.0 1.8960000276565552 -0.6000000238418579 2.447999954223633 -1.0079998970031738 l 0.0 -7.200000286102295 c -0.335999995470047 -0.31200000643730164 -1.2479997873306274 -1.1279995441436768 -2.567999839782715 -1.1279997825622559" fill="currentColor"/></svg>