<svg xmlns="http://www.w3.org/2000/svg" xmlns:xlink="http://www.w3.org/1999/xlink" width="50px" height="50px" style="-ms-transform: rotate(360deg); -webkit-transform: rotate(360deg); transform: rotate(360deg);" preserveAspectRatio="xMidYMid meet" viewBox="0 0 24 24"><path d="m 12.03600025177002 11.074666976928711 c 1.968000054359436 0.0 3.626764030077819 0.8141460259415201 4.607999801635742 2.2799997329711914 c 0.8664437166682102 1.2943675422617336 0.9359999895095825 2.4240000247955322 0.984000027179718 3.384000062942505 l -8.039999961853027 0.0 c 0.024000000208616257 0.8160000443458557 0.045222958486448306 2.0418343741386096 0.6959999799728394 3.0239999294281006 c 0.7169463452221465 1.082029607713432 1.8960000276565552 1.559999942779541 3.0959999561309814 1.559999942779541 c 1.8480000495910645 0.0 3.0239999294281006 -1.1759999990463257 3.696000099182129 -1.871999979019165 l 0.6240000128746033 0.5759999752044678 c -0.8159999847412109 1.0800000429153442 -2.2320001125335693 2.9760000705718994 -5.447999954223633 2.9760000705718994 c -3.503999948501587 0.0 -6.0 -2.375999927520752 -6.0 -5.999999523162842 c 0.0 -3.6480002403259277 2.592000126838684 -5.928000211715698 5.784000039100647 -5.928000211715698 m -0.04800009727478027 0.8640002608299255 c -2.3519999980926514 0.0 -2.4000003337860107 2.927999973297119 -2.4000000953674316 3.6480000019073486 l 4.703999996185303 0.0 c 0.0 -0.7440000176429749 -1.862645149230957e-09 -3.6480000019073486 -2.303999900817871 -3.6480000019073486" fill="currentColor"/></svg>