<svg xmlns="http://www.w3.org/2000/svg" xmlns:xlink="http://www.w3.org/1999/xlink" width="50px" height="50px" style="-ms-transform: rotate(360deg); -webkit-transform: rotate(360deg); transform: rotate(360deg);" preserveAspectRatio="xMidYMid meet" viewBox="0 0 24 24"><path d="m 14.435999870300293 5.098666667938232 c 0.9120000004768372 0.0 1.7280001043677338 0.7200000286102233 1.7280001640319824 1.6080000400543213 c 4.827976418653175e-08 0.7200000286102279 -0.5040000081062317 1.343999981880188 -1.2960000038146973 1.343999981880188 c -0.2879999876022339 0.0 -0.7671226324453073 -0.024631373545225266 -1.3199999332427979 -0.7919999957084656 c -0.3115060768673228 -0.43235630881636 -0.43200001120566967 -0.4319999963050005 -0.5279999375343323 -0.43199998140335083 c -0.28799998760223045 4.470205107889532e-08 -0.36000001430511475 0.2879999876022339 -0.36000001430511475 0.47999998927116394 c 0.0 0.11999999731779099 0.2231549695614472 1.6305334601179435 0.2639999985694885 1.8480000495910645 c 0.11654204956874702 0.620491713812552 0.12000000476837158 0.887999951839447 0.12000000476837158 1.2000000476837158 l 0.0 1.0800000429153442 l 3.0239999294281006 -0.04799997806549072 l 0.0 1.0800000429153442 l -3.0239999294281006 -0.04799997806549072 l 0.0 8.064000129699707 c 0.0 0.9600000381469727 0.3840000033378601 1.3200000524520874 1.4880000352859497 1.3200000524520874 l 0.9359999895095825 0.0 l 0.0 0.8640000224113464 l -7.5839996337890625 0.0 l 0.0 -0.8640000224113464 l 0.7680000066757202 0.0 c 1.055999994277954 0.0 1.4160000085830688 -0.40799999237060547 1.4160000085830688 -1.4879999160766602 l 0.0 -7.896000385284424 l -2.4000000953674316 0.04799997806549072 l 0.0 -1.0799999237060547 l 2.4000000953674316 0.04799997806549072 c 0.024000000208616257 -1.0800000429153442 0.07796809360259438 -3.473968092399682 1.7760000228881836 -5.159999847412109 c 0.5298689980454679 -0.5261243568471351 1.4879993200302124 -1.1760004460811615 2.5919992923736572 -1.176000326871872" fill="currentColor"/></svg>