<svg xmlns="http://www.w3.org/2000/svg" xmlns:xlink="http://www.w3.org/1999/xlink" width="50px" height="50px" style="-ms-transform: rotate(360deg); -webkit-transform: rotate(360deg); transform: rotate(360deg);" preserveAspectRatio="xMidYMid meet" viewBox="0 0 24 24"><path d="m 16.860000610351562 9.514666557312012 c 0.8159999847412109 0.0 1.4160000085830688 0.5759999752044678 1.4160000085830688 1.2960000038146973 c 0.0 0.6000000238418579 -0.5040000081062246 1.175999939383546 -1.1759998798370361 1.1759998798370361 c -0.3120000064373004 -2.770058187760702e-08 -0.6398560404258156 -0.13391057109585702 -0.9599999785423279 -0.31199997663497925 c -0.093795577233211 -0.05217652625233263 -0.47999998927116394 -0.2639999985694885 -0.7440000176429749 -0.2639999985694885 c -0.24000000953674316 0.0 -0.4560000002384186 0.19200000166893005 -0.5999999642372131 0.31200000643730164 c 0.671999990940094 0.3840000033378601 2.2079999446868896 1.2480000257492065 2.2079999446868896 3.3360002040863037 c 0.0 2.328000068664551 -2.135999917984009 4.104000091552734 -5.25600004196167 4.104000091552734 c -1.031999945640564 0.0 -1.7760000228881836 -0.19200000166893005 -2.25600004196167 -0.28800004720687866 c -0.47999998927116394 0.2639999985694885 -0.5519999861717224 0.5759999752044678 -0.5519999861717224 0.7440000176429749 c 0.0 0.7200000286102295 0.9599999785423279 0.8159999847412109 2.759999990463257 0.9359999895095825 c 3.9600000381469727 0.2639999985694885 6.360000133514404 1.128000020980835 6.360000133514404 3.359999895095825 c 0.0 0.7919999957084656 -0.33783520623007846 1.653223518008744 -1.3919999599456787 2.3519999980926514 c -1.0097649233181516 0.6693450680658671 -2.447999954223633 0.9599999785423279 -4.872000217437744 0.9599999785423279 c -1.3680000305175781 0.0 -6.072000026702881 0.0 -6.072000026702881 -2.3519999980926514 c 0.0 -1.2719999551773071 1.4160000085830688 -1.8480000495910645 2.3519997596740723 -2.2079999446868896 c -0.6240000128746033 -0.21599999070167542 -1.8480000495910645 -0.6480000019073486 -1.8480000495910645 -1.751999855041504 c 0.0 -1.031999945640564 0.9120000004768372 -1.559999942779541 2.4000000953674316 -2.4000000953674316 c -0.6959999799728394 -0.40799999237060547 -2.184000015258789 -1.2719999551773071 -2.184000015258789 -3.4079999923706055 c 0.0 -2.375999927520752 1.968000054359436 -4.0320000648498535 5.400000095367432 -4.0320000648498535 c 1.0800000429153442 0.0 1.6799999475479126 0.1679999977350235 2.2320001125335693 0.31200000643730164 c 0.6000000238418579 -0.7919999957084656 1.4880001544952393 -1.871999979019165 2.784000039100647 -1.8720000982284546 m -5.087999939918518 2.4240001440048218 c -1.7280000448226929 0.0 -2.1600000858306885 2.0160000324249268 -2.1600000858306885 3.312000036239624 c 0.0 1.5360000133514404 0.5759999752044678 3.0480000972747803 2.111999988555908 3.0480000972747803 c 1.968000054359436 0.0 2.063999891281128 -2.496000051498413 2.063999891281128 -3.1679999828338623 c 0.0 -1.8000000715255737 -0.6479997634887695 -3.192000150680542 -2.0159997940063477 -3.192000150680542 m -2.7840001583099365 10.896000146865845 c -0.36000001430511475 0.31200000643730164 -1.0079999566674185 0.8879999518394417 -1.0079998970031738 1.7760000228881836 c 1.1587143244895505e-07 1.728000044822689 3.0720000267028404 1.7519999742979042 3.5999999046325684 1.752000093460083 c 0.4560000002384069 1.0299418744586311e-07 3.552000045776367 0.0 3.552000045776367 -1.5360000133514404 c 0.0 -0.23999999463558197 -0.10249571995884654 -0.497716971243678 -0.2879999876022339 -0.6959999203681946 c -0.5228889974389634 -0.5589088261638965 -2.208276722583647 -0.7647524428700123 -3.072000026702881 -0.8399999737739563 c -1.3204417267944724 -0.11503681696436435 -1.9680001735687256 -0.26400017738342285 -2.784000039100647 -0.4560002088546753" fill="currentColor"/></svg>