<svg xmlns="http://www.w3.org/2000/svg" xmlns:xlink="http://www.w3.org/1999/xlink" width="50px" height="50px" style="-ms-transform: rotate(360deg); -webkit-transform: rotate(360deg); transform: rotate(360deg);" preserveAspectRatio="xMidYMid meet" viewBox="0 0 24 24"><path d="m 9.359999656677246 5.098666667938232 l 0.5040000081062317 0.0 l 0.0 7.992000102996826 c 1.656000018119812 -1.2719999551773071 2.615999937057495 -2.0160000324249268 4.127999782562256 -2.0160000324249268 c 1.9919999837875366 0.0 3.240000009536743 1.2960000038146973 3.239999771118164 2.9519999027252197 l 0.0 6.431999683380127 c 0.0 1.343999981880188 0.9359999895095825 1.343999981880188 1.6560001373291016 1.343999981880188 l 0.0 0.8640000224113464 l -6.288000106811523 0.0 l 0.0 -0.8640000224113464 c 0.7919999957084656 0.0 1.656000018119812 -0.024000000208616257 1.6560001373291016 -1.3440001010894775 l 0.0 -5.447999954223633 c 0.0 -1.031999945640564 -0.2879999876022339 -2.25600004196167 -1.6559998989105225 -2.25600004196167 c -0.9359999895095825 0.0 -1.871999979019165 0.6959999799728394 -2.735999822616577 1.3200000524520874 l 0.0 6.383999347686768 c 0.0 0.8160000443458557 0.3840000033378601 1.343999981880188 1.2960000038146973 1.343999981880188 l 0.36000001430511475 0.0 l 0.0 0.8640000224113464 l -6.168000221252441 0.0 l 0.0 -0.8640000224113464 c 0.5040000081062317 -0.023999998345971107 1.5360000133514404 -0.04800000041723251 1.5360000133514404 -1.1040000915527344 l 0.0 -12.191999435424805 c 0.0 -0.8159999847412109 -0.335999995470047 -1.343999981880188 -1.2239999771118164 -1.3440001010894775 l -0.5279999375343323 0.0 l 0.0 -0.8640000224113464 l 4.224000096321106 -1.1999992728233337" fill="currentColor"/></svg>