<svg xmlns="http://www.w3.org/2000/svg" xmlns:xlink="http://www.w3.org/1999/xlink" width="50px" height="50px" style="-ms-transform: rotate(360deg); -webkit-transform: rotate(360deg); transform: rotate(360deg);" preserveAspectRatio="xMidYMid meet" viewBox="0 0 24 24"><path d="m 11.98799991607666 5.098666667938232 c 1.0080000162124634 0.0 1.7999999523162842 0.8399999141693115 1.7999999523162842 1.7999999523162842 c 0.0 1.0080000162124634 -0.8159999847411896 1.8240000008650652 -1.7999999523162842 1.8240001201629639 c -1.008000016212456 1.2202606852594943e-07 -1.823999941343434 -0.8159999847412056 -1.8239998817443848 -1.8239998817443848 c 5.96102482250651e-08 -1.0080000162124616 0.8639997839927673 -1.8000000715255737 1.8239998817443848 -1.8000001907348633 m 0.9840002655982971 5.976000070571899 l 0.5759999752044678 0.0 l 0.0 9.479999542236328 c 0.0 0.7200000286102295 0.19200000166893005 1.2480000257492065 0.8640000224113464 1.2480000257492065 l 0.8159999847412109 0.0 l 0.0 0.8640000224113464 l -6.263999938964844 0.0 l 0.0 -0.8640000224113464 l 0.47999998927116394 0.0 c 0.8159999847412109 0.0 1.128000020980835 -0.4559999704360962 1.128000020980835 -1.2960000038146973 l 0.0 -6.144000053405762 c 0.0 -0.8640000224113464 -0.4320000112056732 -1.3200000524520874 -1.3439998626708984 -1.3199999332427979 l -0.45600003004074097 0.0 l 0.0 -0.8640000224113464 l 4.199999839067459 -1.1039995551109314" fill="currentColor"/></svg>