<svg xmlns="http://www.w3.org/2000/svg" xmlns:xlink="http://www.w3.org/1999/xlink" width="50px" height="50px" style="-ms-transform: rotate(360deg); -webkit-transform: rotate(360deg); transform: rotate(360deg);" preserveAspectRatio="xMidYMid meet" viewBox="0 0 24 24"><path d="m 12.131999969482422 5.098666667938232 c 1.0080000162124634 0.0 1.7999999523162842 0.8399999141693115 1.7999999523162842 1.7999999523162842 c 0.0 1.0080000162124634 -0.8159999847411896 1.8240000008650652 -1.7999999523162842 1.8240001201629639 c -1.008000016212456 1.2202606852594943e-07 -1.823999941343434 -0.8159999847412056 -1.8239998817443848 -1.8239998817443848 c 5.96102482250651e-08 -1.0080000162124616 0.8639997839927673 -1.8000000715255737 1.8239998817443848 -1.8000001907348633 m 1.0560002326965332 5.976000070571899 l 0.5040000081062317 0.0 l 0.0 10.4399995803833 c 0.0 4.415999889373779 -2.375999927520752 5.711999893188477 -3.9600000381469727 5.711999893188477 c -1.2480000257492065 0.0 -2.0399998425960812 -0.8640000224113251 -2.0399997234344482 -1.8239998817443848 c 1.0136841730973352e-07 -0.8159999847412046 0.624000012874597 -1.4879999755888704 1.4880000352859497 -1.4879999160766602 c 0.7440000176429731 5.140581965301249e-08 1.0751686293074463 0.4103367576689152 1.343999981880188 0.9599999785423279 c 0.18862456849525266 0.38566925644174105 0.2879999876022339 0.47999998927116394 0.4560000002384186 0.47999998927116394 c 0.31200000643730164 0.0 0.335999995470047 -0.31200000643730164 0.335999995470047 -0.36000001430511475 c 0.0 -0.40799999237060547 -0.2085899099944637 -1.1297232039744323 -0.24000000953674316 -1.247999906539917 c -0.0584392011065383 -0.2200564820922889 -0.36000001430511475 -1.2480000257492065 -0.36000001430511475 -1.944000005722046 l 0.0 -7.439999580383301 c 0.0 -1.2480000257492065 -1.4639999866485596 -1.2480000257492065 -2.135999917984009 -1.247999906539917 l 0.0 -0.8640000224113464 l 4.607999682426453 -1.1760002076625824" fill="currentColor"/></svg>