<svg xmlns="http://www.w3.org/2000/svg" xmlns:xlink="http://www.w3.org/1999/xlink" width="50px" height="50px" style="-ms-transform: rotate(360deg); -webkit-transform: rotate(360deg); transform: rotate(360deg);" preserveAspectRatio="xMidYMid meet" viewBox="0 0 24 24"><path d="m 8.9399995803833 5.098666667938232 l 0.5759999752044678 0.0 l 0.0 11.904000282287598 l 2.4719998836517334 -2.2079999446868896 c 0.14399999380111694 -0.14399999380111694 0.8354832050116769 -0.7246935945348891 0.9599999785423279 -0.8399999737739563 c 0.1623500395449229 -0.15034115242824098 0.527999997138977 -0.527999997138977 0.527999997138977 -0.9359999299049377 c 0.0 -0.5040000081062317 -0.5040000081062317 -0.7680000066757202 -1.0079998970031738 -0.7679999470710754 l -0.47999995946884155 0.0 l 0.0 -0.8640000224113464 l 6.191999912261963 0.0 l 0.0 0.8640000224113464 l -0.8880000710487366 0.0 c -0.9120000004768372 0.0 -1.752000093460083 0.5759999752044678 -2.4000000953674316 1.1519999504089355 l -2.063999891281128 1.7999999523162842 l 4.464000225067139 5.616000175476074 c 0.7440000176429749 0.9359999895095825 1.5839999914169312 0.9599999785423279 2.184000015258789 0.984000027179718 l 0.0 0.8640000224113464 l -7.007999897003174 0.0 l 0.0 -0.8640000224113464 c 0.31200000643730164 0.0 1.128000020980835 0.0 1.128000020980835 -0.5999999642372131 c 0.0 -0.19200000166893005 -0.16326882732525405 -0.4349687024578053 -0.24000000953674316 -0.5519999861717224 c -0.22640099763846186 -0.3453094116901791 -1.1519999504089355 -1.4880000352859497 -2.759999990463257 -3.503999948501587 l -1.0799999237060547 0.984000027179718 l 0.0 2.4000000953674316 c 0.0 0.6240000128746033 0.2639999985694885 1.2719999551773071 1.0800000429153442 1.2719999551773071 l 0.5040000081062317 0.0 l 0.0 0.8640000224113464 l -6.0960001945495605 0.0 l 0.0 -0.8640000224113464 l 0.5040000081062317 0.0 c 0.7919999957084656 0.0 1.031999945640564 -0.6480000019073486 1.031999945640564 -1.3199999332427979 l 0.0 -11.904000282287598 c 0.0 -1.343999981880188 -0.6240000128746033 -1.440000057220459 -1.7760000228881836 -1.4639999866485596 l 0.0 -0.8640000224113464 l 4.175999939441681 -1.1520005464553833" fill="currentColor"/></svg>