<svg xmlns="http://www.w3.org/2000/svg" xmlns:xlink="http://www.w3.org/1999/xlink" width="50px" height="50px" style="-ms-transform: rotate(360deg); -webkit-transform: rotate(360deg); transform: rotate(360deg);" preserveAspectRatio="xMidYMid meet" viewBox="0 0 24 24"><path d="m 5.940000057220459 11.074666976928711 l 0.5040000081062317 0.0 l 0.0 1.9680001735687256 c 0.6240000128746033 -0.5759999752044678 2.184000015258789 -1.9679999351501465 3.9600000381469727 -1.9679999351501465 c 1.1519999504089355 0.0 2.2799999713897705 0.47999998927116394 2.9519999027252197 2.0880000591278076 c 0.527999997138977 -0.527999997138977 2.063999891281128 -2.0880000591278076 4.104000091552734 -2.0880000591278076 c 2.0399999618530273 0.0 3.0959997177124023 1.5119999647140503 3.0959999561309814 3.0239999294281006 l 0.0 6.168000221252441 c 0.0 0.8160000443458557 0.14399999380111694 1.5360000133514404 1.2960000038146973 1.5360000133514404 l 0.3840000033378601 0.0 l 0.0 0.8640000224113464 l -6.263999938964844 0.0 l 0.0 -0.8640000224113464 l 0.47999998927116394 0.0 c 0.7680000066757202 0.0 1.128000020980835 -0.6959999799728394 1.128000020980835 -1.2719998359680176 l 0.0 -5.952000141143799 c 0.0 -1.1759999990463257 -0.7919999957084585 -1.8239999410664964 -1.5839998722076416 -1.8239998817443848 c -0.9359999895095799 7.077576519067594e-08 -1.7999999523162842 0.6959999799728394 -2.496000051498413 1.2719999551773071 l 0.0 6.360000133514404 c 0.0 0.6959999799728394 0.1680000126361847 1.4160000085830688 1.0080000162124634 1.4159998893737793 l 0.5759999752044678 0.0 l 0.0 0.8640000224113464 l -6.144000053405762 0.0 l 0.0 -0.8640000224113464 l 0.6000000238418579 0.0 c 0.7680000066757202 0.0 0.984000027179718 -0.6959999799728394 0.984000027179718 -1.3440001010894775 l 0.0 -5.711999893188477 c 0.0 -1.055999994277954 -0.4799999892711586 -1.944000065466092 -1.6319999694824219 -1.944000005722046 c -0.9359999895095813 4.831551124190811e-08 -1.7039999961853027 0.6000000238418579 -2.447999954223633 1.2239999771118164 l 0.0 5.880000114440918 c 0.0 1.1759999990463257 0.09600000083446503 1.8960001468658447 1.0080000162124634 1.8960001468658447 l 0.6000000238418579 0.0 l 0.0 0.8640000224113464 l -6.144000053405762 0.0 l 0.0 -0.8640000224113464 l 0.5759999752044678 0.0 c 0.6000000238418579 0.0 0.984000027179718 -0.527999997138977 0.984000027179718 -1.0079998970031738 l 0.0 -6.552000045776367 c 0.0 -1.055999994277954 -0.9599999785423279 -1.1039999723434448 -1.7279999256134033 -1.128000259399414 l 0.0 -0.8640000224113464 l 4.1999997198581696 -1.1760005354881287" fill="currentColor"/></svg>