<svg xmlns="http://www.w3.org/2000/svg" xmlns:xlink="http://www.w3.org/1999/xlink" width="50px" height="50px" style="-ms-transform: rotate(360deg); -webkit-transform: rotate(360deg); transform: rotate(360deg);" preserveAspectRatio="xMidYMid meet" viewBox="0 0 24 24"><path d="m 9.383999824523926 11.074666976928711 l 0.4560000002384186 0.0 l 0.0 2.0160000324249268 c 1.055999994277954 -0.8880000114440918 2.447999954223633 -2.0160000324249268 4.1519999504089355 -2.0160000324249268 c 2.1600000858306885 0.0 3.240000009536743 1.4880000352859497 3.239999771118164 3.191999673843384 l 0.0 5.951999664306641 c 0.0 1.4639999866485596 0.671999990940094 1.559999942779541 1.6560001373291016 1.5840001106262207 l 0.0 0.8640000224113464 l -6.263999938964844 0.0 l 0.0 -0.8640000224113464 c 0.7200000286102295 -0.023999998345971107 1.6319999694824219 -0.07199999690055847 1.6319999694824219 -1.2000000476837158 l 0.0 -5.711999893188477 c 0.0 -1.0800000429153442 -0.4320000112056732 -2.135999917984009 -1.6319999694824219 -2.135999917984009 c -0.6480000019073486 0.0 -1.440000057220459 0.31200000643730164 -2.7839999198913574 1.3200000524520874 l 0.0 6.144000053405762 c 0.0 1.2719999551773071 0.4320000112056732 1.5360000133514404 1.6800000667572021 1.5840001106262207 l 0.0 0.8640000224113464 l -6.191999912261963 0.0 l 0.0 -0.8640000224113464 c 0.7440000176429749 -0.023999998345971107 1.5360000133514404 -0.11999999731779099 1.5360000133514404 -1.2000000476837158 l 0.0 -6.288000583648682 c 0.0 -1.2000000476837158 -0.9359999895095825 -1.2000000476837158 -1.751999855041504 -1.2000000476837158 l 0.0 -0.8640000224113464 l 4.271999686956406 -1.175999104976654" fill="currentColor"/></svg>