<svg xmlns="http://www.w3.org/2000/svg" xmlns:xlink="http://www.w3.org/1999/xlink" width="50px" height="50px" style="-ms-transform: rotate(360deg); -webkit-transform: rotate(360deg); transform: rotate(360deg);" preserveAspectRatio="xMidYMid meet" viewBox="0 0 24 24"><path d="m 12.0 11.074666976928711 c 3.74399995803833 0.0 5.9039998054504395 2.6640000343322754 5.9039998054504395 6.047999858856201 c 0.0 4.199999809265137 -3.240000009536743 5.880000114440918 -5.927999973297119 5.880000114440918 c -3.671999931335449 0.0 -5.9039998054504395 -2.5199999809265137 -5.9039998054504395 -5.975999355316162 c 0.0 -3.696000099182129 2.496000051498413 -5.952000617980957 5.927999973297119 -5.952000617980957 m 0.02399998903274536 0.8640004992485046 c -2.5920000076293945 0.0 -2.615999937057495 3.431999921798706 -2.615999937057495 5.4720001220703125 c 0.0 1.1039999723434448 0.024000000208616257 4.728000164031982 2.568000078201294 4.728000164031982 c 0.6240000128746033 0.0 1.3980159789561128 -0.3800254283053235 1.871999979019165 -1.1040000915527344 c 0.4375844120037984 -0.6683770491844242 0.7200000286102295 -1.440000057220459 0.7200000286102295 -4.176000118255615 c 0.0 -1.1039999723434448 -0.02400023862719536 -4.920000076293945 -2.5440001487731934 -4.920000076293945" fill="currentColor"/></svg>