<svg xmlns="http://www.w3.org/2000/svg" xmlns:xlink="http://www.w3.org/1999/xlink" width="50px" height="50px" style="-ms-transform: rotate(360deg); -webkit-transform: rotate(360deg); transform: rotate(360deg);" preserveAspectRatio="xMidYMid meet" viewBox="0 0 24 24"><path d="m 9.876001358032227 11.074666976928711 l 0.0 1.6080000400543213 c 0.8640000224113464 -0.7919999957084656 1.77600002288818 -1.6080000992875956 3.5759999752044678 -1.6080000400543213 c 2.4000000953674303 7.996802578143725e-08 4.9679999351501465 1.7280000448226929 4.9679999351501465 5.880000114440918 c 0.0 3.552000045776367 -1.944000005722046 6.047999858856201 -5.064000129699707 6.047999858856201 c -1.3919999599456787 0.0 -2.1600000858306885 -0.3840000033378601 -3.4800000190734863 -1.2719998359680176 l 0.0 3.191999673843384 c 0.0 1.1039999723434448 0.2879999876022339 1.440000057220459 1.3680000305175781 1.440000057220459 l 0.5519999861717224 0.0 l 0.0 0.8640000224113464 l -6.503999710083008 0.0 l 0.0 -0.8640000224113464 c 1.1039999723434448 0.0 1.6080000400543213 -0.04800000041723251 1.6080000400543213 -1.559999942779541 l 0.0 -10.583999633789062 c 0.0 -0.7440000176429749 -0.36000001430511475 -1.1039999723434448 -1.1759998798370361 -1.1040000915527344 l -0.47999995946884155 0.0 l 0.0 -0.8640000224113464 l 4.176000118255615 -1.1759998798370361 l 0.45599961280822754 -2.980232238769531e-07 m 2.448000341653824 1.3440002799034119 c -1.031999945640564 0.0 -1.752000093460083 0.5519999861717224 -2.447999954223633 1.1519999504089355 l 0.0 7.176000595092773 c 0.5040000081062317 0.3840000033378601 1.2960000038146973 1.0080000162124634 2.328000068664551 1.0080000162124634 c 0.671999990940094 0.0 1.6540826115782652 -0.3132280164532997 2.2079999446868896 -1.1759998798370361 c 0.4783465628903467 -0.7450641652463804 0.671999990940094 -1.7760000228881836 0.671999990940094 -3.5759999752044678 c 0.0 -1.343999981880188 -6.146728992462158e-08 -4.5840007066726685 -2.7600000500679016 -4.5840007066726685" fill="currentColor"/></svg>