<svg xmlns="http://www.w3.org/2000/svg" xmlns:xlink="http://www.w3.org/1999/xlink" width="50px" height="50px" style="-ms-transform: rotate(360deg); -webkit-transform: rotate(360deg); transform: rotate(360deg);" preserveAspectRatio="xMidYMid meet" viewBox="0 0 24 24"><path d="m 16.5 11.074666976928711 l 0.6240000128746033 0.0 l 0.0 14.184000968933105 c 0.0 1.0080000162124634 0.8880000114440918 1.0800000429153442 1.6080000400543213 1.1039999723434448 l 0.0 0.8640000224113464 l -6.480000019073486 0.0 l 0.0 -0.8640000224113464 l 0.47999998927116394 0.0 c 0.8399999737739563 0.0 1.4160000085830688 -0.335999995470047 1.4160000085830688 -1.247999906539917 l 0.0 -3.384000301361084 c -0.47999998927116394 0.3840000033378601 -1.6319999694824219 1.2719999551773071 -3.431999683380127 1.2719999551773071 c -3.2880001068115234 0.0 -5.015999794006348 -2.759999990463257 -5.015999794006348 -6.0239996910095215 c 0.0 -3.983999729156494 2.4240000247955322 -5.9039998054504395 5.039999961853027 -5.9039998054504395 c 1.4880000352859497 0.0 2.375999927520752 0.6240000128746033 3.3359999656677246 1.4639999866485596 l 2.4239995181560516 -1.464001178741455 m -4.799999684095383 1.3440011739730835 c -0.5759999752044678 0.0 -1.4372216118336514 0.31383243524443305 -1.991999864578247 1.1519999504089355 c -0.6208972376750159 0.938061094320076 -0.671999990940094 2.375999927520752 -0.671999990940094 3.4559998512268066 c 0.0 1.2239999771118164 -0.024000000208616257 4.728000164031982 2.759999990463257 4.728000164031982 c 1.031999945640564 0.0 1.9199999570846558 -0.6480000019073486 2.3519997596740723 -0.984000027179718 l 0.0 -7.224000453948975 c -0.40799999237060547 -0.36000001430511475 -1.2719998955726624 -1.1279992461204529 -2.447999894618988 -1.127999484539032" fill="currentColor"/></svg>