<svg xmlns="http://www.w3.org/2000/svg" xmlns:xlink="http://www.w3.org/1999/xlink" width="50px" height="50px" style="-ms-transform: rotate(360deg); -webkit-transform: rotate(360deg); transform: rotate(360deg);" preserveAspectRatio="xMidYMid meet" viewBox="0 0 24 24"><path d="m 11.232000350952148 11.074666976928711 l 0.5759999752044678 0.0 l 0.0 2.4719998836517334 l 0.0480000376701355 0.0 c 0.8159999847412109 -1.055999994277954 1.968000054359436 -2.4719998836517334 3.696000099182129 -2.4719998836517334 c 0.9120000004768372 0.0 1.5839999914169312 0.6240000128746033 1.5839999914169312 1.6080000400543213 c 0.0 0.887999951839447 -0.6480000019073415 1.4880000945432776 -1.4639999866485596 1.4880001544952393 c -0.3600000143051138 2.6142940691911405e-08 -0.6681319239633847 -0.07720610557794139 -1.247999906539917 -0.5040000081062317 c -0.42917200185685866 -0.31587878453728824 -0.5999999642372096 -0.336000010370725 -0.6959999203681946 -0.3360000252723694 c -0.6719999909400859 -1.0430478893460991e-07 -1.2000000476837158 0.5519999861717224 -1.9199998378753662 1.3200000524520874 l 0.0 5.544000148773193 c 0.0 1.031999945640564 0.31200000643730164 1.6080000400543213 1.2719999551773071 1.6080000400543213 l 0.7440000176429749 0.0 l 0.0 0.8640000224113464 l -6.74399995803833 0.0 l 0.0 -0.8640000224113464 l 0.6480000019073486 0.0 c 0.671999990940094 0.0 1.1039999723434448 -0.47999998927116394 1.1039999723434448 -1.0799999237060547 l 0.0 -6.552000045776367 c 0.0 -0.7200000286102295 -0.47999998927116394 -1.1519999504089355 -1.1759998798370361 -1.1519999504089355 l -0.47999995946884155 0.0 l 0.0 -0.8640000224113464 l 4.055999398231506 -1.0800004601478577" fill="currentColor"/></svg>