<svg xmlns="http://www.w3.org/2000/svg" xmlns:xlink="http://www.w3.org/1999/xlink" width="50px" height="50px" style="-ms-transform: rotate(360deg); -webkit-transform: rotate(360deg); transform: rotate(360deg);" preserveAspectRatio="xMidYMid meet" viewBox="0 0 24 24"><path d="m 15.791999816894531 11.074666976928711 l 1.055999994277954 3.624000072479248 l -0.8880000710487366 0.2639999985694885 c -0.671999990940094 -1.031999945640564 -2.0399999618530273 -3.0239999294281006 -4.368000030517578 -3.0239999294281006 c -1.4160000085830688 0.0 -2.1600000858306885 0.7200000286102295 -2.1600000858306885 1.559999942779541 c 0.0 1.2960000038146973 1.4162550460611207 1.4863811657267245 2.640000104904175 1.6800000667572021 c 2.256474255845717 0.35701559116690645 5.280000448120564 1.2239999771117844 5.280000686645508 4.007999897003174 c 1.602444325064303e-07 1.8720000982284477 -1.6080000400543213 3.81600022315979 -4.751999855041504 3.81600022315979 c -0.8159999847412109 0.0 -1.4625897226884774 -0.05947648984592746 -2.303999900817871 -0.40800005197525024 c -0.09916115558775172 -0.041073901966739226 -0.6240000128746033 -0.21600001364946309 -0.984000027179718 -0.2160000205039978 c -0.38400000333786 -8.583068922263236e-09 -0.8880000114440918 0.2879999876022339 -1.5119998455047607 0.6240000128746033 l -1.1759998798370361 -4.056000232696533 l 0.8159999847412109 -0.24000000953674316 c 1.031999945640564 1.2960000038146973 2.7119998931884677 3.4319998038670114 5.184000015258789 3.431999683380127 c 0.9359999895095815 -4.465374517661495e-08 2.1600000858306885 -0.671999990940094 2.1600000858306885 -1.8239998817443848 c 0.0 -1.2960000038146973 -1.6088213258098971 -1.6752036901830962 -3.0239999294281006 -1.9199998378753662 c -1.2247247941983606 -0.2118516424968997 -4.511999845062997 -0.7680000066756918 -4.51200008392334 -3.69599986076355 c -1.697047915249792e-07 -2.0880000591278005 1.7760000228881747 -3.6239999529931417 4.343999862670898 -3.623999834060669 c 0.5759999752044671 2.680062264651931e-08 1.095506441146929 0.07585931861568262 1.9199998378753662 0.31200000643730164 c 0.0951297297243133 0.027245821371669844 0.5759999752044678 0.19200000166893005 0.9120000004768372 0.19200000166893005 c 0.2879999876022339 0.0 0.8159990906715393 -0.24000023305416107 1.3679991364479065 -0.5040002465248108" fill="currentColor"/></svg>