<svg xmlns="http://www.w3.org/2000/svg" xmlns:xlink="http://www.w3.org/1999/xlink" width="50px" height="50px" style="-ms-transform: rotate(360deg); -webkit-transform: rotate(360deg); transform: rotate(360deg);" preserveAspectRatio="xMidYMid meet" viewBox="0 0 24 24"><path d="m 16.6200008392334 11.074666976928711 l 0.6000000238418579 0.0 l 0.0 8.807999610900879 c 0.0 1.7519999742507935 0.335999995470047 1.8960001468658447 1.5839999914169312 1.9200000762939453 l 0.0 0.8640000224113464 l -2.135999917984009 0.0 c -0.2639999985694885 0.0 -1.6319999694824219 0.11999998986721039 -1.9679999351501465 0.14399999380111694 l -0.45600003004074097 0.0 l 0.0 -1.7999999523162842 c -1.2239999771118164 0.984000027179718 -2.47199988365173 1.9920000416586383 -4.127999782562256 1.9920001029968262 c -1.728000044822692 6.038724339738293e-08 -3.1679999828338623 -0.9120000004768372 -3.167999744415283 -3.4079999923706055 l 0.0 -5.23199987411499 c 0.0 -1.3680000305175781 -0.5999999642372131 -1.4639999866485596 -1.6559998989105225 -1.4879999160766602 l 0.0 -0.8640000224113464 l 4.127999782562256 -0.9359999299049377 l 0.5040000081062317 0.0 l 0.0 7.895999908447266 c 0.0 0.9120000004768372 0.19200000166893005 2.3519999980926514 1.5360000133514404 2.3519999980926514 c 0.5759999752044678 0.0 1.2719999551773071 -0.1679999977350235 2.7839999198913574 -1.3199999332427979 l 0.0 -5.831999778747559 c 0.0 -1.1759999990463257 -0.6480000019073486 -1.2960000038146973 -1.8959999084472656 -1.2960000038146973 l 0.0 -0.8640000224113464 l 4.271999478340149 -0.9360002875328064" fill="currentColor"/></svg>