<svg xmlns="http://www.w3.org/2000/svg" xmlns:xlink="http://www.w3.org/1999/xlink" width="50px" height="50px" style="-ms-transform: rotate(360deg); -webkit-transform: rotate(360deg); transform: rotate(360deg);" preserveAspectRatio="xMidYMid meet" viewBox="0 0 24 24"><path d="m 5.544000148773193 11.386667251586914 l 6.576000213623047 0.0 l 0.0 0.8640000224113464 l -0.3360000252723694 0.0 c -0.47999998927116394 0.0 -1.2000001669042089 0.14399999380108497 -1.200000286102295 0.8159999847412109 c -2.5547247760638425e-08 0.14399999380111467 0.04800000041723251 0.2879999876022339 0.09600001573562622 0.3840000033378601 l 2.3519997596740723 5.831999778747559 l 2.0160000324249268 -5.0159993171691895 c 0.07199999690055847 -0.21599999070167542 0.21599999880790755 -0.6240000128746033 0.21599999070167542 -1.0799999237060547 c -8.940697071579962e-09 -0.6000000238418578 -0.47999998927116394 -0.9359999299049377 -1.247999906539917 -0.9359999299049377 l -0.47999995946884155 0.0 l 0.0 -0.8640000224113464 l 4.943999767303467 0.0 l 0.0 0.8640000224113464 l -0.47999995946884155 0.0 c -0.8159999847412109 0.0 -1.3680000305175781 0.6240000128746033 -1.6319999694824219 1.2960000038146973 l -3.7679996490478516 9.288000106811523 l -1.3680000305175781 0.0 l -3.5759997367858887 -9.04800033569336 c -0.5759999752044678 -1.4639999866485596 -1.055999994277954 -1.5119999647140503 -2.111999988555908 -1.5360000133514404 l -2.682209014892578e-07 -0.8640003800392151" fill="currentColor"/></svg>