<svg xmlns="http://www.w3.org/2000/svg" xmlns:xlink="http://www.w3.org/1999/xlink" width="50px" height="50px" style="-ms-transform: rotate(360deg); -webkit-transform: rotate(360deg); transform: rotate(360deg);" preserveAspectRatio="xMidYMid meet" viewBox="0 0 24 24"><path d="m 2.615999937057495 11.386667251586914 l 6.02400016784668 0.0 l 0.0 0.8640000224113464 c -0.4560000002384186 0.024000002071261406 -1.247999966013575 0.04799999669193511 -1.247999906539917 0.7680000066757202 c 2.3894251372085215e-08 0.2879999876022329 0.12000000476837158 0.6240000128746033 0.14399999380111694 0.7200000286102295 l 2.0160000324249268 5.4720001220703125 l 1.9199998378753662 -5.28000020980835 c -0.47999998927116394 -1.5120000839233398 -0.8640000224113464 -1.656000018119812 -1.9199998378753662 -1.679999828338623 l 0.0 -0.8640000224113464 l 6.288000106811523 0.0 l 0.0 0.8640000224113464 c -0.6240000128746033 0.0 -1.4639999866485596 0.0 -1.4639999866485596 0.7919999957084656 c 0.0 0.2639999985694885 0.09600000083446503 0.527999997138977 0.12000000476837158 0.6240000128746033 l 2.0160000324249268 5.4720001220703125 l 1.7999999523162842 -4.920000076293945 c 0.07199999690055847 -0.21599999070167542 0.16799999770227458 -0.527999997138977 0.1679999828338623 -0.8880000710487366 c -4.281053318164702e-08 -1.031999945640563 -1.1519999504089355 -1.055999994277954 -1.559999942779541 -1.0799999237060547 l 0.0 -0.8640000224113464 l 4.464000225067139 0.0 l 0.0 0.8640000224113464 c -0.6959999799728394 0.024000002071261406 -1.3919999599456787 0.19200000166893005 -1.8480000495910645 1.4159998893737793 l -3.4559998512268066 9.168000221252441 l -1.3680000305175781 0.0 l -2.759999990463257 -7.559999942779541 l -2.808000087738037 7.559999942779541 l -1.4639999866485596 0.0 l -3.167999744415283 -8.904000282287598 c -0.5519999861717224 -1.559999942779541 -0.9599999785423279 -1.656000018119812 -1.8959999084472656 -1.679999828338623 l -1.0132789611816406e-06 -0.8640002012252808" fill="currentColor"/></svg>