<svg xmlns="http://www.w3.org/2000/svg" xmlns:xlink="http://www.w3.org/1999/xlink" width="50px" height="50px" style="-ms-transform: rotate(360deg); -webkit-transform: rotate(360deg); transform: rotate(360deg);" preserveAspectRatio="xMidYMid meet" viewBox="0 0 24 24"><path d="m 5.423999786376953 11.386667251586914 l 6.624000072479248 0.0 l 0.0 0.8640000224113464 l -0.43199998140335083 0.0 c -0.5519999861717224 0.0 -0.720000058411598 0.2879999876022268 -0.7200000882148743 0.47999998927116394 c -3.352654062206211e-08 0.21600000560283403 0.09600000083446503 0.40799999237060547 0.24000000953674316 0.5759999752044678 l 1.5119999647140503 1.9680001735687256 l 1.6080000400543213 -1.7279999256134033 c 0.04800000041723251 -0.07199999690055847 0.2879999876022339 -0.335999995470047 0.2879999876022339 -0.6480000615119934 c 0.0 -0.40799999237060547 -0.335999995470047 -0.6480000019073486 -0.8160000443458557 -0.6480000615119934 l -0.47999995946884155 0.0 l 0.0 -0.8640000224113464 l 5.0879998207092285 0.0 l 0.0 0.8640000224113464 l -0.7919999957084656 0.0 c -0.5519999861717224 0.0 -1.2960000038146973 0.5040000081062317 -1.6559998989105225 0.9120000004768372 l -2.640000104904175 2.880000114440918 l 3.5999999046325684 4.679999828338623 c 0.7680000066757202 1.0080000162124634 1.4160000085830688 1.055999994277954 2.184000015258789 1.0800000429153442 l 0.0 0.8640000224113464 l -6.984000205993652 0.0 l 0.0 -0.8640000224113464 c 0.4320000112056732 -0.023999998345971107 1.2719999551773071 -0.024000000208616257 1.2719999551773071 -0.5279999375343323 c 0.0 -0.31200000643730164 -0.2639999985694885 -0.6480000019073486 -0.36000001430511475 -0.7679999470710754 l -1.7039999961853027 -2.2320001125335693 l -1.8239998817443848 1.9920001029968262 c -0.07199999690055847 0.04800000041723251 -0.3840000033378601 0.3840000033378601 -0.3840000033378601 0.7680000066757202 c 0.0 0.6240000128746033 0.7680000066757202 0.7440000176429749 1.4160000085830688 0.7680000066757202 l 0.0 0.8640000224113464 l -5.25600004196167 0.0 l 0.0 -0.8640000224113464 l 0.5040000081062317 0.0 c 0.8880000114440918 0.0 1.3680000305175781 -0.2879999876022339 2.9519999027252197 -2.063999891281128 l 1.9920001029968262 -2.2320001125335693 l -2.9760000705718994 -3.864000082015991 c -1.0080000162124634 -1.2960000038146973 -1.6319999694824219 -1.3680000305175781 -2.25600004196167 -1.3919999599456787 l 5.364418029785156e-07 -0.8640001714229584" fill="currentColor"/></svg>