<svg xmlns="http://www.w3.org/2000/svg" xmlns:xlink="http://www.w3.org/1999/xlink" width="50px" height="50px" style="-ms-transform: rotate(360deg); -webkit-transform: rotate(360deg); transform: rotate(360deg);" preserveAspectRatio="xMidYMid meet" viewBox="0 0 24 24"><path d="m 5.340000152587891 11.386667251586914 l 6.191999912261963 0.0 l 0.0 0.8640000224113464 c -0.4320000112056732 0.024000002071261406 -1.3199999927496524 0.04799999669193511 -1.3199999332427979 0.7919999957084656 c 2.6962389759723708e-08 0.33599999547004594 0.1680000126361847 0.7200000286102295 0.21599999070167542 0.8159999847412109 l 2.4719998836517334 5.447999954223633 l 2.184000015258789 -4.728000164031982 c 0.11999999731779099 -0.2639999985694885 0.31200000643730164 -0.7440000176429749 0.31200000643730164 -1.247999906539917 c 0.0 -0.36000001430511475 -0.19200000166893005 -1.0800000429153442 -1.247999906539917 -1.0799999237060547 l -0.40800005197525024 0.0 l 0.0 -0.8640000224113464 l 4.895999908447266 0.0 l 0.0 0.8640000224113464 c -0.6240000128746033 0.024000002071261406 -1.4160000085830688 0.047999996691942215 -1.991999864578247 1.2960000038146973 l -4.800000190734863 10.295999526977539 c -0.8399999737739563 1.7760000228881836 -1.944000005722046 3.384000062942505 -3.815999984741211 3.384000062942505 c -1.2719999551773071 0.0 -2.135999917984009 -0.8159999847412109 -2.135999917984009 -1.7279999256134033 c 0.0 -0.7679999470710754 0.5519999861717162 -1.4159999492098443 1.3919999599456787 -1.4159998893737793 c 0.31200000643730086 2.2052913529336992e-08 0.7294663606550502 0.014660704653394419 1.4160000085830688 0.7200000286102295 c 0.43812105047188715 0.4501221556783776 0.6240000128746033 0.47999998927116394 0.7680000066757202 0.47999998927116394 c 0.671999990940094 0.0 1.1519999504089355 -1.0080000162124634 1.8960001468658447 -2.615999937057495 l -4.223999977111816 -9.312000274658203 c -0.24000000953674316 -0.527999997138977 -0.6480000019073486 -1.1039999723434448 -1.3199999332427979 -1.1040000915527344 l -0.47999995946884155 0.0 l -1.1920928955078125e-07 -0.8639994561672211" fill="currentColor"/></svg>