<svg xmlns="http://www.w3.org/2000/svg" xmlns:xlink="http://www.w3.org/1999/xlink" width="50px" height="50px" viewBox="0 0 24 24">
<style type="text/css">
.path {
		stroke-dasharray: 100;
		animation: dash 30s linear infinite;
}
@keyframes dash {
	to {
		stroke-dashoffset: 1000;
	}
}
</style>
<path class="path" d="m 6.6328125 6.670572757720947 l 5.61328125 0.0 c 1.484375 0.0 2.5635778558517437 0.18162834511668002 3.234375 0.55078125 c 1.2285470939446697 0.6760937080187976 1.839843808382284 1.8359374999999964 1.83984375 3.46875 c -7.421476766467093e-08 1.9921874999999987 -0.86328125 3.1796875 -2.58984375 3.5625 c 2.015625 0.3046875 3.0234375 1.5781251192092896 3.0234375 3.8203125 c 0.0 1.8984375 -0.6668570152648634 3.225641439677208 -1.9921875 3.99609375 c -0.6811327143890814 0.39596182196199425 -1.7109375 0.59765625 -3.09375 0.59765625 l -6.03515625 0.0 l 0.0 -15.99609375 m 4.16015625 2.9765634536743164 l 0.0 3.33984375 l 0.33984375 0.0 c 0.640625 0.0 1.1021286024288468 -0.08106461267646914 1.3828125 -0.24609369039535522 c 0.4227325995224244 -0.24854710806206037 0.6328125 -0.7265625 0.6328125 -1.4296875 c 0.0 -0.796875 -0.2677813475622264 -1.3090502649156122 -0.8085938096046448 -1.5234375 c -0.24142209434062023 -0.09570381403287262 -0.640625 -0.140625 -1.1953125 -0.140625 l -0.3515624403953552 -5.960464477539063e-08 m -5.960464477539063e-08 6.058593809604645 l 0.0 3.984375 l 0.375 0.0 c 0.05859375 0.0 0.05866454293631329 -0.0048191203126695115 0.22265625 0.0 c 0.13298467335215916 0.003907936273729326 0.23046875 0.01171875 0.29296875 0.01171875 c 1.1640625 0.0 1.74609375 -0.6796875 1.74609375 -2.0390625 c 0.0 -0.9375 -0.3233035573948393 -1.5451492900711754 -0.9726563096046448 -1.81640625 c -0.22624618523869625 -0.09451080663705888 -0.66796875 -0.140625 -1.32421875 -0.140625 l -0.3398436903953552 0.0" fill="none" stroke="black" stroke-width="0.3">
</path>
</svg>
