<svg xmlns="http://www.w3.org/2000/svg" xmlns:xlink="http://www.w3.org/1999/xlink" width="50px" height="50px" viewBox="0 0 24 24">
<style type="text/css">
.path {
		stroke-dasharray: 100;
		animation: dash 30s linear infinite;
}
@keyframes dash {
	to {
		stroke-dashoffset: 1000;
	}
}
</style>
<path class="path" d="m 12.123046875 10.256510734558105 c 2.1015625 0.0 3.477093368264006 0.5192001446391536 4.125 1.55859375 c 0.25802398165550455 0.41393074777447963 0.38621425034271795 1.0671185373493568 0.43359375 1.95703125 c 0.005829772205650003 0.10949858979500508 0.01171875 0.40234375 0.01171875 0.87890625 l 0.0 4.96875 c -0.007812500931322575 1.5156251192092896 0.12109375 2.53125 0.38671875 3.046875 l -3.85546875 0.0 c -0.1171874925494194 -0.5234375 -0.18359375 -0.9921875 -0.19921875 -1.40625 c -0.5546875 1.140625 -1.55078125 1.7109375 -2.98828125 1.7109375 c -2.1015625 0.0 -3.15234375 -1.19921875 -3.15234375 -3.597656011581421 c 0.0 -1.453125 0.3823579002039148 -2.4669830603009935 1.16015625 -3.0234375 c 0.4195482253363492 -0.30015424012850456 1.0627382328967663 -0.5435533520282085 1.91015625 -0.7851563096046448 c 0.18062751595268986 -0.05149777464377249 0.7783012403940255 -0.19106219277028913 1.79296875 -0.421875 c 0.5395811342659868 -0.12274191806583934 0.891489862887676 -0.3197802613068621 1.0546875 -0.5859375596046448 c 0.10995888847939707 -0.17933078688732038 0.1640625 -0.4296875298023224 0.1640625 -0.7500000596046448 c 0.0 -0.734375 -0.34375 -1.1015625 -1.03125 -1.1015625 c -0.7578125596046448 0.0 -1.13671875 0.53125 -1.13671875 1.59375 l -3.55078125 0.0 c 0.015625 -1.2734375 0.3204504470214502 -2.2186173211504485 0.9140625 -2.8359375 c 0.773617316330263 -0.8045146281681035 2.09375 -1.2070313096046448 3.9609375 -1.2070313096046448 m 0.8671875 6.480468809604645 c -0.1640625 0.15625 -0.5683191740000946 0.34231825193425447 -1.20703125 0.57421875 c -0.3996622782729158 0.14510745118524285 -0.6568125515152314 0.33397613668241455 -0.7851563096046448 0.55078125 c -0.1447017418094504 0.2444378908430752 -0.22265625 0.578125 -0.22265625 1.0078125 c 0.0 0.9218749403953552 0.33203125 1.3828125 0.99609375 1.3828125 c 0.5546875 0.0 0.9166369358417171 -0.27658878528658626 1.078125 -0.8320313096046448 c 0.06351390221419809 -0.21845776874610176 0.09375 -0.56640625 0.09375 -1.04296875 l 0.0 -0.6562500596046448 c 0.0 -0.453125 0.015625059604644775 -0.7812498211860657 0.046875059604644775 -0.9843748807907104" fill="none" stroke="black" stroke-width="0.3">
</path>
</svg>
