<svg xmlns="http://www.w3.org/2000/svg" xmlns:xlink="http://www.w3.org/1999/xlink" width="50px" height="50px" style="-ms-transform: rotate(360deg); -webkit-transform: rotate(360deg); transform: rotate(360deg);" preserveAspectRatio="xMidYMid meet" viewBox="0 0 24 24"><path d="M 8.111275434494019 5.723361253738403 L 13.535127639770508 5.707725763320923 C 15.340385913848877 5.650278925895691 17.989505767822266 7.036364793777466 17.657568454742432 10.063614606857300 C 17.619050502777100 11.757325172424316 16.426267147064209 13.257409572601318 14.544134616851807 13.797037124633789 C 15.902857303619385 13.840684890747070 17.441941738128662 14.883736610412598 17.537896156311035 17.655949115753174 C 17.418130874633789 20.484838485717773 15.547721385955811 22.396493911743164 11.865182161331177 22.688854694366455 L 6.560561656951904 22.683089733123779 L 8.111275434494019 5.723361253738403 M 11.905027627944946 8.727326631546021 L 11.779942274093628 9.413118839263916 L 11.452847053933223 12.379047680217720 L 11.452847053933219 12.379047680217720 C 12.691324088032580 12.159851374724205 13.590467747678316 11.939260662055634 13.614282131195068 10.024558782577515 C 13.616729736328125 9.424743890762329 12.957890510559082 8.547911882400513 11.905027627944946 8.727326631546021 M 11.190992832183838 15.327681541442871 L 11.182081460952759 15.851074218750000 L 10.911721712227800 19.286012876806318 L 10.911721712227795 19.286012876806321 C 12.667322980004023 19.141165170126321 13.114083463980169 18.890716840720675 13.368490219116211 17.559835910797119 C 13.293826103210449 15.822409629821777 12.941961765289307 15.439586162567139 11.190992832183838 15.327681541442871 " stroke-width="1.0" fill="rgb(0, 0, 0)" opacity="1.0"></path></svg>
