<svg xmlns="http://www.w3.org/2000/svg" xmlns:xlink="http://www.w3.org/1999/xlink" width="50px" height="50px" style="-ms-transform: rotate(360deg); -webkit-transform: rotate(360deg); transform: rotate(360deg);" preserveAspectRatio="xMidYMid meet" viewBox="0 0 24 24"><path d="M 13.498045921325684 5.462808609008789 C 14.120585918426514 5.257879614830017 16.615699768066406 5.860928535461426 17.572679042816162 7.060775756835938 L 17.167616844177246 10.156604290008545 C 14.597066402435303 9.806169748306274 14.448562145233154 8.704986333847046 13.364111423492432 9.006561040878296 C 11.767837285995483 8.964532613754272 10.474102020263672 11.473699808120728 10.385876655578613 15.103477478027344 C 10.517362117767334 17.363986015319824 10.605200529098511 19.160398006439209 12.566529750823975 19.328008174896240 C 13.478575229644775 19.266880989074707 13.364280223846436 18.959026336669922 13.524659156799316 18.419717788696289 L 13.663192749023438 16.003533840179443 L 12.204513072967529 15.908424854278564 L 12.447518348693848 13.057210922241211 L 18.157733917236328 12.898266792297363 L 17.305871486663818 19.302360534667969 C 16.638409137725830 22.491212368011475 15.002483367919922 22.495905876159668 12.411695480346680 22.994580745697021 C 8.287867784500122 22.990068912506104 5.643428564071655 20.278696060180664 6.185257673263550 13.686532974243164 C 6.786633968353271 9.850196599960327 8.978705406188965 5.278526186943054 13.498045921325684 5.462808609008789 " stroke-width="1.0" fill="rgb(0, 0, 0)" opacity="1.0"></path></svg>
