<svg xmlns="http://www.w3.org/2000/svg" xmlns:xlink="http://www.w3.org/1999/xlink" width="50px" height="50px" style="-ms-transform: rotate(360deg); -webkit-transform: rotate(360deg); transform: rotate(360deg);" preserveAspectRatio="xMidYMid meet" viewBox="0 0 24 24"><path d="M 12.804226398468018 5.415812373161316 C 15.965991497039795 5.423182368278503 18.475861072540283 8.234687805175781 18.375829696655273 12.949210166931152 C 18.248907566070557 18.376715183258057 16.971078872680664 19.651109218597412 15.483332633972168 21.157329082489014 C 14.884426116943359 21.746390819549561 17.283074855804443 22.610059261322021 16.906269550323486 22.764262676239014 L 16.913734688405285 25.804676810101537 C 16.851633968129399 25.478976120020892 15.878172045646847 25.602146483289616 14.852828979492188 25.990599632263184 C 13.692558288574219 26.131650924682617 12.905387878417969 23.991266727447510 12.806440830230713 22.860151290893555 C 12.410695552825928 22.811990261077881 10.889836549758911 23.157274246215820 10.086789608001709 22.832273483276367 C 7.161068201065063 22.070739269256592 5.575968146324158 18.847044467926025 5.806909203529358 14.304340839385986 C 6.340701341629028 8.529258012771606 9.075505256652832 4.984015345573425 12.804226398468018 5.415812373161316 M 12.200755119323730 8.908254146575928 C 10.948149919509888 9.049540042877197 10.465641975402832 11.408337593078613 10.154462814331055 14.822412014007568 C 10.272179603576660 17.770475864410400 10.310571670532227 20.399402618408203 12.706410884857178 19.005436420440674 C 13.326968193054199 18.992239952087402 13.500072956085205 16.767331123352051 13.953955650329590 13.685175418853760 C 14.021763324737549 10.627807617187500 13.824231147766113 8.916407346725464 12.200755119323730 8.908254146575928 " stroke-width="1.0" fill="rgb(0, 0, 0)" opacity="1.0"></path></svg>
