<svg xmlns="http://www.w3.org/2000/svg" xmlns:xlink="http://www.w3.org/1999/xlink" width="50px" height="50px" style="-ms-transform: rotate(360deg); -webkit-transform: rotate(360deg); transform: rotate(360deg);" preserveAspectRatio="xMidYMid meet" viewBox="0 0 24 24"><path d="M 7.852138280868530 5.726399660110474 L 13.524962425231934 5.701553821563721 C 15.247042179107666 5.792473196983337 18.135817050933838 7.099920988082886 17.766669273376465 10.759584903717041 C 17.583264827728271 13.095680236816406 15.790977001190186 14.745114326477051 14.907550334930420 15.088826179504395 L 17.647394657135010 22.693279266357422 L 13.106669425964355 22.681424617767334 L 11.494299173355103 16.294301033020020 L 11.038866519927979 15.789357662200928 L 10.514114856719971 22.686039447784424 L 6.379326581954956 22.691007614135742 C 6.783370256423950 17.168735504150391 7.359532356262207 12.415095806121826 7.852138280868530 5.726399660110474 M 11.662824727739572 8.760572593692800 L 11.662824727739572 8.760572593692800 L 11.164476310982273 12.969315166468176 C 11.286272219363941 12.981862369314294 11.462676656538166 12.967117938898589 11.698288679122925 12.874212741851807 C 12.847410678863525 12.813189983367920 13.612247943878174 12.050527095794678 13.566035270690918 10.329105377197266 C 13.563702344530812 9.322747387019382 12.853381072106053 8.642428167428195 11.662824727739567 8.760572593692798 " stroke-width="1.0" fill="rgb(0, 0, 0)" opacity="1.0"></path></svg>
