<svg xmlns="http://www.w3.org/2000/svg" xmlns:xlink="http://www.w3.org/1999/xlink" width="50px" height="50px" style="-ms-transform: rotate(360deg); -webkit-transform: rotate(360deg); transform: rotate(360deg);" preserveAspectRatio="xMidYMid meet" viewBox="0 0 24 24"><path d="M 13.509377002716064 5.372004032135010 C 13.938423156738281 5.287868499755859 16.830875873565674 5.623176813125610 16.652266502380371 6.635478258132935 L 16.035660266876221 9.765910148620605 C 14.714419841766357 8.996228456497192 13.809343814849854 8.818171262741089 13.469182491302490 8.969114542007446 C 12.895461559295654 8.915089130401611 12.477982521057129 9.436779499053955 12.272525310516357 10.053563833236694 C 12.112259387969971 10.806015014648438 12.558679103851318 11.413864374160767 13.685431480407715 12.310937404632568 C 15.120656490325928 13.290102481842041 16.703505992889404 15.247889041900635 16.497639656066895 17.883989810943604 C 16.111740589141846 20.291699409484863 13.824807643890381 23.215550422668457 9.932468891143799 22.855818271636963 C 9.110171556472778 22.713662624359131 7.507261276245117 22.472850322723389 7.196041345596313 22.004505157470703 L 7.695839166641235 18.745920181274414 C 8.080774784088135 17.988080978393555 9.375617265701294 19.396518230438232 11.147461652755737 18.967135906219482 C 11.662432193756104 18.914882183074951 12.691663742065430 17.978858470916748 12.363494396209717 17.512910842895508 C 12.299473285675049 16.681526184082031 11.138735532760620 15.978089332580566 10.596261262893677 15.299579143524170 C 8.940437793731689 13.705747604370117 8.124325275421143 12.774291515350342 8.151997089385986 10.283845424652100 C 8.278148174285889 6.865307807922363 10.887680768966675 5.169471859931946 13.509377002716064 5.372004032135010 " stroke-width="1.0" fill="rgb(0, 0, 0)" opacity="1.0"></path></svg>
