<svg xmlns="http://www.w3.org/2000/svg" xmlns:xlink="http://www.w3.org/1999/xlink" width="50px" height="50px" style="-ms-transform: rotate(360deg); -webkit-transform: rotate(360deg); transform: rotate(360deg);" preserveAspectRatio="xMidYMid meet" viewBox="0 0 24 24"><path d="M 12.702232360839844 11.007191419601440 C 14.311749176050402 13.056967104481101 13.660395325449567 11.557059589913770 14.228424911029673 11.081806175970353 L 14.228424911029675 11.081806175970355 L 17.356317043304443 11.079922914505005 L 16.158493995666504 22.690210819244385 L 12.643850326538086 22.686754703521729 L 12.613307476043701 21.248120784759521 C 12.148768901824951 22.296113491058350 11.182326078414917 22.973876953125000 9.919886827468872 22.974686622619629 C 7.697673797607422 22.659852504730225 6.769531488418579 20.668583393096924 7.018433332443237 16.639439105987549 C 7.478641033172607 12.778231143951416 9.294817686080933 10.459700345993042 12.702232360839844 11.007191419601440 M 12.736059665679932 13.992918491363525 C 11.739394426345825 13.744105339050293 11.109858512878418 14.837315082550049 10.940769910812378 17.087499618530273 C 10.774619579315186 18.794361591339111 11.142394065856934 19.784069538116455 11.671088933944702 19.708203792572021 C 12.737212657928467 19.344308853149414 12.598865032196045 18.668572425842285 12.931750774383545 17.586251735687256 L 13.036000728607178 15.970825195312500 C 12.937175273895264 14.704655170440674 13.108314514160156 13.932635307312012 12.736059665679932 13.992918491363525 " stroke-width="1.0" fill="rgb(0, 0, 0)" opacity="1.0"></path></svg>
