<svg xmlns="http://www.w3.org/2000/svg" xmlns:xlink="http://www.w3.org/1999/xlink" width="50px" height="50px" style="-ms-transform: rotate(360deg); -webkit-transform: rotate(360deg); transform: rotate(360deg);" preserveAspectRatio="xMidYMid meet" viewBox="0 0 24 24"><path d="M 10.692609071731567 5.052810430526733 L 12.421943664550781 4.932980775833130 L 11.584214687347412 12.467827320098877 C 11.781060218811035 11.331989049911499 13.937766551971436 10.844659566879272 13.886508464813232 10.864439249038696 C 15.945538043975830 10.742222070693970 17.598010540008545 12.328069210052490 17.373789310455322 16.133325576782227 C 17.180206775665283 20.228955745697021 15.564598560333252 22.870197772979736 12.736627578735352 22.879457473754883 C 11.033194541931152 22.466557502746582 11.618735790252686 22.633038997650146 10.710044860839844 21.837155342102051 L 10.319711208343506 22.714761257171631 L 7.003482341766357 22.674781322479248 L 7.287898778915405 18.746473789215088 L 8.357471466064453 5.007837653160095 L 10.692609071731567 5.052810430526733 M 11.720338830378701 14.506710770186075 C 11.632447131272851 14.887225204826201 11.505104161534177 15.497757173913644 11.364166259765625 16.368404388427734 L 11.231219530105591 18.038083076477051 C 11.107836484909058 19.704085350036621 11.640483140945435 19.719069957733154 12.244503021240234 19.582833766937256 C 12.867012977600098 19.515935897827148 13.333868980407715 17.877413749694824 13.456435203552246 16.316911697387695 C 13.459507057676939 14.228264001599660 12.984358586782216 13.684123164461655 11.720338830378699 14.506710770186073 " stroke-width="1.0" fill="rgb(0, 0, 0)" opacity="1.0"></path></svg>
