<svg xmlns="http://www.w3.org/2000/svg" xmlns:xlink="http://www.w3.org/1999/xlink" width="50px" height="50px" style="-ms-transform: rotate(360deg); -webkit-transform: rotate(360deg); transform: rotate(360deg);" preserveAspectRatio="xMidYMid meet" viewBox="0 0 24 24"><path d="M 13.393723011016846 10.784200429916382 C 15.647223472595215 10.913633823394775 17.536060810089111 12.896857738494873 16.478260517120361 17.241515636444092 L 10.960327148437500 17.857923030853271 C 11.400424718856812 17.973066329956055 10.584051132202148 20.272095680236816 13.016495704650879 19.880849361419678 C 13.264896869659424 19.812179088592529 13.944278240203857 19.269937992095947 14.783327579498291 19.231299877166748 L 15.806981563568115 18.962074756622314 C 15.954899311065674 21.887543678283691 15.275762557983398 22.389264106750488 12.207681655883789 22.961407184600830 C 8.675761699676514 23.007478237152100 7.338225603103638 20.484443664550781 7.423919677734375 17.311130046844482 C 7.721863746643066 12.880937576293945 10.100252866744995 10.727866888046265 13.393723011016846 10.784200429916382 M 12.693931102752686 13.511704444885254 C 11.795232295989990 13.578377723693848 11.606136560440063 14.447093009948730 11.385963678359985 15.695683479309082 L 12.907659530639648 15.532951354980469 C 14.014304637908936 15.250192165374756 13.389008045196533 13.322569370269775 12.693931102752686 13.511704444885254 " stroke-width="1.0" fill="rgb(0, 0, 0)" opacity="1.0"></path></svg>
