<svg xmlns="http://www.w3.org/2000/svg" xmlns:xlink="http://www.w3.org/1999/xlink" width="50px" height="50px" style="-ms-transform: rotate(360deg); -webkit-transform: rotate(360deg); transform: rotate(360deg);" preserveAspectRatio="xMidYMid meet" viewBox="0 0 24 24"><path d="M 14.652202606201172 4.840811848640442 C 15.858043670654297 5.159603476524353 15.957648754119873 4.849634528160095 16.014983654022217 5.990773200988770 L 15.665951728820801 8.171218156814575 C 15.033877372741699 8.428005695343018 14.441263675689697 7.845120191574097 14.585450649261475 8.169930696487427 C 13.977550506591797 7.992083787918091 13.613249301910400 8.749096155166626 13.513821601867676 9.791564226150513 L 13.329282760620117 11.015318155288696 L 15.139334678649902 11.096192121505737 L 14.932504177093506 14.040686130523682 L 13.322931289672852 14.028920173645020 L 12.670669555664062 22.679853916168213 L 8.748008251190186 22.694964408874512 C 9.026425838470459 19.118004798889160 9.214172601699829 16.324388980865479 9.486719369888306 14.318605899810791 L 8.202222347259521 14.147232055664062 L 8.492027521133423 11.396422147750854 L 9.047343492507935 11.205481052398682 C 10.349312067031860 11.042726039886475 9.538591146469116 11.493326425552368 10.104082345962524 8.013176679611206 C 10.392738103866577 6.084988832473755 11.859103918075562 4.562106013298035 14.652202606201172 4.840811848640442 " stroke-width="1.0" fill="rgb(0, 0, 0)" opacity="1.0"></path></svg>
