<svg xmlns="http://www.w3.org/2000/svg" xmlns:xlink="http://www.w3.org/1999/xlink" width="50px" height="50px" style="-ms-transform: rotate(360deg); -webkit-transform: rotate(360deg); transform: rotate(360deg);" preserveAspectRatio="xMidYMid meet" viewBox="0 0 24 24"><path d="M 11.899629592895508 10.755665302276611 C 11.914942502975464 10.615176916122437 13.732991695404053 11.185065507888794 13.595043182373047 12.022184371948242 L 13.999078273773193 10.979837179183960 L 17.199820518493652 11.017081975936890 L 16.081141948699951 23.062035083770752 C 15.165537357330322 26.394364356994629 14.330914020538330 30.160506248474121 10.764654636383057 29.098726272583008 C 8.515117406845093 28.761651992797852 7.246511220932007 28.448481559753418 6.959505558013916 25.809019088745117 L 8.983117103576660 25.256844520568848 C 9.227132320404053 26.139072418212891 9.765518188476562 26.454740524291992 8.446746826171875 24.290740013122559 C 9.895778417587280 24.172616958618164 11.748820781707764 24.777977943420410 12.407484054565430 22.952186107635498 L 12.339902400970459 21.781589984893799 C 11.137020349502563 22.401911258697510 10.922985792160034 22.767509937286377 10.440439939498901 22.648083686828613 C 8.220359802246094 23.027390956878662 6.993347167968750 21.025656223297119 7.097535610198975 17.581825733184814 C 7.195168733596802 13.384002685546875 8.551168441772461 10.849379539489746 11.899629592895508 10.755665302276611 M 12.150661468505859 13.760348796844482 C 11.455678224563599 14.074200153350830 11.076813697814941 15.359192848205566 11.025258779525757 17.666112899780273 C 10.912839889526367 18.719790458679199 11.350126504898071 19.550940513610840 11.346459388732910 19.371271133422852 C 12.079124450683594 19.585132598876953 12.885994434356689 18.717045307159424 13.032357215881348 17.152080059051514 C 13.190617031973979 16.164687266898497 13.189520596309318 14.053405819631253 13.149774032087512 14.218729914708426 C 13.190888055440791 13.703029108027311 12.667426370236974 13.611544549121632 12.150661468505859 13.760348796844482 " stroke-width="1.0" fill="rgb(0, 0, 0)" opacity="1.0"></path></svg>
