<svg xmlns="http://www.w3.org/2000/svg" xmlns:xlink="http://www.w3.org/1999/xlink" width="50px" height="50px" style="-ms-transform: rotate(360deg); -webkit-transform: rotate(360deg); transform: rotate(360deg);" preserveAspectRatio="xMidYMid meet" viewBox="0 0 24 24"><path d="M 12.137055873870850 5.245448112487793 C 13.227739334106445 5.152045726776123 14.337779045104980 6.039675951004028 14.409091472625732 7.239390850067139 C 14.450373172760010 8.399668693542480 13.533661365509033 9.782995462417603 12.188439846038818 9.851104259490967 C 11.089649677276611 9.800899744033813 10.032885789871216 8.714468479156494 9.892531871795654 7.615867137908936 C 10.093151092529297 6.174241304397583 11.134672164916992 5.208446145057678 12.137055873870850 5.245448112487793 M 9.956991434097290 11.290763139724731 L 13.867249488830566 11.127739906311035 L 12.791019916534424 23.571982383728027 C 12.857521533966064 26.488938331604004 10.923603057861328 28.405523300170898 8.345842123031616 28.001483917236328 C 7.401421308517456 27.968902587890625 6.803421020507812 27.900172233581543 6.612833976745605 27.642213821411133 L 7.106475591659546 25.398256301879883 C 7.385162830352783 25.472408294677734 7.572351694107056 25.588362693786621 7.976170063018799 26.026442527770996 C 8.254585504531860 25.592885971069336 9.045265674591064 23.920485019683838 8.989609479904175 22.318004608154297 L 9.956991434097290 11.290763139724731 " stroke-width="1.0" fill="rgb(0, 0, 0)" opacity="1.0"></path></svg>
