<svg xmlns="http://www.w3.org/2000/svg" xmlns:xlink="http://www.w3.org/1999/xlink" width="50px" height="50px" style="-ms-transform: rotate(360deg); -webkit-transform: rotate(360deg); transform: rotate(360deg);" preserveAspectRatio="xMidYMid meet" viewBox="0 0 24 24"><path d="M 11.237344264984131 10.884753942489624 C 12.921664237976074 10.924447774887085 13.449906349182129 11.606607913970947 14.066571235656738 12.504628658294678 C 14.489453315734863 11.941657304763794 15.449073314666748 10.779835939407349 17.151635169982910 10.796664476394653 C 19.174027919769287 10.912166118621826 20.138953685760498 11.966079711914062 19.780157089233398 14.385776996612549 L 19.019818782806396 22.687846183776855 L 15.171515464782715 22.688311100006104 L 15.751213073730469 16.856811046600342 C 15.777474403381348 15.102836608886719 15.954010963439941 14.071640968322754 15.206461429595947 14.073313236236572 C 14.303820133209229 14.414471626281738 14.221602916717529 14.291916847229004 14.021038055419922 15.537840843200684 L 13.572279453277588 22.688760280609131 L 9.723723649978638 22.686454296112061 L 10.332477807998657 16.337044715881348 C 10.444459676742554 14.317322731018066 10.076732397079468 14.401585578918457 9.972797155380249 14.302411079406738 C 9.214584589004517 14.267168998718262 8.921353340148926 14.331979751586914 8.671505212783813 15.304186820983887 L 7.908084869384766 22.690112113952637 L 4.127985835075378 22.686444282531738 L 5.106212854385376 11.160634517669678 L 8.663390636444092 11.151135921478271 L 8.478044271469116 12.384110927581787 C 10.175067901611328 11.213589906692505 9.730352640151978 11.195549726486206 11.237344264984131 10.884753942489624 " stroke-width="1.0" fill="rgb(0, 0, 0)" opacity="1.0"></path></svg>
