<svg xmlns="http://www.w3.org/2000/svg" xmlns:xlink="http://www.w3.org/1999/xlink" width="50px" height="50px" style="-ms-transform: rotate(360deg); -webkit-transform: rotate(360deg); transform: rotate(360deg);" preserveAspectRatio="xMidYMid meet" viewBox="0 0 24 24"><path d="M 13.521316051483154 10.961169719696045 C 16.362391948699951 10.572228670120239 17.764341831207275 12.822569847106934 17.175913810729980 17.374235630035400 C 16.959095478057861 21.181494712829590 14.177558898925781 24.475934028625488 10.963212490081787 22.144260406494141 C 10.198104858398438 25.071919441223145 11.636037826538086 24.717252731323242 9.976381301879883 23.993170738220215 L 9.249722957611084 28.930166244506836 L 6.486208677291870 30.175489425659180 L 7.803491592407227 11.180879116058350 L 10.055112361907959 11.183480501174927 L 11.351087093353271 11.175508260726929 C 11.800337076187134 13.673363685607910 10.606641054153442 11.777561187744141 13.521316051483154 10.961169719696045 M 11.911875486373901 14.211457729339600 C 11.399580001831055 14.439837455749512 11.458384037017822 15.317087173461914 11.261961221694946 16.730917453765869 L 11.208325561381372 18.889350406623162 C 11.289317280559558 18.971239149310570 11.346693406162323 19.137269726949359 11.331928253173828 19.363253116607666 C 12.471493721008301 20.109216213226318 13.228832244873047 18.760731697082520 13.307813644409180 17.240837574005127 C 13.436872959136963 14.921623706817627 13.391199588775635 13.607470035552979 11.911875486373901 14.211457729339600 " stroke-width="1.0" fill="rgb(0, 0, 0)" opacity="1.0"></path></svg>
