<svg xmlns="http://www.w3.org/2000/svg" xmlns:xlink="http://www.w3.org/1999/xlink" width="50px" height="50px" style="-ms-transform: rotate(360deg); -webkit-transform: rotate(360deg); transform: rotate(360deg);" preserveAspectRatio="xMidYMid meet" viewBox="0 0 24 24"><path d="M 10.841428041458130 11.083141565322876 C 11.787958860397339 10.747574329376221 13.158461093902588 10.876029968261719 13.758790969848633 11.995643377304077 L 14.054367542266846 11.140564441680908 L 17.319142341613770 11.162346839904785 L 15.685632705688477 28.956095695495605 L 11.757012605667114 29.456248283386230 L 12.603582859039307 21.152006149291992 C 12.359001159667969 23.006584167480469 9.892577648162842 22.959078311920166 9.999879598617554 22.955376148223877 C 8.068775653839111 22.701035499572754 7.063137531280518 20.841387748718262 7.069335222244263 18.289495468139648 C 6.972312927246094 14.380711555480957 8.679891586303711 10.609730958938599 11.957593202590942 11.011764764785767 L 10.841428041458130 11.083141565322876 M 12.957072257995605 13.912703990936279 C 11.692843437194824 13.581583499908447 11.030186176300049 14.914199352264404 10.983992099761963 18.149271011352539 C 10.939208507537842 18.929590702056885 11.341077804565430 20.014015674591064 11.876714229583740 19.686161041259766 C 12.789499282836914 20.091337680816650 12.977605819702148 18.205168247222900 13.166363239288330 16.532330989837646 C 13.159788608551025 15.470838546752930 13.449548721313477 13.864140987396240 12.957072257995605 13.912703990936279 " stroke-width="1.0" fill="rgb(0, 0, 0)" opacity="1.0"></path></svg>
