<svg xmlns="http://www.w3.org/2000/svg" xmlns:xlink="http://www.w3.org/1999/xlink" width="50px" height="50px" style="-ms-transform: rotate(360deg); -webkit-transform: rotate(360deg); transform: rotate(360deg);" preserveAspectRatio="xMidYMid meet" viewBox="0 0 24 24"><path d="M 13.493710041046143 10.851784229278564 C 13.592266559600830 10.897963285446167 15.583675861358643 11.100846290588379 15.871690750122070 11.636176586151123 L 15.292150497436523 13.891536712646484 C 14.927490234375000 14.417587280273438 14.254245758056641 13.417742729187012 12.913185596466064 13.423025608062744 C 12.642886161804199 13.651029109954834 12.279348850250244 14.149781227111816 12.169050693511963 14.383184909820557 C 12.292737007141113 14.592473030090332 12.561454296112061 15.173213481903076 13.065007209777832 15.236718177795410 C 14.250331878662109 16.068061351776123 15.863798618316650 16.879646301269531 15.682107925415039 19.258252143859863 C 15.352588176727295 21.818939208984375 13.449345588684082 22.828353881835938 11.115908145904541 22.982814788818359 C 9.373754739761353 22.733500957489014 8.051075935363770 22.484951019287109 8.165360212326050 21.810785293579102 L 8.708844423294067 19.536854267120361 C 8.737792253494263 19.395286560058594 10.280294179916382 19.865751743316650 10.775690317153931 20.017202854156494 C 11.995608329772949 19.756542205810547 12.126392841339111 19.813678264617920 11.776272296905518 18.818677425384521 C 11.519991874694824 18.514519214630127 10.946892499923706 18.203875064849854 10.423847436904907 17.934435367584229 C 9.095834970474243 16.947774410247803 8.470938205718994 16.047429084777832 8.800387144088745 14.018643379211426 C 9.372660398483276 11.669463157653809 11.245633363723755 11.016691446304321 13.493710041046143 10.851784229278564 " stroke-width="1.0" fill="rgb(0, 0, 0)" opacity="1.0"></path></svg>
