<svg xmlns="http://www.w3.org/2000/svg" xmlns:xlink="http://www.w3.org/1999/xlink" width="50px" height="50px" style="-ms-transform: rotate(360deg); -webkit-transform: rotate(360deg); transform: rotate(360deg);" preserveAspectRatio="xMidYMid meet" viewBox="0 0 24 24"><path d="M 7.946005582809448 11.134927511215210 L 11.670093297958374 11.117500305175781 L 11.071254290370412 17.926209208107696 C 11.087890838752127 17.863326959399657 11.106205590666191 17.797428013754701 11.126330852508545 17.728458881378174 C 10.950581789016724 18.863638401031494 11.155942440032959 19.672556877136230 11.552570343017578 19.713985919952393 C 12.462681770324707 19.750903129577637 12.365291118621826 19.656108856201172 12.597938060760498 19.222210407257080 C 12.901692867279053 18.526818752288818 13.028881072998047 18.410061836242676 13.379281997680664 11.090528011322021 L 17.328958511352539 11.066994667053223 L 16.441263198852539 19.892306327819824 L 15.856318473815918 21.636304378509521 L 14.920151710510254 22.370797634124756 L 13.174239635467529 22.674114704132080 L 12.358690738677979 22.566096782684326 C 11.906785726547241 22.643943786621094 10.645535945892334 23.201129436492920 9.627114772796631 22.805232524871826 C 7.943113088607788 22.395355224609375 7.533885240554810 21.052735805511475 7.423751592636108 20.393321514129639 C 7.116855382919312 19.344919681549072 7.663968086242676 15.750054359436035 7.833165407180786 12.114385128021240 L 7.854628086090088 12.876028060913086 L 7.946005582809448 11.134927511215210 " stroke-width="1.0" fill="rgb(0, 0, 0)" opacity="1.0"></path></svg>
