<svg xmlns="http://www.w3.org/2000/svg" xmlns:xlink="http://www.w3.org/1999/xlink" width="50px" height="50px" style="-ms-transform: rotate(360deg); -webkit-transform: rotate(360deg); transform: rotate(360deg);" preserveAspectRatio="xMidYMid meet" viewBox="0 0 24 24"><path d="M 10.857602834701538 5.330356836318970 L 12.408425331115723 5.163647890090942 L 18.795330047607422 20.556618690490723 C 19.669774532318115 21.778451442718506 19.354236602783203 21.582994937896729 21.226913452148438 21.913978099822998 L 21.194466590881348 22.684274196624756 L 13.083074569702148 22.689788818359375 L 13.101000308990479 21.994641780853271 C 14.276321411132812 21.847735404968262 15.122484683990479 21.480257034301758 15.096160411834717 21.058141708374023 C 14.945770740509033 19.856032848358154 14.781965732574463 19.904409885406494 14.843407630920410 19.864036560058594 L 13.566071033477783 16.699396133422852 L 7.337488174438477 16.996941089630127 L 6.504389762878418 19.619205951690674 C 5.998539447784424 21.533520698547363 6.663451194763184 21.809246063232422 8.388893365859985 21.976243972778320 L 8.448647260665894 22.673563957214355 L 2.499926269054413 22.716108798980713 L 2.476207315921783 22.043044567108154 C 4.072169780731201 21.533653736114502 4.702908039093018 21.025845050811768 5.239918112754822 19.862049579620361 C 5.477178454399109 19.119448184967041 8.672192573547363 12.142081260681152 10.857602834701538 5.330356836318970 M 10.564766407012939 9.024523258209229 L 7.804103851318359 16.026284694671631 L 13.169826507568359 15.817926406860352 C 12.487303733825684 14.270037174224854 11.426716089248657 11.401479005813599 10.564766407012939 9.024523258209229 " fill="none" stroke="black" stroke-width="0.3"></path></svg>