
<svg xmlns="http://www.w3.org/2000/svg" xmlns:xlink="http://www.w3.org/1999/xlink" width="50px" height="50px" style="-ms-transform: rotate(360deg); -webkit-transform: rotate(360deg); transform: rotate(360deg);" preserveAspectRatio="xMidYMid meet" viewBox="0 0 24 24"><path d="M 3.986862301826477 5.628033757209778 L 12.410556793212891 5.623081684112549 C 15.964320659637451 5.540007948875427 19.163153171539307 6.513891935348511 18.959597110748291 9.879388332366943 C 18.504798889160156 12.526283740997314 16.550937652587891 12.876647472381592 13.978414535522461 13.735386371612549 C 17.175508975982666 13.918561935424805 19.498087406158447 15.116802692413330 19.925169467926025 17.664672374725342 C 19.811908721923828 21.302317142486572 17.286603927612305 22.494576930999756 12.934886455535889 22.687036514282227 L 3.873341202735901 22.690099239349365 L 3.850196957588196 21.858777523040771 C 5.988003730773926 21.571314811706543 6.227257490158081 21.678325653076172 6.346015691757202 19.317762851715088 L 6.181674957275391 8.032370567321777 C 5.860983967781067 5.988953232765198 5.225258588790894 6.891740083694458 3.820607185363770 6.319895267486572 L 3.986862301826477 5.628033757209778 M 10.659339666366577 6.530726194381714 C 9.758013010025024 6.619030237197876 9.934336423873901 6.780512094497681 9.741770267486572 8.722813367843628 L 9.636835813522339 13.376925945281982 L 10.668868303298950 13.394714355468750 C 14.106894493103027 13.164020061492920 15.091966152191162 12.401299953460693 15.369060516357422 9.591771841049194 C 15.204275608062744 6.845670461654663 13.558447837829590 6.336827516555786 10.659339666366577 6.530726194381714 M 10.924225330352783 14.123488426208496 C 11.295827150344849 14.191128730773926 9.616030454635620 14.060299873352051 9.770408391952515 14.238523006439209 L 9.681246757507324 19.414855957031250 C 9.664418220520020 21.303015232086182 9.806189775466919 21.934082508087158 13.058396816253662 21.685328006744385 C 14.999253273010254 21.629869937896729 16.468517303466797 19.869549751281738 16.330677509307861 17.897532463073730 C 16.064825534820557 14.743553638458252 13.461966991424561 14.083934783935547 10.924225330352783 14.123488426208496 " fill="none" stroke="black" stroke-width="0.3"></path></svg>