
<svg xmlns="http://www.w3.org/2000/svg" xmlns:xlink="http://www.w3.org/1999/xlink" width="50px" height="50px" style="-ms-transform: rotate(360deg); -webkit-transform: rotate(360deg); transform: rotate(360deg);" preserveAspectRatio="xMidYMid meet" viewBox="0 0 24 24"><path d="M 13.485222816467285 5.042510747909546 C 15.352659702301025 5.419294238090515 17.122482776641846 6.303014516830444 17.250286102294922 6.686149835586548 L 18.677052497863770 5.655136227607727 L 19.219754219055176 5.721812725067139 L 19.404490470886230 11.394377231597900 L 18.535340309143066 11.269487857818604 C 17.414158344268799 8.316937923431396 16.413589954376221 6.400279283523560 13.017258167266846 5.882108688354492 C 9.629086017608643 6.192874431610107 7.915763139724731 9.235967159271240 7.667324781417847 13.152693271636963 C 7.509271144866943 17.916103363037109 9.084632635116577 22.050961017608643 13.765043735504150 22.056007862091064 C 15.957849025726318 21.602972030639648 18.780072212219238 19.902628898620605 19.099757194519043 17.586988449096680 L 19.682003974914551 17.515432834625244 C 19.246241569519043 21.790424823760986 17.285532474517822 22.428398609161377 12.771248817443848 23.128791332244873 C 7.278594732284546 22.845384120941162 3.788074493408203 19.148567676544189 3.871568083763123 13.916489124298096 C 4.176236987113953 8.607180833816528 8.295466661453247 4.878940343856812 13.485222816467285 5.042510747909546 " fill="none" stroke="black" stroke-width="0.3"></path></svg>