
<svg xmlns="http://www.w3.org/2000/svg" xmlns:xlink="http://www.w3.org/1999/xlink" width="50px" height="50px" style="-ms-transform: rotate(360deg); -webkit-transform: rotate(360deg); transform: rotate(360deg);" preserveAspectRatio="xMidYMid meet" viewBox="0 0 24 24"><path d="M 2.961549639701843 5.638660669326782 L 12.688805580139160 5.618199706077576 C 16.321585178375244 6.167303323745728 20.755245208740234 7.969099760055542 20.845742225646973 14.250811100006104 C 20.724575042724609 19.365250110626221 17.534068107604980 22.825432777404785 11.429833889007568 22.721311569213867 L 2.707995593547821 22.773950099945068 L 2.462026298046112 22.025856971740723 L 4.614815354347229 21.617599010467529 L 5.060939311981201 20.682284832000732 L 5.014628291130066 8.422842979431152 C 4.832671165466309 6.881919622421265 5.059469103813171 6.572977066040039 3.036503791809082 6.618118286132812 L 2.553893208503723 6.279784440994263 L 2.961549639701843 5.638660669326782 M 10.527111053466797 6.463847637176514 C 10.661612033843994 6.413340568542480 9.399365901947021 6.505034923553467 8.905369520187378 6.667430162429810 C 8.240575075149536 7.023611783981323 8.469650030136108 6.998492717742920 8.443198442459106 20.226346492767334 C 8.585564374923706 21.406412601470947 8.622254133224487 21.856975078582764 11.448306798934937 21.820472717285156 C 15.617317199707031 21.771407604217529 17.464556694030762 18.519650459289551 17.045515537261963 13.061625480651855 C 16.768730163574219 9.349446058273315 15.022240161895752 6.359162807464600 10.527111053466797 6.463847637176514 " fill="none" stroke="black" stroke-width="0.3"></path></svg>