
<svg xmlns="http://www.w3.org/2000/svg" xmlns:xlink="http://www.w3.org/1999/xlink" width="50px" height="50px" style="-ms-transform: rotate(360deg); -webkit-transform: rotate(360deg); transform: rotate(360deg);" preserveAspectRatio="xMidYMid meet" viewBox="0 0 24 24"><path d="M 3.918003559112549 5.561770677566528 L 18.480591773986816 5.462065458297729 L 18.992624759674072 10.508895635604858 L 18.087049484252930 10.165459871292114 C 17.298480033874512 7.347509622573853 16.148172855377197 7.217374563217163 15.905868530273438 6.974742650985718 L 14.688743591308594 6.503702402114868 C 9.161234378814697 6.359362363815308 10.305703639984131 6.384233951568604 9.889090776443481 7.932702541351318 L 9.814496755599976 13.354432582855225 L 12.362977981567383 13.067941188812256 C 14.739805698394775 12.660767555236816 13.716499328613281 10.016213178634644 15.128203868865967 10.597780466079712 L 15.126005172729492 10.381763935089111 L 15.248926162719727 16.734267711639404 L 14.831544399261475 16.826488494873047 C 13.542809486389160 15.694825172424316 15.477955341339111 14.535716056823730 10.894670248031616 14.172951221466064 L 9.804654836654663 14.285771369934082 L 9.702916145324707 20.048606872558594 C 9.834286451339722 21.453025817871094 10.050974607467651 21.820186614990234 13.285285949707031 21.762268066406250 C 16.680411815643311 21.784568309783936 18.129196643829346 19.881574630737305 18.736278533935547 17.688883781433105 L 19.424596309661865 17.321329593658447 C 19.851068973541260 17.526444911956787 19.170882225036621 20.774525642395020 19.119772911071777 22.686036586761475 L 4.075135946273804 22.691451072692871 L 3.968327879905701 21.923293590545654 C 6.229833841323853 21.663559913635254 6.152342319488525 21.696175575256348 6.416948318481445 19.828963279724121 L 6.327846765518188 7.817130088806152 C 6.105586767196655 5.835445046424866 4.915767431259155 6.828849792480469 3.934977650642395 6.256712436676025 L 3.918003559112549 5.561770677566528 " fill="none" stroke="black" stroke-width="0.3"></path></svg>