
<svg xmlns="http://www.w3.org/2000/svg" xmlns:xlink="http://www.w3.org/1999/xlink" width="50px" height="50px" style="-ms-transform: rotate(360deg); -webkit-transform: rotate(360deg); transform: rotate(360deg);" preserveAspectRatio="xMidYMid meet" viewBox="0 0 24 24"><path d="M 4.716084122657776 5.449270248413086 L 19.173342704772949 5.567924022674561 L 19.521645069122314 10.836930513381958 L 18.732404708862305 10.205986261367798 C 17.528041362762451 7.261668205261230 16.743926525115967 6.339578390121460 11.885214328765869 6.495382547378540 C 10.601039886474609 6.491561651229858 10.941598176956177 6.790082931518555 10.665645360946655 7.959536790847778 L 10.624032497406006 13.360105991363525 L 12.807951450347900 13.242433547973633 C 14.374887943267822 13.013925075531006 14.757774353027344 12.310011863708496 15.097153186798096 10.752168416976929 L 16.046356201171875 10.860920190811157 L 16.112942218780518 17.259996414184570 L 15.248082160949707 16.781560420989990 C 14.846128463745117 13.690564155578613 13.008819580078125 14.603101730346680 10.651251554489136 14.307711124420166 L 10.499564409255981 17.667805194854736 C 10.404428243637085 21.439716339111328 10.422966241836548 21.634418964385986 13.115564346313477 21.970274448394775 L 13.097840309143066 22.673382282257080 C 11.351275920867920 22.702441692352295 9.406140089035034 22.673345088958740 9.147615909576416 22.697625160217285 C 7.344676494598389 22.651737213134766 5.046497583389282 22.738104343414307 4.635332465171814 22.645823478698730 L 4.850416660308838 21.839836120605469 C 6.795729875564575 21.734916687011719 7.046099424362183 21.680475711822510 7.113180398941040 18.606213569641113 L 7.076925516128540 7.993188142776489 C 7.029576301574707 6.242536067962646 5.636343598365784 6.386152982711792 4.655417919158936 6.219587802886963 L 4.716084122657776 5.449270248413086 " fill="none" stroke="black" stroke-width="0.3"></path></svg>