
<svg xmlns="http://www.w3.org/2000/svg" xmlns:xlink="http://www.w3.org/1999/xlink" width="50px" height="50px" style="-ms-transform: rotate(360deg); -webkit-transform: rotate(360deg); transform: rotate(360deg);" preserveAspectRatio="xMidYMid meet" viewBox="0 0 24 24"><path d="M 9.656590461730957 5.505760431289673 C 13.122990131378174 4.309123992919922 15.109738826751709 5.545234322547913 17.077413082122803 6.531901359558105 L 18.718793392181396 5.257916092872620 L 19.024628162384033 11.211354017257690 C 16.575618267059326 11.198113203048706 17.045343875885010 4.309166193008423 17.266987323760986 9.226680278778076 C 16.168476104736328 7.192896366119385 13.801913738250732 5.827921628952026 12.567488193511963 6.004838705062866 C 8.923478364944458 5.948583126068115 7.302824735641479 9.611687421798706 7.016505002975464 12.893737792968750 C 6.737722635269165 18.777741909027100 8.585288286209106 21.986371994018555 12.829067230224609 22.171481609344482 C 14.916033267974854 21.877834796905518 16.122665405273438 21.341804981231689 16.205560684204102 19.013086795806885 L 16.146965503692627 17.298886299133301 C 15.909077167510986 15.845063209533691 15.369230747222900 16.126557826995850 13.720506191253662 15.659421443939209 L 13.594151973724365 14.968633174896240 L 21.124438762664795 14.872974872589111 L 21.172169208526611 15.475343227386475 C 19.087142944335938 16.197775840759277 19.726743221282959 15.423202514648438 19.288700580596924 18.201755046844482 L 19.276579856872559 22.029211521148682 C 15.907221794128418 21.816973686218262 16.810973167419434 22.764849185943604 12.867210388183594 23.143298149108887 C 7.134868383407593 23.262911796569824 2.628096520900726 19.697929859161377 3.337976932525635 12.773690700531006 C 3.940346012271403 9.187545125383071 6.336786268616322 6.237521145859978 9.761844003534799 5.504545716106653 L 9.656590461730957 5.505760431289673 " fill="none" stroke="black" stroke-width="0.3"></path></svg>