
<svg xmlns="http://www.w3.org/2000/svg" xmlns:xlink="http://www.w3.org/1999/xlink" width="50px" height="50px" style="-ms-transform: rotate(360deg); -webkit-transform: rotate(360deg); transform: rotate(360deg);" preserveAspectRatio="xMidYMid meet" viewBox="0 0 24 24"><path d="M 2.166378557682037 5.509525895118713 L 10.541169404983521 5.441813349723816 L 10.320450782775879 6.295552253723145 L 8.049448013305664 6.807840585708618 L 7.930553197860718 13.323497772216797 L 15.741442680358887 13.337759971618652 L 15.718890666961670 8.198088169097900 C 15.755787849426270 6.567431688308716 15.019612312316895 6.581292629241943 13.745172500610352 6.485970497131348 L 13.505573272705078 5.556261777877808 L 21.751107215881348 5.561176300048828 L 21.690562248229980 6.326871156692505 C 19.403128623962402 6.732381820678711 19.414742946624756 6.250004053115845 19.228371620178223 8.266497373580933 L 19.270867824554443 17.158806324005127 C 19.040865898132324 22.548023700714111 19.576851367950439 21.435417652130127 21.871118545532227 21.867736816406250 L 21.739471435546875 22.684108257293701 L 13.346169948577881 22.689225196838379 L 13.442556381225586 21.889775276184082 C 15.313573837280273 21.489472389221191 15.465080738067627 21.969467639923096 15.859335422515869 20.126333713531494 L 15.758731842041016 14.376405715942383 L 8.054461240768433 14.384990215301514 L 7.943978548049927 19.126842498779297 C 7.897731542587280 22.102928638458252 8.770577430725098 21.582315444946289 10.467970132827759 21.933573246002197 L 10.422335386276245 22.689878940582275 L 2.303353607654572 22.684221267700195 L 2.249156534671783 22.029011249542236 C 3.902910232543945 21.479257106781006 4.707654476165771 22.187463283538818 4.681232571601868 19.105597972869873 L 4.582360267639160 8.293589830398560 C 4.449729681015015 6.359500408172607 4.487096428871155 6.552400588989258 2.325160682201385 6.478513956069946 L 2.166378557682037 5.509525895118713 " fill="none" stroke="black" stroke-width="0.3"></path></svg>