
<svg xmlns="http://www.w3.org/2000/svg" xmlns:xlink="http://www.w3.org/1999/xlink" width="50px" height="50px" style="-ms-transform: rotate(360deg); -webkit-transform: rotate(360deg); transform: rotate(360deg);" preserveAspectRatio="xMidYMid meet" viewBox="0 0 24 24"><path d="M 9.434916973114014 5.635690569877625 L 17.858051776885986 5.575006484985352 L 17.856963157653809 6.172521829605103 L 15.513317584991455 6.848302602767944 L 15.339421749114990 18.827841281890869 C 15.523285388946533 21.241719245910645 11.790894985198975 25.277790069580078 10.572874546051025 23.170234680175781 C 7.232277631759644 23.506559371948242 5.308421373367310 21.963582515716553 5.627942204475403 19.292683124542236 C 5.964652419090271 17.993830204010010 7.265780210494995 17.398665904998779 7.832925081253052 17.730962276458740 C 9.012754440307617 18.144912242889404 8.709596157073975 18.246733188629150 8.467985630035400 20.282531261444092 C 8.546865463256836 21.836996555328369 8.627710103988647 23.016843795776367 8.387301206588745 22.521730899810791 C 8.447295566748325 21.716326346932441 8.222939592460627 21.223861561457646 7.961815156286227 20.961790824294930 C 7.961815156286228 20.961790824294930 7.961815156286228 20.961790824294930 7.961815156286228 20.961790824294930 C 8.592926184620097 21.603919110671484 9.579593686400864 22.738290188359002 11.090837001800537 21.750349044799805 C 11.945663452148438 20.661037445068359 11.932407617568970 16.785427093505859 11.856385946273804 16.531212329864502 L 11.920595169067383 9.303825616836548 C 11.648533344268799 6.055126905441284 11.752987146377563 6.780518531799316 9.272386550903320 6.377499818801880 L 9.434916973114014 5.635690569877625 " fill="none" stroke="black" stroke-width="0.3"></path></svg>