
<svg xmlns="http://www.w3.org/2000/svg" xmlns:xlink="http://www.w3.org/1999/xlink" width="50px" height="50px" style="-ms-transform: rotate(360deg); -webkit-transform: rotate(360deg); transform: rotate(360deg);" preserveAspectRatio="xMidYMid meet" viewBox="0 0 24 24"><path d="M 2.874619245529175 5.643485069274902 L 11.288963556289673 5.496363043785095 L 11.011126756668091 6.285674571990967 L 8.753360509872437 6.827301263809204 L 8.722601652145386 14.294919490814209 L 14.714537143707275 8.438119411468506 C 14.368964195251465 8.513475179672241 15.588624000549316 7.742947340011597 15.358264446258545 6.472394227981567 C 15.464966297149658 7.433744430541992 15.250017642974854 6.669090270996094 15.196588039398193 6.655216455459595 L 13.668312549591064 6.350649833679199 L 13.564620494842529 5.512122631072998 L 20.375940799713135 5.594573378562927 L 20.378980636596680 6.486778020858765 C 19.214913368225098 6.688795566558838 18.501843452453613 6.654742240905762 16.891951560974121 7.702924489974976 C 15.703272342681885 8.612113237380981 13.512714385986328 10.782802104949951 12.439106941223145 12.093762874603271 L 18.499298572540283 20.064239501953125 C 19.347231388092041 21.221468925476074 19.860438823699951 21.893736362457275 21.571117401123047 21.813530445098877 L 21.708937168121338 22.690099239349365 L 17.224524678063275 22.686539865192344 L 17.224524678063272 22.686539865192341 C 15.314521551857387 21.687660430801778 15.289050709956626 21.652461710114956 14.072937401913542 19.638478678531676 C 14.072937401913537 19.638478678531662 14.072937401913537 19.638478678531662 14.072937401913537 19.638478678531662 C 14.072937401913537 19.638478678531662 14.072937401913537 19.638478678531662 14.072937401913537 19.638478678531662 C 14.072937401913537 19.638478678531662 14.072937401913537 19.638478678531662 14.072937401913537 19.638478678531662 C 13.248545446259030 18.729952444829070 12.465192202301690 17.694873296341758 11.272652864456177 16.131341457366943 C 10.236451148986816 14.864649295806885 10.602654933929443 13.936873912811279 8.807592630386353 14.855215072631836 L 8.676238059997559 16.692867279052734 C 8.615850448608398 19.406351566314697 8.658097743988037 20.143438339233398 8.671492338180542 20.520709991455078 C 9.042740106582642 22.047469139099121 9.776260614395142 21.714554786682129 11.009797096252441 21.926902770996094 L 10.987072706222534 22.685980796813965 L 3.014449596405029 22.688233852386475 L 3.041823506355286 21.913553237915039 C 3.919517755508423 21.689453601837158 4.940298557281494 21.754024028778076 5.041002988815308 21.051309585571289 C 5.348112344741821 20.522070407867432 5.267601013183594 19.987267971038818 5.294573307037354 18.756624698638916 L 5.211993098258972 11.136418104171753 C 5.161419153213501 8.830377101898193 5.270652651786804 8.581684112548828 5.018231749534607 7.302822589874268 C 4.849637746810913 6.457509040832520 4.650360703468323 6.625792264938354 2.770171880722046 6.389694929122925 L 2.874619245529175 5.643485069274902 " fill="none" stroke="black" stroke-width="0.3"></path></svg>