
<svg xmlns="http://www.w3.org/2000/svg" xmlns:xlink="http://www.w3.org/1999/xlink" width="50px" height="50px" style="-ms-transform: rotate(360deg); -webkit-transform: rotate(360deg); transform: rotate(360deg);" preserveAspectRatio="xMidYMid meet" viewBox="0 0 24 24"><path d="M 0.556768029928207 5.479627490043640 L 7.333739519119263 5.413552522659302 L 12.111552715301514 17.262597084045410 L 16.436614036560059 5.452584385871887 L 22.689662933349609 5.461333036422729 L 22.626112461090088 6.409381628036499 C 20.583334922790527 6.571922063827515 20.138623237609863 6.330694198608398 20.292367458343506 8.653298377990723 L 20.427118778228760 14.039990901947021 C 20.423249244689941 21.839836120605469 19.861855030059814 21.612288951873779 22.643368721008301 21.729118824005127 L 22.924804687500000 22.678989887237549 L 14.859666824340820 22.690894603729248 L 14.634481430053711 22.029253005981445 C 16.256428241729736 21.195253372192383 16.750256538391113 22.621275901794434 16.881757736206055 19.035781860351562 L 16.920879364013672 6.810506343841553 L 11.318428516387939 21.778625965118408 L 10.610720872879028 23.176480293273926 L 4.658815026283264 7.454853773117065 L 4.510866165161133 19.923770427703857 C 4.379479765892029 21.805450916290283 6.221485376358032 21.756338596343994 6.821102857589722 21.912125587463379 L 6.777076721191406 22.694309234619141 L 1.193935364484787 22.668083667755127 L 1.112567603588104 22.043879985809326 C 1.885605096817017 21.304324150085449 3.205176830291748 22.361954212188721 3.539891839027405 19.791020393371582 L 3.623876452445984 9.073146343231201 C 3.676115155220032 8.415731191635132 3.476106762886047 6.761318206787109 3.471336722373962 7.074512243270874 L 3.412343144416809 6.797616720199585 L 0.556768029928207 5.479627490043640 " fill="none" stroke="black" stroke-width="0.3"></path></svg>