
<svg xmlns="http://www.w3.org/2000/svg" xmlns:xlink="http://www.w3.org/1999/xlink" width="50px" height="50px" style="-ms-transform: rotate(360deg); -webkit-transform: rotate(360deg); transform: rotate(360deg);" preserveAspectRatio="xMidYMid meet" viewBox="0 0 24 24"><path d="M 2.700106501579285 5.478102207183838 L 8.230911970138550 5.553259134292603 L 17.723453521728516 17.723869800567627 L 17.894378185272217 9.437905311584473 C 17.860350608825684 6.772132158279419 17.202175140380859 6.671905517578125 15.229249477386475 6.566232204437256 L 15.202940940856934 5.655296802520752 L 21.335546493530273 5.612124681472778 L 21.336745262145996 6.405469179153442 C 19.569565773010254 6.764775037765503 19.252595901489258 6.369483232498169 18.948241710662842 8.933790922164917 L 18.857541561126709 23.090473651885986 L 17.510926723480225 22.785435676574707 L 6.116673946380615 8.283227205276489 L 6.248146533966064 19.945628643035889 C 6.308798789978027 21.463561534881592 7.028774499893188 21.737342834472656 8.779604673385620 21.934228420257568 L 8.769561767578125 22.689319610595703 L 2.687266409397125 22.705900669097900 L 2.644805252552032 21.963528156280518 C 4.356725692749023 21.590908527374268 5.093036055564880 21.684496879577637 5.150548696517944 18.824405193328857 L 5.197630405426025 9.320576190948486 C 4.982423543930054 6.075441598892212 4.390437483787537 6.817367792129517 2.487942695617676 6.324489355087280 L 2.700106501579285 5.478102207183838 " fill="none" stroke="black" stroke-width="0.3"></path></svg>