
<svg xmlns="http://www.w3.org/2000/svg" xmlns:xlink="http://www.w3.org/1999/xlink" width="50px" height="50px" style="-ms-transform: rotate(360deg); -webkit-transform: rotate(360deg); transform: rotate(360deg);" preserveAspectRatio="xMidYMid meet" viewBox="0 0 24 24"><path d="M 4.460996031761169 5.638909220695496 L 12.423744678497314 5.618038415908813 C 16.500094413757324 5.551594734191895 19.716579437255859 6.728630304336548 19.755058765411377 10.553800821304321 C 19.381054401397705 13.338629722595215 16.343453407287598 15.238582134246826 11.394233465194702 14.836093425750732 L 10.387689113616943 14.899540901184082 L 10.322083711624146 20.302260875701904 C 10.562180042266846 21.569340705871582 10.902465820312500 21.712493419647217 13.092341423034668 21.974760532379150 L 13.037049293518066 22.684498786926270 L 4.399777650833130 22.690052032470703 L 4.421805739402771 21.924063205718994 C 6.212728500366211 21.515760898590088 6.647296428680420 22.077748775482178 6.880151510238647 19.724394321441650 L 6.797544479370117 9.459935188293457 C 6.731140851974487 6.443855524063110 6.534974098205566 6.738699674606323 4.249966621398926 6.477921724319458 L 4.460996031761169 5.638909220695496 M 12.158250331878662 6.561970710754395 C 10.449114561080933 6.603574991226196 10.601175785064697 6.396538496017456 10.373503446578979 8.210078001022339 L 10.331500053405762 14.037604808807373 C 11.313903808593750 14.286174774169922 13.921520233154297 13.979727745056152 12.594723701477051 14.066950321197510 C 14.201897621154785 13.885577201843262 15.885940074920654 13.107145786285400 15.969401836395264 10.286298036575317 C 15.982183456420898 7.758586406707764 14.462418079376221 6.408009052276611 12.158250331878662 6.561970710754395 " fill="none" stroke="black" stroke-width="0.3"></path></svg>