
<svg xmlns="http://www.w3.org/2000/svg" xmlns:xlink="http://www.w3.org/1999/xlink" width="50px" height="50px" style="-ms-transform: rotate(360deg); -webkit-transform: rotate(360deg); transform: rotate(360deg);" preserveAspectRatio="xMidYMid meet" viewBox="0 0 24 24"><path d="M 12.458594799041748 5.064671874046326 C 16.491408348083496 5.515215754508972 20.263475418090820 8.428281784057617 20.711817741394043 13.507860660552979 C 20.963366914035774 18.317374665105909 18.372146423836941 20.980369119523697 14.958970158824949 22.588298984751439 C 15.105143201701669 22.938057686959553 15.229910614694468 23.852570857128761 16.815266132354736 24.229465484619141 C 17.782759666442871 25.337960243225098 18.484169483184814 25.859856605529785 19.145165920257568 26.287957191467285 L 20.193564891815186 27.356125831604004 L 16.536074638366699 28.106234550476074 C 14.361039161682129 27.908503532409668 14.507931232452393 25.660612106323242 12.616703510284424 25.654767036437988 C 11.571593999862671 25.651536941528320 10.656243324279785 25.948688507080078 9.070029258728027 26.589194297790527 L 9.421528100967407 25.741444587707520 C 10.579099416732788 25.475157737731934 11.556370496749878 24.269702911376953 13.580667972564697 23.950206756591797 C 11.136536836624146 23.622310638427734 12.832387447357178 23.003505706787109 10.807840347290039 22.982844829559326 C 6.451362133026123 22.305178642272949 3.183886170387268 19.145796775817871 3.044482469558716 14.264249324798584 C 3.158714532852173 9.150757312774658 6.527299404144287 5.173210501670837 12.458594799041748 5.064671874046326 M 12.253479480743408 5.986895442008972 C 8.221180915832520 5.885369181632996 6.807119607925415 10.009959697723389 6.931678533554077 14.472460269927979 C 6.843928813934326 18.944971561431885 8.761465787887573 22.119562625885010 12.182443141937256 22.085268974304199 C 15.050404071807861 22.020443916320801 17.251177310943604 19.634470939636230 16.929130554199219 14.063657283782959 C 16.940282821655273 10.036103010177612 15.475451946258545 6.332603931427002 12.253479480743408 5.986895442008972 " fill="none" stroke="black" stroke-width="0.3"></path></svg>