
<svg xmlns="http://www.w3.org/2000/svg" xmlns:xlink="http://www.w3.org/1999/xlink" width="50px" height="50px" style="-ms-transform: rotate(360deg); -webkit-transform: rotate(360deg); transform: rotate(360deg);" preserveAspectRatio="xMidYMid meet" viewBox="0 0 24 24"><path d="M 3.463015079498291 5.636225938796997 L 12.488399505615234 5.622540950775146 C 15.087327003479004 5.507835388183594 18.928317546844482 6.812996149063110 18.636660575866699 10.008918285369873 C 18.492080211639404 12.602308273315430 15.561221122741699 13.426255702972412 13.971203327178955 13.941450119018555 L 16.252947807312012 16.040621280670166 C 17.654062271118164 18.003059864044189 17.914794445037842 19.736277580261230 18.748131752014160 20.696848869323730 C 19.255924701690674 21.476361751556396 19.414990425109863 21.990700721740723 21.246504306793213 21.624446868896484 L 21.120058536529541 22.726375579833984 L 16.875502109527588 22.780313014984131 C 15.598415851593018 22.425656318664551 14.817561149597168 21.106259822845459 13.906416893005371 18.754765033721924 C 13.007759571075439 16.905618667602539 12.655677795410156 15.716320037841797 11.767133474349976 14.887799263000488 C 10.944748163223267 14.474560260772705 11.033761024475098 14.400614261627197 9.221941709518433 14.560452461242676 L 9.160373926162720 20.047589778900146 C 9.419656991958618 22.226437568664551 10.718878984451294 21.501083850860596 11.581451654434204 21.902536869049072 L 11.651794910430908 22.688042163848877 L 3.415408372879028 22.686726093292236 L 3.458712100982666 21.806817054748535 C 5.625474214553833 21.768692493438721 5.799613595008850 21.247983455657959 5.778116226196289 19.523334503173828 C 5.762917757034302 18.791353225708008 5.726909279823303 18.168066501617432 5.666275262832642 9.583196640014648 C 5.641350388526917 7.902282714843750 5.610334396362305 6.938817501068115 4.881335377693176 6.687764883041382 L 3.331153750419617 6.492628812789917 L 3.463015079498291 5.636225938796997 M 11.198395013809204 6.526861667633057 C 9.352234840393066 6.616029024124146 9.452672481536865 6.447593450546265 9.231838703155518 8.016243696212769 L 9.152675628662109 13.735340595245361 L 11.430377483367920 13.512561321258545 C 13.446609020233154 13.269371509552002 14.747486114501953 12.152639865875244 14.866453170776367 9.899903297424316 C 15.012783050537109 8.145726442337036 13.825809001922607 6.478926658630371 11.198395013809204 6.526861667633057 " fill="none" stroke="black" stroke-width="0.3"></path></svg>