
<svg xmlns="http://www.w3.org/2000/svg" xmlns:xlink="http://www.w3.org/1999/xlink" width="50px" height="50px" style="-ms-transform: rotate(360deg); -webkit-transform: rotate(360deg); transform: rotate(360deg);" preserveAspectRatio="xMidYMid meet" viewBox="0 0 24 24"><path d="M 11.781316995620728 4.986770153045654 C 13.999500274658203 5.041923522949219 15.125385761260986 6.224889993667603 15.807576656341553 6.099802494049072 L 16.894723892211914 5.382380962371826 L 17.227317810058594 5.654120206832886 L 17.382509708404541 10.641147851943970 L 16.447534561157227 10.435843706130981 C 15.741509914398193 7.626769781112671 13.954542160034180 5.799057841300964 11.617884635925293 5.901167392730713 C 10.188245058059692 5.980332612991333 8.602885723114014 6.938274621963501 8.334497451782227 8.532119035720825 C 8.321684360504150 10.405114173889160 9.666960239410400 11.167518138885498 12.539212703704834 12.030960559844971 C 15.479776382446289 12.902070522308350 18.314718246459961 14.252780914306641 18.574288845062256 17.769337177276611 C 18.741090774536133 21.028548717498779 15.678743362426758 23.071108818054199 12.208042144775391 23.116591930389404 C 9.941451787948608 22.952921390533447 9.220067739486694 22.328568935394287 7.337998151779175 21.753021240234375 L 6.355937719345093 22.683059692382812 L 5.804468750953674 22.650047779083252 L 5.473097920417786 17.086574077606201 L 6.363576650619507 17.127307891845703 C 7.270263433456421 19.374994754791260 8.277357816696167 21.663266658782959 12.147039413452148 22.131721973419189 C 14.098564624786377 22.112309932708740 15.919424057006836 20.871959209442139 16.040053367614746 19.289155483245850 C 16.063150405883789 17.250557899475098 14.316534519195557 16.482584953308105 11.986691236495972 15.572874069213867 C 8.043493509292603 14.310509204864502 6.177246093750000 13.483489036560059 5.649012923240662 10.513325929641724 C 5.513337492942810 6.684893131256104 8.872399091720581 5.061232209205627 11.781316995620728 4.986770153045654 " fill="none" stroke="black" stroke-width="0.3"></path></svg>