
<svg xmlns="http://www.w3.org/2000/svg" xmlns:xlink="http://www.w3.org/1999/xlink" width="50px" height="50px" style="-ms-transform: rotate(360deg); -webkit-transform: rotate(360deg); transform: rotate(360deg);" preserveAspectRatio="xMidYMid meet" viewBox="0 0 24 24"><path d="M 4.342396616935730 5.533392548561096 L 19.780853748321533 5.374060034751892 L 20.113712310791016 10.811437368392944 L 19.101310729980469 10.704594612121582 C 18.513872623443604 8.430371046066284 17.806084156036377 6.668566703796387 15.324833393096924 6.448562622070312 C 13.461626529693604 6.325433492660522 14.065820217132568 6.117970705032349 13.789256572723389 8.667112827301025 L 13.706475734710693 18.762299537658691 C 13.728451251983643 21.298748016357422 13.790463924407959 21.753989696502686 16.438742637634277 21.720711708068848 L 16.436904430389404 22.689637184143066 L 7.646568059921265 22.685864925384521 L 7.734474420547485 21.943961620330811 C 8.655562162399292 21.535717964172363 9.960047006607056 22.269860744476318 10.284057855606079 20.449234485626221 C 10.440432071685791 20.414677619934082 10.208939552307129 14.588506221771240 10.297064065933228 6.462526559829712 C 9.783780701710958 6.376810560094875 9.179989428338766 6.384379855922452 8.773522916409945 6.405206854458737 C 5.547372040229001 7.117314601310482 5.952835366755489 7.756412531107710 4.896064281463623 10.320933580398560 L 3.984235882759094 10.934082984924316 C 4.108428955078125 8.165263652801514 4.290753722190857 6.267943382263184 4.342396616935730 5.533392548561096 " fill="none" stroke="black" stroke-width="0.3"></path></svg>