
<svg xmlns="http://www.w3.org/2000/svg" xmlns:xlink="http://www.w3.org/1999/xlink" width="50px" height="50px" style="-ms-transform: rotate(360deg); -webkit-transform: rotate(360deg); transform: rotate(360deg);" preserveAspectRatio="xMidYMid meet" viewBox="0 0 24 24"><path d="M 6.194335699081421 5.484273076057434 L 11.027568340301514 5.574334502220154 L 10.914336919784546 6.441704750061035 L 8.775551319122314 6.819057941436768 L 8.471307992935181 8.333212852478027 L 8.515507936477661 17.767968177795410 C 8.807651281356812 20.864552021026611 10.777910470962524 21.858037948608398 13.287373065948486 21.901302337646484 C 15.521625995635986 21.630329132080078 17.725665092468262 21.090305328369141 17.905024051666260 16.992851257324219 L 17.890421390533447 9.624775171279907 C 17.793677330017090 7.309387207031250 17.500360965728760 6.695551872253418 15.300908088684082 6.478906631469727 L 15.324541568756104 5.653855919837952 L 21.312685489654541 5.617228746414185 L 21.228754520416260 6.484245300292969 C 18.957169532775879 6.600371360778809 18.778810501098633 6.883471012115479 18.976027965545654 12.824925899505615 L 18.783684253692627 17.075750827789307 C 18.673453330993652 20.873584270477295 16.654586791992188 23.059205532073975 11.964627027511597 23.095398902893066 C 7.169875860214233 22.885218143463135 4.847760200500488 20.609577655792236 5.038313627243042 16.852566719055176 L 5.047635197639465 8.655808210372925 C 4.828793764114380 5.811046600341797 4.260295271873474 6.816447973251343 2.580510914325714 6.372729063034058 L 2.686305105686188 5.466350913047791 L 6.194335699081421 5.484273076057434 " fill="none" stroke="black" stroke-width="0.3"></path></svg>