
<svg xmlns="http://www.w3.org/2000/svg" xmlns:xlink="http://www.w3.org/1999/xlink" width="50px" height="50px" style="-ms-transform: rotate(360deg); -webkit-transform: rotate(360deg); transform: rotate(360deg);" preserveAspectRatio="xMidYMid meet" viewBox="0 0 24 24"><path d="M 2.788798391819000 5.515959978103638 L 10.857064247131348 5.628536224365234 L 10.799840211868286 6.481459379196167 L 9.301534652709961 6.725861549377441 C 8.213622808456421 7.094510793685913 8.879104614257812 7.071300029754639 8.713419198989868 7.983798980712891 L 13.290699005126953 18.741690158843994 L 17.096423149108887 8.796754360198975 C 17.174808025360107 8.101710319519043 17.442249298095703 8.096915245056152 17.260309696197510 7.211886405944824 C 16.486937999725342 6.291287183761597 15.409792900085449 6.815603256225586 14.977080345153809 6.366891145706177 L 15.200723648071289 5.644371986389160 L 21.022865295410156 5.628761887550354 L 20.966061115264893 6.493979930877686 C 19.881524562835693 6.714752197265625 18.983616828918457 6.549525976181030 18.107817649841309 9.064246416091919 L 12.570226192474365 23.014715194702148 L 11.411082029342651 23.015509128570557 C 9.384556531906128 18.259707927703857 6.953759193420410 12.348282337188721 5.206460595130920 8.251642942428589 C 4.089758276939392 6.201675653457642 3.969503760337830 6.763823032379150 2.748466372489929 6.386367559432983 L 2.788798391819000 5.515959978103638 " fill="none" stroke="black" stroke-width="0.3"></path></svg>