
<svg xmlns="http://www.w3.org/2000/svg" xmlns:xlink="http://www.w3.org/1999/xlink" width="50px" height="50px" style="-ms-transform: rotate(360deg); -webkit-transform: rotate(360deg); transform: rotate(360deg);" preserveAspectRatio="xMidYMid meet" viewBox="0 0 24 24"><path d="M -6.628883361816406 5.464528083801270 L 6.914187669754028 5.592028856277466 L 7.185635805130005 6.106213331222534 L 4.661061644554138 6.897457122802734 L 8.557097911834717 18.099367618560791 L 11.271587848663330 10.444661378860474 C 11.337816953659058 8.212841033935547 10.545122623443604 7.024144649505615 9.511050224304199 6.573142290115356 L 9.442939281463623 5.527038216590881 L 15.479490280151367 5.490321993827820 L 15.639704704284668 6.312826395034790 C 14.235619068145752 7.221782684326172 13.796881198883057 6.041712999343872 14.624735355377197 8.304457426071167 C 15.037646770477295 10.235016345977783 17.176367282867432 16.089624881744385 17.533654689788818 17.886424541473389 C 18.712201595306396 15.368884563446045 20.013477802276611 10.635529518127441 20.474407196044922 9.257367610931396 C 20.954380989074707 6.421014547348022 20.761889934539795 7.017527818679810 18.792281627655029 6.356872558593750 L 18.809420585632324 5.580840468406677 L 24.929145812988281 5.567936539649963 L 23.998024463653564 6.360805034637451 C 22.457377910614014 6.096303462982178 22.071946620941162 7.757433414459229 21.130239486694336 10.201062440872192 L 16.938463211059570 22.955270290374756 L 15.801980495452881 22.801305770874023 L 12.074608325958252 10.762854337692261 L 7.807140827178955 22.774752616882324 L 6.763322353363037 22.815374851226807 C 5.321255207061768 18.839993476867676 3.554550290107727 13.839622020721436 1.980586230754852 9.519945859909058 C 1.274861454963684 7.414373159408569 1.230734735727310 6.522836923599243 -1.996219992637634 6.532914161682129 L -6.628883361816406 5.464528083801270 " fill="none" stroke="black" stroke-width="0.3"></path></svg>