
<svg xmlns="http://www.w3.org/2000/svg" xmlns:xlink="http://www.w3.org/1999/xlink" width="50px" height="50px" style="-ms-transform: rotate(360deg); -webkit-transform: rotate(360deg); transform: rotate(360deg);" preserveAspectRatio="xMidYMid meet" viewBox="0 0 24 24"><path d="M 3.242001056671143 5.382971405982971 L 11.517929792404175 5.497876167297363 L 11.351152181625366 6.291399478912354 L 9.567428112030029 6.620978593826294 C 9.257602930068970 7.806303977966309 12.152024745941162 10.950409412384033 12.649550914764404 12.030535697937012 L 15.555479049682617 8.108453750610352 C 16.739511966705322 5.611482024192810 13.675100326538086 7.300731182098389 14.093396186828613 5.751277327537537 L 14.244728565216064 5.543690085411072 L 20.362099170684814 5.647599220275879 L 20.314099788665771 6.547051906585693 C 18.706051826477051 6.505828857421875 17.651860713958740 7.089717864990234 16.470235347747803 8.494645357131958 L 13.169334411621094 12.719088077545166 L 18.122377395629883 19.916072845458984 C 19.353611469268799 21.519159793853760 19.327380180358887 21.854696273803711 21.375243186950684 21.928344726562500 L 21.442238330841064 22.687763214111328 L 12.904716968536377 22.688949108123779 L 12.904601097106934 22.088772296905518 C 13.987599849700928 21.566730022430420 14.854086399078369 21.479128360748291 14.528596401214600 20.998101711273193 C 14.635763168334961 20.304747104644775 13.298822879791260 18.790421962738037 13.637127399444580 19.266703605651855 L 10.942430019378662 15.537052631378174 C 10.050883769989014 16.331481456756592 8.372251510620117 18.722077846527100 7.636223316192627 19.942042350769043 C 6.738899230957031 21.442823410034180 7.585325002670288 21.701242446899414 9.240756511688232 21.896119594573975 L 9.186952829360962 22.693782806396484 L 2.749506354331970 22.677038669586182 L 2.732819259166718 21.877920627593994 C 5.211423754692078 21.464571475982666 5.390626072883606 20.668320178985596 6.593610048294067 19.499729633331299 C 7.971415758132935 17.945363044738770 9.668028116226196 15.607917308807373 10.390183210372925 14.637755870819092 C 8.639599084854126 11.881528615951538 6.819681644439697 9.601615190505981 5.897249579429626 8.138903617858887 C 4.645338535308838 6.371212005615234 4.484843730926514 6.664259433746338 2.840523898601532 6.307880401611328 L 3.242001056671143 5.382971405982971 " fill="none" stroke="black" stroke-width="0.3"></path></svg>