
<svg xmlns="http://www.w3.org/2000/svg" xmlns:xlink="http://www.w3.org/1999/xlink" width="50px" height="50px" style="-ms-transform: rotate(360deg); -webkit-transform: rotate(360deg); transform: rotate(360deg);" preserveAspectRatio="xMidYMid meet" viewBox="0 0 24 24"><path d="M 3.139167308807373 5.597921848297119 L 11.284812927246094 5.626948356628418 L 11.105162858963013 6.492157459259033 L 9.496665716171265 6.714280843734741 C 9.027566671371460 7.128514051437378 9.212120532989502 7.260974407196045 9.630595207214355 8.344154834747314 L 13.104718208312988 13.965774536132812 L 16.049715042114258 9.310581207275391 C 16.333957672119141 8.727145671844482 16.687245368957520 8.117136240005493 16.812558174133301 7.511730194091797 C 16.431828975677490 6.144674777984619 14.572501659393311 7.001996755599976 14.523078918457031 6.222484588623047 L 14.738661289215088 5.590481400489807 L 20.582393646240234 5.562865734100342 L 20.577986240386963 6.492024421691895 C 18.875917911529541 6.621005773544312 18.408113479614258 7.288965940475464 17.329460620880127 9.033887386322021 L 13.580582141876221 15.366658687591553 L 13.656445026397705 19.710123538970947 C 13.699769496917725 21.501977920532227 14.219255447387695 21.635520458221436 16.304443359375000 21.868150234222412 L 16.248002529144287 22.689291000366211 L 7.674026012420654 22.686492919921875 L 7.668349027633667 21.859617233276367 C 10.150197029113770 21.518225669860840 10.210136175155640 21.911091327667236 10.272424936294556 18.757834911346436 L 10.244263172149658 15.648506641387939 L 6.119052171707153 9.153861522674561 C 5.071914553642273 7.691221475601196 4.878399968147278 6.479456663131714 2.960903942584991 6.499333620071411 L 3.139167308807373 5.597921848297119 " fill="none" stroke="black" stroke-width="0.3"></path></svg>