
<svg xmlns="http://www.w3.org/2000/svg" xmlns:xlink="http://www.w3.org/1999/xlink" width="50px" height="50px" style="-ms-transform: rotate(360deg); -webkit-transform: rotate(360deg); transform: rotate(360deg);" preserveAspectRatio="xMidYMid meet" viewBox="0 0 24 24"><path d="M 9.535829544067383 4.998609066009521 L 9.621650218963623 12.979531288146973 C 10.044733285903931 12.402578830718994 11.520275115966797 11.341092824935913 12.579251289367676 11.266516685485840 C 15.790370464324951 10.870958089828491 18.147394180297852 13.825653076171875 18.122155666351318 17.088821411132812 C 17.995965957641602 20.493760585784912 15.470506668090820 22.902906417846680 12.164824962615967 22.978098392486572 C 11.208052396774292 23.052266120910645 9.836094617843628 22.229578971862793 8.709382295608521 21.686254978179932 L 8.116026163101196 22.663606166839600 L 5.935083031654358 22.602969646453857 L 6.529641151428223 22.616628170013428 L 6.578744173049927 21.169539928436279 L 6.650135278701782 9.329882383346558 C 6.589901447296143 6.313499450683594 6.403023719787598 6.797372817993164 4.916150450706482 6.288886070251465 L 4.845918059349060 5.747013330459595 C 6.891202926635742 5.540745735168457 8.133301734924316 5.211060047149658 9.535829544067383 4.998609066009521 M 11.881553649902344 12.578307151794434 C 9.890896797180176 12.909132957458496 9.426769495010376 14.034822463989258 9.578089714050293 15.542568683624268 C 9.431117534637451 20.021791934967041 9.167218923568726 21.421398639678955 11.991001367568970 22.092181205749512 C 14.125090599060059 22.239337921142578 14.977510929107666 19.708790302276611 15.071132183074951 17.319813251495361 C 14.852538585662842 14.179700374603271 13.649087905883789 12.412944316864014 11.881553649902344 12.578307151794434 " fill="none" stroke="black" stroke-width="0.3"></path></svg>