
<svg xmlns="http://www.w3.org/2000/svg" xmlns:xlink="http://www.w3.org/1999/xlink" width="50px" height="50px" style="-ms-transform: rotate(360deg); -webkit-transform: rotate(360deg); transform: rotate(360deg);" preserveAspectRatio="xMidYMid meet" viewBox="0 0 24 24"><path d="M 12.742413997650146 11.043184518814087 C 15.041831016540527 10.983959197998047 16.892704010009766 12.440115451812744 16.960644721984863 13.718896865844727 C 16.659018516540527 14.808111190795898 16.222402095794678 15.254319190979004 15.960585594177246 15.167324066162109 C 14.901716709136963 15.598211288452148 14.081514358520508 14.932758808135986 14.146041870117188 13.253705978393555 C 14.138574600219727 12.335410594940186 13.495054721832275 11.525087356567383 12.042453289031982 11.797680616378784 C 10.578894138336182 12.260870933532715 9.624898195266724 14.198109626770020 9.687076091766357 16.264447689056396 C 9.771288156509399 19.332587242126465 10.988905191421509 21.287534236907959 13.305866718292236 21.544674396514893 C 15.586911678314209 21.723555564880371 16.017132282257080 20.051652431488037 16.876486301422119 19.593508243560791 L 17.133921146392822 19.629765987396240 C 17.263674259185791 21.065507411956787 14.691747665405273 23.189329147338867 12.202192783355713 22.965422630310059 C 8.911262512207031 22.735356330871582 6.102197170257568 19.963728904724121 6.579809188842773 16.305380344390869 C 6.975455045700073 13.383041381835938 9.855486631393433 11.052074432373047 12.742413997650146 11.043184518814087 " fill="none" stroke="black" stroke-width="0.3"></path></svg>