
<svg xmlns="http://www.w3.org/2000/svg" xmlns:xlink="http://www.w3.org/1999/xlink" width="50px" height="50px" style="-ms-transform: rotate(360deg); -webkit-transform: rotate(360deg); transform: rotate(360deg);" preserveAspectRatio="xMidYMid meet" viewBox="0 0 24 24"><path d="M 17.031961441040039 5.076536536216736 L 17.175909519195557 20.663834095001221 C 17.464128971099854 22.010232925415039 17.685926914215088 21.595310211181641 19.143176078796387 21.887227535247803 L 18.807426452636719 22.603444576263428 L 14.481044769287109 22.864375591278076 L 14.318268299102783 21.483723163604736 C 13.132527351379395 22.006473541259766 12.538564682006836 23.206924438476562 9.949092864990234 23.042562961578369 C 7.649122238159180 22.629175186157227 5.413429856300354 20.500206470489502 5.502666592597961 17.156817913055420 C 5.483160138130188 13.892573833465576 8.025976896286011 10.983077287673950 10.907658576965332 11.049845695495605 C 12.892129898071289 10.988056898117065 13.862733364105225 12.099582195281982 14.139312744140625 11.999293327331543 L 14.172051429748535 8.883982658386230 C 13.923002243041992 6.580658197402954 14.445206165313721 6.929844617843628 12.156188964843750 6.429233551025391 L 12.273086071014404 5.659515380859375 C 14.947257041931152 5.464038133621216 16.012903690338135 5.207473397254944 17.031961441040039 5.076536536216736 M 11.525173902511597 11.893860340118408 C 9.674664258956909 12.079339027404785 8.620234251022339 14.002096652984619 8.760145425796509 17.453696250915527 C 8.964385986328125 20.366086006164551 10.039418935775757 21.823544025421143 12.102579116821289 21.726954460144043 C 14.200335502624512 21.072182178497314 14.205163478851318 20.397547245025635 14.247303485870361 18.389774322509766 C 14.149476528167725 14.478020668029785 14.527084350585938 12.445734500885010 11.525173902511597 11.893860340118408 " fill="none" stroke="black" stroke-width="0.3"></path></svg>