
<svg xmlns="http://www.w3.org/2000/svg" xmlns:xlink="http://www.w3.org/1999/xlink" width="50px" height="50px" style="-ms-transform: rotate(360deg); -webkit-transform: rotate(360deg); transform: rotate(360deg);" preserveAspectRatio="xMidYMid meet" viewBox="0 0 24 24"><path d="M 12.207580089569092 11.078797817230225 C 15.164012432098389 11.049287080764771 17.275378704071045 13.024638175964355 17.424280643463135 16.195890426635742 L 17.376142501831055 16.398047447204590 L 9.588443756103516 16.250324249267578 C 9.503265380859375 18.275025844573975 10.052214860916138 21.472437858581543 13.152965068817139 21.541440010070801 C 15.621793270111084 21.718729019165039 15.926842689514160 20.047727108001709 17.063734531402588 19.607694625854492 L 17.287450790405273 19.740769386291504 C 17.254039764404297 20.745743751525879 14.934265136718750 23.079922199249268 12.513464927673340 22.941269874572754 C 9.159838914871216 23.169314861297607 6.260835170745850 20.135450363159180 6.444985628128052 17.037282943725586 C 6.508568286895752 13.785580158233643 9.000630140304565 11.258810520172119 12.207580089569092 11.078797817230225 M 12.118483543395996 11.799732685089111 C 10.551263093948364 11.687057733535767 9.640047311782837 13.729172229766846 9.653810262680054 15.611686706542969 L 14.315488815307617 15.379012584686279 C 14.366509437561035 13.529434204101562 13.635958671569824 11.540937423706055 12.118483543395996 11.799732685089111 " fill="none" stroke="black" stroke-width="0.3"></path></svg>