
<svg xmlns="http://www.w3.org/2000/svg" xmlns:xlink="http://www.w3.org/1999/xlink" width="50px" height="50px" style="-ms-transform: rotate(360deg); -webkit-transform: rotate(360deg); transform: rotate(360deg);" preserveAspectRatio="xMidYMid meet" viewBox="0 0 24 24"><path d="M 14.114696502685547 5.016527295112610 C 15.031010627746582 5.120236515998840 16.726537227630615 5.465129256248474 17.046292304992676 7.075890541076660 C 16.672978878021240 8.256897211074829 16.576692581176758 8.140364170074463 15.646501064300537 8.324725627899170 C 14.789038181304932 8.031442165374756 14.254104137420654 8.223138570785522 14.120661735534668 7.103894233703613 C 13.930998802185059 6.277934074401855 13.926152229309082 5.792145252227783 13.100954532623291 6.116088151931763 C 12.832180023193359 5.803789258003235 12.073183536529541 7.224065780639648 12.221377372741699 9.327105045318604 L 12.189628601074219 11.609749317169189 L 14.871477127075195 11.667014122009277 L 14.703917026519775 12.612939834594727 L 12.171389579772949 12.644106388092041 L 12.124518871307373 20.041598796844482 C 12.260187149047852 21.549015998840332 12.155748367309570 21.733818054199219 14.487118721008301 21.916119575500488 L 14.463017463684082 22.683084011077881 L 7.588382005691528 22.692672729492188 L 7.511410474777222 21.959660053253174 C 9.503813982009888 21.563590049743652 9.128484964370728 21.756443023681641 9.387285947799683 19.755065917968750 L 9.308196544647217 12.624617099761963 L 7.758377285255347 12.742199885447221 L 7.758377285255348 12.742199885447224 C 6.816647455217176 12.057177625770924 7.729049192746910 11.933014143322236 9.226689577102661 11.634057998657227 C 9.228014230728149 9.813592672348022 9.635927438735962 8.664154529571533 9.534934759140015 8.891115188598633 C 10.267441034317017 6.627637624740601 11.762402057647705 4.936656475067139 14.114696502685547 5.016527295112610 " fill="none" stroke="black" stroke-width="0.3"></path></svg>