
<svg xmlns="http://www.w3.org/2000/svg" xmlns:xlink="http://www.w3.org/1999/xlink" width="50px" height="50px" style="-ms-transform: rotate(360deg); -webkit-transform: rotate(360deg); transform: rotate(360deg);" preserveAspectRatio="xMidYMid meet" viewBox="0 0 24 24"><path d="M 13.528484344482422 11.497544288635254 C 14.413503170013428 11.943901777267456 14.592720508575439 12.494979858398438 16.127263069152832 11.092926979064941 L 17.938954353332520 11.042650222778320 L 18.130163669586182 12.682607173919678 C 15.938057899475098 12.827592372894287 16.588977813720703 11.963454008102417 15.498411655426025 12.266000747680664 C 15.790915489196777 13.669006347656250 16.468544483184814 13.285308837890625 16.424697875976562 15.319848060607910 C 16.419455403960924 15.358136655372673 16.414541029762436 15.394119975585635 16.409942781405565 15.427827916910061 C 16.322913826678935 17.240849693722222 14.613675484075282 18.490437173989573 12.954056176982652 18.818803600080599 C 12.598827197558524 18.861659283197330 12.046238046911292 18.947931870031525 11.515837669372559 19.089317321777344 C 9.566514015197754 19.132744789123535 9.124864339828491 19.199671268463135 9.037141799926758 20.119188308715820 C 9.311703443527222 21.007530212402344 10.279415130615234 20.962484836578369 12.640418529510498 21.010550022125244 C 15.620112419128418 20.776114940643311 17.605926990509033 21.720697402954102 17.695708751678467 23.793396949768066 C 17.370723724365234 26.415910720825195 15.016523838043213 27.553055763244629 12.921748638153076 26.003568649291992 C 9.356592893600464 24.911004066467285 7.142214775085449 25.132816314697266 7.605165481567383 23.162738800048828 C 6.692685908040934 22.962659247105421 6.534155085237973 22.268281570954024 6.702093730776331 21.606453911012146 C 6.577584708990670 21.435142296361700 6.650858360233366 20.875423753429871 7.042603254318237 20.281448364257812 C 7.979926514070920 19.516827241967285 8.708624399093299 18.786027033410136 8.978592283897843 18.900882506636531 C 7.823992973815427 17.799500539437361 6.567295758597252 16.721058674963235 6.608044624328613 15.176443576812744 C 6.396414756774902 12.901266574859619 9.194146156311035 10.475224971771240 12.404910564422607 11.127479553222656 L 13.528484344482422 11.497544288635254 M 11.491044044494629 11.755323171615601 C 10.046717405319214 11.593759775161743 9.297062873840332 13.288013935089111 9.317560672760010 15.034300804138184 C 9.318549156188965 16.429095268249512 10.141880035400391 18.369933128356934 11.491219282150269 18.410438060760498 C 12.885405063629150 18.363683223724365 13.566717624664307 17.143578529357910 13.576828479766846 15.620598793029785 C 13.680308818817139 12.963429450988770 12.392094612121582 11.560645580291748 11.491044044494629 11.755323171615601 M 9.474572896957397 23.081454277038574 C 8.115097045898438 23.170785427093506 9.179248809814453 24.042749404907227 7.733579635620117 23.775050640106201 C 8.161424875259399 26.268628120422363 10.213470697402954 26.522220611572266 11.884021282196045 26.537037849426270 C 13.997766494750977 26.515683174133301 15.238557815551758 25.660160064697266 16.285347461700439 24.232003211975098 C 15.463625907897949 23.620685577392578 12.941964626312256 23.770437240600586 13.256056308746338 23.397877693176270 C 11.385156869888306 23.315367221832275 10.096645116806030 22.950566768646240 9.474572896957397 23.081454277038574 " fill="none" stroke="black" stroke-width="0.3"></path></svg>