
<svg xmlns="http://www.w3.org/2000/svg" xmlns:xlink="http://www.w3.org/1999/xlink" width="50px" height="50px" style="-ms-transform: rotate(360deg); -webkit-transform: rotate(360deg); transform: rotate(360deg);" preserveAspectRatio="xMidYMid meet" viewBox="0 0 24 24"><path d="M 9.584210157394409 5.006958961486816 L 9.607047557830811 13.169205665588379 C 11.003995656967163 12.072934627532959 12.030246734619141 10.925558567047119 14.264402389526367 11.138232707977295 C 16.109709262847900 11.489808082580566 17.225519657135010 12.734064102172852 17.201698780059814 15.435045719146729 L 17.171027183532715 20.177764892578125 C 17.193277359008789 21.609931468963623 17.511800765991211 21.908961296081543 19.070314407348633 22.017424106597900 L 18.884948730468750 22.688087940216064 L 12.703441143035889 22.688591480255127 L 12.716149806976318 21.951948165893555 C 14.407460689544678 21.875510215759277 14.075480461120605 20.763493537902832 14.271470546722412 20.201611518859863 L 14.301661491394043 15.601120948791504 C 14.310479164123535 13.577622413635254 13.519081592559814 12.386248111724854 12.340447425842285 12.636673450469971 C 11.955119132995605 12.349206447601318 9.660057306289673 13.494740009307861 9.644060611724854 14.578275203704834 L 9.541823387145996 19.319848537445068 C 9.682971239089966 22.179478168487549 9.870211601257324 21.354550838470459 11.278820514678955 22.071998119354248 L 11.222380399703979 22.685946464538574 L 5.141789674758911 22.689893245697021 L 4.986896753311157 21.929224491119385 C 6.592958450317383 21.666585445404053 6.421629667282104 21.622705936431885 6.685302972793579 20.177790641784668 L 6.648813486099243 9.643444061279297 C 6.825652599334717 6.366926193237305 6.503648042678833 6.630464315414429 4.959239244461060 6.256044387817383 L 4.821190595626831 5.618003010749817 C 6.500960826873779 5.510843396186829 7.941834211349487 5.212039947509766 9.584210157394409 5.006958961486816 " fill="none" stroke="black" stroke-width="0.3"></path></svg>