
<svg xmlns="http://www.w3.org/2000/svg" xmlns:xlink="http://www.w3.org/1999/xlink" width="50px" height="50px" style="-ms-transform: rotate(360deg); -webkit-transform: rotate(360deg); transform: rotate(360deg);" preserveAspectRatio="xMidYMid meet" viewBox="0 0 24 24"><path d="M 11.555978536605835 5.384136199951172 C 12.390928745269775 5.165731787681580 13.672197818756104 5.843268871307373 13.682282924652100 6.937771081924438 C 13.649492740631104 8.129621028900146 12.688807010650635 8.949844121932983 11.500403881072998 8.731495857238770 C 10.632187843322754 8.464855670928955 10.058514118194580 7.480663061141968 10.114503622055054 6.913557529449463 C 9.995037317276001 6.406519889831543 10.787658691406250 5.486513972282410 11.555978536605835 5.384136199951172 M 13.420237541198730 11.090974330902100 L 13.408733367919922 19.873786926269531 C 13.539616584777832 21.755802154541016 13.791247844696045 21.657989501953125 15.240932464599609 21.950813770294189 L 15.304013729095459 22.682763576507568 L 8.875986814498901 22.690474033355713 L 8.936997413635254 21.896255493164062 C 9.652307510375977 22.000396728515625 10.449743986129761 21.614998340606689 10.451105833053589 20.763846874237061 C 10.611730813980103 20.549554824829102 10.559575080871582 14.657664299011230 10.487932920455933 13.825512886047363 C 10.355033397674561 12.437357425689697 9.597413063049316 12.994809150695801 8.660930156707764 12.489958763122559 L 8.732522964477539 11.886864423751831 C 10.662587642669678 11.334545373916626 11.049191951751709 11.691520214080811 13.420237541198730 11.090974330902100 " fill="none" stroke="black" stroke-width="0.3"></path></svg>