
<svg xmlns="http://www.w3.org/2000/svg" xmlns:xlink="http://www.w3.org/1999/xlink" width="50px" height="50px" style="-ms-transform: rotate(360deg); -webkit-transform: rotate(360deg); transform: rotate(360deg);" preserveAspectRatio="xMidYMid meet" viewBox="0 0 24 24"><path d="M 10.838989734649658 5.503215551376343 C 12.265610218048096 5.074925780296326 13.304470539093018 6.065930843353271 13.274278163909912 7.034667491912842 C 13.000179290771484 8.736338853836060 11.846742868423462 9.093599796295166 11.101358413696289 8.748800754547119 C 10.246071766745377 8.414130168309816 9.684208223035451 7.208888324486511 9.922779301438613 7.488039840441632 C 9.526898271058672 6.942195896657134 9.898438523937928 5.721663929155899 10.838989734649658 5.503215551376343 M 13.087995529174805 11.085387468338013 L 13.016275405883789 22.943328380584717 C 12.781911849975586 25.967871665954590 10.148297309875488 27.755272865295410 8.100445747375488 28.906053543090820 C 8.046163558959961 29.486260414123535 7.011692762374878 29.518655776977539 5.750288486480713 29.001271247863770 C 5.183576345443726 28.463310241699219 4.549082279205322 27.349330902099609 4.825979948043823 26.846809387207031 C 5.090663194656372 26.366455078125000 5.659504652023315 25.702589035034180 6.496074914932251 25.688884735107422 C 7.364049911499023 25.674665451049805 7.778917551040649 26.202733039855957 8.021163225173950 26.980802536010742 C 8.199699640274048 27.554248809814453 8.251806735992432 27.930805206298828 8.302595615386963 28.205849647521973 C 8.365878582000732 28.548551559448242 8.770963668823242 28.767125129699707 9.013093471527100 28.792144775390625 C 9.647058248519897 28.857650756835938 9.888962030410767 27.296153068542480 10.015551567077637 24.965171813964844 L 10.256491184234619 15.800354003906250 C 10.171940803527832 12.888799667358398 10.499740362167358 12.887778282165527 8.381524085998535 12.567003250122070 L 8.247299909591675 12.385658740997314 L 8.325117588043213 11.987939357757568 C 11.759127616882324 11.238173961639404 11.033437013626099 11.723297595977783 13.087995529174805 11.085387468338013 " fill="none" stroke="black" stroke-width="0.3"></path></svg>