
<svg xmlns="http://www.w3.org/2000/svg" xmlns:xlink="http://www.w3.org/1999/xlink" width="50px" height="50px" style="-ms-transform: rotate(360deg); -webkit-transform: rotate(360deg); transform: rotate(360deg);" preserveAspectRatio="xMidYMid meet" viewBox="0 0 24 24"><path d="M 9.876857757568359 4.724826693534851 L 9.849712371826172 17.042520046234131 L 14.421498298645020 12.885146141052246 C 12.645067691802979 11.485772609710693 12.020610809326172 11.461616992950439 14.155836582183838 11.430991888046265 C 15.629984378814697 11.463973045349121 16.335361003875732 11.393375158309937 18.378932476043701 11.400082826614380 L 17.937436398502829 11.993817888451868 C 17.749719758125526 12.007212124152879 16.561310941759807 12.366134176418003 16.054754734039307 12.891335964202881 C 15.417843818664551 13.209232807159424 15.093877315521240 13.405893802642822 13.883142471313477 14.485309123992920 L 13.141001701354980 15.365010738372803 L 16.993040084838867 20.314330101013184 C 17.773076534271240 21.437577724456787 18.039832592010498 21.827909946441650 19.280958652496338 22.003510951995850 L 19.331123828887939 22.682513236999512 C 18.861966133117676 22.693483829498291 16.964399814605713 22.683611869812012 12.979152202606201 22.689348220825195 L 12.646847248077393 20.778204917907715 L 12.904591083526611 22.247046947479248 C 12.832529067993164 21.815332889556885 14.259371280670166 21.782026290893555 14.116331577301025 21.556453227996826 C 13.171939373016357 19.586723327636719 12.397497653961182 19.009025573730469 11.001141786575317 17.083070755004883 C 9.553091310682822 17.996128479399601 10.050917056966366 17.009489271675513 9.870087896785872 13.779702907013311 C 9.812977568488353 14.387069263357571 9.798565838588750 15.635559722278490 10.050338745117188 18.043134212493896 C 9.753229379653931 19.470401287078857 9.923574686050415 20.583483695983887 10.013782739639282 21.086425781250000 C 10.490342617034912 21.974086761474609 11.134217977523804 21.744631290435791 11.572683334350586 22.109526157379150 L 11.615970611572266 22.687395572662354 C 10.234348297119141 22.687258243560791 8.726881027221680 22.686638832092285 8.121346950531006 22.690003395080566 C 7.238770008087158 22.679496288299561 5.656138300895691 22.718503475189209 5.412147402763367 22.648245334625244 L 5.407240390777588 22.027752399444580 C 5.970729231834412 21.973683357238770 6.691217422485352 21.801715850830078 6.879647970199585 21.059743881225586 C 6.896710395812988 20.590447425842285 7.020051956176758 20.075187206268311 6.970688581466675 19.164668083190918 L 6.878409862518311 10.423954725265503 C 6.889496326446533 7.664593219757080 7.027615785598755 6.747518062591553 6.358147859573364 6.524578571319580 C 4.839901328086853 5.965667724609375 5.283944606781006 6.141591310501099 5.386462569236755 6.793781518936157 L 5.141641259193420 5.792001843452454 C 4.940415143966675 5.482359051704407 6.944403648376465 5.524006962776184 8.789125442504883 5.016840934753418 L 9.876857757568359 4.724826693534851 " fill="none" stroke="black" stroke-width="0.3"></path></svg>