
<svg xmlns="http://www.w3.org/2000/svg" xmlns:xlink="http://www.w3.org/1999/xlink" width="50px" height="50px" style="-ms-transform: rotate(360deg); -webkit-transform: rotate(360deg); transform: rotate(360deg);" preserveAspectRatio="xMidYMid meet" viewBox="0 0 24 24"><path d="M 9.480320692062378 11.114008426666260 C 11.978761196136475 11.050180435180664 12.695157051086426 12.045816421508789 13.298210620880127 13.193128108978271 C 14.363698482513428 12.458483219146729 14.895426750183105 10.943779706954956 17.892492771148682 11.106616973876953 C 19.800250053405762 11.585273265838623 20.731676101684570 12.400384426116943 20.804594993591309 15.294047355651855 L 20.832847595214844 20.595235347747803 C 21.012525558471680 21.686372280120850 20.913047790527344 21.846749782562256 22.457708358764648 21.862649917602539 L 22.717238903045654 22.685381412506104 L 16.289141178131104 22.688837528228760 L 16.228616237640381 22.035455703735352 C 17.650318622589111 21.357735157012939 17.770917892456055 22.028626441955566 17.957160472869873 20.169343471527100 L 17.938297748565674 15.583920478820801 C 17.877352237701416 13.523519039154053 17.376118183135986 12.693491935729980 16.035977840423584 12.579176902770996 C 15.061852455139160 12.501670360565186 13.466763496398926 13.459732532501221 13.492672920227051 14.821306228637695 L 13.411871910095215 19.944231033325195 C 13.425330162048340 22.312180995941162 14.106064796447754 21.284344196319580 14.808729171752930 22.104470729827881 L 14.856373786926270 22.689039230346680 L 9.154836416244507 22.686324119567871 L 9.329904556274414 22.062377929687500 C 10.285640716552734 21.552763938903809 10.511749505996704 22.313507080078125 10.609614372253418 19.611755847930908 L 10.596443653106689 15.131205081939697 C 10.608192443847656 13.763418674468994 9.859509944915771 12.243649005889893 8.210468530654907 12.635022640228271 C 7.143646001815796 13.079183578491211 5.987234473228455 13.739154338836670 6.113594770431519 14.802196025848389 L 6.068537950515747 20.156584739685059 C 6.251612663269043 22.085103034973145 6.527581214904785 21.454108715057373 7.560649394989014 22.206546306610107 L 7.571291685104370 22.691000461578369 L 1.467977195978165 22.682981014251709 L 1.454000115394592 22.127151489257812 C 2.483652412891388 21.337230205535889 3.163879752159119 22.321213245391846 3.226404905319214 20.355784893035889 L 3.212564706802368 16.894886970520020 C 2.849054574966431 12.450179100036621 3.331915497779846 13.169271469116211 1.652108967304230 12.559661865234375 L 1.457502186298370 12.128005027770996 L 5.861731052398682 11.196151971817017 L 5.869329214096069 13.241101741790771 C 6.812227249145508 12.656613349914551 7.969062566757202 11.426393508911133 9.480320692062378 11.114008426666260 " fill="none" stroke="black" stroke-width="0.3"></path></svg>