
<svg xmlns="http://www.w3.org/2000/svg" xmlns:xlink="http://www.w3.org/1999/xlink" width="50px" height="50px" style="-ms-transform: rotate(360deg); -webkit-transform: rotate(360deg); transform: rotate(360deg);" preserveAspectRatio="xMidYMid meet" viewBox="0 0 24 24"><path d="M 9.525767326354980 11.408475637435913 L 9.534963369369507 13.277299404144287 C 11.133115053176880 11.821468591690063 12.594401836395264 11.120025873184204 13.839803695678711 11.238708257675171 C 15.842778682708740 11.223716497421265 17.327588081359863 12.676368713378906 17.318369865417480 15.143889427185059 L 17.307871341705322 20.591647624969482 C 17.481084823608398 21.510686874389648 17.646200180053711 21.996003627777100 19.078688621520996 21.983362197875977 L 19.014362812042236 22.688356876373291 L 12.740002155303955 22.688524246215820 L 12.713181495666504 21.967020034790039 C 14.442129135131836 21.839879035949707 14.180362701416016 20.925697803497314 14.369935512542725 19.637622356414795 L 14.360024929046631 15.487745761871338 C 14.341514110565186 13.613671302795410 13.453349590301514 12.505371093750000 12.239642143249512 12.655749320983887 C 11.641917943954468 12.445658683776855 9.698640346527100 13.654812812805176 9.651481389999390 14.586104393005371 L 9.596822261810303 19.518765449523926 C 9.677172660827637 22.205221652984619 10.064679622650146 21.327618598937988 11.280771732330322 22.095324039459229 L 11.224668502807617 22.685508728027344 L 5.206960558891296 22.689843177795410 L 5.043198823928833 22.029068470001221 C 6.046085357666016 21.662874698638916 6.641303300857544 22.075351238250732 6.715025424957275 19.780098438262939 L 6.723953247070312 14.868711948394775 C 6.593970537185669 12.028261184692383 6.159152269363403 13.311583042144775 4.875442028045654 12.474407672882080 L 5.348910927772522 12.052735805511475 C 8.405820608139038 11.865142107009888 8.415281295776367 11.229512929916382 9.525767326354980 11.408475637435913 " fill="none" stroke="black" stroke-width="0.3"></path></svg>