
<svg xmlns="http://www.w3.org/2000/svg" xmlns:xlink="http://www.w3.org/1999/xlink" width="50px" height="50px" style="-ms-transform: rotate(360deg); -webkit-transform: rotate(360deg); transform: rotate(360deg);" preserveAspectRatio="xMidYMid meet" viewBox="0 0 24 24"><path d="M 13.206473350524902 11.173191547393799 C 16.101193428039551 11.181864023208618 18.404461383819580 13.780348777770996 18.362541675567627 17.059727668762207 C 18.260800838470459 20.674733161926270 15.750864028930664 23.008910179138184 12.649261951446533 23.071625232696533 C 12.193277835845947 23.055238723754883 10.779297351837158 22.489268302917480 9.539968729019165 21.965539455413818 L 9.586310863494873 27.348956108093262 L 11.275483846664429 27.956889152526855 L 11.276878595352173 29.035906791687012 L 4.804716825485229 29.032213211059570 L 4.810012221336365 28.129245758056641 L 6.664404630661011 27.524494171142578 L 6.776679754257202 14.253896713256836 C 6.729333400726318 12.481355667114258 6.026203393936157 13.143938541412354 4.971423268318176 12.514303207397461 L 5.269999980926514 12.147973537445068 L 9.611618041992188 11.357373476028442 L 9.647521018981934 13.137252330780029 C 10.789327383041382 12.150459766387939 11.913622856140137 11.227397918701172 13.206473350524902 11.173191547393799 M 12.638372898101807 12.531113147735596 C 10.112429380416870 12.720417022705078 9.553828954696655 13.811003208160400 9.739126682281494 16.878818035125732 C 9.539915800094604 20.498060703277588 10.125705957412720 21.732775211334229 12.254589557647705 22.050453186035156 C 13.982269763946533 22.249478816986084 15.312941551208496 20.059214115142822 15.247107982635498 17.552593231201172 C 15.271335124969482 15.097187519073486 14.052668094635010 12.902245044708252 12.638372898101807 12.531113147735596 " fill="none" stroke="black" stroke-width="0.3"></path></svg>