
<svg xmlns="http://www.w3.org/2000/svg" xmlns:xlink="http://www.w3.org/1999/xlink" width="50px" height="50px" style="-ms-transform: rotate(360deg); -webkit-transform: rotate(360deg); transform: rotate(360deg);" preserveAspectRatio="xMidYMid meet" viewBox="0 0 24 24"><path d="M 10.725800514221191 11.146512508392334 C 12.385845272921312 11.071649923114323 13.441960060244252 11.288899398813477 14.996165583509372 12.330851189903582 L 14.996165583509374 12.330851189903584 L 17.053017139434814 10.922370672225952 L 17.013133049011230 27.211781501770020 C 17.029827117919922 27.777837753295898 17.335663318634033 27.950142860412598 18.425014972686768 28.084336280822754 L 18.424733161926270 28.879995346069336 L 11.934578418731689 28.876410484313965 L 11.942546367645264 28.260137557983398 C 13.242473602294922 28.145562171936035 13.723151206970215 27.792912483215332 14.497035026550293 27.116326332092285 L 14.286862850189209 21.361812114715576 C 12.889808177947998 22.673263549804688 11.454311370849609 22.925605773925781 10.469094514846802 22.997644901275635 C 7.942696094512939 22.811246395111084 5.619558691978455 20.587343215942383 5.664733529090881 17.389080047607422 C 5.561806797981262 14.368575096130371 7.526890039443970 11.698364496231079 10.725800514221191 11.146512508392334 M 11.991969108581543 11.895234346389771 C 9.689311981201172 11.680301427841187 8.703100919723511 14.427184581756592 8.782399177551270 17.148622512817383 C 8.841482877731323 20.296604633331299 10.266599178314209 21.828164577484131 12.346303939819336 21.568585395812988 C 14.166339397430420 20.824477672576904 14.222248077392578 21.262229919433594 14.318346977233887 17.816937446594238 C 14.144176483154297 13.882688999176025 14.441978931427002 12.564465522766113 11.991969108581543 11.895234346389771 " fill="none" stroke="black" stroke-width="0.3"></path></svg>