
<svg xmlns="http://www.w3.org/2000/svg" xmlns:xlink="http://www.w3.org/1999/xlink" width="50px" height="50px" style="-ms-transform: rotate(360deg); -webkit-transform: rotate(360deg); transform: rotate(360deg);" preserveAspectRatio="xMidYMid meet" viewBox="0 0 24 24"><path d="M 11.673943519592285 11.104690074920654 L 11.885043382644653 13.540095806121826 C 13.057840347290039 12.190607070922852 13.388832092285156 11.265018224716187 15.128314018249512 11.124098539352417 C 15.859992027282715 11.117000341415405 17.043564319610596 11.871498584747314 17.021192550659180 13.051111221313477 C 16.978870868682861 13.819600582122803 16.360409259796143 14.579230785369873 15.722162246704102 14.497522830963135 C 14.380594253540039 14.622631072998047 14.158786296844482 13.160805702209473 13.651094913482666 13.196318149566650 C 12.810331821441650 13.227433204650879 11.896958827972412 14.437997817993164 11.883080720901489 16.429827690124512 L 11.836570501327515 20.145662784576416 C 11.992749452590942 21.661455631256104 11.994331598281860 21.702188014984131 14.045298099517822 21.926055908203125 L 13.931857109069824 22.681956768035889 L 7.248923778533936 22.690170764923096 L 7.212370634078979 21.966769695281982 C 8.947591066360474 21.536932468414307 8.757220029830933 21.647774219512939 8.983471870422363 20.439499855041504 L 9.042519092559814 16.871758460998535 C 8.902765274047852 12.324995040893555 9.105149745941162 13.085718154907227 7.278510332107544 12.725036144256592 L 7.190247774124146 11.977716922760010 C 9.812009811401367 11.778162717819214 10.014234066009521 11.407583713531494 11.673943519592285 11.104690074920654 " fill="none" stroke="black" stroke-width="0.3"></path></svg>