
<svg xmlns="http://www.w3.org/2000/svg" xmlns:xlink="http://www.w3.org/1999/xlink" width="50px" height="50px" style="-ms-transform: rotate(360deg); -webkit-transform: rotate(360deg); transform: rotate(360deg);" preserveAspectRatio="xMidYMid meet" viewBox="0 0 24 24"><path d="M 12.871813774108887 11.153712987899780 C 14.930816173553467 11.901652336120605 15.503497123718262 11.278816223144531 15.778690338134766 11.891547203063965 L 16.003250598907471 13.805352687835693 C 16.048770904541016 14.655133724212646 15.235716819763184 14.490946769714355 15.187125205993652 14.516688823699951 C 14.514920711517334 14.152251720428467 13.955271720886230 13.766693115234375 14.740402221679688 14.262499809265137 C 14.421290874481201 13.733778476715088 14.055936813354492 12.467100620269775 13.116816043853760 12.164318561553955 C 12.857976436614990 11.874956130981445 11.616416215896606 11.515291929244995 10.850204944610596 12.102783679962158 C 9.770471571526318 12.716990374756442 9.766814331361745 13.622955858269727 9.850957223879606 13.493075460267351 C 9.573185781526904 13.974852642717183 10.434940302995804 14.757650460768931 12.872835159301758 15.619520187377930 C 14.699958801269531 16.280000209808350 16.823766231536865 16.632146358489990 16.608276844024658 19.826067924499512 C 16.332251071929932 21.889077186584473 14.054161548614502 23.224050521850586 11.247444391250610 22.963253974914551 C 8.328930616378784 22.368554592132568 9.121330261230469 21.509113311767578 8.032796144485474 22.714073181152344 C 7.437360048294067 22.662258625030518 7.194369792938232 18.557747840881348 7.703850746154785 18.744034767150879 C 8.594550132751465 18.526625633239746 9.075621128082275 20.844958305358887 9.083536148071289 20.343511104583740 C 9.183448076248169 20.733494281768799 10.103428602218628 22.192581653594971 12.602315425872803 22.158312320709229 C 13.325314521789551 21.980223655700684 14.235498905181885 21.515770912170410 14.389532089233398 20.845185756683350 C 15.003786563873291 19.444730758666992 12.992763519287109 18.467651367187500 12.240893840789795 18.349326610565186 C 10.665760517120361 17.623928546905518 9.152718544006348 17.232749462127686 8.356739759445190 16.525753498077393 C 7.290103912353516 15.388957500457764 7.324728727340698 13.136917591094971 8.865792274475098 12.058058738708496 C 10.520976305007935 10.893638134002686 11.665411233901978 11.011310577392578 12.871813774108887 11.153712987899780 " fill="none" stroke="black" stroke-width="0.3"></path></svg>