
<svg xmlns="http://www.w3.org/2000/svg" xmlns:xlink="http://www.w3.org/1999/xlink" width="50px" height="50px" style="-ms-transform: rotate(360deg); -webkit-transform: rotate(360deg); transform: rotate(360deg);" preserveAspectRatio="xMidYMid meet" viewBox="0 0 24 24"><path d="M 7.258904457092285 11.587361097335815 L 9.513985633850098 11.325594663619995 L 9.517832994461060 18.890803813934326 C 9.640056610107422 20.971632957458496 10.183623075485229 21.386761665344238 11.891640186309814 21.447120666503906 C 14.370766639709473 20.786712169647217 14.187439441680908 20.275342941284180 14.364885807037354 17.866952419281006 L 14.302416801452637 15.164046764373779 C 13.990725517272949 12.347306728363037 14.252677917480469 12.908334732055664 12.674550533294678 12.379179954528809 L 12.885161876678467 11.860629558563232 L 17.042552947998047 11.332428216934204 L 17.158028125762939 20.352780818939209 C 17.516036510467529 21.838963508605957 17.115749359130859 21.672637939453125 19.163871288299561 21.967390537261963 L 18.688081741333008 22.654478073120117 L 14.403217792510986 22.776792526245117 L 14.291397571563721 21.107234001159668 C 12.983912944793701 21.918405532836914 12.930469036102295 22.557752609252930 10.194506406784058 23.050834178924561 C 7.273525714874268 22.748052120208740 6.294428586959839 21.213975906372070 6.673150777816772 17.473787784576416 L 6.612442016601562 13.988043308258057 C 6.397983312606812 11.639471769332886 4.586709737777710 13.232747554779053 4.959718823432922 11.881191015243530 L 7.258904457092285 11.587361097335815 " fill="none" stroke="black" stroke-width="0.3"></path></svg>