
<svg xmlns="http://www.w3.org/2000/svg" xmlns:xlink="http://www.w3.org/1999/xlink" width="50px" height="50px" style="-ms-transform: rotate(360deg); -webkit-transform: rotate(360deg); transform: rotate(360deg);" preserveAspectRatio="xMidYMid meet" viewBox="0 0 24 24"><path d="M 2.308312833309174 11.502490282058716 L 8.396164655685425 11.538562059402466 L 8.083555698394775 11.968274831771851 L 6.510445117950439 12.651203155517578 L 9.335998535156250 19.434864521026611 L 11.599596261978149 13.332482814788818 L 9.767605304718018 11.880579471588135 L 9.775878667831421 11.607113599777222 L 14.060630321502686 11.510421752929688 L 14.460149288177490 11.609464645385742 C 14.388368032885770 12.254430566366082 14.005674973484087 12.631944734341278 14.270316147043818 13.699271556306456 C 14.528877487909464 14.171930936465095 15.178988526434757 15.734678671232684 16.135854721069336 19.497380733489990 L 18.313240528106689 14.292307376861572 C 18.812673568725586 12.059350490570068 18.126417160034180 12.477654933929443 16.609668731689453 11.975654840469360 L 16.513860225677490 11.562553882598877 L 21.044998168945312 11.500280141830444 L 20.967587471008301 12.088057994842529 C 19.276724338531494 12.822874546051025 19.857756614685059 13.184710979461670 18.971617698669434 14.736645698547363 L 15.721218109130859 23.022175312042236 L 14.685986995697021 23.033108711242676 L 11.866314411163330 15.181654930114746 L 8.673583030700684 22.925159454345703 L 7.794774055480957 22.988104820251465 L 4.287494659423828 14.903406143188477 C 3.563617587089539 13.171606063842773 4.001520395278931 12.993398666381836 2.300126552581787 12.356992721557617 L 2.308312833309174 11.502490282058716 " fill="none" stroke="black" stroke-width="0.3"></path></svg>