
<svg xmlns="http://www.w3.org/2000/svg" xmlns:xlink="http://www.w3.org/1999/xlink" width="50px" height="50px" style="-ms-transform: rotate(360deg); -webkit-transform: rotate(360deg); transform: rotate(360deg);" preserveAspectRatio="xMidYMid meet" viewBox="0 0 24 24"><path d="M 5.585256457328796 11.478592157363892 L 11.694766759872437 11.442368030548096 L 11.648912429809570 12.054240703582764 L 10.425044059753418 12.464405536651611 L 12.675161361694336 15.587081909179688 L 14.427213191986084 13.085141658782959 C 14.934382438659668 11.974236488342285 13.556234836578369 12.527881622314453 13.378413677215576 11.951391220092773 L 13.375000476837158 11.467746734619141 L 18.107590198516846 11.566488504409790 L 17.810427188873291 12.142982482910156 C 16.345695018768311 12.659644603729248 16.446065425872803 12.656477451324463 15.398333072662354 13.667372703552246 L 13.059491157531738 16.288729190826416 L 16.755058765411377 20.969169616699219 C 17.412599086761475 21.872401714324951 17.852783203125000 21.911218643188477 18.695317268371582 21.989155769348145 L 18.638098239898682 22.688398361206055 L 12.132343769073486 22.688341140747070 L 12.116490840911865 22.055477142333984 C 13.057039260864258 21.770952701568604 13.213893413543701 21.466711521148682 13.222619533538818 21.545423984527588 C 13.578317642211914 21.169162273406982 12.579574584960938 20.128787040710449 10.952203989028931 18.123051166534424 C 10.543719291687012 19.337017536163330 8.778855800628662 20.313520431518555 9.015265703201294 21.652459144592285 C 9.871865272521973 21.953667640686035 10.363951921463013 21.644642829895020 10.109589099884033 22.676731109619141 L 10.341030120849609 22.687970638275146 L 5.648348450660706 22.689494132995605 L 5.658157467842102 22.026021480560303 C 6.742790937423706 21.491352081298828 6.984656810760498 21.717297077178955 7.875000715255737 20.776825904846191 C 8.953641414642334 19.676339149475098 9.774138450622559 18.442584514617920 10.556333541870117 17.542465209960938 C 9.706672668457031 16.150797843933105 8.941898345947266 15.263294219970703 8.026044845581055 14.119400024414062 C 6.968039274215698 12.800844669342041 7.097933292388916 12.461949348449707 5.548886775970459 12.113522529602051 L 5.585256457328796 11.478592157363892 " fill="none" stroke="black" stroke-width="0.3"></path></svg>