
<svg xmlns="http://www.w3.org/2000/svg" xmlns:xlink="http://www.w3.org/1999/xlink" width="50px" height="50px" style="-ms-transform: rotate(360deg); -webkit-transform: rotate(360deg); transform: rotate(360deg);" preserveAspectRatio="xMidYMid meet" viewBox="0 0 24 24"><path d="M 5.724742054939270 11.537102937698364 L 11.765279531478882 11.536790370941162 L 11.449177265167236 12.175539493560791 L 10.062219142913818 12.643544197082520 L 13.037717342376709 19.488092422485352 L 15.147093772888184 14.446648120880127 C 15.342028141021729 12.471845626831055 15.822133541107178 12.870873928070068 13.738901138305664 12.141531944274902 L 13.726481437683105 11.554294824600220 L 18.341096878051758 11.490215063095093 L 18.219022750854492 12.084397315979004 C 16.695074558258057 12.415862560272217 16.613598346710205 13.434516906738281 15.998404026031494 14.769069671630859 L 12.121620655059814 23.638924598693848 C 11.212349653244019 25.818623542785645 9.765081882476807 27.303365707397461 8.282145023345947 27.043250083923340 C 6.943566799163818 26.643988609313965 5.743356585502625 26.005062103271484 6.174450874328613 25.439100265502930 C 6.210031007914929 24.812228177268960 6.699364271241930 24.288166667202557 6.726255457085811 24.215801360428607 C 7.470205713688490 24.212556817976196 8.002928781041044 24.644601453335074 8.222704410552979 25.448472976684570 C 8.896817207336426 25.370003700256348 9.140500545501709 25.657450675964355 8.626766681671143 24.969566345214844 C 10.012350797653198 24.862083435058594 11.525573015213013 24.227728843688965 11.379300355911255 22.583983898162842 L 7.090446710586548 13.236906051635742 C 6.484846830368042 11.976179122924805 5.611999869346619 12.527519702911377 5.536021113395691 11.892091512680054 L 5.724742054939270 11.537102937698364 " fill="none" stroke="black" stroke-width="0.3"></path></svg>