
<svg xmlns="http://www.w3.org/2000/svg" xmlns:xlink="http://www.w3.org/1999/xlink" width="50px" height="50px" style="-ms-transform: rotate(360deg); -webkit-transform: rotate(360deg); transform: rotate(360deg);" preserveAspectRatio="xMidYMid meet" viewBox="0 0 24 24"><path d="M 6.440332174301147 6.505237340927124 L 11.680854320526123 6.557184934616089 C 14.980580806732178 6.413389921188354 17.423133373260498 7.460877656936646 17.415072441101074 10.775670289993286 C 17.533697605133057 12.437014102935791 16.084994316101074 14.040717601776123 14.763150215148926 14.051722526550293 C 16.169473171234131 14.232160091400146 17.931876182556152 15.635293006896973 17.821138858795166 17.866971015930176 C 18.034345149993896 21.388222217559814 15.889682292938232 22.686710357666016 12.391070365905762 22.684899330139160 L 6.516360998153687 22.690735816955566 L 6.440332174301147 6.505237340927124 M 10.878189325332642 9.557639122009277 L 10.597208976745605 9.639583826065063 L 10.639285326004028 12.246035099029541 L 10.537933588027954 13.018731594085693 C 12.288069248199463 12.933001041412354 13.284054279327393 13.043077468872070 13.225087165832520 10.912696838378906 C 13.186394691467285 9.881240844726562 12.447186470031738 9.533313989639282 10.878189325332642 9.557639122009277 M 10.806785345077515 15.879382610321045 L 10.657339096069336 15.854131221771240 L 10.619267463684082 19.019063472747803 L 10.683710575103760 19.656754016876221 C 12.577663421630859 19.910143375396729 13.563270092010498 19.357028961181641 13.554628372192383 17.594367027282715 C 13.573853015899658 16.057225227355957 12.538516044616699 15.656005382537842 10.806785345077515 15.879382610321045 " fill="none" stroke="black" stroke-width="0.3"></path></svg>