
<svg xmlns="http://www.w3.org/2000/svg" xmlns:xlink="http://www.w3.org/1999/xlink" width="50px" height="50px" style="-ms-transform: rotate(360deg); -webkit-transform: rotate(360deg); transform: rotate(360deg);" preserveAspectRatio="xMidYMid meet" viewBox="0 0 24 24"><path d="M 12.482239723205566 6.194264173507690 C 16.350833415985107 6.663755178451538 18.267446994781494 9.087984323501587 18.139464855194092 14.723473548889160 C 18.035546779632568 17.735698699951172 17.849015235900879 19.789072036743164 16.479068756103516 21.123524665832520 C 14.530892372131348 22.809589862823486 15.502794742584229 22.157093524932861 17.001544475555420 23.787507534027100 L 15.167477130889893 24.012516975402832 C 14.648098648859158 24.969457582784173 13.799508240762417 24.156052172151959 12.656229155425610 23.546502874878769 C 12.809775994616345 23.524812949981602 12.716100841409396 22.802634466660152 11.209326982498169 22.986079216003418 C 7.052849292755127 22.199446678161621 5.820789456367493 20.222238063812256 5.824694752693176 13.822604656219482 C 5.673009037971497 8.387204647064209 8.332242250442505 6.063162088394165 12.482239723205566 6.194264173507690 M 12.223710536956787 9.420737743377686 C 10.166142225265503 9.198198080062866 10.253479242324829 11.249032974243164 10.255633592605591 12.841831684112549 C 10.242190361022949 17.697562694549561 10.060829401016235 19.696158885955811 11.634632349014282 19.854068756103516 C 13.529913425445557 19.945877552032471 13.740378856658936 18.745744228363037 13.814287662506104 15.667987346649170 C 13.977298736572266 11.095843791961670 13.742827892303467 9.630620956420898 12.223710536956787 9.420737743377686 " fill="none" stroke="black" stroke-width="0.3"></path></svg>