
<svg xmlns="http://www.w3.org/2000/svg" xmlns:xlink="http://www.w3.org/1999/xlink" width="50px" height="50px" style="-ms-transform: rotate(360deg); -webkit-transform: rotate(360deg); transform: rotate(360deg);" preserveAspectRatio="xMidYMid meet" viewBox="0 0 24 24"><path d="M 11.698142766952515 5.684901595115662 C 12.988144397735596 5.552811026573181 13.916859626770020 6.595666408538818 13.883593082427979 7.386811494827271 C 13.948355197906494 9.331074714660645 13.496304988861084 9.561659574508667 11.940364122390747 9.662012815475464 C 9.798464298248291 9.577561140060425 10.027674436569214 9.150515556335449 9.842260837554932 7.840372323989868 C 9.780949115753174 6.210755825042725 10.705892086029053 5.688094854354858 11.698142766952515 5.684901595115662 M 13.799204349517822 10.822281360626221 L 13.639470577239990 23.366510868072510 C 13.404453277587891 25.590597152709961 11.279924154281616 26.514936447143555 9.397832393646240 26.883250236511230 C 8.604898452758789 26.846214294433594 7.863094568252563 26.731876373291016 7.741922378540039 25.981086730957031 L 8.818123340606689 24.228896141052246 C 9.223757743835449 24.435296058654785 9.477688550949097 24.602700233459473 9.844254255294800 24.570556640625000 C 9.752461194992065 24.066398620605469 9.836694002151489 23.613488674163818 10.027326107025146 22.929199218750000 L 9.983844280242920 11.194700002670288 L 13.799204349517822 10.822281360626221 " fill="none" stroke="black" stroke-width="0.3"></path></svg>