<svg xmlns="http://www.w3.org/2000/svg" xmlns:xlink="http://www.w3.org/1999/xlink" width="50px" height="50px" style="-ms-transform: rotate(360deg); -webkit-transform: rotate(360deg); transform: rotate(360deg);" preserveAspectRatio="xMidYMid meet" viewBox="0 0 24 24"><path d="M 10.420473575592041 5.764079332351685 L 13.653018951416016 5.676743030548096 L 16.822607517242432 20.684207439422607 L 17.028569698333740 21.576913833618164 L 17.237637519836426 22.688295364379883 L 13.643896579742432 22.688838958740234 L 13.542743682861328 22.335212230682373 L 13.172668933868408 19.888462543487549 L 13.133593082427979 19.693937301635742 L 12.976381301879883 19.151205539703369 L 10.184563636779785 19.280463695526123 L 9.676978111267090 21.632875442504883 L 9.647372961044312 22.232454299926758 L 9.639327764511108 21.927412033081055 C 9.498658418655396 22.968953132629395 9.787937164306641 22.631299495697021 8.563508033752441 22.692461013793945 C 7.573215797180541 22.677461381054485 6.683901089456568 22.676115402283202 6.457934455441318 22.701145867777967 L 6.581796884536743 22.225740909576416 C 6.899694690773631 21.136524275847396 7.136436932402639 20.397130860821154 7.145882035276326 20.498328850508432 C 8.021303062670738 16.182830937445573 9.311578249164329 11.391102970711408 10.420473575592041 5.764079332351685 M 11.820811271667480 9.745832204818726 C 11.351508378982544 13.151690483093262 10.113299846649170 16.923903465270996 10.770533323287964 16.607344150543213 L 12.581801891326904 16.521122932434082 C 12.817623138427734 16.304420471191406 11.738281488418579 12.939438343048096 11.820811271667480 9.745832204818726 " stroke-width="1.0" fill="rgb(0, 0, 0)" opacity="1.0"></path></svg>
