<svg xmlns="http://www.w3.org/2000/svg" xmlns:xlink="http://www.w3.org/1999/xlink" width="50px" height="50px" style="-ms-transform: rotate(360deg); -webkit-transform: rotate(360deg); transform: rotate(360deg);" preserveAspectRatio="xMidYMid meet" viewBox="0 0 24 24"><path d="M 8.802683830261230 5.427723526954651 L 11.663339138031006 5.433014631271362 C 14.313720703125000 5.620051145553589 16.540007114410400 6.516475439071655 16.429294109344482 10.084370613098145 C 16.567085266113281 11.346688985824585 15.208670139312744 13.512279510498047 13.456319332122803 13.673576831817627 C 15.505117893218994 13.765086650848389 16.787060737609863 15.687496662139893 16.785108089447021 17.967453002929688 C 16.616256237030029 21.188514232635498 15.049465656280518 22.311318397521973 11.966106891632080 22.694121837615967 L 7.213881254196167 22.675675392150879 L 7.646683931350708 20.684925556182861 L 7.620158672332764 17.166433811187744 L 7.730670690536499 7.545197725296021 C 7.626093149185181 6.250096321105957 7.281980037689209 6.039239645004272 7.467214107513428 5.432664513587952 L 8.802683830261230 5.427723526954651 M 11.002395751974353 7.748611324191089 L 11.002395751974353 7.748611324191089 L 10.963665962219238 11.626768827438354 L 10.851856470108032 12.496991157531738 C 12.591060161590576 12.764697074890137 13.086407661437988 11.606507062911987 13.095943450927734 9.894910097122192 C 12.797602664457646 8.130334900283179 12.628357416625148 8.045161558535581 11.002395751974353 7.748611324191088 M 10.903463341117234 14.801618241289578 L 10.903463341117234 14.801618241289578 L 10.912729198398141 18.643956737167418 C 10.887567047976757 18.819248913112201 10.831296084331683 19.421211707381108 10.962559461593628 20.255104064941406 C 12.980439662933350 20.449955463409424 13.498317718505859 18.996158123016357 13.339389324188232 17.049561023712158 C 12.878841490340074 15.195885216051993 12.096799237797962 14.772796737711591 10.903463341117233 14.801618241289580 " stroke-width="1.0" fill="rgb(0, 0, 0)" opacity="1.0"></path></svg>
