<svg xmlns="http://www.w3.org/2000/svg" xmlns:xlink="http://www.w3.org/1999/xlink" width="50px" height="50px" style="-ms-transform: rotate(360deg); -webkit-transform: rotate(360deg); transform: rotate(360deg);" preserveAspectRatio="xMidYMid meet" viewBox="0 0 24 24"><path d="M 8.700247764587402 5.347456097602844 L 15.868020057678223 5.466912031173706 L 15.796663284301758 8.374792814254761 L 15.618219852447510 8.400966167449951 L 14.421851634979248 7.859411716461182 L 11.944024801254272 7.691459655761719 L 11.856820821762085 12.595527648925781 L 12.583926200866699 12.643642902374268 C 13.880797863006592 12.585286617279053 14.817712783813477 12.627030372619629 14.745283126831055 12.549319267272949 L 14.995199203491211 12.595802307128906 L 14.942397594451904 15.154121875762939 L 13.886690139770508 15.217240333557129 C 12.798025456649462 15.246707355608079 12.317636123791711 15.161531027042367 11.802037191499892 15.070703220917451 L 11.802037191499892 15.070703220917450 L 11.808006048202515 19.844003677368164 C 11.736235243078173 20.276516471789620 11.967201239255868 20.259955852570076 12.434110455405685 20.210899191659188 C 12.434719309471575 20.192990399582147 12.437052568052913 20.174333139710306 12.441249847412109 20.154919624328613 C 13.384612083435059 20.202931880950928 15.127587318420410 20.147526741027832 15.340639114379883 19.781757831573486 L 15.890633583068848 19.605817794799805 C 16.123756885528564 20.185958862304688 15.778707504272461 22.187454700469971 15.925862789154053 22.689057826995850 L 8.080186128616333 22.687053680419922 L 8.138468742370605 21.877069473266602 C 8.532407999038696 21.593064308166504 8.431913137435913 20.642354965209961 8.444161891937256 18.856050968170166 L 8.681881427764893 7.459179639816284 C 8.468012809753418 6.083505392074585 8.158407211303711 5.316798806190491 8.285607576370239 5.623588085174561 L 8.700247764587402 5.347456097602844 " stroke-width="1.0" fill="rgb(0, 0, 0)" opacity="1.0"></path></svg>
