<svg xmlns="http://www.w3.org/2000/svg" xmlns:xlink="http://www.w3.org/1999/xlink" width="50px" height="50px" style="-ms-transform: rotate(360deg); -webkit-transform: rotate(360deg); transform: rotate(360deg);" preserveAspectRatio="xMidYMid meet" viewBox="0 0 24 24"><path d="M 8.708004713058472 5.341297030448914 L 16.055863380432129 5.497785687446594 L 15.951659202575684 8.462559700012207 L 15.724379539489746 8.567684412002563 C 15.174488067626953 7.945155143737793 14.493730545043945 7.903799772262573 13.352893352508545 7.761057615280151 L 12.055901527404785 7.727874755859375 L 11.957924365997314 12.687453746795654 L 15.100944042205811 12.516381740570068 C 15.148086225435119 12.658802452035630 15.175035316983022 12.605992336261718 15.191737933863704 12.475245592625534 L 15.191737933863710 12.475245592625537 L 15.018772602081299 15.164115428924561 L 11.907848596572876 15.193077564239502 C 11.807370901107788 14.790352821350098 11.665009975433350 14.021334171295166 11.313283681869507 13.976773738861084 L 12.025023937225342 13.706361293792725 L 11.919731855392456 18.071375370025635 C 11.956895112991333 21.062517642974854 12.022274494171143 20.738729953765869 12.183799266815186 21.250123500823975 L 12.339157104492188 22.686574459075928 L 8.265851497650146 22.688625812530518 L 8.348316907882690 22.462494850158691 C 8.513168334960938 21.416745185852051 8.769897222518921 21.414331912994385 8.659478187561035 19.263300418853760 L 8.816034078598022 7.942935705184937 C 8.774630069732666 5.552015304565430 8.537375450134277 6.518001794815063 8.416235446929932 5.630410552024841 L 8.708004713058472 5.341297030448914 " stroke-width="1.0" fill="rgb(0, 0, 0)" opacity="1.0"></path></svg>
