<svg xmlns="http://www.w3.org/2000/svg" xmlns:xlink="http://www.w3.org/1999/xlink" width="50px" height="50px" style="-ms-transform: rotate(360deg); -webkit-transform: rotate(360deg); transform: rotate(360deg);" preserveAspectRatio="xMidYMid meet" viewBox="0 0 24 24"><path d="M 12.757608890533447 5.246852874755859 C 13.838886737823486 5.449650049209595 16.326115608215332 5.879134297370911 16.423178672790527 7.075506448745728 L 16.525794982910156 9.906655311584473 L 14.746042728424072 9.791306734085083 L 13.982166767120361 8.283350944519043 C 11.704103708267212 6.619015216827393 10.565068244934082 9.406168699264526 10.341040134429932 13.456892967224121 C 10.347787857055664 17.860565185546875 10.801608324050903 20.094054222106934 12.386265277862549 20.441722869873047 C 13.347607612609863 20.427213191986084 13.617758274078369 20.417334079742432 13.675754070281982 19.277456760406494 L 13.640190124511719 15.906095981597900 C 13.458533763885498 15.894279956817627 12.682069301605225 15.599309921264648 12.225993633270264 15.809899806976318 L 12.134213447570801 13.700448989868164 L 17.027309417724609 13.664916515350342 L 16.889383792877197 15.833664894104004 C 16.822906494140625 16.243138790130615 16.842767715454102 16.600081443786621 16.773900032043457 17.750636100769043 L 16.627892017364502 22.348121166229248 C 13.066686630249023 22.830795764923096 13.583973884582520 23.082192420959473 12.090122222900391 23.025173664093018 C 8.862268209457397 22.856639385223389 6.389275074005127 19.662906646728516 6.824852228164673 12.985548019409180 C 7.352327585220337 8.601395130157471 9.124153375625610 5.076476454734802 12.757608890533447 5.246852874755859 " stroke-width="1.0" fill="rgb(0, 0, 0)" opacity="1.0"></path></svg>
