<svg xmlns="http://www.w3.org/2000/svg" xmlns:xlink="http://www.w3.org/1999/xlink" width="50px" height="50px" style="-ms-transform: rotate(360deg); -webkit-transform: rotate(360deg); transform: rotate(360deg);" preserveAspectRatio="xMidYMid meet" viewBox="0 0 24 24"><path d="M 7.060514688491821 5.514720797538757 L 10.690439701080322 5.517486333847046 L 11.166107654571533 5.875869154930115 C 10.646933555603027 6.503654479980469 10.951555967330933 6.461402893066406 10.760245800018311 7.530167341232300 L 10.742689132690430 12.521862030029297 L 13.370341300964355 12.421049594879150 L 13.440998554229736 9.124016761779785 C 13.472916126251221 8.305214166641235 13.428460121154785 7.211024522781372 13.005281925201416 5.787600517272949 L 13.238353729248047 5.506628751754761 L 16.447168350219727 5.412328720092773 L 17.204980373382568 5.749572157859802 L 16.972811222076416 6.426428318023682 L 16.882226943969727 8.494726181030273 C 16.902892112731934 9.216502189636230 16.851788520812988 9.231126308441162 16.867007732391357 10.342555046081543 L 16.713654041290283 20.568726539611816 C 16.704913616180420 21.409549713134766 17.040799140930176 21.171456813812256 17.075700759887695 22.688366889953613 L 13.021655559539795 22.688200950622559 C 12.981409549713135 21.442943572998047 13.350956439971924 22.050456047058105 13.418509483337402 19.564074039459229 L 13.434724330902100 15.107278347015381 L 10.745320558547974 15.016406536102295 L 10.799192190170288 19.328793525695801 C 10.622383117675781 21.152834415435791 10.971873521804810 21.455945491790771 11.057880163192749 22.064516544342041 L 11.124911069869995 22.688059329986572 L 6.880371093750000 22.685560226440430 L 6.870651483535767 22.308061122894287 C 7.095711708068848 21.355371952056885 7.324272394180298 21.431945800781250 7.346380233764648 20.101112365722656 L 7.463863134384155 9.427867412567139 C 7.482895374298096 7.165304660797119 7.569464206695557 6.778650999069214 7.499005794525146 7.213020801544189 L 7.060514688491821 5.514720797538757 " stroke-width="1.0" fill="rgb(0, 0, 0)" opacity="1.0"></path></svg>
