<svg xmlns="http://www.w3.org/2000/svg" xmlns:xlink="http://www.w3.org/1999/xlink" width="50px" height="50px" style="-ms-transform: rotate(360deg); -webkit-transform: rotate(360deg); transform: rotate(360deg);" preserveAspectRatio="xMidYMid meet" viewBox="0 0 24 24"><path d="M 5.752099156379700 5.745566010475159 L 10.006958484649658 5.701143622398376 L 12.035244941711426 14.854584217071533 L 14.060929298400879 5.731266617774963 L 18.243935108184814 5.743834733963013 L 18.134589672088623 7.108255147933960 C 18.153183325599851 7.232588525635074 18.124306120260766 7.369241624716793 18.085961762777927 7.456920996161239 L 18.329993247985840 18.366983413696289 C 18.329269409179688 20.269739627838135 18.138878345489502 21.359656333923340 18.784565448760986 22.687033653259277 L 15.062908172607422 22.689857482910156 C 14.901344776153564 22.101482391357422 15.224454402923584 20.241381168365479 15.125691890716553 20.641572475433350 C 15.178327560424805 12.824368000030518 14.736794471740723 13.516767024993896 15.320992469787598 9.885437965393066 L 12.376248836517334 22.410638809204102 L 10.799428224563599 22.590428352355957 L 8.628096342086792 11.925335884094238 L 8.245443105697632 19.992802619934082 C 8.226985931396484 21.275600910186768 8.403871536254883 21.584406852722168 8.304308652877808 22.692585468292236 L 5.273739695549011 22.672109127044678 C 5.585790753364563 21.492085933685303 5.867912650108337 21.082396030426025 5.771142840385437 18.829550743103027 L 6.181822299957275 7.265386104583740 C 6.031975507736206 8.350135087966919 6.327903270721436 7.170714139938354 5.752099156379700 5.745566010475159 " stroke-width="1.0" fill="rgb(0, 0, 0)" opacity="1.0"></path></svg>
