<svg xmlns="http://www.w3.org/2000/svg" xmlns:xlink="http://www.w3.org/1999/xlink" width="50px" height="50px" style="-ms-transform: rotate(360deg); -webkit-transform: rotate(360deg); transform: rotate(360deg);" preserveAspectRatio="xMidYMid meet" viewBox="0 0 24 24"><path d="M 6.954548835754395 5.620063304901123 L 10.493144273757935 5.653678894042969 L 14.101475715637207 14.824610710144043 L 14.234720706939697 8.169813394546509 L 13.766085281010080 5.593070162288616 L 13.766085281010078 5.593070162288616 L 16.773063182830811 5.326767683029175 L 17.302492618560791 5.721259117126465 C 16.783819198608398 6.706195592880249 16.833270549774170 7.239284992218018 16.764202594757080 8.813813209533691 L 16.635007381439209 22.684946537017822 L 14.159045219421387 22.694681167602539 C 12.166723251342773 17.920103073120117 10.387671232223511 12.932789325714111 9.856252670288086 12.718477249145508 L 9.919419050216675 18.939087867736816 C 10.003668308258057 20.238697528839111 10.087567090988159 21.005653381347656 10.054837703704834 20.833095073699951 L 10.347945213317871 22.690715789794922 L 6.672693014144897 22.684882164001465 L 6.701291084289551 21.930182933807373 C 7.098321676254272 21.249648571014404 7.154304742813110 21.503346920013428 7.228336572647095 19.350736141204834 L 7.366827964782715 8.182499885559082 C 7.370516538619995 6.492994308471680 6.890906810760498 6.918874025344849 6.872679948806763 5.730142235755920 L 6.954548835754395 5.620063304901123 " stroke-width="1.0" fill="rgb(0, 0, 0)" opacity="1.0"></path></svg>
