<svg xmlns="http://www.w3.org/2000/svg" xmlns:xlink="http://www.w3.org/1999/xlink" width="50px" height="50px" style="-ms-transform: rotate(360deg); -webkit-transform: rotate(360deg); transform: rotate(360deg);" preserveAspectRatio="xMidYMid meet" viewBox="0 0 24 24"><path d="M 7.913709640502930 5.336433649063110 L 12.152542591094971 5.358650207519531 C 14.926207065582275 5.576866507530212 17.419016361236572 6.880504131317139 17.173513412475586 11.068531751632690 C 17.049086093902588 13.886594295501709 15.163837909698486 15.545207977294922 12.883453845977783 15.633839607238770 L 11.399891853332520 15.813530445098877 L 11.332603454589844 20.457688808441162 L 11.533867835998535 21.795437335968018 L 11.628061294555664 22.687461376190186 L 7.756673097610474 22.688715934753418 L 7.839003324508667 21.990011215209961 L 7.981784820556641 21.182298660278320 L 8.125236511230469 7.319077491760254 L 7.764625310897827 5.666802406311035 L 7.913709640502930 5.336433649063110 M 11.604167461395264 7.700815916061401 L 11.493291378021240 7.778688669204712 L 11.353325378427432 13.272022227568863 C 11.353325378427430 13.272022227568865 11.353325378427430 13.272022227568865 11.353325378427430 13.272022227568865 C 12.632968062011779 13.374782658124452 13.701002321918573 12.686200166768044 13.743231296539307 10.527799129486084 C 13.686375617980957 8.663325548171997 13.095849037170410 7.913535833358765 11.604167461395264 7.700815916061401 " stroke-width="1.0" fill="rgb(0, 0, 0)" opacity="1.0"></path></svg>
