<svg xmlns="http://www.w3.org/2000/svg" xmlns:xlink="http://www.w3.org/1999/xlink" width="50px" height="50px" style="-ms-transform: rotate(360deg); -webkit-transform: rotate(360deg); transform: rotate(360deg);" preserveAspectRatio="xMidYMid meet" viewBox="0 0 24 24"><path d="M 12.434828281402588 5.262683987617493 C 15.247597217559814 5.554387092590332 17.464732646942139 8.834607124328613 17.481136322021484 13.413700103759766 C 17.326609611511230 17.713228225708008 16.448780536651611 19.995152950286865 15.508438110351562 20.909877777099609 C 14.245811462402344 22.257913112640381 15.124156951904297 22.247776508331299 15.657468795776367 22.719247341156006 L 16.082904338836670 22.959852218627930 C 16.247670650482178 23.769431591033936 16.429098129272461 25.197292327880859 14.098026752471924 25.193947792053223 C 13.263299328684864 25.234456561404215 12.631557454071901 24.080257825397300 12.540086578402960 23.080711808411628 C 12.067408158651308 23.108793491156639 11.362303173183992 23.050362201851122 10.607390642166138 22.899305820465088 C 8.029561758041382 22.204187393188477 6.252360105514526 18.271754264831543 6.517908811569214 13.078225135803223 C 7.144781112670898 7.347290039062500 9.095858573913574 4.956431508064270 12.434828281402588 5.262683987617493 M 11.996405124664307 7.655191898345947 C 10.576251268386841 7.578135251998901 10.142774105072021 9.704858779907227 10.090087652206421 14.284189224243164 C 10.151083946228027 17.631488800048828 10.652910232543945 20.928833484649658 12.028173923492432 20.590042591094971 C 13.628399848937988 20.366942882537842 13.460371971130371 18.376646518707275 13.828393936157227 14.345704078674316 C 13.762691974639893 10.234487056732178 13.687910556793213 8.067288637161255 11.996405124664307 7.655191898345947 " stroke-width="1.0" fill="rgb(0, 0, 0)" opacity="1.0"></path></svg>
