<svg xmlns="http://www.w3.org/2000/svg" xmlns:xlink="http://www.w3.org/1999/xlink" width="50px" height="50px" style="-ms-transform: rotate(360deg); -webkit-transform: rotate(360deg); transform: rotate(360deg);" preserveAspectRatio="xMidYMid meet" viewBox="0 0 24 24"><path d="M 7.352830410003662 5.430765509605408 L 11.949189662933350 5.449287056922913 C 14.644762516021729 5.750673294067383 16.605744838714600 6.968552827835083 16.644189834594727 10.099700689315796 C 16.848323822021484 12.515832424163818 15.279962539672852 14.062604427337646 14.350477695465088 14.389763832092285 L 16.583404541015625 20.842369079589844 L 17.067775726318359 21.820484161376953 L 17.284207820892334 22.705158233642578 L 13.714788436889648 22.696352005004883 L 11.449039220809937 15.449247837066650 L 10.953989267349243 15.387378215789795 L 10.847138643264771 19.943894863128662 L 11.029267072677612 22.236199378967285 L 11.131371974945068 22.686660289764404 L 7.149142742156982 22.689002037048340 L 7.227240085601807 22.059758663177490 L 7.519150257110596 20.898801326751709 L 7.624117612838745 7.159215688705444 L 7.590188026428223 7.186196565628052 L 7.352830410003662 5.430765509605408 M 11.861545085906982 7.976974725723267 C 11.383591063962962 7.731858249122697 11.071608725922307 7.803538845797261 10.940672388651635 7.857742913605773 L 10.879087993416377 12.975466184895868 C 10.879087993416375 12.975466184895870 10.879087993416375 12.975466184895870 10.879087993416375 12.975466184895870 C 12.423658875158878 13.225570733116756 13.242036630231310 12.327765081801738 13.234056472778320 10.245452642440796 C 13.186121463775635 9.086751937866211 12.893752098083496 8.035294532775879 11.861545085906982 7.976974725723267 " stroke-width="1.0" fill="rgb(0, 0, 0)" opacity="1.0"></path></svg>
