<svg xmlns="http://www.w3.org/2000/svg" xmlns:xlink="http://www.w3.org/1999/xlink" width="50px" height="50px" style="-ms-transform: rotate(360deg); -webkit-transform: rotate(360deg); transform: rotate(360deg);" preserveAspectRatio="xMidYMid meet" viewBox="0 0 24 24"><path d="M 7.342792510986328 5.398797512054443 L 16.820537567138672 5.776791572570801 L 16.738692283630371 8.695784568786621 L 16.140978813171387 8.512478113174438 C 15.853995619893100 8.141765376313913 14.466049658945829 7.995653312463226 13.809910273720996 8.053813075871449 C 14.660053012033060 7.785558216732790 14.407891737313493 8.078287198642851 13.620092868804932 8.004589319229126 L 13.632977485656738 18.878231048583984 C 13.471698760986328 20.546868324279785 13.691778659820557 21.295196056365967 13.735927104949951 21.482608795166016 L 13.940633296966553 22.688511371612549 C 13.218419551849365 22.687445640563965 11.587977647781372 22.691508293151855 9.921636343002319 22.684257030487061 L 9.911579132080078 22.002422332763672 C 9.971009016036987 21.684305191040039 10.003797054290771 21.551070213317871 10.169817924499512 20.751870632171631 L 10.257270422702119 7.899285104344294 C 10.067768704183933 7.966967018569350 7.511382416819117 8.141345834257738 9.534515619277954 7.808377504348755 C 9.592162370681763 7.710939645767212 7.466872930526733 8.521282911300659 7.379212617874146 8.486504316329956 L 7.391445636749268 9.775792837142944 L 7.342792510986328 5.398797512054443 " stroke-width="1.0" fill="rgb(0, 0, 0)" opacity="1.0"></path></svg>
