<svg xmlns="http://www.w3.org/2000/svg" xmlns:xlink="http://www.w3.org/1999/xlink" width="50px" height="50px" style="-ms-transform: rotate(360deg); -webkit-transform: rotate(360deg); transform: rotate(360deg);" preserveAspectRatio="xMidYMid meet" viewBox="0 0 24 24"><path d="M 7.414072036743164 5.471073389053345 L 11.189833434904511 5.493857585756704 L 11.189833434904511 5.493857585756704 L 11.126214265823364 5.489530920982361 L 10.874354124069214 6.573640823364258 L 10.760102033615112 15.890089988708496 C 10.839162826538086 18.750606536865234 10.511660814285278 19.644651889801025 12.161407470703125 20.382409572601318 C 14.065538406372070 20.139957904815674 13.763029575347900 18.540098190307617 13.872133255004883 16.009174346923828 L 13.859353065490723 8.145142078399658 C 13.847408294677734 5.909376740455627 13.174190998077393 5.730146527290344 13.766530036926270 5.468026757240295 L 13.539566516876221 5.442181348800659 L 17.118053913116455 5.479742646217346 L 16.874444961547852 6.582885503768921 C 16.998229980468750 6.936462163925171 16.797423362731934 7.514126300811768 16.809256553649902 9.173511028289795 L 16.740892410278320 18.408797264099121 C 16.401271820068359 21.535426139831543 15.031569957733154 22.892472267150879 11.825030565261841 22.967000484466553 C 8.832721710205078 22.691957473754883 7.328784227371216 21.113925933837891 7.418449401855469 17.418165206909180 C 7.386820077896118 12.311937332153320 7.565824985504150 9.052268743515015 7.504506111145020 7.988920927047729 C 7.601046323776245 7.039871692657471 7.497718334197998 6.717974424362183 7.068960428237915 5.719416260719299 L 7.414072036743164 5.471073389053345 " stroke-width="1.0" fill="rgb(0, 0, 0)" opacity="1.0"></path></svg>
