<svg xmlns="http://www.w3.org/2000/svg" xmlns:xlink="http://www.w3.org/1999/xlink" width="50px" height="50px" style="-ms-transform: rotate(360deg); -webkit-transform: rotate(360deg); transform: rotate(360deg);" preserveAspectRatio="xMidYMid meet" viewBox="0 0 24 24"><path d="M 3.446456909179688 5.673238635063171 L 7.572210788726807 5.609447479248047 L 7.493231534957886 6.550080299377441 L 7.804457187652588 8.482723474502563 L 9.145138263702393 15.805777072906494 L 10.250363588333130 10.384848117828369 C 10.630781665769220 8.164838512147691 10.673326203693266 7.143140419878508 10.663990194470466 6.898813577556416 L 10.749788045883179 5.702007651329041 L 13.670979022979736 5.663261175155640 L 13.876755237579346 7.876343965530396 C 13.970379952939787 8.448885429166429 14.055976809997492 8.731511620072192 14.010873595843108 8.701564934543388 C 14.615493799299381 10.338797199859981 14.879393146280954 14.129828635628645 15.469581127166748 16.529489994049072 C 15.400124073028564 14.269828319549561 16.481327533721924 10.148146390914917 16.988811492919922 7.297878742218018 C 16.978740710754494 6.617857968010594 17.188385485179509 6.053866110004495 16.879557485393430 5.787533653528315 L 16.879557485393438 5.787533653528318 C 17.057761160746413 5.682218760783169 17.849488623961946 5.718539971251395 20.061268329620361 5.739641904830933 L 19.639716625213623 7.147566318511963 C 19.467776298522949 7.639987707138062 19.349691867828369 8.466995716094971 19.074873447418213 9.073232173919678 L 16.018571376800537 22.690418243408203 L 13.783640384674072 22.689106464385986 C 12.845078945159912 18.575696468353271 12.457145690917969 15.212269306182861 11.811409950256348 13.227347373962402 L 10.025819063186646 22.692059040069580 L 7.405767202377319 22.683001041412354 C 6.349071979522705 17.472297191619873 5.588845252990723 13.823627471923828 4.409065246582031 7.969374418258667 C 4.181539893150330 6.988622903823853 3.903493165969849 6.538605451583862 3.942818641662598 6.426273107528687 L 3.446456909179688 5.673238635063171 " stroke-width="1.0" fill="rgb(0, 0, 0)" opacity="1.0"></path></svg>
