<svg xmlns="http://www.w3.org/2000/svg" xmlns:xlink="http://www.w3.org/1999/xlink" width="50px" height="50px" style="-ms-transform: rotate(360deg); -webkit-transform: rotate(360deg); transform: rotate(360deg);" preserveAspectRatio="xMidYMid meet" viewBox="0 0 24 24"><path d="M 6.908635139465332 5.669812560081482 L 10.259856466895654 5.462503778738817 L 10.259856466895654 5.462503778738814 C 10.132088843680597 5.484768177183050 10.953878721983083 5.542028903036298 10.731368780136108 6.373587369918823 C 11.101693153381348 7.172660350799561 11.176535367965698 7.699576377868652 11.198374271392822 7.562502622604370 L 12.200305938720703 10.409090280532837 L 13.197748661041260 7.697810411453247 C 13.838903903961182 5.842758893966675 13.577755451202393 6.119806051254272 13.726686000823975 5.669140934944153 L 13.988395214080811 5.522744536399841 L 16.516588211059570 5.379043221473694 L 17.144615650177002 5.780539512634277 C 16.220912933349609 7.197627067565918 15.883450984954834 7.890680551528931 15.562263965606689 8.689794301986694 L 13.620110034942627 13.450202465057373 L 16.397066116333008 20.705936908721924 C 16.628002166748047 21.297994136810303 16.968202114105225 21.941343784332275 16.915178775787354 21.840717315673828 L 17.241867542266846 22.691694259643555 L 13.441220963971457 22.684362514370278 L 13.441220963971457 22.684362514370285 C 13.500759067028600 22.656231559391433 13.358133344366951 22.495751516303244 13.141217708587646 21.773962497711182 C 12.715189933776855 19.672469615936279 11.595414876937866 17.759226322174072 11.843821048736572 16.614875793457031 L 10.221409320831299 21.270409584045410 C 10.480314016342163 20.557180881500244 10.045257568359375 22.142868518829346 10.103194713592529 22.072079658508301 L 10.090533971786499 22.692081928253174 L 6.577874422073364 22.679689407348633 L 6.723764419555664 22.280055999755859 C 6.825164794921875 21.683815956115723 7.396245002746582 21.069896221160889 7.905871152877808 19.715204715728760 L 10.241952180862427 14.069513797760010 L 7.986088514328003 8.047631263732910 C 7.599155902862549 6.885506629943848 7.201104640960693 7.048000574111938 6.994115352630615 6.201817274093628 L 6.908635139465332 5.669812560081482 " stroke-width="1.0" fill="rgb(0, 0, 0)" opacity="1.0"></path></svg>
