<svg xmlns="http://www.w3.org/2000/svg" xmlns:xlink="http://www.w3.org/1999/xlink" width="50px" height="50px" style="-ms-transform: rotate(360deg); -webkit-transform: rotate(360deg); transform: rotate(360deg);" preserveAspectRatio="xMidYMid meet" viewBox="0 0 24 24"><path d="M 12.737648963928223 11.511852979660034 C 13.780710697174072 12.338959693908691 15.598454475402832 11.046054124832153 15.703029155731201 14.169081687927246 L 15.670067310333252 18.752956867218018 C 15.541239738464355 19.943181037902832 15.630433559417725 20.485311985015869 15.609818458557129 20.613628864288330 L 15.912252902984619 22.583966732025146 C 15.947293281555176 22.770536899566650 14.999015808105469 22.642493247985840 14.026632785797119 22.696715354919434 C 13.377355098724365 22.613313674926758 12.950891017913818 23.019387245178223 12.877520084381104 21.644432544708252 C 12.221819400787354 22.683804988861084 11.422609806060791 23.039689064025879 10.167911052703857 22.951744079589844 C 8.906937360763550 22.661294460296631 7.964474916458130 21.381959438323975 7.945225954055786 19.424187183380127 C 7.882721185684204 16.766378402709961 8.800026655197144 15.441939353942871 12.634258747100830 16.185297489166260 L 12.761858940124512 15.720269680023193 C 12.806668281555176 13.817368984222412 11.966115474700928 13.331243991851807 11.321672916412354 13.740550518035889 C 11.112820386886597 14.025956153869629 10.720979690551758 14.725742340087891 10.329053878784180 15.187798976898193 L 8.803059519230706 15.412153801631851 C 8.833039229324395 15.400592859687706 8.865436021177551 15.388134488588113 8.900406360626221 15.374726772308350 C 8.310565710067749 15.358840942382812 8.447349786758423 14.384044647216797 8.413415908813477 14.956189155578613 C 8.391559839248657 12.361906528472900 9.792498350143433 11.112610101699829 12.737648963928223 11.511852979660034 M 12.732120037078857 16.550308227539062 C 10.167570590972900 16.929006099700928 11.123349666595459 20.213290214538574 11.153461217880249 20.306791305541992 C 11.147825717926025 19.894646644592285 11.014717340469360 20.742620944976807 12.204637527465820 20.838681221008301 C 10.601197957992554 20.537568569183350 12.563036441802979 21.243247032165527 12.738501548767090 19.859414577484131 L 12.732120037078857 16.550308227539062 " stroke-width="1.0" fill="rgb(0, 0, 0)" opacity="1.0"></path></svg>
