<svg xmlns="http://www.w3.org/2000/svg" xmlns:xlink="http://www.w3.org/1999/xlink" width="50px" height="50px" style="-ms-transform: rotate(360deg); -webkit-transform: rotate(360deg); transform: rotate(360deg);" preserveAspectRatio="xMidYMid meet" viewBox="0 0 24 24"><path d="M 8.444556713104248 5.518448352813721 L 11.343370199203491 5.385758399963379 L 11.130980730056763 12.501271247863770 C 11.542716264724731 11.966342926025391 12.327120780944824 11.375993728637695 13.387330055236816 11.422162771224976 C 15.065198421478271 11.402831554412842 16.519055843353271 13.610444068908691 16.284343242645264 17.338737487792969 C 16.240098953247070 20.625477790832520 14.864491939544678 23.091306209564209 12.361916542053223 22.934771060943604 C 10.400571584701538 22.702704906463623 10.812769174575806 21.771863937377930 10.611607074737549 22.438323497772217 L 10.043357133865356 22.761270046234131 L 8.067255020141602 22.677131652832031 L 8.174421072006226 19.815598011016846 L 8.252137899398804 7.125935554504395 C 8.139434337615967 6.798072338104248 7.803508043289185 5.466487526893616 7.879727125167847 5.699572563171387 L 8.444556713104248 5.518448352813721 M 11.537640406167318 13.995458683069604 C 11.442669764726537 14.121729715587696 11.330167267450820 14.269472076341248 11.201396942138672 14.439737319946289 L 11.080167531967163 19.035737514495850 C 11.228080987930298 20.004275321960449 11.036795139312744 21.040643692016602 12.315948486328125 20.766846656799316 C 12.932046890258789 20.699389457702637 13.180556774139404 18.058164596557617 13.260835647583008 16.769320964813232 C 13.069419508363431 13.337484089133579 12.405953640790447 14.003196188979004 11.537640406167318 13.995458683069604 " stroke-width="1.0" fill="rgb(0, 0, 0)" opacity="1.0"></path></svg>
