<svg xmlns="http://www.w3.org/2000/svg" xmlns:xlink="http://www.w3.org/1999/xlink" width="50px" height="50px" style="-ms-transform: rotate(360deg); -webkit-transform: rotate(360deg); transform: rotate(360deg);" preserveAspectRatio="xMidYMid meet" viewBox="0 0 24 24"><path d="M 13.021345138549805 11.510996103286743 C 14.375544548034668 11.492002487182617 15.554733753204346 11.858691930770874 15.509146213531494 13.225122928619385 L 15.400823593139648 14.877468109130859 C 14.562947273254395 15.502760410308838 13.723836421966553 14.394015312194824 13.529364109039307 14.073848247528076 C 13.260105830522487 13.820092897560425 12.932606654821189 13.729708354569016 12.879127436342690 13.686807263144257 C 12.349401976728551 13.900430864241523 11.682939230820779 14.585115805567799 11.744346857070923 17.287585258483887 C 11.673401611269810 19.196799375818692 12.127155601066899 20.610270292680049 12.994569193676943 20.531472781030971 C 13.114018501395066 20.591432947576102 14.081840770805915 20.724604276496539 15.200285911560059 19.886311054229736 L 15.309884548187256 20.987641811370850 C 15.388313770294189 22.445611953735352 14.006136417388916 22.857180118560791 12.401026725769043 23.026315212249756 C 9.899588584899902 22.893652439117432 8.419148683547974 20.423396587371826 8.688674926757812 17.102020740509033 C 8.830648183822632 13.513528347015381 10.745568037033081 11.389271736145020 13.021345138549805 11.510996103286743 " stroke-width="1.0" fill="rgb(0, 0, 0)" opacity="1.0"></path></svg>
