<svg xmlns="http://www.w3.org/2000/svg" xmlns:xlink="http://www.w3.org/1999/xlink" width="50px" height="50px" style="-ms-transform: rotate(360deg); -webkit-transform: rotate(360deg); transform: rotate(360deg);" preserveAspectRatio="xMidYMid meet" viewBox="0 0 24 24"><path d="M 16.055944919586182 5.481809377670288 L 15.887938499450684 20.710796356201172 L 15.871354579925537 20.721628189086914 L 16.091746330261230 22.704035282135010 C 14.476837635040283 22.621135711669922 13.107709407806396 22.839441776275635 13.000608444213867 22.498363494873047 L 13.020370960235596 21.102257251739502 C 12.856577396392822 22.916450500488281 11.000947952270508 23.004987716674805 10.409615993499756 22.869320869445801 C 8.843353271484375 22.545958042144775 7.677975654602051 20.650547504425049 7.699818849563599 17.577784538269043 C 7.799981117248535 14.221783161163330 8.852869749069214 11.550233602523804 11.046988248825073 11.445626735687256 C 12.710244655609131 11.354534626007080 12.640548706054688 11.814486265182495 13.058607101440430 12.127942085266113 L 13.071812152862549 6.947672367095947 C 12.910702805795994 6.667486527005692 12.856679514821776 6.004972567577415 12.772561797087555 5.798553231148340 L 12.772561797087555 5.798553231148338 C 12.970255740343662 5.678041732060956 13.105209234695083 5.957322869762089 16.055944919586182 5.481809377670288 M 11.641100738877130 13.702585906604543 C 11.084617634741265 13.915820278001819 10.928624265428494 14.930355373392342 10.891085386276245 16.166396141052246 C 10.867233037948608 17.377620220184326 10.838805198669434 19.715475082397461 11.383020401000977 20.249346256256104 C 11.821808338165283 20.954300880432129 12.879462718963623 20.740230560302734 12.978306770324707 19.415499687194824 L 12.960853099822998 14.159611701965332 C 12.826770210439513 13.110134881498345 10.812872960025588 13.888790465097687 11.641100738877128 13.702585906604542 " stroke-width="1.0" fill="rgb(0, 0, 0)" opacity="1.0"></path></svg>
