<svg xmlns="http://www.w3.org/2000/svg" xmlns:xlink="http://www.w3.org/1999/xlink" width="50px" height="50px" style="-ms-transform: rotate(360deg); -webkit-transform: rotate(360deg); transform: rotate(360deg);" preserveAspectRatio="xMidYMid meet" viewBox="0 0 24 24"><path d="M 12.694227218627930 11.540594100952148 C 14.794830322265625 11.689199924468994 16.201083183288574 13.868559837341309 15.761065006256104 17.222744464874268 L 10.944463491439819 17.764742374420166 C 11.346171855926514 18.623126506805420 11.011329889297485 20.113454818725586 12.340524673461914 20.533458709716797 C 13.198745727539062 20.848586082458496 14.481871604919434 20.018918037414551 15.007035255432129 19.796967029571533 L 15.409269332885742 19.860661983489990 C 15.946077346801758 21.706370830535889 14.207080364227295 22.999321460723877 11.775672912597656 22.965757369995117 C 9.260752916336060 22.498071670532227 8.048810720443726 20.445751190185547 8.070963621139526 17.271852493286133 C 8.287543773651123 13.196222305297852 10.181073904037476 11.419110059738159 12.694227218627930 11.540594100952148 M 12.312917232513428 13.421886920928955 C 11.482766389846802 13.323411941528320 11.335439443588257 14.438478469848633 10.996443986892700 16.043988704681396 L 13.161262035369873 15.859478473663330 C 13.254477024078369 13.995396137237549 12.448734283447266 13.359206199645996 12.312917232513428 13.421886920928955 " stroke-width="1.0" fill="rgb(0, 0, 0)" opacity="1.0"></path></svg>
