<svg xmlns="http://www.w3.org/2000/svg" xmlns:xlink="http://www.w3.org/1999/xlink" width="50px" height="50px" style="-ms-transform: rotate(360deg); -webkit-transform: rotate(360deg); transform: rotate(360deg);" preserveAspectRatio="xMidYMid meet" viewBox="0 0 24 24"><path d="M 11.008843660354614 13.803181171417236 C 11.186481690564099 13.024057344636336 11.452367208254422 12.619306567398425 11.668296368775206 12.450548026568047 L 11.589190006256104 12.008162498474121 L 16.450946331024170 11.627417564392090 L 14.868399120831143 14.588519497599076 L 14.868399120831144 14.588519497599076 L 15.691785335540771 12.713158607482910 L 15.601757526397705 16.617887020111084 C 14.268118858337402 21.176884174346924 8.904247999191284 19.310636043548584 12.520048141479492 20.307895660400391 C 16.742857933044434 20.814927577972412 15.381198406219482 22.274409770965576 15.734564781188965 24.950929641723633 C 9.477607011795044 23.927995204925537 11.711329221725464 25.271767616271973 12.740346908569336 22.871078968048096 C 10.688085794448853 22.124530792236328 8.424555301666260 24.722894668579102 8.397815465927124 19.768248081207275 C 9.029201872292163 19.627433882749067 9.838956385591802 20.468304705382632 10.599029767456122 20.780732987981263 C 10.599029767456123 20.780732987981267 10.599029767456123 20.780732987981267 10.599029767456123 20.780732987981267 C 10.599029767456123 20.780732987981267 10.599029767456123 20.780732987981267 10.599029767456123 20.780732987981267 C 10.599029767456123 20.780732987981267 10.599029767456123 20.780732987981267 10.599029767456123 20.780732987981267 C 10.543674209186406 20.622740444273784 10.651225488243337 20.330297959186012 11.152198791503906 20.229362010955811 C 11.547130823135376 20.693741798400879 10.483328819274902 20.482508182525635 8.504807710647583 20.884152889251709 C 7.864610910415649 20.487308979034424 9.440922260284424 19.212399959564209 8.252389669418335 17.717894554138184 C 7.450248241424561 13.787730216979980 9.514135122299194 10.404956102371216 13.006748199462891 11.829520940780640 L 11.008843660354614 13.803181171417236 M 12.335343360900879 13.550467014312744 C 11.220187425613403 12.926201820373535 10.670402526855469 14.165837287902832 10.905942678451538 16.205316066741943 C 10.948490381240845 17.840174674987793 11.280040025711060 18.622113704681396 11.852906942367554 18.609425067901611 C 12.494785308837891 18.520681858062744 13.031577587127686 17.696665763854980 12.942493915557861 16.312229633331299 C 12.847469329833984 15.536812305450439 12.908120155334473 13.740855216979980 12.335343360900879 13.550467014312744 " stroke-width="1.0" fill="rgb(0, 0, 0)" opacity="1.0"></path></svg>
