<svg xmlns="http://www.w3.org/2000/svg" xmlns:xlink="http://www.w3.org/1999/xlink" width="50px" height="50px" style="-ms-transform: rotate(360deg); -webkit-transform: rotate(360deg); transform: rotate(360deg);" preserveAspectRatio="xMidYMid meet" viewBox="0 0 24 24"><path d="M 11.326029539108276 5.470579862594604 L 11.081136703491211 12.634958267211914 C 11.782750368118286 11.917370796203613 12.255363464355469 11.270580768585205 13.893256187438965 11.361355304718018 C 14.815014839172363 11.376891374588013 15.922137737274170 12.411556720733643 15.885201930999756 14.051869869232178 L 15.866980075836182 20.069950103759766 L 15.790407657623291 20.501435279846191 L 16.081761360168457 22.692313671112061 C 15.945778369903564 22.689498424530029 13.889024734497070 22.684929370880127 12.681680202484131 22.689002037048340 C 13.021955966949463 20.333885192871094 12.865728378295898 17.244104862213135 12.948205947875977 15.932508945465088 C 12.818100929260254 14.891620159149170 13.150135517120361 13.599300384521484 11.439421892166138 14.106332302093506 C 11.115823030471802 14.379149436950684 11.147583246231079 15.812026977539062 11.103951215744019 15.621910572052002 C 11.151452064514160 21.267328262329102 10.922741889953613 20.111856937408447 11.271559238433838 22.693668365478516 L 7.615081071853638 22.672430992126465 C 8.551475286483765 21.007059574127197 7.981597423553467 16.621327400207520 8.185034751892090 14.259085178375244 C 8.119706869125366 13.300845623016357 8.224767208099365 9.742650032043457 8.243010520935059 8.300338268280029 C 8.223827362060547 8.574896335601807 8.250550031661987 8.145440340042114 8.222650766372681 7.199664831161499 L 7.880642652511597 5.872654795646667 C 7.585004568099976 5.664290428161621 9.502680301666260 5.402765393257141 11.326029539108276 5.470579862594604 " stroke-width="1.0" fill="rgb(0, 0, 0)" opacity="1.0"></path></svg>
