<svg xmlns="http://www.w3.org/2000/svg" xmlns:xlink="http://www.w3.org/1999/xlink" width="50px" height="50px" style="-ms-transform: rotate(360deg); -webkit-transform: rotate(360deg); transform: rotate(360deg);" preserveAspectRatio="xMidYMid meet" viewBox="0 0 24 24"><path d="M 11.811610221862793 6.370486021041870 C 12.707895755767822 6.342497348785400 13.792008876800537 6.792184352874756 13.768864631652832 8.125850915908813 C 13.550415515899658 9.604013442993164 12.829297542572021 10.182169675827026 11.530007600784302 9.844849348068237 C 10.814782619476318 9.535256624221802 10.237187147140503 8.804319620132446 10.475063323974609 7.741197824478149 C 10.403711557388306 7.034000873565674 10.737269639968872 6.629534482955933 11.811610221862793 6.370486021041870 M 12.110816001892090 11.794233798980713 L 13.563636302947998 11.361250877380371 L 13.410201072692871 20.590696334838867 C 13.441419906192943 20.766155082740418 13.434106792427807 20.896876789972680 13.404920697213653 20.984357548737588 L 13.831659793853760 22.690991878509521 C 13.650715827941895 22.663699150085449 12.323378562927246 22.727138042449951 10.075025796890259 22.660059928894043 C 10.624563217163086 21.495479106903076 10.371467828750610 17.320442676544189 10.340044498443604 12.937170982360840 C 9.370094776153564 11.638750791549683 10.556800603866577 11.885478258132935 12.110816001892090 11.794233798980713 " stroke-width="1.0" fill="rgb(0, 0, 0)" opacity="1.0"></path></svg>
