<svg xmlns="http://www.w3.org/2000/svg" xmlns:xlink="http://www.w3.org/1999/xlink" width="50px" height="50px" style="-ms-transform: rotate(360deg); -webkit-transform: rotate(360deg); transform: rotate(360deg);" preserveAspectRatio="xMidYMid meet" viewBox="0 0 24 24"><path d="M 12.082808017730713 6.282064676284790 C 12.456311702728271 6.314503669738770 13.575001716613770 6.892762184143066 13.492979049682617 7.967985391616821 C 13.417399406433105 9.241605520248413 12.571287631988525 9.958375453948975 11.905802965164185 9.881730079650879 C 10.863626003265381 9.812240839004517 10.092488050460815 8.966483831405640 10.049871683120728 8.096665620803833 C 10.189675569534302 6.732981204986572 10.830531120300293 6.184615373611450 12.082808017730713 6.282064676284790 M 11.868554592132568 11.771490097045898 L 13.390169620513916 11.337304830551147 L 13.102091789245605 22.621426105499268 C 13.371062278747559 25.255465507507324 11.267864942550659 28.076731681823730 9.717359304428101 28.479260444641113 C 9.000700235366821 28.282507896423340 8.062593698501587 28.191870689392090 8.065845966339111 27.814567565917969 C 8.069636106491089 27.374911308288574 8.413430929183960 26.970173835754395 8.732454299926758 26.281768798828125 C 9.037909269332886 26.189935684204102 9.246519327163696 24.855079650878906 9.320659160614014 24.937668800354004 C 9.468094825744629 24.940724372863770 9.653117179870605 25.257722854614258 9.156329870223999 24.496693611145020 C 9.799045085906982 25.174398422241211 9.983730554580688 23.484971523284912 10.019847393035889 23.022285461425781 C 9.950859546661377 23.035180091857910 10.106121540069580 18.616789340972900 10.101718425750732 13.229649066925049 C 9.966717481613159 12.724525451660156 9.834687709808350 12.096200466156006 9.805538892745972 11.884503364562988 L 11.868554592132568 11.771490097045898 " stroke-width="1.0" fill="rgb(0, 0, 0)" opacity="1.0"></path></svg>
