<svg xmlns="http://www.w3.org/2000/svg" xmlns:xlink="http://www.w3.org/1999/xlink" width="50px" height="50px" style="-ms-transform: rotate(360deg); -webkit-transform: rotate(360deg); transform: rotate(360deg);" preserveAspectRatio="xMidYMid meet" viewBox="0 0 24 24"><path d="M 8.326516628265381 5.639233231544495 L 11.401372432708740 5.403105854988098 L 11.134473323822021 16.320123195648193 L 12.974870681762695 13.146739482879639 C 12.983000204369693 11.443150827777579 13.808691655200130 11.925546928156200 12.953805743902086 11.861770220887374 L 12.953805743902087 11.861770220887376 L 16.022046089172363 11.799336433410645 L 15.895770767729397 11.888876807366781 C 16.836133966552143 11.412040359621251 16.139504392605716 13.031720066237259 15.253791332244873 13.652832984924316 L 13.713706970214844 16.124140262603760 C 14.324983119964600 17.609477519989014 14.997716903686523 19.026337623596191 15.546020507812500 20.295076847076416 C 16.016880512237549 21.468029022216797 16.321267604827881 21.564311027526855 16.641836643218994 22.694223403930664 L 13.353002071380615 22.677158832550049 C 12.905429391533948 21.667985456028177 12.552050404956081 20.429687715528146 12.487692032407519 20.333516860349086 C 12.327993669830853 19.607156178047283 11.731507551526635 18.929082074274394 11.314074412883491 17.634816782549784 C 11.299344355287314 17.624361181257502 11.284440325403262 17.613456003182538 11.269364118576050 17.602090358734131 C 11.265536785125732 19.503795146942139 11.043545722961426 20.034047126770020 11.226825714111328 21.371845722198486 C 11.178447961807251 21.966735363006592 11.307383537292480 22.471684455871582 11.244054794311523 22.470432758331299 L 11.326712608337402 22.686065196990967 L 8.087718486785889 22.688193798065186 L 7.993852615356445 22.315094947814941 C 8.415981531143188 20.708025455474854 8.196475267410278 21.055666923522949 8.294888734817505 18.949669361114502 C 8.215888738632202 14.369603633880615 8.399226665496826 11.897062540054321 8.458301782608032 7.759192228317261 C 8.478412628173828 6.707212686538696 8.139199733734131 6.349604129791260 8.064039945602417 5.901100873947144 L 8.326516628265381 5.639233231544495 " stroke-width="1.0" fill="rgb(0, 0, 0)" opacity="1.0"></path></svg>
