<svg xmlns="http://www.w3.org/2000/svg" xmlns:xlink="http://www.w3.org/1999/xlink" width="50px" height="50px" style="-ms-transform: rotate(360deg); -webkit-transform: rotate(360deg); transform: rotate(360deg);" preserveAspectRatio="xMidYMid meet" viewBox="0 0 24 24"><path d="M 10.374921798706055 11.523631811141968 C 12.282716274261475 11.155416011810303 12.808809757232666 11.902442693710327 13.413218021392822 12.745406627655029 C 14.188213348388672 12.172140598297119 14.621170520782471 11.512084007263184 15.840195178985596 11.410547733306885 C 17.476120948791504 11.445196151733398 18.571306228637695 12.253502368927002 18.556201457977295 15.123634815216064 L 18.475387573242188 20.271476268768311 L 18.424670219421387 20.765490531921387 L 18.794132709503174 22.686369895935059 L 15.215897083282471 22.689146518707275 L 15.420973777770996 17.084328174591064 C 15.389253616333008 13.907482624053955 15.232493877410889 14.342239379882812 15.035503864288330 13.988237857818604 C 14.119066715240479 13.885404109954834 13.702181339263916 14.132163047790527 13.568349838256836 15.217733860015869 L 13.569305419921875 20.706913948059082 L 13.755108833312988 22.130689144134521 L 13.820842266082764 22.688654422760010 L 9.889225959777832 22.686631679534912 L 10.510848049136264 21.508871934298448 L 10.510848049136262 21.508871934298444 L 10.569600105285645 16.238426685333252 C 10.538230419158936 14.776921749114990 10.603851556777954 14.057569026947021 9.936532974243164 13.979122638702393 C 8.884287357330322 14.031712532043457 8.671927213668823 14.532960891723633 8.599898099899292 15.809589385986328 L 8.537901163101196 21.130292415618896 L 8.722156047821045 22.182765483856201 L 8.807596206665039 22.691333770751953 L 5.106794714927673 22.677114486694336 L 5.203874588012695 22.009775161743164 L 5.455005168914795 21.495856761932373 L 5.636307835578918 13.819560527801514 L 5.489548802375793 12.806944370269775 L 5.392243623733521 11.864632129669189 L 8.373834371566772 11.486017942428589 L 8.396762548481034 12.816056906584363 C 8.401198111449546 12.551960586177652 10.257793363591095 11.378501691044255 10.374921798706055 11.523631811141968 " stroke-width="1.0" fill="rgb(0, 0, 0)" opacity="1.0"></path></svg>
