<svg xmlns="http://www.w3.org/2000/svg" xmlns:xlink="http://www.w3.org/1999/xlink" width="50px" height="50px" style="-ms-transform: rotate(360deg); -webkit-transform: rotate(360deg); transform: rotate(360deg);" preserveAspectRatio="xMidYMid meet" viewBox="0 0 24 24"><path d="M 13.559014320373535 11.295136213302612 C 14.962748050689697 11.335783481597900 16.020496845245361 12.216166019439697 15.996256828308105 14.525108814239502 L 15.942295074462891 20.511217117309570 L 15.874577522277832 20.470941066741943 L 16.265457630157471 22.689888954162598 L 12.853059768676758 22.688160896301270 L 12.986872673034668 16.449173927307129 C 12.912543296813965 14.021829128265381 12.938176631927490 14.040468692779541 12.177756786346436 13.874214649200439 C 11.030397891998291 14.089004516601562 11.321313142776489 14.002846240997314 11.137556791305542 15.353922843933105 L 11.086966037750244 21.205902099609375 L 11.283155679702759 22.390681743621826 L 11.382385969161987 22.684500217437744 L 7.699688673019409 22.689871788024902 L 7.783627510070801 21.921566963195801 L 8.144493341445923 21.126720428466797 L 8.149754047393799 14.548035621643066 L 8.063474178314209 13.282630920410156 L 7.721492528915405 11.890995740890503 L 11.033482789993286 11.776466846466064 L 10.752409458160400 12.816707611083984 C 11.134588479995728 12.707984447479248 11.969491481781006 11.230100154876709 13.559014320373535 11.295136213302612 " stroke-width="1.0" fill="rgb(0, 0, 0)" opacity="1.0"></path></svg>
