<svg xmlns="http://www.w3.org/2000/svg" xmlns:xlink="http://www.w3.org/1999/xlink" width="50px" height="50px" style="-ms-transform: rotate(360deg); -webkit-transform: rotate(360deg); transform: rotate(360deg);" preserveAspectRatio="xMidYMid meet" viewBox="0 0 24 24"><path d="M 13.002299308776855 11.350217342376709 C 15.161417484283447 11.176611900329590 16.491489887237549 13.533858776092529 16.269268512725830 17.538411140441895 C 16.210703372955322 21.262435913085938 14.420531272888184 23.386766910552979 12.264852046966553 22.882600307464600 C 12.322538852691650 22.797836780548096 11.587205886840820 22.707590103149414 10.899586915969849 22.406407356262207 L 11.102017879486084 27.652556419372559 L 11.431420326232910 27.638560295104980 L 11.422544002532959 28.797357559204102 L 7.170405864715576 28.789930343627930 L 7.185752391815186 27.867044448852539 L 7.882445096969604 27.953421592712402 L 8.150497198104858 15.435373306274414 L 8.032999992370605 12.993985176086426 L 7.782789945602417 11.872125148773193 L 10.802589654922485 11.740901470184326 L 10.654815673828125 13.325108528137207 C 10.833086729049683 11.881357669830322 12.507475376129150 11.297344207763672 13.002299308776855 11.350217342376709 M 11.976122617721558 13.841802120208740 C 10.959189176559448 13.986305236816406 11.173756599426270 14.200242519378662 11.027440309524536 15.591848373413086 L 11.089928627014160 19.234876155853271 C 11.196500301361084 20.765427589416504 11.549428224563599 20.781759738922119 12.269054889678955 20.643121719360352 C 12.785366535186768 20.684762477874756 13.061815738677979 18.869163036346436 13.191709041595459 17.888810634613037 C 13.244918346405029 14.535392761230469 12.798655986785889 13.820441722869873 11.976122617721558 13.841802120208740 " stroke-width="1.0" fill="rgb(0, 0, 0)" opacity="1.0"></path></svg>
