<svg xmlns="http://www.w3.org/2000/svg" xmlns:xlink="http://www.w3.org/1999/xlink" width="50px" height="50px" style="-ms-transform: rotate(360deg); -webkit-transform: rotate(360deg); transform: rotate(360deg);" preserveAspectRatio="xMidYMid meet" viewBox="0 0 24 24"><path d="M 11.161706686019897 11.508640766143799 C 12.410376548767090 11.267364978790283 12.806319236755371 11.786800861358643 13.552491188049316 12.138381958007812 L 14.184395313262939 11.788888692855835 L 16.012294292449951 11.651371479034424 L 15.680073738098145 28.761935234069824 L 12.521351337432861 28.600811004638672 L 12.884838581085205 22.068915367126465 C 11.949363470077515 22.591722965240479 11.541767835617065 22.890598297119141 11.311625003814697 22.871131896972656 C 9.542329788208008 23.254132747650146 7.646311998367310 21.197527885437012 7.883057355880737 17.223275184631348 C 7.897532701492310 14.053829669952393 9.185763359069824 11.743695259094238 11.161706686019897 11.508640766143799 M 11.878727674484253 13.585172653198242 C 11.308068752288818 13.502783775329590 10.911103963851929 14.829324245452881 10.959686994552612 18.384398460388184 C 10.995121517579216 20.410385701780122 11.660869472460448 20.622066248109718 12.501338307076031 20.449631301727081 C 12.648527716543240 20.208485923507887 12.825886049823403 19.801746373429484 12.923615455627441 19.169550418853760 L 13.046974182128906 16.606894969940186 C 12.943066120147705 13.941797733306885 13.207581996917725 13.367066860198975 11.878727674484253 13.585172653198242 " stroke-width="1.0" fill="rgb(0, 0, 0)" opacity="1.0"></path></svg>
