<svg xmlns="http://www.w3.org/2000/svg" xmlns:xlink="http://www.w3.org/1999/xlink" width="50px" height="50px" style="-ms-transform: rotate(360deg); -webkit-transform: rotate(360deg); transform: rotate(360deg);" preserveAspectRatio="xMidYMid meet" viewBox="0 0 24 24"><path d="M 12.798854827880859 11.576361894607544 C 12.640601634979248 11.410847425460815 14.272381782531738 12.038776874542236 14.947869300842285 12.302277088165283 L 14.540679931640625 14.586816787719727 C 13.484679222106934 14.785898208618164 13.581828117370605 13.836944103240967 12.494572162628174 13.413780212402344 C 12.226982116699219 13.334627151489258 11.697926759719849 13.564523220062256 12.278723716735840 13.377212047576904 C 11.842269659042358 13.342949867248535 11.582175493240356 13.562308788299561 11.480949640274048 13.999402999877930 C 11.464289544607160 14.147010718379519 11.439171502468980 14.277307248876744 11.416695291814083 14.349031774930875 C 11.451743148667855 14.545427114614004 11.541983664110578 14.763236244163657 11.747181415557861 15.015655517578125 C 12.226663112640381 15.515988349914551 12.519743442535400 15.600108146667480 12.871840953826904 15.901701450347900 C 13.438224814482210 16.262862614342591 13.980264745595306 16.848066038990446 13.986428259013140 16.890168407941079 C 14.170769624337622 17.037407804349638 14.467920846889157 17.341813119162353 14.863361835479736 17.928900718688965 C 15.342202663421631 18.719208240509033 15.311329364776611 20.007865905761719 15.046623229980469 20.750169754028320 C 14.651198387145996 22.016477108001709 13.747591495513916 22.296957492828369 13.597382068634033 22.442378997802734 C 13.323540687561035 22.688916206359863 12.162757873535156 23.012084484100342 11.564174652099609 22.961537361145020 C 10.842573165893555 22.973550796508789 9.970149993896484 22.692044734954834 11.054793834686279 22.934928417205811 C 10.764798402786255 22.959142684936523 9.985916376113892 22.692798614501953 9.327540636062622 22.448324203491211 C 8.691317796707153 22.145298957824707 8.591593265533447 21.856769084930420 8.808021068572998 20.865458965301514 C 8.957163333892822 20.466776847839355 8.960060834884644 19.925607204437256 9.341739177703857 19.992170333862305 C 9.335737466812134 19.910163402557373 10.214703798294067 20.470012664794922 10.894122362136841 20.814652919769287 C 11.224364936199365 20.901276642093023 11.526904099771420 20.904964975219755 11.809881887445353 20.879725738595262 C 11.811811247492294 20.872387782348852 11.814446828411846 20.864819481030757 11.817829370498657 20.857020378112793 C 12.083658497124651 20.782878672648803 12.419680668389018 20.443015301138811 12.395765133345442 20.404768193502459 C 12.533417551910452 20.346305921127733 12.592888078615889 19.854939042449914 12.310894489288330 19.458455085754395 C 12.061885356903076 18.968944072723389 11.542514562606812 18.794817924499512 11.246277809143066 18.530523777008057 C 10.534471750259399 18.105491638183594 10.089844465255737 17.618207931518555 10.099175691604614 17.726536273956299 C 9.458121299743652 17.054250240325928 8.992916822433472 16.408816337585449 9.029853343963623 15.968301773071289 C 8.647215127944946 15.483203887939453 8.968334913253784 13.922059535980225 9.021871089935303 13.802320003509521 C 9.298770189285278 12.718035221099854 10.498010873794556 11.392805814743042 12.798854827880859 11.576361894607544 " stroke-width="1.0" fill="rgb(0, 0, 0)" opacity="1.0"></path></svg>
