<svg xmlns="http://www.w3.org/2000/svg" xmlns:xlink="http://www.w3.org/1999/xlink" width="50px" height="50px" style="-ms-transform: rotate(360deg); -webkit-transform: rotate(360deg); transform: rotate(360deg);" preserveAspectRatio="xMidYMid meet" viewBox="0 0 24 24"><path d="M 7.947359561920166 11.830778360366821 L 11.047309398651123 11.829157590866089 L 11.345184141120367 12.655314264647032 L 11.345184141120367 12.655314264647030 L 12.239298820495605 14.732007980346680 L 12.867954254150391 13.168805122375488 C 13.323848347486376 12.190834420696309 13.394989635009800 11.896573558334143 13.301722893255366 11.824363555839003 L 13.301722893255368 11.824363555839003 L 16.163404941558838 11.801766157150269 L 15.792772293090820 12.535182952880859 C 15.490392208099365 13.050091266632080 15.088016510009766 13.454339504241943 14.872487068176270 14.089947223663330 L 13.464463233947754 16.863737583160400 L 15.405067920684814 20.932199478149414 C 15.494363307952881 21.368047714233398 15.810444831848145 21.624848842620850 15.905613899230957 21.908097267150879 L 16.244912624359131 22.691283702850342 L 12.811964035034180 22.688507080078125 L 12.919506404132132 22.685292653361564 C 12.884849322862975 22.571687203590930 12.813728228923541 22.234858191957613 12.633227348327637 21.769935607910156 C 11.893132209777832 19.933402061462402 11.749141216278076 19.953648090362549 11.825648546218872 18.607535362243652 C 11.660090446472168 20.111373424530029 10.842798471450806 20.888770580291748 10.738289594650269 21.522751808166504 C 11.034032106399536 20.535694599151611 11.131700992584229 20.709594726562500 10.605736970901489 21.969507694244385 L 10.472235202789307 22.728095054626465 L 7.623464584350586 22.714161872863770 L 7.796075105667114 22.036394119262695 C 8.114861726760864 21.696268558502197 8.422203540802002 21.361527442932129 8.919858455657959 20.393211364746094 L 10.524843692779541 17.302685737609863 C 9.821471929550171 16.225716590881348 9.201990365982056 14.290180206298828 8.653278350830078 13.488492965698242 C 8.481084108352661 12.983751296997070 8.123017072677612 12.675797939300537 7.936878204345703 12.327152252197266 L 7.947359561920166 11.830778360366821 " stroke-width="1.0" fill="rgb(0, 0, 0)" opacity="1.0"></path></svg>
