<svg xmlns="http://www.w3.org/2000/svg" xmlns:xlink="http://www.w3.org/1999/xlink" width="50px" height="50px" style="-ms-transform: rotate(360deg); -webkit-transform: rotate(360deg); transform: rotate(360deg);" preserveAspectRatio="xMidYMid meet" viewBox="0 0 24 24"><path d="M 7.617862701416016 11.911757469177246 L 10.742175329057442 11.904805444059225 L 10.742175329057444 11.904805444059225 C 10.656810677106254 11.962586547534759 10.899107185162071 12.176956000980624 10.898056983947754 12.696450233459473 C 11.145060609135209 13.237396746086523 11.443155112580451 14.864897145833750 11.281928667131361 14.447264777764364 L 12.268064975738525 17.595974922180176 L 13.228865146636963 13.257189273834229 C 13.538131713867188 12.554258823394775 13.198006153106689 12.252950191497803 13.269116878509521 13.280462265014648 C 13.551216602325439 12.081374645233154 13.102327823638916 12.455526351928711 13.392160892486572 11.636813879013062 L 14.168942928314209 11.538334608078003 L 16.142665386199951 11.595185279846191 L 16.314082145690918 11.895823717117310 C 15.903033256530762 12.521793365478516 15.687407970428467 13.308707714080811 15.392287731170654 14.289939880371094 L 12.545481204986572 23.592202663421631 C 11.566491365432739 25.299608230590820 11.277284145355225 27.504764556884766 9.350837945938110 27.018516540527344 C 8.368486404418945 26.876852989196777 7.707586526870728 26.690935134887695 8.078460931777954 25.534918785095215 C 8.150119626967992 24.952379093717965 8.560890949986419 24.641637590169978 8.879831504322707 24.285739373372220 C 8.865473853035141 24.647448006545297 9.438069219877903 25.416147622992597 9.722439050674438 25.299242019653320 C 9.528587579727173 24.742478370666504 10.562438249588013 23.134225845336914 10.608615875244141 22.685389995574951 C 10.517065574700400 22.936491007114675 10.419157614961229 23.097492700834959 10.347863754743637 23.191827942848857 C 10.347863754743639 23.191827942848853 10.347863754743639 23.191827942848853 10.347863754743639 23.191827942848853 C 10.347863754743639 23.191827942848853 10.347863754743639 23.191827942848853 10.347863754743639 23.191827942848853 C 10.347863754743639 23.191827942848853 10.347863754743639 23.191827942848853 10.347863754743639 23.191827942848853 C 10.634267019194798 22.928273993317205 10.699356725221579 22.280547392793228 10.274193763732910 21.294995784759521 L 8.049918651580811 13.582802295684814 C 6.971633434295654 11.987258434295654 7.689323186874390 12.170159339904785 7.418318510055542 11.958230495452881 L 7.617862701416016 11.911757469177246 " stroke-width="1.0" fill="rgb(0, 0, 0)" opacity="1.0"></path></svg>
