<svg xmlns="http://www.w3.org/2000/svg" xmlns:xlink="http://www.w3.org/1999/xlink" width="50px" height="50px" viewBox="0 0 24 24">
<style type="text/css">
.path {
		stroke-dasharray: 100;
		animation: dash 30s linear infinite;
}
@keyframes dash {
	to {
		stroke-dashoffset: 1000;
	}
}
</style>
<path class="path" d="M 13.932725429534912 6.441781997680664 C 18.938239574432373 6.258800983428955 21.090077877044678 7.090832948684692 19.865614414215088 11.000846385955811 L 18.127726078033447 10.892273426055908 C 18.227272510528564 8.090250492095947 17.807162761688232 7.885748863220215 13.106716632843018 7.941433668136597 C 9.467223644256592 7.749772310256958 8.644478559494019 11.053525686264038 7.684453725814819 15.445003509521484 C 6.332775592803955 20.213695049285889 7.236779451370239 21.188020706176758 10.680776596069336 21.297846794128418 C 16.520044326782227 21.368488311767578 15.926686763763428 19.968647003173828 17.158038139343262 15.886214733123779 L 12.143239974975586 15.707578182220459 L 12.478953838348389 13.925934791564941 L 19.070981025695801 14.154381752014160 L 17.748053121324759 20.376047961541332 L 17.748053121324762 20.376047961541335 L 18.343381404876709 17.386957168579102 C 17.620289325714111 20.948698997497559 17.312377452850342 23.107297897338867 10.795060873031616 22.870415210723877 C 6.203736305236816 23.077883720397949 4.126757383346558 21.401726245880127 5.900177478790283 15.286408424377441 C 7.048866748809814 9.187867641448975 7.961771965026855 6.212515354156494 13.932725429534912 6.441781997680664 " fill="none" stroke="black" stroke-width="0.3">
</path>
</svg>
