<svg xmlns="http://www.w3.org/2000/svg" xmlns:xlink="http://www.w3.org/1999/xlink" width="50px" height="50px" viewBox="0 0 24 24">
<style type="text/css">
.path {
		stroke-dasharray: 100;
		animation: dash 30s linear infinite;
}
@keyframes dash {
	to {
		stroke-dashoffset: 1000;
	}
}
</style>
<path class="path" d="M 16.459673881530762 6.482769012451172 C 18.438182830810547 6.479068994522095 20.814063549041748 7.341188192367554 19.611748695373535 10.659441232681274 L 17.972461223602295 10.580333948135376 C 17.951970577239990 8.477622270584106 17.762652397155762 7.978982448577881 14.058521747589111 8.088599681854248 C 11.263761520385742 8.009828567504883 10.149125576019287 8.535902023315430 9.632914781570435 10.926037788391113 C 9.458287954330444 13.264524936676025 10.350534439086914 12.669167518615723 12.282689094543457 13.305524826049805 C 16.780601978302002 13.616436481475830 18.564301013946533 14.134503364562988 18.167560100555420 17.438827514648438 C 17.625223159790039 20.158624649047852 15.772430419921875 23.409710884094238 11.110393524169922 22.616510868072510 C 7.221158266067505 23.406130313873291 5.315465211868286 21.706676959991455 5.675399422645569 18.368692874908447 L 7.475597620010376 18.062112808227539 C 7.081064701080322 20.776871681213379 8.273518323898315 21.257944107055664 12.312984466552734 21.150233745574951 C 14.655766010284424 21.302897930145264 15.873580455780029 20.168469429016113 16.416159152984619 17.986617565155029 C 16.730046272277832 14.982308864593506 14.664808273315430 15.952959537506104 11.578648567199707 15.250741481781006 C 8.738655567169189 15.017219066619873 7.602007627487183 13.557415008544922 7.730721473693848 11.797249317169189 C 8.161014318466187 6.998862504959106 10.051089763641357 6.129647254943848 16.459673881530762 6.482769012451172 " fill="none" stroke="black" stroke-width="0.3">
</path>
</svg>
