<svg xmlns="http://www.w3.org/2000/svg" xmlns:xlink="http://www.w3.org/1999/xlink" width="50px" height="50px" viewBox="0 0 24 24">
<style type="text/css">
.path {
		stroke-dasharray: 100;
		animation: dash 30s linear infinite;
}
@keyframes dash {
	to {
		stroke-dashoffset: 1000;
	}
}
</style>
<path class="path" d="M 13.561620712280273 11.257299900054932 C 16.710170745849609 11.324290752410889 18.377150058746338 11.685629367828369 17.460358142852783 14.374211311340332 L 16.321137428283691 14.413013935089111 C 15.405302524566650 13.651903152465820 16.738616466522217 12.670712471008301 13.310126781463623 12.441846370697021 C 11.662254095077515 12.478270053863525 9.822687864303589 13.049942493438721 9.979109287261963 14.728883743286133 C 9.744544744491577 15.376839637756348 11.138121128082275 16.026141643524170 12.215080261230469 15.955731868743896 C 15.085922241210938 16.389959335327148 17.016331672668457 16.882056713104248 16.732960224151611 18.557466030120850 C 16.172398567199707 21.447093486785889 14.695155143737793 23.166913032531738 10.949679851531982 22.631212234497070 C 7.993156671524048 23.118840694427490 6.104876518249512 21.823279380798340 6.986677408218384 19.372502803802490 L 8.562813520431519 19.278353691101074 C 8.472963809967041 21.486476898193359 9.316934823989868 21.116437911987305 11.039900779724121 21.311702728271484 C 13.632174968719482 21.277439117431641 14.478615760803223 21.135375022888184 14.827534675598145 18.845269203186035 C 15.057914257049561 17.501010417938232 13.197797298431396 18.040194511413574 11.847347259521484 17.474882125854492 C 8.615911245346069 17.276493072509766 8.166717767715454 16.735033035278320 8.177832841873169 15.229561328887939 C 8.602928638458252 11.746684312820435 10.324647188186646 11.256483078002930 13.561620712280273 11.257299900054932 " fill="none" stroke="black" stroke-width="0.3">
</path>
</svg>
