<svg xmlns="http://www.w3.org/2000/svg" xmlns:xlink="http://www.w3.org/1999/xlink" width="50px" height="50px" viewBox="0 0 24 24">
<style type="text/css">
.path {
		stroke-dasharray: 100;
		animation: dash 30s linear infinite;
}
@keyframes dash {
	to {
		stroke-dashoffset: 1000;
	}
}
</style>
<path class="path" d="M 14.107521057128906 11.230882644653320 C 17.432772159576416 11.115274429321289 18.868306159973145 12.909882545471191 17.268610954284668 17.870036602020264 C 17.070842742919922 21.506556987762451 12.816952228546143 24.827499389648438 7.936543464660645 21.942501068115234 C 6.667798785028447 26.523281437646354 5.010203622192387 26.935812324552682 5.492590690489270 23.580628257936855 L 4.044351696968079 28.716496467590332 L 3.777571320533752 30.439072608947754 L 8.183096408843994 13.149377346038818 L 8.319780349731445 12.492060184478760 L 8.021567774134434 13.678711848292524 C 8.525013450487705 10.516712643518396 7.733421766554344 11.982896111400962 14.107521057128906 11.230882644653320 M 9.881637811660767 13.635468006134033 C 8.563809871673584 20.916811466217041 7.084242582321167 17.094706535339355 6.626214265823364 18.703303813934326 C 5.437883734703064 20.160708904266357 9.476788043975830 14.094489097595215 8.422592639923096 20.537630081176758 C 13.138406753540039 22.617316246032715 15.238492012023926 20.713916301727295 15.613512039184570 17.647848129272461 C 16.670056343078613 12.982066154479980 15.771467685699463 11.327765464782715 9.881637811660767 13.635468006134033 " fill="none" stroke="black" stroke-width="0.3">
</path>
</svg>
