<svg xmlns="http://www.w3.org/2000/svg" xmlns:xlink="http://www.w3.org/1999/xlink" width="50px" height="50px" style="-ms-transform: rotate(360deg); -webkit-transform: rotate(360deg); transform: rotate(360deg);" preserveAspectRatio="xMidYMid meet" viewBox="0 0 24 24"><path d="M 10.410355567932129 5.725794911384583 L 14.241292476654053 5.715374350547791 L 17.006133556365967 20.577019214630127 L 17.071974277496338 20.948651790618896 L 17.320193767547607 22.689096450805664 L 13.478158950805664 22.686776161193848 L 13.467412948608398 22.514007568359375 L 13.134530067443848 20.137475967407227 L 12.962492465972900 19.642763614654541 L 12.546343803405762 19.662517547607422 L 10.033128261566162 19.677466392517090 L 9.615627050399780 21.552911281585693 L 9.626646280288696 21.418704986572266 L 9.470612525939941 22.448816299438477 C 9.400147676467896 22.848461151123047 9.032137870788574 22.642078399658203 8.150809049606323 22.691714286804199 C 6.652154445648193 22.661549091339111 5.833723783493042 22.728883266448975 5.828095078468323 22.657546520233154 L 6.001706600189209 22.174705982208252 L 6.359311580657959 20.886929512023926 C 7.658365488052368 15.782843112945557 9.131999731063843 10.731181383132935 10.410355567932129 5.725794911384583 M 12.209166526794434 9.390717744827271 C 11.766122817993164 11.131236076354980 10.758326768875122 15.540086746215820 10.563870191574097 16.604740619659424 L 12.649380683898926 16.586701869964600 C 12.297132968902588 13.145788192749023 11.923194408416748 11.321564197540283 12.209166526794434 9.390717744827271 " stroke-width="1.0" fill="rgb(0, 0, 0)" opacity="1.0"></path></svg>
