<svg xmlns="http://www.w3.org/2000/svg" xmlns:xlink="http://www.w3.org/1999/xlink" width="50px" height="50px" style="-ms-transform: rotate(360deg); -webkit-transform: rotate(360deg); transform: rotate(360deg);" preserveAspectRatio="xMidYMid meet" viewBox="0 0 24 24"><path d="M 7.823650360107422 5.490396380424500 L 11.963285207748413 5.557492017745972 C 14.809644699096680 5.619177460670471 16.977061271667480 6.716503858566284 16.877307415008545 10.001406669616699 C 16.825778961181641 11.759239196777344 15.749444961547852 13.204593658447266 14.078225612640381 13.735874176025391 C 15.176054477691650 13.783208370208740 16.993337631225586 15.111361026763916 16.975244522094727 17.473503112792969 C 17.091609477996826 20.788611888885498 15.065762042999268 22.449571609497070 11.758156299591064 22.688870429992676 L 7.058392524719238 22.682817935943604 L 7.823650360107422 5.490396380424500 M 11.742646694183350 8.311487674713135 L 11.289409160614014 8.272552728652954 L 11.107546806335449 12.422005176544189 L 11.050422191619873 12.496828079223633 C 12.725840091705322 12.484535694122314 13.402496337890625 11.523230552673340 13.170413017272949 9.612236022949219 C 13.068373203277588 8.969761133193970 12.538687705993652 8.282712221145630 11.742646694183350 8.311487674713135 M 10.998804682862902 15.142647207163263 L 10.998804682862902 15.142647207163263 L 10.869895935058594 19.287179946899414 L 10.923372030258179 19.711639881134033 C 12.494686603546143 19.813948631286621 13.409304141998291 18.971510410308838 13.258333683013916 17.184355258941650 C 13.120546136207423 16.143768406025853 12.641643952686813 15.032404453214777 10.998804682862902 15.142647207163261 " stroke-width="1.0" fill="rgb(0, 0, 0)" opacity="1.0"></path></svg>
