<svg xmlns="http://www.w3.org/2000/svg" xmlns:xlink="http://www.w3.org/1999/xlink" width="50px" height="50px" style="-ms-transform: rotate(360deg); -webkit-transform: rotate(360deg); transform: rotate(360deg);" preserveAspectRatio="xMidYMid meet" viewBox="0 0 24 24"><path d="M 12.574308872222900 5.328395962715149 C 13.619164466857910 5.281629681587219 16.504601955413818 5.749645113945007 16.911469459533691 7.195354700088501 L 16.763202667236328 9.743230819702148 C 13.372670173645020 9.521788358688354 15.049017906188965 8.532197713851929 13.097276687622070 8.322284460067749 C 11.638622045516968 8.269176006317139 10.449809074401855 10.634935855865479 10.352788209915161 14.049904346466064 C 10.228550434112549 16.762011051177979 10.660074234008789 19.888568401336670 12.195121765136719 19.699923992156982 C 12.744270801544189 19.685435771942139 13.329860687255859 19.752762794494629 13.559422016143799 19.299110412597656 L 13.637041568756104 15.906280517578125 L 12.148528575897217 15.893046855926514 L 12.228309631347656 13.371837615966797 L 17.429451942443848 13.298347949981689 L 16.763279914855957 21.473045825958252 C 16.240847110748291 22.387059688568115 12.112861633300781 23.060641765594482 12.217276096343994 22.922904968261719 C 8.132494211196899 22.870717048645020 6.179404020309448 19.419394969940186 6.366983413696289 13.683201313018799 C 6.877775430679321 9.671389102935791 8.703729629516602 5.419670462608337 12.574308872222900 5.328395962715149 " stroke-width="1.0" fill="rgb(0, 0, 0)" opacity="1.0"></path></svg>
