<svg xmlns="http://www.w3.org/2000/svg" xmlns:xlink="http://www.w3.org/1999/xlink" width="50px" height="50px" style="-ms-transform: rotate(360deg); -webkit-transform: rotate(360deg); transform: rotate(360deg);" preserveAspectRatio="xMidYMid meet" viewBox="0 0 24 24"><path d="M 6.188178777694702 5.886757850646973 L 10.483054161071777 5.881978511810303 L 12.058517932891846 15.027256965637207 C 12.146857738494873 14.958475112915039 13.183403491973877 9.995484352111816 14.327197551727295 5.904908180236816 L 18.909912586212158 5.907086133956909 C 18.782808780670166 7.141855716705322 19.005566596984863 14.944102764129639 18.810317516326904 22.687748908996582 L 15.344468593597412 22.688055038452148 C 15.578271389007568 18.274063110351562 15.432457923889160 14.979881286621094 15.540414333343506 10.760379552841187 C 15.176995754241943 13.480763912200928 13.589374065399170 18.501902103424072 12.754029750823975 22.618236064910889 L 10.504011154174805 22.626657485961914 C 9.987284499932457 18.392608473470716 8.859356578688834 15.248618210019561 8.696816665291678 10.725678440796646 C 8.787498229755425 14.850398306697151 7.932530702666275 19.188657349426204 8.000459432601929 22.666475772857666 C 6.117611379272206 22.721981284346803 4.845607317163124 22.658377048057989 4.717325179942549 22.697092107696935 C 5.231404523542082 16.738803812057963 5.488666556696170 13.019844980361434 6.188178777694702 5.886757850646973 " stroke-width="1.0" fill="rgb(0, 0, 0)" opacity="1.0"></path></svg>
