<svg xmlns="http://www.w3.org/2000/svg" xmlns:xlink="http://www.w3.org/1999/xlink" width="50px" height="50px" style="-ms-transform: rotate(360deg); -webkit-transform: rotate(360deg); transform: rotate(360deg);" preserveAspectRatio="xMidYMid meet" viewBox="0 0 24 24"><path d="M 12.062211513519287 5.272243022918701 C 15.697932243347168 5.209011912345886 17.968518733978271 8.452573299407959 17.948548793792725 13.500690937042236 C 17.653209686279297 19.228912353515625 16.308520317077637 19.949895858764648 15.246432781219482 21.230762958526611 C 14.846900939941406 22.162808418273926 17.141488552093506 22.381143093109131 16.639463424682617 22.933829784393311 L 16.523061864193753 23.906581050682693 C 16.511553964972485 23.849003705535537 16.499849836487122 23.789627248033462 16.487957954406738 23.728395938873291 C 13.659095764160156 24.550927162170410 12.839850425720215 23.949261188507080 12.890025615692139 22.853558063507080 C 11.649157047271729 22.671792984008789 10.604719877243042 23.124801635742188 11.593223333358765 22.834708213806152 C 8.399049282073975 22.907730102539062 5.998103141784668 19.772210597991943 6.176499366760254 13.707708835601807 C 6.600804090499878 8.487565755844116 8.806707859039307 5.104348540306091 12.062211513519287 5.272243022918701 M 12.237972736358643 8.286942243576050 C 10.758889675140381 8.169843435287476 10.410085916519165 9.839656591415405 10.134616613388062 14.737183570861816 C 10.286550521850586 17.497618675231934 10.544308662414551 20.614681720733643 12.430868625640869 19.652099132537842 C 13.578678131103516 19.385260105133057 13.479075908660889 17.502117633819580 13.874766826629639 14.333255767822266 C 13.976716518402100 10.004585266113281 13.713134765625000 8.558177232742310 12.237972736358643 8.286942243576050 " stroke-width="1.0" fill="rgb(0, 0, 0)" opacity="1.0"></path></svg>
