<svg xmlns="http://www.w3.org/2000/svg" xmlns:xlink="http://www.w3.org/1999/xlink" width="50px" height="50px" style="-ms-transform: rotate(360deg); -webkit-transform: rotate(360deg); transform: rotate(360deg);" preserveAspectRatio="xMidYMid meet" viewBox="0 0 24 24"><path d="M 7.410380601882935 5.718967080116272 L 7.336813688278198 6.040408372879028 L 7.896972656250000 10.171883583068848 L 8.591619014739990 15.713168621063232 L 10.278190612792969 8.134805917739868 L 10.770910263061523 5.719814658164978 L 13.982235431671143 5.724896192550659 C 14.052114486694336 7.201247692108154 14.456155300140381 9.170466184616089 14.664742469787598 10.272549390792847 C 14.944906711578369 12.406085014343262 15.052847385406494 14.047864437103271 15.476534843444824 16.659978389739990 C 15.376635074615479 14.774768829345703 16.609318256378174 10.430385589599609 16.539376258850098 10.114738225936890 C 16.746806144714355 9.607710599899292 16.858493328094482 8.183193683624268 16.991655349731445 8.143672943115234 C 17.129871368408203 7.432961940765381 17.073746681213379 7.423321723937988 17.158146858215332 7.012185573577881 C 16.811831474304199 8.008838653564453 17.180685997009277 7.366172075271606 17.311683654785156 5.730788111686707 L 20.853557109832764 5.715249180793762 C 20.221117973327637 8.204576969146729 19.853297710418701 9.554773092269897 19.902002334594727 9.437530517578125 C 19.037672996520996 12.610764026641846 17.831624507904053 17.121558666229248 16.468012332916260 22.686165332794189 L 13.305027008056641 22.689680099487305 C 12.931002616882324 18.466442584991455 12.164216995239258 15.690688133239746 12.087936401367188 12.613828182220459 C 10.883756875991821 16.762935161590576 10.217857360839844 21.109228134155273 9.775184154510498 22.686089515686035 L 6.391620397567749 22.691685676574707 C 5.540869116783142 18.184394359588623 4.793095350265503 13.848458290100098 3.769246816635132 7.969923734664917 C 3.759045481681824 7.697446346282959 3.516052007675171 6.329343080520630 3.280189633369446 5.714388728141785 L 7.410380601882935 5.718967080116272 " stroke-width="1.0" fill="rgb(0, 0, 0)" opacity="1.0"></path></svg>
