<svg xmlns="http://www.w3.org/2000/svg" xmlns:xlink="http://www.w3.org/1999/xlink" width="50px" height="50px" style="-ms-transform: rotate(360deg); -webkit-transform: rotate(360deg); transform: rotate(360deg);" preserveAspectRatio="xMidYMid meet" viewBox="0 0 24 24"><path d="M 13.083621025085449 11.393672704696655 C 12.152845859527588 12.039103031158447 16.924238204956055 10.948173522949219 16.476967334747314 11.632857799530029 L 15.939857827376557 20.428585765266092 C 15.939857827376557 20.428585765266092 15.939857827376557 20.428585765266092 15.939857827376557 20.428585765266092 L 15.909828186035156 22.672051906585693 C 16.109344482421875 22.683943748474121 14.218631744384766 22.716959953308105 13.240845680236816 22.661700725555420 C 12.872507540385296 22.866352500917856 12.483814120044567 22.264965547804543 12.820154514851124 21.090803275893251 C 12.455730354738471 22.343210346324195 11.322481641763904 23.022779509640785 10.084093809127808 22.976501941680908 C 8.040904283523560 22.582466125488281 7.298839330673218 20.796249389648438 7.337084054946899 17.790902137756348 C 7.575334310531616 13.445048332214355 8.732216119766235 10.305916070938110 13.083621025085449 11.393672704696655 M 11.905010461807251 13.890891551971436 C 10.959795713424683 14.174049854278564 10.872786283493042 16.184682369232178 10.885476350784302 17.336932182312012 C 10.776162385940552 19.450500011444092 11.165263652801514 20.169236183166504 11.711819887161255 20.264000415802002 C 12.614338874816895 19.993825435638428 12.526007652282715 20.071972846984863 12.889514923095703 17.378475666046143 L 12.884569644927979 15.033286571502686 C 12.881187915802002 14.456043720245361 12.720601558685303 13.871227741241455 11.905010461807251 13.890891551971436 " stroke-width="1.0" fill="rgb(0, 0, 0)" opacity="1.0"></path></svg>
