<svg xmlns="http://www.w3.org/2000/svg" xmlns:xlink="http://www.w3.org/1999/xlink" width="50px" height="50px" style="-ms-transform: rotate(360deg); -webkit-transform: rotate(360deg); transform: rotate(360deg);" preserveAspectRatio="xMidYMid meet" viewBox="0 0 24 24"><path d="M 9.888257503509521 5.27234673500061 L 11.673168182373047 5.215806841850281 L 11.182652950286865 12.267750263214111 C 11.48713731765747 11.520089864730835 13.225988388061523 11.136894464492798 13.835111618041992 11.125310897827148 C 15.44419527053833 11.340283155441284 16.728396892547607 12.93932819366455 16.65846347808838 16.509346961975098 C 16.522709369659424 20.331181526184082 15.238029956817627 22.833313465118408 12.5484037399292 22.89840030670166 C 11.29955005645752 22.656057357788086 11.017767190933228 22.562077045440674 10.694896459579468 22.001976013183594 L 10.198449611663818 22.7202730178833 L 7.465249300003052 22.669578552246094 L 7.587148189544678 19.58622980117798 L 8.068453073501587 5.993455767631531 C 8.266095399856567 7.126640796661377 8.121214628219604 6.73421573638916 8.086468935012817 6.84138035774231 L 8.058003902435303 5.498852491378784 L 9.888257503509521 5.27234673500061 M 11.145348072052002 14.220989227294922 C 12.5741286277771 13.86752986907959 11.801271200180054 13.689106464385986 11.220861196517944 14.742846965789795 L 10.999191284179688 18.62748098373413 C 11.143401145935059 19.37829065322876 10.90918779373169 20.227721214294434 11.874342441558838 20.17294406890869 C 12.93272352218628 20.106694221496582 12.904420852661133 18.210562705993652 13.165022850036621 17.185442447662354 C 13.27818489074707 13.710435390472412 12.647496700286865 13.892467975616455 11.145348072052002 14.220989227294922 " stroke-width="1.0" fill="rgb(0, 0, 0)" opacity="1.0"></path></svg>
