<svg xmlns="http://www.w3.org/2000/svg" xmlns:xlink="http://www.w3.org/1999/xlink" width="50px" height="50px" style="-ms-transform: rotate(360deg); -webkit-transform: rotate(360deg); transform: rotate(360deg);" preserveAspectRatio="xMidYMid meet" viewBox="0 0 24 24"><path d="M 16.754437923431396 5.399393677711487 L 15.982398033142090 22.684926509857178 L 12.846957206726074 22.695661067962646 C 12.748550374754737 22.300725453342967 12.668979628677743 21.922806598402701 12.610000529054732 21.597386761714212 C 12.188232484477956 22.564570425275189 11.322627733528002 23.131383443562470 9.962195634841919 22.937576293945312 C 8.099598884582520 22.247334480285645 7.145555019378662 20.737312316894531 7.241784095764160 17.071447849273682 C 7.516722679138184 13.644886493682861 8.679126977920532 10.809149265289307 11.983755111694336 11.199763298034668 C 13.457367897033691 11.836135625839233 12.805302143096924 12.588659763336182 13.183480739593506 11.595982789993286 L 13.266899585723877 5.449618935585022 L 16.754437923431396 5.399393677711487 M 12.531462192535400 13.802384376525879 C 11.011492967605591 13.613121986389160 10.854179620742798 15.122398853302002 10.824342727661133 17.508120059967041 C 10.804639577865601 19.158811569213867 11.230315446853638 20.678681373596191 12.110936164855957 20.138807773590088 C 12.376223087310791 20.254195690155029 12.706695556640625 19.423041343688965 12.805556774139404 18.269494056701660 C 12.843080520629883 15.694331645965576 13.051254272460938 13.915673732757568 12.531462192535400 13.802384376525879 " stroke-width="1.0" fill="rgb(0, 0, 0)" opacity="1.0"></path></svg>
