<svg xmlns="http://www.w3.org/2000/svg" xmlns:xlink="http://www.w3.org/1999/xlink" width="50px" height="50px" style="-ms-transform: rotate(360deg); -webkit-transform: rotate(360deg); transform: rotate(360deg);" preserveAspectRatio="xMidYMid meet" viewBox="0 0 24 24"><path d="M 13.721137046813965 11.304996013641357 C 15.597128391265869 11.773962736129761 16.715397834777832 13.876287460327148 16.110211372375488 17.272496223449707 L 10.976912498474121 17.827760696411133 C 11.376952171325684 19.141662597656250 11.098723411560059 19.941719055175781 12.346326828002930 20.213154315948486 C 13.190445899963379 20.470504760742188 13.973719596862793 19.693645477294922 14.708028316497803 19.538573741912842 L 15.448529720306396 19.411288261413574 C 16.101545333862305 21.915234088897705 14.534229755401611 22.701902389526367 12.047927856445312 22.984522819519043 C 8.923079967498779 22.803324222564697 7.692116260528564 20.500635623931885 7.740587711334229 17.296653270721436 C 7.728255987167358 14.032196044921875 9.525399684906006 11.240406274795532 12.737544536590576 11.175740003585815 L 13.721137046813965 11.304996013641357 M 11.971571445465088 13.698343276977539 C 11.772505760192871 13.899104118347168 10.879485368728638 15.566209316253662 11.347153186798096 16.003937244415283 L 13.247962474822998 15.579684734344482 C 13.380249023437500 14.019930839538574 13.064366340637207 13.302665233612061 11.971571445465088 13.698343276977539 " stroke-width="1.0" fill="rgb(0, 0, 0)" opacity="1.0"></path></svg>
