<svg xmlns="http://www.w3.org/2000/svg" xmlns:xlink="http://www.w3.org/1999/xlink" width="50px" height="50px" style="-ms-transform: rotate(360deg); -webkit-transform: rotate(360deg); transform: rotate(360deg);" preserveAspectRatio="xMidYMid meet" viewBox="0 0 24 24"><path d="M 14.141591548919678 5.136824011802673 C 15.065095424652100 5.279015064239502 15.824429512023926 5.293977856636047 15.765037536621094 6.079113721847534 L 15.503468513488770 8.055066347122192 C 14.962842464447021 8.330730199813843 15.289256572723389 7.829546928405762 13.863969326019287 8.019352197647095 C 13.624073982238770 8.430115699768066 13.299938678741455 8.826718568801880 13.337727069854736 10.200792789459229 L 13.252904891967773 11.236905813217163 L 14.991512775421143 11.516848325729370 L 14.841454982757568 13.992077350616455 L 13.331421375274658 13.883497238159180 L 13.088436126708984 22.683058261871338 L 9.438604831695557 22.689225196838379 C 9.551789760589600 20.021690368652344 9.826297760009766 13.805415630340576 9.771780967712402 14.125777244567871 L 8.489386081695557 14.065898895263672 L 8.818282842636108 11.520092010498047 L 10.017330408096313 11.385691165924072 C 9.987994812360933 10.149659751027109 10.218823825834235 8.516314828230925 10.386504369121273 7.520338243647004 L 10.361269712448120 7.693210601806641 C 10.619463443756104 6.669194698333740 11.317261219024658 5.690492391586304 12.921064853668213 5.244600176811218 L 14.141591548919678 5.136824011802673 " stroke-width="1.0" fill="rgb(0, 0, 0)" opacity="1.0"></path></svg>
