<svg xmlns="http://www.w3.org/2000/svg" xmlns:xlink="http://www.w3.org/1999/xlink" width="50px" height="50px" style="-ms-transform: rotate(360deg); -webkit-transform: rotate(360deg); transform: rotate(360deg);" preserveAspectRatio="xMidYMid meet" viewBox="0 0 24 24"><path d="M 11.25873613357544 11.178015232086182 C 12.080158710479736 10.84941029548645 12.836234092712402 11.477680921554565 13.610026359558105 11.970010042190552 L 14.052113056182861 11.42203688621521 L 16.441882610321045 11.391623497009277 L 15.853340148925781 21.264299869537354 C 16.299094676971436 25.472691535949707 13.504064083099365 29.545360565185547 11.612353563308716 29.403353691101074 C 9.30931806564331 28.19977569580078 8.069046020507812 27.955530166625977 7.9490883350372314 25.462655067443848 L 9.654117822647095 24.880285263061523 C 9.85658311843872 25.881208419799805 10.24274468421936 26.35147476196289 8.418217420578003 24.30497646331787 C 10.2061185836792 23.962260246276855 11.945918083190918 24.51595115661621 12.522118091583252 23.233819484710693 L 12.552838325500488 22.38064956665039 C 11.791565179824829 22.298046112060547 11.503864288330078 22.780178546905518 10.691216468811035 22.721561908721924 C 8.445497274398804 23.13925266265869 7.563255786895752 20.96285104751587 7.658849716186523 18.593178749084473 C 7.268347263336182 13.83856201171875 8.676027774810791 11.321103572845459 11.25873613357544 11.178015232086182 M 12.611380577087402 13.743517398834229 C 11.424196243286133 13.394084930419922 11.025646448135376 14.161301136016846 10.993163824081421 17.084735870361328 C 10.853113889694214 18.845200538635254 11.238320589065552 19.398367881774902 11.491230010986328 19.66867733001709 C 12.037805557250977 19.219356536865234 12.465567111968994 19.25489616394043 12.961429595947266 17.539602756500244 C 13.233278274536133 15.1043701171875 12.668914318084717 13.259649753570557 12.871255874633789 14.0012526512146 C 12.76844072341919 13.817042827606201 11.746179342269897 13.150108337402344 12.611380577087402 13.743517398834229 " stroke-width="1.0" fill="rgb(0, 0, 0)" opacity="1.0"></path></svg>
