<svg xmlns="http://www.w3.org/2000/svg" xmlns:xlink="http://www.w3.org/1999/xlink" width="50px" height="50px" style="-ms-transform: rotate(360deg); -webkit-transform: rotate(360deg); transform: rotate(360deg);" preserveAspectRatio="xMidYMid meet" viewBox="0 0 24 24"><path d="M 11.558135032653809 5.847779273986816 C 12.892749309539795 5.608158588409424 13.847223758697510 6.375235319137573 13.953828334808350 7.721818685531616 C 13.846793174743652 8.973493337631226 12.801632881164551 10.028066396713257 11.968780517578125 9.793606996536255 C 11.080951452255249 9.796099662780762 9.906437158584595 8.710764884948730 10.029619932174683 7.762200593948364 C 9.865240573883057 6.943885087966919 10.849860191345215 5.796815872192383 11.558135032653809 5.847779273986816 M 10.043267726898193 11.527853250503540 L 13.654702663421631 11.283864498138428 L 13.105546474456787 23.462392330169678 C 13.146516323089600 25.933101654052734 10.418613195419312 28.080216407775879 8.330304622650146 28.479045867919922 C 7.625364303588867 28.448441505432129 6.835503816604614 28.418057441711426 6.822412490844727 28.032520294189453 C 6.811964750289917 27.724840164184570 7.174894094467163 27.254190444946289 7.510836124420166 26.269083023071289 C 7.884251117706299 26.074985504150391 8.054112911224365 24.608596801757812 8.248325586318970 24.587230682373047 C 8.514680385589600 24.557928085327148 8.723540067672729 24.787110328674316 8.993363857269287 24.963260650634766 C 9.304524421691895 24.931217193603516 9.622288942337036 22.735726833343506 9.590825557708740 22.894828319549561 C 9.550653219223022 22.336874485015869 9.932940959930420 15.277769565582275 10.043267726898193 11.527853250503540 " stroke-width="1.0" fill="rgb(0, 0, 0)" opacity="1.0"></path></svg>
