<svg xmlns="http://www.w3.org/2000/svg" xmlns:xlink="http://www.w3.org/1999/xlink" width="50px" height="50px" style="-ms-transform: rotate(360deg); -webkit-transform: rotate(360deg); transform: rotate(360deg);" preserveAspectRatio="xMidYMid meet" viewBox="0 0 24 24"><path d="M 11.088545322418213 11.118631124496460 C 11.932113647460938 10.944469213485718 13.117205142974854 11.468622922897339 13.749240875244141 12.522368431091309 C 14.715133666992188 11.599036216735840 15.524714469909668 11.024202346801758 16.667537212371826 11.052275419235229 C 18.308020591735840 11.053167343139648 19.176594257354736 12.155269145965576 19.239838600158691 14.057430267333984 C 19.256475448608398 14.733591556549072 19.147338867187500 15.831474781036377 18.806684017181396 22.688262462615967 L 15.255510807037354 22.688617229461670 L 15.685405254364014 15.665061950683594 C 15.585817337036133 14.687493324279785 15.575620651245117 14.018274307250977 15.251616954803467 14.005924701690674 C 14.176457405090332 13.889355182647705 13.964233875274658 14.368834018707275 13.865966320037842 15.619942188262939 L 13.661989688873291 22.688182353973389 L 10.123375654220581 22.685949325561523 L 10.514177083969116 16.124289035797119 C 10.488473653793335 14.756515502929688 10.465106248855591 14.213915348052979 9.921272993087769 14.042631626129150 C 9.466449022293091 14.093994140625000 8.598202943801880 14.017394542694092 8.659171342849731 15.612110137939453 L 8.227047443389893 22.690385341644287 L 4.813971161842346 22.687674522399902 C 5.007435679435730 18.900629997253418 5.238426446914673 15.776194095611572 5.322042346000671 11.455094575881958 L 8.512452363967896 11.420524120330811 L 8.459579229354858 12.537817955017090 C 9.869283199310303 11.338611602783203 10.595191240310669 11.106038331985474 11.088545322418213 11.118631124496460 " stroke-width="1.0" fill="rgb(0, 0, 0)" opacity="1.0"></path></svg>
