<svg xmlns="http://www.w3.org/2000/svg" xmlns:xlink="http://www.w3.org/1999/xlink" width="50px" height="50px" style="-ms-transform: rotate(360deg); -webkit-transform: rotate(360deg); transform: rotate(360deg);" preserveAspectRatio="xMidYMid meet" viewBox="0 0 24 24"><path d="M 13.833975791931152 11.061685323715210 C 15.789506435394287 11.502421617507935 16.830814361572266 13.260927200317383 16.603722095489502 17.167010307312012 C 16.387219905853271 21.026513099670410 14.605565071105957 23.322506904602051 12.092830181121826 22.747193813323975 C 13.020368099212646 22.597865581512451 10.911531686782837 22.866229534149170 10.892078161239624 21.887713909149170 L 10.438801288604736 27.869842529296875 L 11.115748643875122 27.710108757019043 L 11.027776479721069 29.858356475830078 L 6.256713151931763 29.850053787231445 L 6.405153751373291 27.688101768493652 L 7.209781408309937 27.687191963195801 L 7.719534873962402 15.843054771423340 L 7.701315164566040 14.035783767700195 L 7.701036214828491 11.451368093490601 L 10.908947467803955 11.454804182052612 L 10.732772827148438 13.086148738861084 C 10.906078577041626 11.542722702026367 12.844156265258789 10.964575052261353 13.833975791931152 11.061685323715210 M 12.528127670288086 14.030383586883545 C 11.036898851394653 13.755935668945312 11.119558811187744 14.540187835693359 11.032070875167847 17.215620517730713 L 11.143769095292868 19.894019892169190 C 11.143769095292866 19.894019892169187 11.143769095292866 19.894019892169187 11.143769095292866 19.894019892169187 C 11.898904464599523 20.243243608333636 12.666136326104308 20.279001217930315 13.007363319396973 18.320144176483154 C 13.406404495239258 16.451007843017578 13.074844837188721 14.136328697204590 12.528127670288086 14.030383586883545 " stroke-width="1.0" fill="rgb(0, 0, 0)" opacity="1.0"></path></svg>
