<svg xmlns="http://www.w3.org/2000/svg" xmlns:xlink="http://www.w3.org/1999/xlink" width="50px" height="50px" style="-ms-transform: rotate(360deg); -webkit-transform: rotate(360deg); transform: rotate(360deg);" preserveAspectRatio="xMidYMid meet" viewBox="0 0 24 24"><path d="M 11.038408756256104 11.255940198898315 C 12.028261184692383 10.905590772628784 12.757799148559570 11.450672149658203 13.555881500244141 12.037572383880615 L 13.990101814270020 11.421476125717163 L 16.449169635772705 11.434261322021484 L 15.591638088226318 28.780297279357910 L 12.183061122894287 28.766232490539551 L 12.571925640106201 21.620956420898438 C 12.035764217376709 22.837512016296387 11.008279323577881 22.668743133544922 10.803774118423462 22.887345314025879 C 8.544231891632080 23.088625431060791 7.155480623245239 20.941968441009521 7.363615751266479 17.163956165313721 C 7.510848999023438 14.175205707550049 8.638634204864502 11.461637735366821 11.038408756256104 11.255940198898315 M 12.568189144134521 13.729755878448486 C 11.069029569625854 13.460552215576172 10.934697389602661 14.941876888275146 10.795530796051025 18.164066791534424 C 10.790725334729615 19.283853242932508 11.166780263703558 19.867536470357884 11.380571575012105 20.101607980530115 C 12.305162086055773 20.398090730566874 12.725415257968013 19.795649771823811 12.843842983245850 18.048092365264893 C 12.936088085174561 16.794759750366211 13.144384860992432 13.855118751525879 12.568189144134521 13.729755878448486 " stroke-width="1.0" fill="rgb(0, 0, 0)" opacity="1.0"></path></svg>
