<svg xmlns="http://www.w3.org/2000/svg" xmlns:xlink="http://www.w3.org/1999/xlink" width="50px" height="50px" style="-ms-transform: rotate(360deg); -webkit-transform: rotate(360deg); transform: rotate(360deg);" preserveAspectRatio="xMidYMid meet" viewBox="0 0 24 24"><path d="M 13.300898551940918 11.190708160400391 C 14.680605411529541 11.663826227188110 15.444766044616699 11.439100742340088 15.319225788116455 12.389380931854248 L 14.906593322753906 14.249868392944336 C 14.213712215423584 14.354752063751221 13.522270202636719 13.611172199249268 13.098544120788574 13.518284797668457 C 12.395407676696777 13.358500957489014 12.177476406097412 13.720087051391602 11.885963916778564 14.312451839447021 C 11.814028501510620 14.949966430664062 12.496180057525635 15.155523777008057 13.265795230865479 15.749836921691895 C 14.266522407531738 16.686429977416992 15.619125366210938 17.399070739746094 15.500648975372314 19.357121944427490 C 15.424740314483643 21.634792327880859 13.652393817901611 22.949267864227295 11.301273822784424 22.967305183410645 C 10.302238225936890 22.928269386291504 8.394696950912476 22.461431980133057 8.479695081710815 21.913823604583740 L 8.741611003875732 20.255584716796875 C 8.933780908584595 19.251033782958984 10.548394203186035 20.391725063323975 10.841584682464600 20.337482929229736 C 12.019327640533447 20.454164028167725 12.409260749816895 19.968745708465576 12.233037471771240 19.430980682373047 C 12.084089756011963 18.734231472015381 11.492488861083984 18.628585338592529 10.893577337265015 18.162717819213867 C 9.640064477920532 17.521039009094238 8.438357591629028 16.082621097564697 8.879672527313232 14.290005683898926 C 9.181351661682129 12.102806568145752 10.952188968658447 11.180827617645264 13.300898551940918 11.190708160400391 " stroke-width="1.0" fill="rgb(0, 0, 0)" opacity="1.0"></path></svg>
