<svg xmlns="http://www.w3.org/2000/svg" xmlns:xlink="http://www.w3.org/1999/xlink" width="50px" height="50px" style="-ms-transform: rotate(360deg); -webkit-transform: rotate(360deg); transform: rotate(360deg);" preserveAspectRatio="xMidYMid meet" viewBox="0 0 24 24"><path d="M 7.935810327529907 11.233033418655396 L 10.843183284932421 11.321325798430454 L 10.843183284932415 11.321325798430452 C 10.827543219191636 11.351753443561162 10.948557010872051 11.478475652574389 11.036841630935669 11.893066406250000 C 11.324210643768311 13.618693828582764 11.230643749237061 13.783694744110107 12.037794113159180 17.820266246795654 L 13.167150020599365 12.738920688629150 C 13.537391510357553 11.912189600982265 13.534556594710986 11.491037329259703 13.569169841937278 11.350407436123787 L 13.451195240020752 11.399169445037842 L 13.538522243499756 11.341233015060425 L 16.777524948120117 11.342991828918457 L 16.649309635162354 11.715396881103516 C 16.530850410461426 11.981961965560913 16.385297298431396 12.512542247772217 16.117312431335449 13.488694667816162 L 13.185665130615234 22.690369606018066 L 10.104425668716431 22.686065196990967 C 9.021681547164917 18.693883895874023 8.622987985610962 16.265214443206787 7.847800970077515 12.953164100646973 C 7.592838764190674 12.009447097778320 7.417676210403442 11.665250301361084 7.570655107498169 11.257092475891113 L 7.935810327529907 11.233033418655396 " stroke-width="1.0" fill="rgb(0, 0, 0)" opacity="1.0"></path></svg>
