<svg xmlns="http://www.w3.org/2000/svg" xmlns:xlink="http://www.w3.org/1999/xlink" width="50px" height="50px" style="-ms-transform: rotate(360deg); -webkit-transform: rotate(360deg); transform: rotate(360deg);" preserveAspectRatio="xMidYMid meet" viewBox="0 0 24 24"><path d="M 7.231033086776733 11.335934400558472 L 10.752531051635742 11.348246097564697 L 11.334486007690430 14.092473506927490 L 12.072022797218656 17.526440515582046 C 12.072022797218658 17.526440515582046 12.072022797218658 17.526440515582046 12.072022797218658 17.526440515582046 C 12.072593362008723 17.525442872515320 12.073164334581710 17.524444887191979 12.073735713958740 17.523446559906006 L 13.173110961914062 12.893272876739502 L 13.651639938354492 11.325036048889160 L 16.832449436187744 11.251797437667847 L 15.208890438079834 16.244666576385498 C 14.382160663604736 18.756654739379883 13.080180644989014 22.459012985229492 12.873672008514404 23.215993881225586 C 12.687706947326660 23.709965229034424 11.703837633132935 25.390786170959473 11.900199651718140 26.104837417602539 C 11.389354705810547 26.198430061340332 11.685469865798950 26.560186386108398 12.061263084411621 26.127522468566895 L 12.231644153594971 27.883440971374512 L 8.653512239456177 28.558510780334473 C 8.352277278900146 28.562026977539062 9.301151275634766 26.222428321838379 8.023596525192261 23.970180988311768 C 9.048055171966553 24.528399467468262 9.525732994079590 23.739636898040771 9.950387477874756 23.006053447723389 C 10.338381528854370 21.563625812530518 9.429811477661133 20.304798603057861 9.628071784973145 20.246678352355957 C 9.284006595611572 19.490445613861084 8.441234350204468 15.618783473968506 8.292990446090698 15.120746612548828 C 8.146681308746338 14.676753044128418 7.763189077377319 13.243851184844971 7.804183959960938 13.291953563690186 L 7.231033086776733 11.335934400558472 " stroke-width="1.0" fill="rgb(0, 0, 0)" opacity="1.0"></path></svg>
