<svg xmlns="http://www.w3.org/2000/svg" xmlns:xlink="http://www.w3.org/1999/xlink" width="50px" height="50px" style="-ms-transform: rotate(360deg); -webkit-transform: rotate(360deg); transform: rotate(360deg);" preserveAspectRatio="xMidYMid meet" viewBox="0 0 24 24"><path d="m 17.988000869750977 6.634666442871094 c 2.8559999465942383 0.0 3.8878539727242725 0.9119621167443732 3.0959999561309814 3.9600000381469727 c -0.48008853133289564 1.8479770493898233 -1.0080000162124634 3.0239999294281006 -3.0 3.67199969291687 c 1.944000005722046 0.5759999752044678 2.093348697959975 1.7053598191609858 1.559999942779541 3.7920000553131104 c -0.7366177511285575 2.8818971137351093 -2.135999917984009 4.607999801635742 -5.375999927520752 4.607999801635742 l -8.15999984741211 0.0 l 3.1679999828338623 -12.288000106811523 l 0.984000027179718 -3.743999719619751 l 7.7279998660087585 2.384185791015625e-07 m -6.335999667644501 1.5839998722076416 l -1.4159998893737793 5.423999786376953 l 5.064000129699707 0.0 c 2.4000000953674316 0.0 3.30540073756476 -0.577659848730308 3.888000011444092 -2.880000114440918 c 0.49835901876499833 -1.9694360894797813 0.12000000476837158 -2.5439999103546143 -1.7999999523162842 -2.5439999103546143 l -5.736000299453735 2.384185791015625e-07 m -1.8239996433258057 7.031999826431274 l -1.5119998455047607 5.880000114440918 l 4.943999767303467 0.0 c 2.7360000610351562 0.0 3.765067682946253 -0.19275997831403657 4.48799991607666 -2.9760000705718994 c 0.43025537793503715 -1.6564540393960048 0.4560000002384186 -2.9040000438690186 -1.5839998722076416 -2.9040002822875977 l -0.5760000348091125 0.0 l -5.759999930858612 2.384185791015625e-07" fill="currentColor"/></svg>