<svg xmlns="http://www.w3.org/2000/svg" xmlns:xlink="http://www.w3.org/1999/xlink" width="50px" height="50px" style="-ms-transform: rotate(360deg); -webkit-transform: rotate(360deg); transform: rotate(360deg);" preserveAspectRatio="xMidYMid meet" viewBox="0 0 24 24"><path d="m 17.13599967956543 6.562666893005371 c 4.271999835968018 0.0 4.992000102996826 0.7200000286102295 4.104000091552734 5.111999988555908 l -1.7760000228881836 0.0 c 0.6000000238418579 -2.4240000247955322 0.671999990940094 -3.503999948501587 -1.9679999351501465 -3.503999948501587 c -1.1519999504089355 0.0 -2.2793586202371685 0.03203457486543293 -3.431999683380127 0.12000000476837158 c -2.422769734136833 0.18489709245482489 -3.0959999561309814 1.4639999866485596 -3.671999931335449 3.74399995803833 l -0.07199996709823608 0.2879999876022339 l -0.6480000615119934 2.568000078201294 l -0.2160000205039978 0.8399999737739563 c -0.3840000033378601 1.440000057220459 -0.8326263853816638 3.340571328441829 -0.5279999375343323 4.415999889373779 c 0.2731562291936713 0.9643286475853398 1.7999999523162842 1.031999945640564 2.927999973297119 1.031999945640564 c 1.0080000162124634 0.0 2.01555043524837 -0.004962483624449732 3.0480000972747803 -0.09600001573562622 c 1.4394065122852684 -0.12692145816194772 2.391069509135294 -0.5235368854348934 2.8320000171661377 -2.0399999618530273 c 0.17396271083390133 -0.5982984231038206 0.2879999876022339 -1.2000000476837158 0.4320000112056732 -1.7999999523162842 l 1.7760000228881836 0.0 c -0.11999999731779099 0.48000001907348633 -0.18855837390033514 0.9848735672181093 -0.31199997663497925 1.4639999866485596 c -0.6071048247257887 2.3564175646285626 -2.0130567553543344 3.806431107038854 -4.584000110626221 3.9839999675750732 c -0.8871828018777234 0.0612755776566292 -1.752000093460083 0.07199999690055847 -2.615999937057495 0.07199999690055847 l -2.2320001125335693 0.0 c -4.728000164031982 -0.335999995470047 -3.240000009536743 -4.440000057220459 -2.375999927520752 -8.112000465393066 l 0.6480000019073486 -2.496000051498413 c 0.7919999957084656 -3.0480003356933594 2.0938417119096897 -5.012438939858283 5.495999813079834 -5.423999786376953 c 1.0580593200269783 -0.12799398983471522 2.111999601125717 -0.16799961030483246 3.1679995954036713 -0.16799959540367126" fill="currentColor"/></svg>