<svg xmlns="http://www.w3.org/2000/svg" xmlns:xlink="http://www.w3.org/1999/xlink" width="50px" height="50px" style="-ms-transform: rotate(360deg); -webkit-transform: rotate(360deg); transform: rotate(360deg);" preserveAspectRatio="xMidYMid meet" viewBox="0 0 24 24"><path d="m 17.243999481201172 6.634666442871094 c 4.800000190734863 0.0 5.23199987411499 2.3519999980926514 4.079999923706055 6.863999366760254 l -0.40800005197525024 1.5360000133514404 c -1.031999945640564 3.983999729156494 -2.3519999980926514 7.631999969482422 -7.392000198364258 7.63200044631958 l -7.847999572753906 0.0 l 3.1679999828338623 -12.288000106811523 l 0.984000027179718 -3.743999719619751 l 7.415999889373779 0.0 m -6.072000026702881 1.6080000400543213 l -0.16799992322921753 0.5759999752044678 l -3.1440000534057617 12.28800106048584 l 5.23199987411499 0.0 c 1.1759999990463257 0.0 2.7479084302297503 0.012609753521836353 3.815999984741211 -1.0079998970031738 c 1.1166031112837118 -1.0669646308584961 1.656000018119812 -2.927999973297119 2.0399999618530273 -4.415999889373779 l 0.21599999070167542 -0.7919999957084656 c 0.335999995470047 -1.2719999551773071 0.6539023736558325 -2.5432195619801075 0.8159999847412109 -3.7920000553131104 c 0.3237975062003969 -2.4944970306808067 -1.1039999723434448 -2.8559999465942383 -3.191999912261963 -2.8559999465942383 l -5.615999907255173 -1.2516975402832031e-06" fill="currentColor"/></svg>