<svg xmlns="http://www.w3.org/2000/svg" xmlns:xlink="http://www.w3.org/1999/xlink" width="50px" height="50px" style="-ms-transform: rotate(360deg); -webkit-transform: rotate(360deg); transform: rotate(360deg);" preserveAspectRatio="xMidYMid meet" viewBox="0 0 24 24"><path d="m 15.336000442504883 6.514666557312012 c 1.2960000038146973 0.0 2.5922345799042787 0.013920126727167137 3.8399999141693115 0.04799997806549072 c 2.7126868544420857 0.07409082636620716 3.384000062942505 1.5360000133514404 2.7119998931884766 4.175999641418457 l -0.16799992322921753 0.6000000238418579 l -1.7760000228881836 0.0 c 0.5040000081062317 -1.9440001249313354 0.5988042017087452 -3.0480812056478293 -1.559999942779541 -3.1679999828338623 c -1.08073128214601 -0.06003322448334247 -2.2079999446868896 -0.07199998265367569 -3.312000036239624 -0.07199996709823608 c -3.3840000629425044 4.366979030880709e-08 -3.9600000381469727 0.6240000128746033 -5.015999794006348 4.415999889373779 l -0.5519999861717224 2.0880000591278076 l -0.5760000348091125 2.2799997329711914 c -0.47999998927116394 1.9199999570846558 -0.9384481654332486 3.831521876837538 1.2960000038146973 4.175999641418457 c 0.8151462456530121 0.1256685030217422 1.6799999475479126 0.11999998986721039 2.5199999809265137 0.12000000476837158 l 0.9359999895095825 0.0 c 3.0959999561309814 0.0 3.8399999141693115 -0.4559999704360962 4.631999969482422 -3.4799997806549072 l 0.36000001430511475 -1.4159998893737793 l -5.111999988555908 0.0 l 0.40799999237060547 -1.559999942779541 l 6.888000011444092 0.0 c -0.11999999731779099 0.5759999752044678 -0.2639999985694885 1.1519999504089355 -0.40800005197525024 1.7280001640319824 l -0.2879999876022339 1.1519999504089355 c -0.6480000019073486 2.447999954223633 -1.5612458599213213 4.739874631622246 -4.656000137329102 5.064000129699707 c -1.1044615648604268 0.11567450037348014 -2.2320001125335693 0.14399999380111694 -3.3359999656677246 0.14399999380111694 c -5.111999988555908 0.0 -6.371606296350556 -1.0590005803293074 -5.0879998207092285 -5.999999523162842 c 0.3805611294465693 -1.4648976722709373 0.795534171065519 -2.927077533067898 1.1759999990463257 -4.392000198364258 c 1.090132715651372 -4.1973812255727845 2.8320000171661377 -5.903999924659729 7.079999923706055 -5.903999924659729" fill="currentColor"/></svg>