<svg xmlns="http://www.w3.org/2000/svg" xmlns:xlink="http://www.w3.org/1999/xlink" width="50px" height="50px" style="-ms-transform: rotate(360deg); -webkit-transform: rotate(360deg); transform: rotate(360deg);" preserveAspectRatio="xMidYMid meet" viewBox="0 0 24 24"><path d="m 15.899999618530273 6.4666666984558105 c 4.343999862670898 0.0 6.470585447939245 0.38158836094780746 5.184000015258789 5.423999786376953 c -0.48354015346226215 1.8951002650423716 -0.9807244673236042 3.792915286507615 -1.5119998455047607 5.688000202178955 c -1.0972382644653278 3.9139018469184275 -2.7119998931884766 5.28000020980835 -6.76800012588501 5.28000020980835 c -0.47999998927116394 0.0 -0.984000027179718 -0.023999994633751243 -1.4159998893737793 -0.02399998903274536 c -3.6240000724792476 4.6766938623121215e-08 -5.373963081040639 -0.7160416587263789 -4.464000225067139 -4.751999855041504 c 0.23940782416897496 -1.061845507070782 0.527999997138977 -2.111999988555908 0.7919999957084656 -3.144000291824341 l 0.24000000953674316 -0.9359999299049377 c 1.128000020980835 -4.368000030517578 1.968000054359436 -7.5360002517700195 7.1519999504089355 -7.535999774932861 l 0.7920001149177551 -3.5762786865234375e-07 m -0.8880001902580261 1.5120004415512085 c -2.808000087738037 0.0 -3.671999931335449 0.4320000112056732 -4.631999969482422 3.935999870300293 l -0.8160000443458557 2.9519999027252197 l -0.6480000615119934 2.568000078201294 c -0.7200000286102295 3.0959997177124023 -0.38400000333786677 3.864000199735166 2.8559999465942383 3.864000082015991 c 3.624000072479246 -1.3500452311632214e-07 4.9940748355153275 -0.13657540787335343 6.0960001945495605 -4.056000232696533 c 0.49165589173939184 -1.7487648247272336 0.948461301066231 -3.5308856425212163 1.3919999599456787 -5.28000020980835 c 1.0058757461812933 -3.966716058012631 -0.19200000166893005 -3.9839999675750732 -3.6479997634887695 -3.9839999675750732 l -0.600000262260437 4.76837158203125e-07" fill="currentColor"/></svg>