<svg xmlns="http://www.w3.org/2000/svg" xmlns:xlink="http://www.w3.org/1999/xlink" width="50px" height="50px" style="-ms-transform: rotate(360deg); -webkit-transform: rotate(360deg); transform: rotate(360deg);" preserveAspectRatio="xMidYMid meet" viewBox="0 0 24 24"><path d="m 18.083999633789062 6.634666442871094 c 1.0800000429153442 0.0 2.299593418856901 0.02773971585201007 2.9519999027252197 0.7919999957084656 c 0.9059112654843455 1.06122795282321 0.6246629554117291 2.7121684142654647 0.24000000953674316 4.223999977111816 c -0.3114632788326727 1.2241366647255543 -0.7931679644012561 2.6865343922568456 -1.9679999351501465 3.624000072479248 c -1.5615548027596537 1.2460539650113276 -3.240000009536743 1.055999994277954 -4.8480000495910645 1.128000020980835 l -4.631999969482422 0.0 l -1.6319999694824219 6.263999938964844 l -1.751999855041504 0.0 l 3.1679999828338623 -12.288000106811523 l 0.984000027179718 -3.743999719619751 l 6.671999931335449 0.0 l 0.8159999251365662 -1.7881393432617188e-07 m -0.4559999704360962 1.5600001215934753 c -0.2639999985694885 0.0 -0.5519999861717224 0.024000000208616257 -0.8399999737739563 0.02399998903274536 l -4.8480000495910645 0.0 l -1.7279999256134033 6.624000072479248 l 4.271999835968018 0.0 c 2.8559999465942383 0.0 4.127180402526818 -0.192213029116445 4.920000076293945 -3.239999771118164 c 0.5993806066210912 -2.3041611184953026 0.624000072479248 -3.4080005288124084 -1.7759999632835388 -3.4080002903938293" fill="currentColor"/></svg>