<svg xmlns="http://www.w3.org/2000/svg" xmlns:xlink="http://www.w3.org/1999/xlink" width="50px" height="50px" style="-ms-transform: rotate(360deg); -webkit-transform: rotate(360deg); transform: rotate(360deg);" preserveAspectRatio="xMidYMid meet" viewBox="0 0 24 24"><path d="m 16.70400047302246 6.538666725158691 c 1.1519999504089355 0.0 2.448749946966359 0.02200632122835433 3.4079999923706055 0.3840000033378601 c 1.8974917777783862 0.7160594244445136 1.7999999523162842 3.119999647140503 1.2719999551773071 5.136000156402588 l -0.6480000615119934 2.568000078201294 l -0.5760000348091125 2.25600004196167 c -0.24000000953674316 0.984000027179718 -0.527999997138977 1.9919999837875366 -1.0799999237060547 2.927999973297119 l 1.1039999723434448 0.9120000004768372 l -1.055999994277954 1.2239999771118164 l -0.984000027179718 -0.8160000443458557 c -1.7519999742507935 1.5839998722076416 -3.8880000114440882 1.6560000788112603 -5.807999610900879 1.6560001373291016 c -4.271999835968016 1.350384970298947e-07 -7.017840111409875 -0.09807905208228007 -5.927999973297119 -5.23199987411499 c 0.214067962694022 -1.0084120896006665 0.4791471854918887 -2.016218567040802 0.7440000176429749 -3.0480000972747803 c 1.6267630408126241 -6.337346087432649 2.615999937057495 -7.9679999351501465 9.144000053405762 -7.9679999351501465 l 0.4079996347427368 -4.172325134277344e-07 m -1.511999487876892 1.5600003600120544 c -3.1679999828338623 0.0 -4.595119869540583 0.09934138025696981 -5.616000175476074 4.007999897003174 c -0.21331108150150876 0.8167070817015857 -0.4320000112056732 1.6319999694824219 -0.5999999642372131 2.4240000247955322 l -0.6480000615119934 2.5439999103546143 c -1.0080000162124634 3.983999729156494 0.14399999380109296 4.151999711943414 3.7679998874664307 4.151999473571777 c 0.4079999923706046 -2.6847111887178058e-08 0.8159999847412109 0.023999995656756923 1.2480000257492065 0.02399998903274536 c 1.1280000209808347 -1.18854115481973e-08 2.5439999103546143 -0.09600000083446503 3.5759999752044678 -1.055999994277954 l -4.176000118255615 -3.239999771118164 l 1.1519999504089355 -1.247999906539917 l 3.8399999141693115 3.0480000972747803 c 0.19200000166893005 -0.4320000112056732 0.31586493974145324 -0.8389449580875148 0.4320000112056732 -1.2719998359680176 c 0.3724238830646887 -1.3887276011196268 0.7496383996303955 -2.782553888430149 1.1039999723434448 -4.176000118255615 c 0.19510763132666847 -0.7672163524978731 0.41194134539195737 -1.535375018003454 0.527999997138977 -2.2799997329711914 c 0.42235490346731835 -2.709801422603847 -0.8159999847412109 -2.927999973297119 -2.7839999198913574 -2.927999973297119 l -1.8239994943141937 -5.960464477539063e-08" fill="currentColor"/></svg>