<svg xmlns="http://www.w3.org/2000/svg" xmlns:xlink="http://www.w3.org/1999/xlink" width="50px" height="50px" style="-ms-transform: rotate(360deg); -webkit-transform: rotate(360deg); transform: rotate(360deg);" preserveAspectRatio="xMidYMid meet" viewBox="0 0 24 24"><path d="m 17.784000396728516 6.634666442871094 c 3.3359999656677246 0.0 4.418402078865537 1.2006181668853593 3.5280001163482666 4.656000137329102 c -0.5505150337342151 2.1363831191979332 -0.984000027179718 3.7199997901916504 -3.9119997024536133 4.223999977111816 c 1.8240000009536743 0.14399999380111694 2.25600004196167 1.3200000524520874 1.7999999523162842 3.072000026702881 l -1.055999994277954 4.079999923706055 l -1.871999979019165 0.0 l 0.984000027179718 -3.67199969291687 c 0.527999997138977 -2.111999988555908 -0.23999999463558197 -2.7839999198913574 -2.328000068664551 -2.7839999198913574 l -5.447999954223633 0.0 l -1.679999828338623 6.455999851226807 l -1.7760000228881836 0.0 l 3.1679999828338623 -12.288000106811523 l 0.984000027179718 -3.743999719619751 l 7.6079994440078735 -4.76837158203125e-07 m -6.239999413490295 1.584000587463379 l -1.679999828338623 6.504000186920166 l 5.208000183105469 0.0 c 2.447999954223633 0.0 3.62075030991204 -0.5528306551863942 4.248000144958496 -2.999999761581421 c 0.5969085110535809 -2.328794661996669 0.6959999799728394 -3.503999948501587 -1.9199998378753662 -3.503999948501587 l -5.856000661849976 -4.76837158203125e-07" fill="currentColor"/></svg>