<svg xmlns="http://www.w3.org/2000/svg" xmlns:xlink="http://www.w3.org/1999/xlink" width="50px" height="50px" style="-ms-transform: rotate(360deg); -webkit-transform: rotate(360deg); transform: rotate(360deg);" preserveAspectRatio="xMidYMid meet" viewBox="0 0 24 24"><path d="m 16.163999557495117 6.538666725158691 c 3.359999895095825 0.0 5.736000061035156 0.1679999977350235 4.679999828338623 4.271999835968018 l -0.07199996709823608 0.23999999463558197 l -1.751999855041504 0.0 c 0.48000001907348633 -2.4000000953674316 0.14399999380111694 -2.9760000705718994 -2.3519999980926514 -2.9760000705718994 l -0.8640000224113464 0.0 c -0.9120000004768372 0.0 -2.570687162997265 0.0189446238258153 -3.431999683380127 0.47999998927116394 c -0.8426577991023404 0.4510696063466088 -1.2173584296925224 1.4656396024024332 -1.4159998893737793 2.25600004196167 c -0.44127706286748647 1.7557660618030135 -0.35916772081134596 2.6507517024885967 1.6560001373291016 2.7839999198913574 c 3.9618074847372746 0.26196516726965613 7.978316072076192 -0.6755471877882187 6.671999931335449 4.392000198364258 c -0.6306104369729129 2.4463054324281024 -1.4875784389845705 4.3724259740626685 -4.48799991607666 4.656000137329102 c -1.0318572025254984 0.0975223131319035 -2.063999891281128 0.11999998986721039 -3.072000026702881 0.12000000476837158 c -3.3359999656677246 0.0 -5.533452560558986 -0.2506580624563206 -4.631999969482422 -4.320000171661377 c 0.05803395951522154 -0.26197721051215483 0.14399999380111694 -0.5040000081062317 0.24000000953674316 -0.7679999470710754 l 1.7280001640319824 0.0 c -0.7440000176429749 2.9040000438690186 -0.4320000112056732 3.5280001163482666 2.5199999809265137 3.5280001163482666 l 1.5119999647140503 0.0 c 2.640000104904175 0.0 3.6060615542179946 -0.2864119917143668 4.320000171661377 -3.0239999294281006 c 0.5567295938484751 -2.1347720706657625 0.28751758087666524 -2.630027001775229 -1.7999999523162842 -2.7360000610351562 c -3.8889874648318252 -0.19742488027934693 -7.733717362027274 0.3407366511502161 -6.480000019073486 -4.535999774932861 c 0.9985759360711478 -3.8842819468183016 3.2639999389648438 -4.368000030517578 6.599999904632568 -4.368000030517578 l 0.43199920654296875 -2.5331974029541016e-07" fill="currentColor"/></svg>