<svg xmlns="http://www.w3.org/2000/svg" xmlns:xlink="http://www.w3.org/1999/xlink" width="50px" height="50px" style="-ms-transform: rotate(360deg); -webkit-transform: rotate(360deg); transform: rotate(360deg);" preserveAspectRatio="xMidYMid meet" viewBox="0 0 24 24"><path d="m 15.251999855041504 11.338666915893555 c 2.447999954223633 0.0 4.3703214877788366 0.4086355076335906 3.6720001697540283 3.4079999923706055 c -0.02774987927095141 0.11918868892110127 -0.07199999690055847 0.24000000953674316 -0.09600001573562622 0.36000001430511475 l -1.6559998989105225 0.0 c 0.5040000081062317 -2.0160000324249268 -0.11999998986719973 -2.4240001442330623 -2.063999891281128 -2.4240002632141113 c -2.9760000705718936 -1.828426510444076e-07 -3.552000045776367 0.6240000128746033 -4.368000030517578 3.81600022315979 l -0.31199997663497925 1.128000020980835 c -0.6480000019073486 2.5199999809265137 -0.8399999737739563 3.7920000553131104 2.063999891281128 3.7920000553131104 c 2.496000051498413 0.0 3.2880001068115234 -0.23999999463558197 3.9600000381469727 -2.808000087738037 l 1.6560001373291016 0.0 c -0.9120000004768372 3.4560000896453857 -2.400000333785986 4.175999879066357 -5.783999919891357 4.175999641418457 c -4.728000164031971 -3.3418646356676074e-07 -4.489415466069948 -1.8723641126800956 -3.4079999923706055 -6.072000026702881 c 0.9827137872465301 -3.8163316639150793 2.351999521255493 -5.375999569892883 6.335999488830566 -5.375999569892883" fill="currentColor"/></svg>