<svg xmlns="http://www.w3.org/2000/svg" xmlns:xlink="http://www.w3.org/1999/xlink" width="50px" height="50px" style="-ms-transform: rotate(360deg); -webkit-transform: rotate(360deg); transform: rotate(360deg);" preserveAspectRatio="xMidYMid meet" viewBox="0 0 24 24"><path d="m 20.81999969482422 6.658666610717773 l -3.167999744415283 12.28800106048584 l -0.984000027179718 3.7200000286102295 l -1.6559998989105225 0.0 l 0.47999998927116394 -1.440000057220459 c -1.2000000476837158 1.3200000524520874 -2.5920000076293945 1.6080000400543213 -4.080000400543213 1.6080000400543213 c -4.079999923706055 0.0 -3.8441663859908513 -2.3770723027301592 -2.927999973297119 -5.927999973297119 c 0.8361983256103683 -3.240983004125819 1.968000054359436 -5.567999839782715 5.664000034332275 -5.567999839782715 c 1.3919999599456787 0.0 3.119999885559082 0.07199999690055847 3.4079999923706055 1.5360000133514404 l 1.6080000400543213 -6.216000080108643 l 1.6559999883174896 -1.1920928955078125e-06 m -6.503999561071396 6.024001359939575 c -3.0 0.0 -3.4198165089078874 1.580884689557216 -4.104000091552734 4.199999809265137 c -0.24422295475647474 0.9349070185369197 -0.4845240220665197 1.943695486809517 -0.47999995946884155 2.8559999465942383 c 0.007260773512294483 1.4641786919925448 1.0080000162124598 1.728000105732912 2.3519997596740723 1.7280001640319824 c 3.0959999561309783 1.4031106578430948e-07 3.624000144688198 -1.511999946017088 4.320000171661377 -4.199999809265137 c 0.6960000521817927 -2.687999945063414 1.2000002264976501 -4.584000110626221 -2.0879998803138733 -4.584000110626221" fill="currentColor"/></svg>