<svg xmlns="http://www.w3.org/2000/svg" xmlns:xlink="http://www.w3.org/1999/xlink" width="50px" height="50px" style="-ms-transform: rotate(360deg); -webkit-transform: rotate(360deg); transform: rotate(360deg);" preserveAspectRatio="xMidYMid meet" viewBox="0 0 24 24"><path d="m 14.843999862670898 11.290666580200195 c 4.223999977111816 0.0 4.703999996185303 1.0800000429153442 3.6720001697540283 5.23199987411499 l -0.2160000205039978 0.8399999737739563 l -8.088000297546387 0.0 c -0.6480000019073486 2.496000051498413 -1.031999945640564 4.127999782562256 1.9920001029968262 4.127999782562256 l 0.4560000002384186 0.0 c 0.671999990940094 0.0 1.791991440095023 -0.012719158637839456 2.4719998836517334 -0.43199998140335083 c 0.5220367210693527 -0.3218783354790981 0.6959999799728394 -0.9359999299049377 0.8399999737739563 -1.440000057220459 l 0.09600001573562622 -0.36000001430511475 l 1.7280001640319824 0.0 c -0.8640000224113464 3.2880001068115234 -2.8559999465942383 3.552000045776367 -5.711999893188477 3.552000045776367 c -4.199999809265137 0.0 -4.656833025496683 -1.3922156217520936 -3.5999999046325684 -5.4720001220703125 c 1.0072062808382445 -3.888205708230157 1.9199996292591095 -6.0479995012283325 6.359999805688858 -6.0479995012283325 m -0.1919996440410614 1.2959996461868286 c -2.5920000076293945 0.0 -3.384000062942505 0.7680000066757202 -4.080000400543213 3.4800000190734863 l 6.360000133514404 0.0 c 0.7200000286102295 -2.7839999198913574 0.6480002403259277 -3.4800002574920654 -2.2799997329711914 -3.4800000190734863" fill="currentColor"/></svg>