<svg xmlns="http://www.w3.org/2000/svg" xmlns:xlink="http://www.w3.org/1999/xlink" width="50px" height="50px" style="-ms-transform: rotate(360deg); -webkit-transform: rotate(360deg); transform: rotate(360deg);" preserveAspectRatio="xMidYMid meet" viewBox="0 0 24 24"><path d="m 14.496000289916992 11.338666915893555 c 1.4880000352859497 0.0 2.7119998931884766 0.2639999985694885 3.2160000801086426 1.5840001106262207 l 0.335999995470047 -1.440000057220459 l 1.6080000400543213 0.0 l -3.119999885559082 11.904000282287598 c -0.8880000114440918 3.4800000190734863 -2.7119998931884766 4.271999835968018 -6.0 4.271999835968018 c -2.880000114440918 0.0 -4.271999835968018 -0.4320000112056732 -3.431999683380127 -3.67199969291687 l 1.559999942779541 0.0 c -0.4320000112056732 2.0399999618530273 0.14399999380111694 2.303999900817871 2.0399999618530273 2.303999900817871 c 2.2079999446868896 0.0 3.552000045776367 -0.23999999463558197 4.199999809265137 -2.7599997520446777 l 0.5759999752044678 -2.2320001125335693 c -1.0800000429153442 1.3919999599456787 -2.687999963760376 1.5360000133514404 -4.104000091552734 1.5360000133514404 c -3.624000072479248 0.0 -3.830734908679595 -2.0917747418433166 -3.0 -5.304000377655029 c 0.9197062905055653 -3.556253737398633 1.848000019788742 -6.192000150680542 6.11999985575676 -6.192000150680542 m -0.047999948263168335 1.3920001983642578 c -2.496000051498413 0.0 -3.2639999389648438 0.7440000176429749 -3.9600000381469727 3.4079999923706055 l -0.2160000205039978 0.9120000004768372 l -0.12000000476837158 0.40799999237060547 c -0.6480000019073486 2.5439999103546143 -0.9840000271797251 3.983999846228695 2.0399999618530273 3.9839999675750732 c 1.7519999742507921 6.782754439139099e-08 3.034660103068364 -0.5567810422449142 3.7200000286102295 -2.447999954223633 c 0.23542910165194617 -0.649674640102537 0.43272264225229473 -1.2958130848988763 0.6000000238418579 -1.944000005722046 c 0.6749164398299915 -2.6152490240425506 1.0799999833106995 -4.319999992847443 -2.0639999508857727 -4.319999992847443" fill="currentColor"/></svg>