<svg xmlns="http://www.w3.org/2000/svg" xmlns:xlink="http://www.w3.org/1999/xlink" width="50px" height="50px" style="-ms-transform: rotate(360deg); -webkit-transform: rotate(360deg); transform: rotate(360deg);" preserveAspectRatio="xMidYMid meet" viewBox="0 0 24 24"><path d="m 19.27199935913086 11.266666412353516 c 2.927999973297119 0.0 3.7679998874664307 1.1039999723434448 3.0239999294281006 4.007999897003174 l -1.9199998378753662 7.3919997215271 l -1.751999855041504 0.0 l 1.944000005722046 -7.535999774932861 c 0.5040000081062317 -1.9199999570846558 0.09600000083446503 -2.4719998836517334 -1.8480000495910645 -2.4719998836517334 c -1.031999945640564 0.0 -2.608363033190191 0.20454874465984219 -3.359999895095825 1.2960000038146973 c -0.39263682728242766 0.5701476088353026 -0.5759999752044678 1.2239999771118164 -0.7440000176429749 1.8480000495910645 l -0.07199996709823608 0.31200000643730164 l -1.7279999256134033 6.552000045776367 l -1.7039999961853027 0.0 l 1.9199998378753662 -7.392000198364258 c 0.4320000112056732 -2.063999891281128 0.23999999463558197 -2.5920000076293945 -1.944000005722046 -2.5920000076293945 c -2.496000051498413 0.0 -3.5999999046325684 1.2480000257492065 -4.199999809265137 3.552000045776367 l -1.6559998989105225 6.431999683380127 l -1.6079998016357422 0.0 l 2.9040000438690186 -11.207999229431152 l 1.6080000400543213 0.0 l -0.43199998140335083 1.6800000667572021 c 1.0800000429153442 -1.3919999599456787 2.6640000343322754 -1.8480000495910645 4.1519999504089355 -1.8480000495910645 c 1.4160000085830688 0.0 3.0 0.335999995470047 3.119999885559082 1.8480000495910645 c 1.1759999990463257 -1.4160000085830688 2.7359994053840637 -1.8720003068447113 4.295999348163605 -1.8720004260540009" fill="currentColor"/></svg>