<svg xmlns="http://www.w3.org/2000/svg" xmlns:xlink="http://www.w3.org/1999/xlink" width="50px" height="50px" style="-ms-transform: rotate(360deg); -webkit-transform: rotate(360deg); transform: rotate(360deg);" preserveAspectRatio="xMidYMid meet" viewBox="0 0 24 24"><path d="m 14.928000450134277 11.266666412353516 c 4.296000003814697 0.0 4.872277017146422 1.1822816143903445 3.7679998874664307 5.400000095367432 c -0.9628638119016166 3.677599023805285 -1.6560000181197942 6.192000152587887 -6.263999938964844 6.192000389099121 c -4.0079998970031685 2.0903348385559173e-07 -5.064000129699707 -0.8399999737739563 -3.983999729156494 -5.039999485015869 l 0.2879999876022339 -1.055999994277954 c 0.984000027179718 -3.81600022315979 2.087999939918518 -5.496001482009888 6.191999793052673 -5.4960010051727295 m -0.1439998745918274 1.3920016288757324 c -2.9040000438690186 0.0 -3.4079999923706055 0.5519999861717224 -4.223999977111816 3.7200000286102295 l -0.09600001573562622 0.36000001430511475 l -0.24000000953674316 0.9359999895095825 c -0.31200000643730164 1.1759999990463257 -0.626840486505233 2.7139759680148225 -0.19199997186660767 3.3360002040863037 c 0.2861368269276087 0.409308781472383 1.031999945640564 0.4560000002384186 1.7039999961853027 0.4560000002384186 l 0.7680000066757202 0.0 c 1.944000005722046 0.0 3.071053017129123 -0.2805419862970897 3.74399995803833 -2.4000000953674316 c 0.27339816620275437 -0.8610722854026067 0.5143517509770104 -1.7011910912159287 0.7440000176429749 -2.568000078201294 c 0.7289634064636055 -2.751477470653966 0.9359999895095825 -3.8399999141693115 -1.8480000495910645 -3.8399999141693115 l -0.35999995470046997 -1.4901161193847656e-07" fill="currentColor"/></svg>