<svg xmlns="http://www.w3.org/2000/svg" xmlns:xlink="http://www.w3.org/1999/xlink" width="50px" height="50px" style="-ms-transform: rotate(360deg); -webkit-transform: rotate(360deg); transform: rotate(360deg);" preserveAspectRatio="xMidYMid meet" viewBox="0 0 24 24"><path d="m 15.395999908447266 11.314666748046875 c 4.056000232696533 0.0 3.9959299624302407 2.1631055673038784 3.072000026702881 5.688000202178955 c -0.9003843364200899 3.435065575913425 -1.9199999570846558 5.831999778747559 -5.855999946594238 5.831999778747559 c -1.4160000085830688 0.0 -2.807999849319458 -0.2160000056028366 -3.312000036239624 -1.4879999160766602 l -1.5839998722076416 6.144000053405762 l -1.6559998989105225 0.0 l 3.1679999828338623 -12.263999938964844 l 0.984000027179718 -3.743999719619751 l 1.6560001373291016 0.0 l -0.45600003004074097 1.4159998893737793 c 1.2000000476837158 -1.2719999551773071 2.4959996938705444 -1.5840004682540894 3.9839996099472046 -1.5840003490447998 m -0.6719996333122253 1.392000436782837 c -2.9519999027252197 0.0 -3.4560000896453857 1.2000000476837158 -4.176000118255615 3.9839999675750732 l -0.2160000205039978 0.8399999737739563 c -0.6000000238418579 2.375999927520752 -0.720000028610237 3.911999819924164 2.063999891281128 3.9119997024536133 c 3.048000097274777 -1.3241724637330127e-07 3.503999710083008 -1.3919999599456787 4.176000118255615 -3.9839999675750732 l 0.1679999828338623 -0.671999990940094 c 0.6959999799728394 -2.640000104904175 1.0080001950263977 -4.079999685287476 -2.0159998536109924 -4.079999685287476" fill="currentColor"/></svg>