<svg xmlns="http://www.w3.org/2000/svg" xmlns:xlink="http://www.w3.org/1999/xlink" width="50px" height="50px" style="-ms-transform: rotate(360deg); -webkit-transform: rotate(360deg); transform: rotate(360deg);" preserveAspectRatio="xMidYMid meet" viewBox="0 0 24 24"><path d="m 14.375999450683594 11.362667083740234 c 1.4880000352859497 0.0 2.759999990463257 0.19200000166893005 3.312000036239624 1.4880001544952393 l 0.31200000643730164 -1.3680002689361572 l 1.6800000667572021 0.0 l -3.191999912261963 12.26400089263916 l -0.984000027179718 3.7200000286102295 l -1.679999828338623 0.0 l 1.5839999914169312 -6.072000026702881 c -1.0080000162124634 1.2719999551773071 -2.5920000076293945 1.4639999866485596 -3.888000011444092 1.4639999866485596 c -4.0320000648498535 0.0 -3.9577495099883873 -2.2314191090588125 -3.0480000972747803 -5.760000228881836 c 0.8661430299717133 -3.3594481072643734 1.9919999539852142 -5.7360005378723145 5.903999775648117 -5.7360005378723145 m -0.09599998593330383 1.3440004587173462 c -2.7839999198913574 0.0 -3.359999895095825 1.7039999961853027 -3.983999729156494 4.104000091552734 l -0.2160000205039978 0.8640000224113464 c -0.671999990940094 2.568000078201294 -0.6959999799728394 3.81600022315979 2.2079999446868896 3.81600022315979 c 2.9040000438690186 0.0 3.4800000190734863 -1.7280000448226929 4.104000091552734 -4.127999782562256 l 0.07199996709823608 -0.2160000205039978 c 0.7680000066757202 -3.0 1.1039997339248657 -4.440000534057617 -2.184000253677368 -4.440000534057617" fill="currentColor"/></svg>