<svg xmlns="http://www.w3.org/2000/svg" xmlns:xlink="http://www.w3.org/1999/xlink" width="50px" height="50px" style="-ms-transform: rotate(360deg); -webkit-transform: rotate(360deg); transform: rotate(360deg);" preserveAspectRatio="xMidYMid meet" viewBox="0 0 24 24"><path d="m 14.748000144958496 11.266666412353516 c 2.0160000324249268 0.0 4.839783290021174 0.048493179734968805 4.056000232696533 2.687999963760376 c -0.04320807408229781 0.1455096580604693 -0.09600000083446503 0.2879999876022339 -0.12000000476837158 0.40799999237060547 l -1.7039999961853027 0.0 c 0.2879999876022339 -1.2000000476837158 0.14463324798187926 -1.6679750688713497 -1.1039998531341553 -1.7279999256134033 c -0.6237410760260009 -0.029984763898322848 -1.2480000257492065 -0.023999995559453424 -1.871999979019165 -0.02399998903274536 c -0.671999990940094 5.006790093631253e-09 -1.5161606098427427 0.017154714915077918 -2.111999988555908 0.3840000033378601 c -0.45926717825556795 0.2827607682361416 -0.6009688358899687 0.8397460476880472 -0.7200000882148743 1.2960000038146973 c -0.362955983305374 1.3912321348255594 -0.16798382131699796 1.7516877902125785 1.2239999771118164 1.8240001201629639 c 2.760032203860331 0.14338123735615563 6.254079874541668 -0.4105961240676308 5.303999900817871 3.240000009536743 c -0.8488695429650974 3.261704232473045 -2.8559999465942383 3.4800000190734863 -5.639999866485596 3.4800000190734863 c -2.375999927520752 0.0 -4.794962988478989 -0.1307081093837965 -4.080000400543213 -3.0959999561309814 c 0.05186402087439345 -0.21510490315638708 0.12000000476837158 -0.40799999237060547 0.19200000166893005 -0.6240000128746033 l 1.6800000667572021 0.0 c -0.527999997138977 2.0399999618530273 0.07199999690055847 2.4240000247955322 2.0160000324249268 2.4240000247955322 l 0.40799999237060547 0.0 c 0.7919999957084656 0.0 2.0133472339450336 -0.028452420443468185 2.7360000610351562 -0.45600003004074097 c 0.5739150468942725 -0.33954894689832876 0.7933084486224828 -1.079660362624427 0.9359999895095825 -1.6319999694824219 c 0.5328894794878212 -2.0627429192312032 -1.00816299084868 -1.7003962761159421 -2.640000104904175 -1.7760000228881836 c -2.472258848653447 -0.11454086338589102 -4.663094503481055 -0.01962283784505381 -3.888000011444092 -3.0480000972747803 c 0.22082319719105373 -0.8627799005131921 0.5570657550215508 -2.00771590841779 1.4639999866485596 -2.568000078201294 c 1.1102937441714098 -0.6859152372635788 2.736000031232834 -0.7920000553131104 3.864000052213669 -0.7920000553131104" fill="currentColor"/></svg>