<svg xmlns="http://www.w3.org/2000/svg" xmlns:xlink="http://www.w3.org/1999/xlink" width="50px" height="50px" viewBox="0 0 24 24">
<style type="text/css">
.path {
		stroke-dasharray: 100;
		animation: dash 30s linear infinite;
}
@keyframes dash {
	to {
		stroke-dashoffset: 1000;
	}
}
</style>
<path class="path" d="m 14.663999557495117 11.434667587280273 c 3.0959999561309814 0.0 4.752000331878662 0.4320000112056732 3.864000082015991 3.935999870300293 l -1.9199998378753662 7.296000003814697 l -1.559999942779541 0.0 l 0.36000001430511475 -1.1519999504089355 c -1.2719999551773071 1.2239999771118164 -2.640000104904175 1.343999981880188 -4.104000091552734 1.343999981880188 c -2.7599997520446777 0.0 -4.296362781938614 -0.48009354089149525 -3.503999710083008 -3.551999807357788 c 0.7676485546336472 -2.9760907457378933 2.7360000610351474 -3.3840001816889576 5.25600004196167 -3.384000301361084 c 0.9120000004768362 -4.2974907484437174e-08 1.9052353467288103 0.049504178059340376 2.687999963760376 0.3840000033378601 c 0.31598599135025796 0.13502909131736274 0.47999998927116394 0.4320000112056732 0.5759999752044678 0.7680000066757202 l 0.36000001430511475 -1.3440001010894775 c 0.6959999799728394 -2.7360000610351562 0.335999995470047 -3.072000026702881 -2.4240000247955322 -3.072000026702881 c -0.6240000128746033 0.0 -1.6482314681768244 0.03613575542778413 -2.2799999713897705 0.4320000112056732 c -0.47434439233316095 0.297222778436123 -0.6874713544018984 0.8178791131037855 -0.7919999957084656 1.2719999551773071 c -0.022196736098120094 0.09643290453378078 -0.07199999690055847 0.2160000056028366 -0.07199996709823608 0.335999995470047 l -1.7279999256134033 0.0 c 0.7919999957084656 -3.0959997177124023 2.735998749732971 -3.2639994025230408 5.279999375343323 -3.26399964094162 m -1.7759987115859985 5.7839996218681335 c -0.7680000066757202 0.0 -1.841335658056837 0.03333369382785634 -2.5439999103546143 0.527999997138977 c -0.4517954394377535 0.318057990211787 -0.6488322881398769 0.9117818492250356 -0.7679999470710754 1.3680000305175781 c -0.5075464849559457 1.943076975454538 0.12000000476837158 2.4000000953674316 1.9680001735687256 2.4000000953674316 c 1.5839999914169312 0.0 3.719465144230144 -0.00013987164254558593 4.271999835968018 -2.111999988555908 c 0.5274893918408736 -2.0161336932880745 -0.8159999847412109 -2.184000015258789 -2.5199999809265137 -2.184000015258789 l -0.4080001711845398 -1.1920928955078125e-07" fill="none" stroke="black" stroke-width="0.3">
</path>
</svg>
