<svg xmlns="http://www.w3.org/2000/svg" xmlns:xlink="http://www.w3.org/1999/xlink" width="50px" height="50px" style="-ms-transform: rotate(360deg); -webkit-transform: rotate(360deg); transform: rotate(360deg);" preserveAspectRatio="xMidYMid meet" viewBox="0 0 24 24"><path d="m 12.12890625 6.3190107345581055 c 1.2734375 0.0 2.298828122060513 0.19726561589050107 3.076171875 0.591796875 c 0.7773437470605131 0.39453125579166226 1.3518179632893865 1.0105292655144398 1.728515625 1.845703125 c 0.3033217732313561 0.672492669227729 0.45703125 1.90234375 0.45703125 3.691406011581421 l -4.04296875 0.0 c 0.0 -0.7578125 -0.013257676388382933 -1.3673541057809295 -0.046875 -1.828125 c -0.07298718629080402 -1.0003881178134573 -0.46875 -1.5 -1.171875 -1.5 c -0.6953125 0.0 -1.0901414648949785 0.48434623505485064 -1.18359375 1.453125 c -0.07837468896145512 0.8124759527242608 -0.1171875 1.98828125 -0.1171875 3.52734375 c 0.0 1.84375 0.031096025645245717 3.2187603936423415 0.09375 4.125 c 0.0545534345826334 0.7890717802188457 0.17620833708712702 1.3121899205954115 0.36328125 1.5703125 c 0.20359037069885982 0.28091331240028633 0.4921875 0.421875 0.8671875 0.421875 c 0.5625 0.0 0.9279624054206153 -0.2845333055183943 1.08984375 -0.8554688096046448 c 0.15046706016845854 -0.5306787330490186 0.22265625 -1.5781248807907104 0.22265625 -3.140625 l 4.0546875 0.0 c 0.0 1.3203125 -0.05480687627934344 2.3248749830587627 -0.17578125 3.01171875 c -0.10605826444096014 0.6021561064832119 -0.3261718963607052 1.1640624867691152 -0.6503906846046448 1.6875 c -0.3242187713607045 0.5234374867691153 -0.7264988188726456 0.9425191290393862 -1.201171875 1.265625 c -0.8079313523618178 0.5499519298841529 -1.984375 0.83203125 -3.5390625 0.83203125 c -1.578125 0.0 -2.7893965102696825 -0.34725113241117 -3.6328125 -1.04296875 c -0.8519000666100656 -0.7027159693226104 -1.3755813653210716 -1.6600626245745822 -1.5703125 -2.87109375 c -0.16455380953666449 -1.0233586194875535 -0.2460937350988388 -2.53125 -0.24609375 -4.5234375 c 0.0 -2.015625 0.09818591152745082 -3.543634296059345 0.3046875 -4.58203125 c 0.2767280355187244 -1.3915319067426903 1.0216758508032644 -2.4057044342359095 2.2265625 -3.03515625 c 0.8269224100468473 -0.43199732758845133 1.8593750596046448 -0.6445308923721313 3.0937500596046448 -0.6445309519767761" fill="currentColor"/></svg>