<svg xmlns="http://www.w3.org/2000/svg" xmlns:xlink="http://www.w3.org/1999/xlink" width="50px" height="50px" style="-ms-transform: rotate(360deg); -webkit-transform: rotate(360deg); transform: rotate(360deg);" preserveAspectRatio="xMidYMid meet" viewBox="0 0 24 24"><path d="m 6.5625 6.670572757720947 l 5.3203125 0.0 c 1.1953125 0.0 2.1328125 0.1132812425494194 2.8125 0.33984375 c 0.890625 0.296875 1.6048785667005383 0.8925786867622891 2.1328125 1.79296875 c 0.3930994860394122 0.6704302352411845 0.6412495855803044 1.6409331498769681 0.76171875 2.90625 c 0.06844837853091 0.7189299198341513 0.10546875 1.5625 0.10546875 2.53125 c 0.0 2.0546875 -0.10954260160326257 3.6601243157581163 -0.328125 4.81640625 c -0.13291441708015617 0.7031057413458465 -0.40039064383825007 1.3242187359395636 -0.8027344346046448 1.86328125 c -0.4023437688382507 0.5390624859395661 -0.8967182960260924 0.9448117991413838 -1.482421875 1.21875 c -0.7503002064979573 0.3509213466510307 -1.71875 0.52734375 -2.90625 0.52734375 l -5.61328125 0.0 l 5.960464477539063e-08 -15.99609375 m 4.218749940395355 2.9765634536743164 l 0.0 10.04296875 l 0.421875 0.0 c 0.4453125 0.0 0.7731102790225748 -0.028621801090368493 0.984375 -0.08203125 c 0.5382485530302098 -0.13607363529863326 0.8645025525769201 -0.5785450708978193 0.984375 -1.3359375 c 0.12990448292653567 -0.820778035237353 0.19921875 -2.140625 0.19921875 -3.960937261581421 c 0.0 -1.6406251192092896 -0.0686750581136959 -2.7894155181853666 -0.2109375 -3.4453125 c -0.13902567928461065 -0.6409739789956005 -0.4768554148261117 -1.0182113042637448 -1.0078125 -1.13671875 c -0.2423226660764445 -0.0540854261155809 -0.58203125 -0.08203125 -1.01953125 -0.08203125 l -0.3515625 -2.384185791015625e-07" fill="currentColor"/></svg>