<svg xmlns="http://www.w3.org/2000/svg" xmlns:xlink="http://www.w3.org/1999/xlink" width="50px" height="50px" style="-ms-transform: rotate(360deg); -webkit-transform: rotate(360deg); transform: rotate(360deg);" preserveAspectRatio="xMidYMid meet" viewBox="0 0 24 24"><path d="m 12.0703125 6.3190107345581055 c 1.2265625 0.0 2.224609375 0.189453125 2.994140625 0.568359375 c 0.76953125 0.37890625 1.3539594233942207 0.9646791259672831 1.740234375 1.763671875 c 0.32397053354449196 0.6701188004198563 0.484375 1.6796873807907104 0.4921875 3.0234375 l -3.99609375 0.0 c -0.007812500931322575 -0.7421875 -0.05613594894049001 -1.2691365336543434 -0.140625 -1.58203125 c -0.17487676688623618 -0.6476344056909477 -0.5429687499999982 -0.9726562797441147 -1.11328125 -0.9726563096046448 c -0.6406249999999991 -3.341119736433027e-08 -1.0247038439365461 0.36697307523118994 -1.1484375 1.1015625 c -0.11050629790653449 0.6560604478613173 -0.1640625 1.8671876192092896 -0.1640625 3.6328125 c 0.0 2.515625 0.050203387696535984 4.1485159789094475 0.15234375 4.8984375 c 0.07768553775584874 0.5703725278314469 0.22080567241217608 0.9470159795184365 0.421875 1.13671875 c 0.2210360647380444 0.20854077725422587 0.49609375 0.31640625 0.83203125 0.31640625 c 0.609375 0.0 0.9979333615484816 -0.3091730013825291 1.171875 -0.9257813096046448 c 0.1235336561469951 -0.4379162999923113 0.19140625 -1.2734375 0.19921875 -2.5078125 l -1.46484375 0.0 l 0.0 -2.765625 l 5.40234375 0.0 l 0.0 8.66015625 l -2.8828125 0.0 l -0.046875 -0.4570313096046448 l -0.03515625 -0.234375 c -0.03125 -0.359375 -0.0468750037252903 -0.59765625 -0.046875 -0.7148438096046448 c -0.1796875 0.453125 -0.49354891512117227 0.830051009860238 -0.9374999403953552 1.13671875 c -0.5955881974571122 0.4114140438245125 -1.390625 0.62109375 -2.390625 0.62109375 c -1.8515625 0.0 -3.1242339620642365 -0.6232780138319391 -3.80859375 -1.875 c -0.39242814532941606 -0.7177670958453827 -0.6426693232972838 -1.6720600918867525 -0.7617188096046448 -2.859375 c -0.08461438655802558 -0.843883713549242 -0.12890625 -1.9140626192092896 -0.12890625 -3.210937738418579 c 0.0 -2.5078125 0.13761496311494614 -4.320093528072466 0.41015625 -5.4375 c 0.2743398037929889 -1.1247803067537565 0.9188909071814892 -1.9828004291549473 1.93359375 -2.578124761581421 c 0.8366999018409516 -0.49089032718300923 1.94140625 -0.7382809519767761 3.31640625 -0.7382810115814209" fill="currentColor"/></svg>