<svg xmlns="http://www.w3.org/2000/svg" xmlns:xlink="http://www.w3.org/1999/xlink" width="50px" height="50px" style="-ms-transform: rotate(360deg); -webkit-transform: rotate(360deg); transform: rotate(360deg);" preserveAspectRatio="xMidYMid meet" viewBox="0 0 24 24"><path d="m 12.4921875 6.670572757720947 l 4.21875 0.0 l 0.0 10.93359375 c 0.0 1.5937501192092896 -0.21731386230075245 2.7430831339980735 -0.6562500596046448 3.4453125 c -0.4205009363851137 0.6727358276093541 -0.9676465476492115 1.1664459601371 -1.640625 1.4765625 c -0.7175824281603356 0.33067058671813665 -1.68359375 0.4921874858245694 -2.894531488418579 0.4921875 c -2.2656249999999996 2.923740154495147e-08 -3.7504297604737094 -0.7088253233712294 -4.44140625 -2.1328125 c -0.30661441156235814 -0.6318811086231086 -0.45703125 -1.75 -0.4570313096046448 -3.3515625 l 3.8203125 0.0 c 0.0 0.8828125 0.02929812043942448 1.4605538793587165 0.08203125 1.734375 c 0.12170425434843705 0.6319593695689549 0.42578125 0.94921875 0.92578125 0.94921875 c 0.59375 0.0 0.9328318330190939 -0.38249817092158267 1.0078125 -1.1484375 c 0.024463808368864078 -0.2499016576302396 0.03515625 -0.7851563096046448 0.03515625 -1.60546875 l 3.5762786865234375e-07 -10.79296875" fill="currentColor"/></svg>