<svg xmlns="http://www.w3.org/2000/svg" xmlns:xlink="http://www.w3.org/1999/xlink" width="50px" height="50px" style="-ms-transform: rotate(360deg); -webkit-transform: rotate(360deg); transform: rotate(360deg);" preserveAspectRatio="xMidYMid meet" viewBox="0 0 24 24"><path d="m 4.2890625 6.670572757720947 l 6.0 0.0 l 0.76171875 3.76171875 c 0.0078125 0.0468749962747097 0.03170945044544915 0.1843343101428605 0.08203125 0.41015625 c 0.31447079208423995 1.4112055794008755 0.5956143928593942 3.1724300982269167 0.796875 5.296875 c 0.030353172503699906 0.32039872826715565 0.046875 0.59765625 0.046875 0.83203125 l 0.10546875 0.0 c 0.015625 -0.46875 0.0826166108218338 -1.1600813942368866 0.19921875 -2.07421875 c 0.19629802703473798 -1.5389371124723612 0.421875 -2.9375 0.6796875 -4.1953125 l 0.75 -4.03125 l 6.0 0.0 l 0.0 15.99609375 l -3.9375 0.0 l 0.0703125 -6.3515625 c 0.03125 -2.4921875 0.1171875 -4.41015625 0.2578125 -5.75390625 l -0.1640625 0.0 c -0.09375 0.9218749403953552 -0.37890625 2.44921875 -0.8554688096046448 4.58203125 l -1.59375 7.5234375 l -3.03515625 0.0 l -1.546875 -6.99609375 c -0.5234375 -2.515625 -0.8515625 -4.21875 -0.9843750596046448 -5.109375 l -0.15234375 0.0 l 0.0234375 0.3515625 c 0.15625 1.9609375 0.25 3.66796875 0.28125 5.12109375 l 0.10546875 6.6328125 l -3.890625 0.0 l 1.1920928955078125e-07 -15.99609375" fill="currentColor"/></svg>