<svg xmlns="http://www.w3.org/2000/svg" xmlns:xlink="http://www.w3.org/1999/xlink" width="50px" height="50px" style="-ms-transform: rotate(360deg); -webkit-transform: rotate(360deg); transform: rotate(360deg);" preserveAspectRatio="xMidYMid meet" viewBox="0 0 24 24"><path d="m 12.052734375 6.3190107345581055 c 2.421875 0.0 4.0345061986702415 0.7795936095450955 4.828125 2.34375 c 0.415770168845821 0.819448286092765 0.6743776783050386 1.9175468977421435 0.76171875 3.292968988418579 c 0.05058816590966783 0.7966478950702724 0.0703125 1.76171875 0.0703125 2.89453125 c 0.0 2.4609375 -0.19884213273952867 4.255462069415874 -0.6093750596046448 5.37890625 c -0.6804115108694135 1.8619806165751034 -2.38671875 2.7890625 -5.09765625 2.7890625 c -1.359375 0.0 -2.464843737197885 -0.23828127287590561 -3.31640625 -0.7148438096046448 c -0.8515624871978866 -0.4765625228759068 -1.4536393374171332 -1.1990322497826504 -1.8046875 -2.16796875 c -0.399022209136963 -1.1013508231618265 -0.597656339358239 -2.9609374999999964 -0.5976564288139343 -5.578125 c -5.414842527834417e-08 -1.5859374999999991 0.06702517288356091 -2.871010442609517 0.19921875 -3.855468511581421 c 0.2276283330153613 -1.6951697204324845 0.9146847278214718 -2.8935159525669434 2.0625 -3.597656011581421 c 0.85202504695573 -0.52268425188883 2.019531488418579 -0.7851569056510925 3.503906488418579 -0.7851569056510925 m -0.0937502384185791 2.8007818460464478 c -0.6171875 0.0 -0.9982853127051956 0.34022047619450646 -1.1484375 1.01953125 c -0.13131382865428523 0.5940832442178478 -0.19921875 2.01171875 -0.19921875 4.25390625 c 0.0 2.203125 0.05835909477063517 3.6992536354491588 0.17578125 4.48828125 c 0.1325476299000877 0.8906644579128098 0.54296875 1.3359375 1.23046875 1.3359375 c 0.6796875 0.0 1.0801976544461942 -0.44166781708159775 1.20703125 -1.32421875 c 0.1078167899943147 -0.7502255863540792 0.1640625 -2.03125 0.1640625 -3.843749761581421 c 0.0 -2.5859375 -0.07660871824733761 -4.214320188505253 -0.22265625 -4.88671875 c -0.15090892972771278 -0.694780295482634 -0.55078125 -1.042968988418579 -1.20703125 -1.042968988418579" fill="currentColor"/></svg>