<svg xmlns="http://www.w3.org/2000/svg" xmlns:xlink="http://www.w3.org/1999/xlink" width="50px" height="50px" style="-ms-transform: rotate(360deg); -webkit-transform: rotate(360deg); transform: rotate(360deg);" preserveAspectRatio="xMidYMid meet" viewBox="0 0 24 24"><path d="m 6.83203125 6.670572757720947 l 5.35546875 0.0 c 1.734375 0.0 2.9486050043579066 0.23139591078032407 3.64453125 0.69140625 c 0.6868954390073807 0.45404093592522865 1.1951528936368732 1.1211530891411687 1.5234375 2.00390625 c 0.24987852150297987 0.671920188799596 0.375 1.41015625 0.375 2.21484375 c 0.0 1.3046875 -0.30706916947114493 2.387815728606487 -0.9257813096046448 3.24609375 c -0.6936055589101089 0.9621702373586611 -1.8239209423245892 1.5187939427304453 -3.38671875 1.6640625 c -0.3436859204145904 0.031947035993592235 -0.89453125 0.046875 -1.65234375 0.046875 l -0.7734375596046448 0.0 l 0.0 6.128905773162842 l -4.16015625 0.0 l 1.1920928955078125e-07 -15.996093273162842 m 4.1601561307907104 2.976562976837158 l 0.0 3.902343511581421 l 0.515625 0.0 c 0.5859375 0.0 0.9990574525499012 -0.08343131142700777 1.2421875 -0.24609369039535522 c 0.43582493626048324 -0.29158189902632115 0.65625 -0.84375 0.65625 -1.6640625 c 0.0 -0.8984375 -0.23504764526464061 -1.4809107732955518 -0.6914063096046448 -1.76953125 c -0.22891848466458573 -0.14477770958048009 -0.609375 -0.2226562350988388 -1.1484375 -0.22265619039535522 l -0.5742186903953552 1.1920928955078125e-07" fill="currentColor"/></svg>