<svg xmlns="http://www.w3.org/2000/svg" xmlns:xlink="http://www.w3.org/1999/xlink" width="50px" height="50px" style="-ms-transform: rotate(360deg); -webkit-transform: rotate(360deg); transform: rotate(360deg);" preserveAspectRatio="xMidYMid meet" viewBox="0 0 24 24"><path d="m 11.953125 6.3190107345581055 c 1.546875 0.0 2.7334451269895546 0.28262142011600133 3.5625 0.84375 c 1.0066861524153607 0.6813546237809331 1.6424462016826702 1.6754249684709013 1.8984375 2.98828125 c 0.18884376879201914 0.9684888889421659 0.28125 2.4765625 0.28125 4.5234375 c 0.0 2.25 -0.133394437601563 3.8503598080989896 -0.38671875 4.8046875 c -0.19883976467445644 0.7490725697952709 -0.47265625 1.296875 -0.8320313096046448 1.640625 l 2.00390625 2.0625 l -2.51953125 2.19140625 l -2.4375 -2.695312738418579 c -0.4765625 0.2265625149011612 -1.1015625 0.33984375 -1.875 0.33984375 c -2.09375 0.0 -3.5456040841005105 -0.6882517886363821 -4.359375 -2.0625 c -0.4212175188502684 -0.7113272427967832 -0.7054046516925103 -1.67988532481262 -0.8554688096046448 -2.906250238418579 c -0.09274486880566697 -0.7579361694539123 -0.140625 -1.828125 -0.140625 -3.210937738418579 c 0.0 -2.2734375 0.13355239400679153 -3.9412213118779995 0.3984375 -5.003906726837158 c 0.32904423712616315 -1.3200837033073085 1.0262662519254562 -2.2792902499293497 2.097656011581421 -2.87109375 c 0.7804676613842344 -0.43110687733980074 1.8359378576278687 -0.6445299983024597 3.1640628576278687 -0.6445300579071045 m 0.011718392372131348 2.8007799983024597 c -0.59375 0.0 -0.9705587895193251 0.30031433509445415 -1.125 0.90234375 c -0.1501979500429596 0.5854887028076569 -0.22265625 2.0234375 -0.22265625 4.312499523162842 c 0.0 2.5546875 0.06438881635080529 4.16056777015271 0.19921875 4.81640625 c 0.1462505647262459 0.7113906048225224 0.5390625 1.06640625 1.171875 1.06640625 c 0.5703125 0.0 0.9412376643098062 -0.30864072272139786 1.11328125 -0.9257813096046448 c 0.18731646237897667 -0.6719261927822321 0.28125 -2.546875 0.28125 -5.625000476837158 c 0.0 -1.8984375 -0.08546049964908264 -3.14587570034797 -0.26953125 -3.738281011581421 c -0.16788631743375274 -0.5403180350032593 -0.5546875 -0.8085929751396179 -1.1484375 -0.8085929751396179" fill="currentColor"/></svg>