<svg xmlns="http://www.w3.org/2000/svg" xmlns:xlink="http://www.w3.org/1999/xlink" width="50px" height="50px" style="-ms-transform: rotate(360deg); -webkit-transform: rotate(360deg); transform: rotate(360deg);" preserveAspectRatio="xMidYMid meet" viewBox="0 0 24 24"><path d="m 6.5390625 6.670572757720947 l 5.80078125 0.0 c 1.6171875 0.0 2.7535229231313583 0.20374485916649032 3.41015625 0.609375 c 1.1399605347327986 0.7042017718677736 1.7109375 1.9375 1.7109375 3.703125238418579 c 0.0 1.5 -0.41092591783658605 2.5644680086002616 -1.25390625 3.1640625 c -0.3796918351952005 0.2700669566373324 -0.87109375 0.4648437798023224 -1.46484375 0.59765625 c 1.0703125 0.1093750074505806 1.80688140327422 0.5221589638372244 2.1796875 1.25390625 c 0.25694498959344336 0.5043340237174916 0.3989205165073031 1.245926721413234 0.43359375 2.21484375 c 0.01341754546332197 0.37494306044425224 0.01700728206614599 0.374844064335381 0.05859375 1.875 c 0.02685267629205654 0.9686612912665646 0.07815321393584185 1.602815114685125 0.17578125 1.8984375 c 0.07515262266024997 0.22756575333433843 0.234375 0.3828125 0.46875 0.46875 l 0.0 0.2109375 l -4.453125 0.0 c -0.1171874925494194 -0.2109375 -0.21189871255614 -0.5897210221193383 -0.28125 -1.13671875 c -0.039611650456028255 -0.31243086603983194 -0.08115018495486304 -1.128820216038818 -0.1171875 -2.44921875 c -0.025585426002424673 -0.9374438395885508 -0.05413556173324707 -1.5515395738866893 -0.10546875 -1.83984375 c -0.09346732632414606 -0.5249434414509011 -0.34449820152062216 -0.8413331835341609 -0.7265625596046448 -0.9609374403953552 c -0.19570354939627718 -0.0612644888102646 -0.4921875298023224 -0.09375 -0.8906250596046448 -0.09375 l -0.7851563096046448 0.0 l 0.0 6.48046875 l -4.16015625 0.0 l 1.7881393432617188e-07 -15.996094048023224 m 4.160156071186066 2.9648450016975403 l 0.0 3.73828125 l 0.62109375 0.0 c 0.578125 0.0 1.0011833730410569 -0.08412230977237911 1.265625 -0.2578125 c 0.47087926651365736 -0.3092822802353217 0.7031250299481986 -0.8749999999999982 0.703125 -1.6875 c -2.9656446215442494e-08 -0.8124999999999994 -0.2580318440861653 -1.3511371455026273 -0.7734375596046448 -1.6171875 c -0.22665911489344712 -0.11700052221344631 -0.6328125 -0.17578125 -1.21875 -0.17578125 l -0.5976561903953552 0.0" fill="currentColor"/></svg>