<svg xmlns="http://www.w3.org/2000/svg" xmlns:xlink="http://www.w3.org/1999/xlink" width="50px" height="50px" style="-ms-transform: rotate(360deg); -webkit-transform: rotate(360deg); transform: rotate(360deg);" preserveAspectRatio="xMidYMid meet" viewBox="0 0 24 24"><path d="m 11.935546875 6.3190107345581055 c 1.4140623807907104 0.0 2.504192430217886 0.23390789240531618 3.26953125 0.703125 c 1.2348371977557568 0.7570591263699026 1.84765625 2.13671875 1.83984375 4.13671875 l -3.9609375 0.0 c 0.0 -0.4921875 -0.03515625694990554 -0.8789063078671688 -0.10546875 -1.16015625 c -0.14843751467202576 -0.5937499963319933 -0.5234374999999982 -0.8906250300661025 -1.125 -0.8906250596046448 c -0.4062499999999995 -2.0304380649038827e-08 -0.7232009965600277 0.14121620640219668 -0.9374999403953552 0.43359375 c -0.17556259128816887 0.23952782160207062 -0.2578125 0.55859375 -0.2578125 0.94921875 c 0.0 0.5625 0.18108941057630368 1.0183197749707187 0.55078125 1.359375 c 0.2560914037367748 0.23625436651689155 0.7198616771466497 0.48559689865432176 1.3828125 0.76171875 c 1.9877407018071087 0.8279024984324144 3.2526872168046097 1.5286134067632755 3.796875 2.0859375 c 0.6909279635569033 0.7076064782641271 1.03125 1.7812498807907104 1.03125 3.2109375 c 0.0 1.7500001192092896 -0.4442216733396407 3.02009546429516 -1.3125 3.83203125 c -0.48031400724730006 0.4491464532569423 -1.0683593770991102 0.7792968675502152 -1.775390625 0.978515625 c -0.7070312520991107 0.19921875745137638 -1.599609375 0.298828125 -2.677734375 0.298828125 c -1.765625 0.0 -3.0883764131013614 -0.36772552684617565 -3.94921875 -1.125000238418579 c -0.44865125582439475 -0.3946741880459039 -0.7714844018919393 -0.8984374907449784 -0.9785156846046448 -1.5 c -0.20703127689193915 -0.6015624907449814 -0.310546875 -1.3671875 -0.310546875 -2.296875 c 0.0 -0.08203125 -1.862645149230957e-09 -0.08203125 0.0 -0.29296875 l 4.01953125 0.0 c 0.0 0.6953125 0.03362285594361225 1.176191891813101 0.10546875 1.44140625 c 0.17593835142304887 0.6494647685294712 0.6015625 0.97265625 1.265625 0.97265625 c 0.4296875 0.0 0.772189886028718 -0.1422530927359027 1.01953125 -0.43359375 c 0.2369417381253951 -0.279091052990089 0.3515625 -0.67578125 0.3515625 -1.18359375 c 0.0 -0.4921875 -0.09878458373053256 -0.8770856599417876 -0.3046875 -1.1484375 c -0.23898807357161478 -0.3149535455377165 -0.7626050658799279 -0.6346240272582797 -1.558593511581421 -0.9726563096046448 c -1.407827323992975 -0.5978617981816777 -2.241591628900693 -0.9814861195945959 -2.5078125 -1.13671875 c -0.8496731498418196 -0.49544198954103685 -1.449417492865777 -1.0858392804408723 -1.79296875 -1.78125 c -0.30486388729926583 -0.6171003913734624 -0.4570312798814573 -1.3984374999999982 -0.4570313096046448 -2.34375 c -1.032268588463115e-07 -3.2656252384185778 1.7929685711860657 -4.898437142372131 5.378906071186066 -4.898437142372131" fill="currentColor"/></svg>