<svg xmlns="http://www.w3.org/2000/svg" xmlns:xlink="http://www.w3.org/1999/xlink" width="50px" height="50px" style="-ms-transform: rotate(360deg); -webkit-transform: rotate(360deg); transform: rotate(360deg);" preserveAspectRatio="xMidYMid meet" viewBox="0 0 24 24"><path d="m 6.544921875 6.670572757720947 l 4.21875 0.0 l 0.0 10.921875 c 0.0 0.8984375 0.037902448221529994 1.4758292058426008 0.10546875 1.734375 c 0.15474452041373443 0.5921375577584767 0.5273437499999982 0.8906249701674227 1.13671875 0.890625 c 0.6484374999999992 3.1680532112596236e-08 1.0342645988866916 -0.3595306396826068 1.16015625 -1.078125 c 0.04654540512985233 -0.2656829529934089 0.0703125 -0.8046875 0.0703125 -1.6171875 l 0.0 -10.8515625 l 4.21875 0.0 l 0.0 10.0546875 c 0.0 0.8046875 -0.02928559936503561 1.4568226745083912 -0.08203125 1.95703125 c -0.16222480823050697 1.5384441988583224 -0.7259079245570348 2.6635715187403157 -1.69921875 3.386718511581421 c -0.846595561128621 0.6290005393746219 -2.10546875 0.94921875 -3.78515625 0.94921875 c -2.4765625 0.0 -4.087068182578049 -0.8020839628095544 -4.83984375 -2.40234375 c -0.33470441359537956 -0.7115188601381365 -0.50390625 -2.0078125 -0.5039063096046448 -3.890624761581421 l 5.960464477539063e-08 -10.0546875" fill="currentColor"/></svg>