<svg xmlns="http://www.w3.org/2000/svg" xmlns:xlink="http://www.w3.org/1999/xlink" width="50px" height="50px" style="-ms-transform: rotate(360deg); -webkit-transform: rotate(360deg); transform: rotate(360deg);" preserveAspectRatio="xMidYMid meet" viewBox="0 0 24 24"><path d="m 3.287109375 6.670572757720947 l 4.078125 0.0 l 0.75 6.0703125 c 0.28125 2.28125 0.421875 4.140625 0.421875 5.578125 l 0.1171875 0.0 c 0.015625 -0.9921875 0.16015625 -2.57421875 0.43359375 -4.74609375 l 1.03125 -6.90234375 l 3.80859375 0.0 l 1.0546875 6.66796875 c 0.3281249701976776 2.28125 0.5078125 3.941406011581421 0.5390625 4.98046875 l 0.1171875 0.0 c 0.0234375 -0.7734375 0.15234375 -2.453125 0.38671875 -5.0390625 l 0.703125 -6.609375 l 3.99609375 0.0 l -2.73046875 15.99609375 l -4.53515625 0.0 l -0.6562500596046448 -4.265625 c -0.046875 -0.296875 -0.22591492737061536 -1.6875815395534772 -0.5390625596046448 -4.171875 c -0.09355654086336632 -0.7422119113285176 -0.1640625 -1.65234375 -0.2109375 -2.73046875 l -0.1171875 0.0 c 0.015625 0.8671875 -0.1796875 2.75390625 -0.5859375596046448 5.66015625 l -0.7851563096046448 5.5078125 l -4.546875 0.0 l -2.730468511581421 -15.99609375" fill="currentColor"/></svg>