<svg xmlns="http://www.w3.org/2000/svg" xmlns:xlink="http://www.w3.org/1999/xlink" width="50px" height="50px" style="-ms-transform: rotate(360deg); -webkit-transform: rotate(360deg); transform: rotate(360deg);" preserveAspectRatio="xMidYMid meet" viewBox="0 0 24 24"><path d="m 7.388671875 6.670572757720947 l 9.515625 0.0 l 0.0 2.9296875 l -4.5703125 8.8125 c -0.007812500931322575 0.0078125 -0.03848487350554208 0.05893309459951723 -0.09375 0.15234375 c -0.04639188034439665 0.07841284772351521 -0.12453106151524374 0.20113968383108372 -0.22265625 0.375 c -0.11339193137784867 0.2009102590760318 -0.203125 0.3515625 -0.28125 0.4453125 c 0.265625 -0.0546875 0.8046875 -0.08203125 1.6171875 -0.08203125 l 3.55078125 0.0 l 0.0 3.36328125 l -9.85546875 0.0 l 0.0 -2.8828125 l 4.6171875 -8.96484375 c 0.1328125 -0.2734375 0.296875 -0.55078125 0.4921875 -0.8320313096046448 c -0.2265625 0.0234375 -0.58203125 0.0390625 -1.06640625 0.046875 l -3.703125 0.0 l 0.0 -3.3632811903953552" fill="currentColor"/></svg>