<svg xmlns="http://www.w3.org/2000/svg" xmlns:xlink="http://www.w3.org/1999/xlink" width="50px" height="50px" style="-ms-transform: rotate(360deg); -webkit-transform: rotate(360deg); transform: rotate(360deg);" preserveAspectRatio="xMidYMid meet" viewBox="0 0 24 24"><path d="m 12.17578125 10.256510734558105 c 1.390625 0.0 2.4478844990905575 0.21853110260453512 3.1640625 0.66796875 c 0.9252286536079833 0.5806274262158209 1.4771430372611487 1.545421968004323 1.62890625 2.8828125 c 0.04251132835674926 0.37462470002336296 0.05859375 0.8515625 0.05859375 1.4296875 l -3.71484375 0.0 c 0.0 -0.734375 -0.03949775074906192 -1.2655216746999898 -0.1171875 -1.59375 c -0.12570445702817767 -0.5310837505710431 -0.4453124999999982 -0.796875029757727 -0.9609375596046448 -0.7968750596046448 c -0.570312499999999 -3.2913845912640996e-08 -0.9331329701406439 0.36258583901534536 -1.078125 1.08984375 c -0.11203994121347038 0.5619752594179588 -0.1640625 1.453125 -0.1640625 2.671875 c 0.0 1.6562501192092896 0.0793690881286313 2.6963574789046305 0.24609375 3.1171875 c 0.1768703973474527 0.4464388903922397 0.5 0.66796875 0.9609375 0.66796875 c 0.5859375 0.0 0.939273723146469 -0.31683122575339695 1.06640625 -0.9492188096046448 c 0.06915330513333857 -0.34398507314327664 0.109375 -0.9335936903953552 0.1171875 -1.76953125 l 3.64453125 0.0 c 0.0 1.5937501192092896 -0.2336948736177824 2.7621487301899066 -0.7031250596046448 3.503906488418579 c -0.4056626159529328 0.6409971100896036 -0.9028394756237237 1.0926591899204183 -1.48828125 1.359375 c -0.6489892859120416 0.2956668121427028 -1.59765625 0.4453125 -2.84765625 0.4453125 c -1.2265625 0.0 -2.166431225725187 -0.1794417961648449 -2.8125 -0.5507813096046448 c -0.8468898577765226 -0.48676500125985994 -1.4437957343975683 -1.2726555857499733 -1.79296875 -2.34375 c -0.2595902383559302 -0.796297657243547 -0.38671875 -1.9179686307907104 -0.38671875 -3.36328125 c 0.0 -1.4609375 0.13140318326581202 -2.5968681725543536 0.38671875 -3.410156011581421 c 0.39448672028075077 -1.2566067019172653 1.0917187842992853 -2.1293530276758688 2.109375 -2.601562738418579 c 0.662751814955409 -0.30752806105429037 1.5585938692092896 -0.4570312201976776 2.6835938692092896 -0.4570313096046448" fill="currentColor"/></svg>