<svg xmlns="http://www.w3.org/2000/svg" xmlns:xlink="http://www.w3.org/1999/xlink" width="50px" height="50px" style="-ms-transform: rotate(360deg); -webkit-transform: rotate(360deg); transform: rotate(360deg);" preserveAspectRatio="xMidYMid meet" viewBox="0 0 24 24"><path d="m 17.015625 6.670572757720947 l 0.0 15.99609375 l -3.87890625 0.0 l 0.0 -0.5507813096046448 c 0.0 -0.453125 0.01953125 -0.8203125 0.05859375 -1.1015625 c -0.1953124850988388 0.4609374701976776 -0.42523354769527266 0.8403347704358985 -0.6914063096046448 1.13671875 c -0.4989749629553891 0.5556097632330789 -1.21875 0.83203125 -2.15625 0.83203125 c -1.34375 0.0 -2.2979282275949977 -0.5600547863276972 -2.87109375 -1.67578125 c -0.474205165136712 -0.92308980786753 -0.7148437778259407 -2.4609375 -0.7148438096046448 -4.6171875 c -2.87333084148661e-08 -2.2265624999999996 0.23195080736192786 -3.7843907823812906 0.69140625 -4.67578125 c 0.6035109042893942 -1.1708727708145952 1.58203125 -1.7578125 2.941406011581421 -1.7578125 c 1.2421875 0.0 2.125 0.5625 2.6484375 1.6875 c -0.015625 -0.34375 -0.03125 -0.7421875 -0.046875 -1.1953125 l 0.0 -4.078125 l 4.019531607627869 5.960464477539063e-08 m -5.085937857627869 6.574219167232513 c -0.4765625 0.0 -0.7972009748303854 0.2761689633738511 -0.9492188096046448 0.83203125 c -0.10447724909179984 0.3820272974339792 -0.15234375 1.21484375 -0.15234375 2.49609375 c 0.0 1.296875 0.05984940196606203 2.1765082506327786 0.1875 2.63671875 c 0.14542269009539155 0.5242830809952956 0.4609375 0.78515625 0.9375 0.78515625 c 0.4765625 0.0 0.7984848646119644 -0.2886080666180657 0.9609375 -0.8671875596046448 c 0.11836134815539959 -0.4215471706038202 0.1757812350988388 -1.25390625 0.17578125 -2.496093988418579 c 0.0 -1.3359375 -0.07118729969876636 -2.226287191821841 -0.2109375 -2.671875 c -0.14937311270422532 -0.47627007150728123 -0.46484363079071045 -0.7148433923721313 -0.9492186903953552 -0.7148434519767761" fill="currentColor"/></svg>