<svg xmlns="http://www.w3.org/2000/svg" xmlns:xlink="http://www.w3.org/1999/xlink" width="50px" height="50px" style="-ms-transform: rotate(360deg); -webkit-transform: rotate(360deg); transform: rotate(360deg);" preserveAspectRatio="xMidYMid meet" viewBox="0 0 24 24"><path d="m 12.046875 10.256510734558105 c 1.4375 0.0 2.53178575477207 0.27662008021160567 3.281249761581421 0.83203125 c 0.7896277014958977 0.585175594025251 1.303588757503217 1.5653168281858392 1.5234375 2.94140625 c 0.10476429567523478 0.6557464801719656 0.15234375 1.453125 0.15234375 2.390625 c 0.0 0.1796875 -0.00390625 0.46875 -0.011718809604644775 0.8671875 l -6.0 0.0 c 0.0 0.9921874403953552 0.0257426732342374 1.68772291565746 0.08203125 2.0859375 c 0.06077236778851394 0.4299352474148027 0.17379418480861908 0.7323876782624836 0.33984375 0.90234375 c 0.16986524748233653 0.17386152233247174 0.4140624701976776 0.2578125 0.7265625 0.2578125 c 0.5390625 0.0 0.8679496316914062 -0.2858544658722266 0.99609375 -0.8554688096046448 c 0.06863067986919419 -0.3050707296565703 0.10546875 -0.69921875 0.10546875 -1.18359375 l 3.64453125 0.0 c -0.0234375 1.0390625 -0.21218951178763135 1.9037377297757487 -0.5742188096046448 2.58984375 c -0.3800319502155037 0.7202240550492957 -1.0034141224835889 1.2434793173721097 -1.86328125 1.5703125 c -0.5777956152492224 0.21961855942299313 -1.37890625 0.328125 -2.40234375 0.328125 c -1.2890625 0.0 -2.2933127165741336 -0.2142689099967896 -3.01171875 -0.6445313096046448 c -0.8597872088747893 -0.5149373619240493 -1.4223717665318762 -1.3211705215085985 -1.69921875 -2.4140625 c -0.22380838498741917 -0.8835147329681736 -0.33984375 -2.00390625 -0.33984375 -3.36328125 c 0.0 -1.9375 0.252043641330963 -3.3699975412269456 0.75 -4.30078125 c 0.7138707115872254 -1.3343724142646416 2.1445316076278687 -2.0039061307907104 4.300781607627869 -2.0039061307907104 m 0.08203089237213135 2.4492186307907104 c -0.59375 0.0 -0.9597469685906969 0.3778436437829704 -1.078125 1.13671875 c -0.041380442754494165 0.2652737802510682 -0.0585937537252903 0.68359375 -0.05859375 1.25390625 l 2.203125 0.0 c -0.007812500931322575 -0.640625 -0.0287303560137262 -1.1058204377431595 -0.0703125 -1.39453125 c -0.09576685253011087 -0.6649230446216885 -0.4335936903953552 -0.9960936903953552 -0.99609375 -0.99609375" fill="currentColor"/></svg>