<svg xmlns="http://www.w3.org/2000/svg" xmlns:xlink="http://www.w3.org/1999/xlink" width="50px" height="50px" style="-ms-transform: rotate(360deg); -webkit-transform: rotate(360deg); transform: rotate(360deg);" preserveAspectRatio="xMidYMid meet" viewBox="0 0 24 24"><path d="m 13.6875 6.3190107345581055 c 0.421875 0.0 1.0234375 0.01953125 1.8046875 0.05859375 l 0.0 2.6484375 l -0.1875 0.0 c -0.5 0.0 -0.8258774310467558 0.00858358491935185 -0.9726563096046448 0.046875 c -0.25344041916529264 0.0661170897599158 -0.4059706009333066 0.2682819680305606 -0.4335938096046448 0.57421875 c -0.013366683169275972 0.1480407320912191 -0.01171875 0.45703125 -0.011718809604644775 0.92578125 l 1.60546875 0.0 l 0.0 2.671875 l -1.60546875 0.0 l 0.0 9.421875 l -4.01953125 0.0 l 0.0 -9.421875 l -1.44140625 0.0 l 0.0 -2.671875 l 1.44140625 0.0 c 0.0 -0.5390625 -1.862645149230957e-09 -0.5390625 0.0 -0.7265625596046448 c 0.0 -0.921875 0.07855718167585302 -1.5779522853828674 0.234375 -1.96875 c 0.24286140592514094 -0.6091067339090201 0.7045174493800825 -1.0312835454863212 1.3828125 -1.277343988418579 c 0.5088736592633776 -0.18460060688998256 1.2421876788139343 -0.2812497019767761 2.2031251788139343 -0.2812497019767761" fill="currentColor"/></svg>