<svg xmlns="http://www.w3.org/2000/svg" xmlns:xlink="http://www.w3.org/1999/xlink" width="50px" height="50px" style="-ms-transform: rotate(360deg); -webkit-transform: rotate(360deg); transform: rotate(360deg);" preserveAspectRatio="xMidYMid meet" viewBox="0 0 24 24"><path d="m 10.48828125 10.256510734558105 c 1.3203125 0.0 2.246093511581421 0.6640625 2.77734375 1.9921875 c -0.0234375 -0.3125 -0.03515625 -0.73046875 -0.03515625 -1.25390625 l 0.0 -0.421875 l 3.76171875 0.0 l 0.0 10.96875 c 0.0 0.9374999403953552 -0.03314818689963772 1.617527092905771 -0.10546875 2.0390625 c -0.2052433378746564 1.1963033786713844 -0.8071664089910229 2.0573806274980306 -1.79296875 2.578125 c -0.7879275505546944 0.41621816141223295 -1.90234375 0.62109375 -3.33984375 0.62109375 c -1.859375 0.0 -3.15947066711972 -0.4112175861280285 -3.890625 -1.2421875 c -0.4315951421801489 -0.4905155614850533 -0.66015625 -1.21875 -0.6914063096046448 -2.1796875 l 3.64453125 0.0 c 0.03125 0.65625 0.3906249999999982 0.9843750301794216 1.078125 0.984375 c 0.5468749999999996 -2.3406428739658474e-08 0.91462249964931 -0.21694217982571473 1.08984375 -0.6562500596046448 c 0.09621236140440341 -0.24121987722664662 0.140625 -0.6171875 0.140625 -1.125000238418579 l 0.0 -0.8203125596046448 c 0.0078125 -0.5390625 0.04296875 -0.94921875 0.10546875 -1.23046875 c -0.21875 0.3828125 -0.4375000222943708 0.6914062291919159 -0.6562500596046448 0.92578125 c -0.5468749961312778 0.5859374479798064 -1.2890625 0.87890625 -2.2265625 0.87890625 c -1.203125 0.0 -2.093839953969985 -0.4765079435621402 -2.671875 -1.4296875 c -0.6016561352490307 -0.9921307229794368 -0.9023437805008143 -2.51171875 -0.9023438096046448 -4.55859375 c -3.282912075519562e-08 -2.2031249999999996 0.2976841364131335 -3.7611936660611462 0.890625 -4.67578125 c 0.6023849957790158 -0.9291547803906598 1.5429689288139343 -1.3945308923721313 2.8242189288139343 -1.3945308923721313 m 1.4648435711860657 2.9882808923721313 c -0.5 0.0 -0.8238426492166111 0.30477923729840795 -0.9726563096046448 0.9140625 c -0.09351369593747388 0.38287029308678894 -0.140625 1.15234375 -0.140625 2.30859375 c 0.0 1.1015625 0.0651183980788137 1.842904899957424 0.1875 2.226562261581421 c 0.15169004363752114 0.47553718053208965 0.45703125 0.71484375 0.92578125 0.71484375 c 0.4375 0.0 0.7519704945620163 -0.24142932947199292 0.9375 -0.7265625596046448 c 0.13424047587724208 -0.3510197233756981 0.19921875 -1.13671875 0.19921875 -2.35546875 c 0.0 -1.140625 -0.06731715021907148 -1.9228851737651906 -0.2109375 -2.34375 c -0.16837193852656276 -0.4933968393677217 -0.48046866059303284 -0.7382808923721313 -0.9257811903953552 -0.7382809519767761" fill="currentColor"/></svg>