<svg xmlns="http://www.w3.org/2000/svg" xmlns:xlink="http://www.w3.org/1999/xlink" width="50px" height="50px" style="-ms-transform: rotate(360deg); -webkit-transform: rotate(360deg); transform: rotate(360deg);" preserveAspectRatio="xMidYMid meet" viewBox="0 0 24 24"><path d="m 11.044921875 6.670572757720947 l 0.0 2.94140625 l 0.0 0.43359375 c -0.015625 1.0703125 -0.0429687537252903 1.7226563692092896 -0.08203125 1.95703125 c 0.1953125 -0.4375 0.48983930015203114 -0.7986875581248363 0.87890625 -1.08984375 c 0.5804662664660518 -0.4343888570393612 1.2773437499999982 -0.6562500299415959 2.097656011581421 -0.6562500596046448 c 1.531249999999999 -5.589099479064162e-08 2.494921304468006 0.6019514115486864 2.89453125 1.8046875 c 0.14800340233602532 0.4454569642058149 0.22265625 1.2421875 0.22265625 2.390625 l 0.0 8.21484375 l -4.01953125 0.0 l 0.0 -7.5 c 0.0 -0.6796875 -0.04111117261212449 -1.1124407141239008 -0.1171875 -1.30078125 c -0.14453436107891218 -0.3578206250588563 -0.41015624999999645 -0.5390625298339717 -0.8085938096046448 -0.5390625596046448 c -0.4609374999999987 -3.4513805376168405e-08 -0.7686907924022659 0.21668628232565368 -0.9374999403953552 0.64453125 c -0.0835970967080327 0.21187594134520188 -0.12890625 0.58984375 -0.12890625 1.13671875 l 0.0 7.55859375 l -4.01953125 0.0 l 0.0 -15.996092796325684 l 4.019531488418579 -8.344650268554688e-07" fill="currentColor"/></svg>