<svg xmlns="http://www.w3.org/2000/svg" xmlns:xlink="http://www.w3.org/1999/xlink" width="50px" height="50px" style="-ms-transform: rotate(360deg); -webkit-transform: rotate(360deg); transform: rotate(360deg);" preserveAspectRatio="xMidYMid meet" viewBox="0 0 24 24"><path d="m 9.99609375 6.471354007720947 l 4.01953125 0.0 l 0.0 2.9765625 l -4.01953125 0.0 l 0.0 -2.9765625 m 0.0 4.1015625 l 4.01953125 0.0 l 0.0 11.6015625 c 0.0 1.265625 -0.04854087374834526 2.1285705615311414 -0.140625 2.58984375 c -0.15117432867832192 0.7572712848848546 -0.5896817250514994 1.2855573637472553 -1.32421875 1.58203125 c -0.5233222211239099 0.2112233521106629 -1.2890625 0.31640625 -2.296875 0.31640625 c -0.46875 0.0 -1.078125 -0.0234375 -1.828125 -0.0703125 l 0.0 -2.765625 c 0.171875 0.0234375 0.33984375 0.03515625 0.50390625 0.03515625 c 0.5234375 0.0 0.84375 -0.13671875 0.9609375 -0.41015625 c 0.0703125 -0.1640625 0.10546875 -0.51171875 0.10546875 -1.04296875 l 0.0 -11.8359375" fill="currentColor"/></svg>