<svg xmlns="http://www.w3.org/2000/svg" xmlns:xlink="http://www.w3.org/1999/xlink" width="50px" height="50px" style="-ms-transform: rotate(360deg); -webkit-transform: rotate(360deg); transform: rotate(360deg);" preserveAspectRatio="xMidYMid meet" viewBox="0 0 24 24"><path d="m 10.892578125 10.244791984558105 c 0.875 0.0 1.571636102492052 0.18568676622712488 2.0859375 0.5625 c 0.328975698423932 0.24103064342519392 0.625 0.6640625 0.890625 1.265625 c 0.3203125 -0.5390625 0.642047028369614 -0.9278182011910889 0.9609375 -1.171875 c 0.5571912450613414 -0.4264357943928865 1.2499999999999982 -0.6445312798694918 2.0859375 -0.6445313096046448 c 1.3359374999999991 -4.7735356886041684e-08 2.248278923078388 0.4558765100440372 2.73046875 1.37109375 c 0.2589877795176284 0.4915700570990548 0.38671875 1.2734375 0.38671875 2.34375 l 0.0 8.6953125 l -4.01953125 0.0 l 0.0 -7.2890625 c 0.0 -0.796875 -0.03566168575000184 -1.292787531413225 -0.10546875 -1.488281488418579 c -0.1337820395384094 -0.37465520956366466 -0.40624999999999645 -0.5625000297507334 -0.8203126788139343 -0.5625000596046448 c -0.6874999999999982 -4.939742299925327e-08 -1.03125 0.53125 -1.03125 1.59375 l 0.0 7.74609375 l -4.01953125 0.0 l 0.0 -7.582031726837158 c 0.0 -0.53125 -0.024542758260244213 -0.8942692909765224 -0.0703125 -1.08984375 c -0.10407915589290274 -0.4447310348639061 -0.38671874999999645 -0.6679687796345064 -0.8554688096046448 -0.6679688096046448 c -0.42187499999999917 -2.667105258521983e-08 -0.7264048966360246 0.19754931506092355 -0.9023438096046448 0.59765625 c -0.07184970059959245 0.1633951409505464 -0.1132812649011612 0.5234375 -0.12890625 1.078125 l -0.011718809604644775 0.2578125 l 0.0 7.406250476837158 l -4.01953125 0.0 l 0.0 -12.09375 l 3.87890625 0.0 l 0.0 0.24609375 c 0.0 0.5703125 -0.02734375 1.0 -0.08203125 1.2890625 c 0.2578125 -0.5 0.6223776602663058 -0.9331916616895128 1.1015625 -1.2890625 c 0.5206164182398538 -0.3866403647080909 1.1718753576278687 -0.5742182731628418 1.9453128576278687 -0.5742183327674866" fill="currentColor"/></svg>