<svg xmlns="http://www.w3.org/2000/svg" xmlns:xlink="http://www.w3.org/1999/xlink" width="50px" height="50px" style="-ms-transform: rotate(360deg); -webkit-transform: rotate(360deg); transform: rotate(360deg);" preserveAspectRatio="xMidYMid meet" viewBox="0 0 24 24"><path d="m 13.951171875 10.244791984558105 c 1.4531251192092896 0.0 2.385080186622215 0.5412486846475186 2.8125 1.6171875 c 0.19281625204622643 0.4853740592131981 0.29296875 1.2890625 0.29296875 2.4140625 l 0.0 8.390625 l -4.01953125 0.0 l 0.0 -7.687500476837158 c 0.0 -0.5390625 -0.03500920693416809 -0.9063030576664897 -0.10546875 -1.1015625 c -0.13253598383058415 -0.3672873987799733 -0.40624999999999645 -0.5507812797507334 -0.8203126788139343 -0.5507813096046448 c -0.7109374999999982 -5.1081426056045996e-08 -1.06640625 0.51171875 -1.06640625 1.53515625 l 0.0 7.804687023162842 l -4.01953125 0.0 l 0.0 -12.09375 l 3.87890625 0.0 l 0.0 0.3515625 c 0.0 0.4375 -0.02734375 0.83203125 -0.08203125 1.18359375 c 0.6640625 -1.2421875 1.7070314288139343 -1.8632803559303284 3.1289064288139343 -1.8632802367210388" fill="currentColor"/></svg>