<svg xmlns="http://www.w3.org/2000/svg" xmlns:xlink="http://www.w3.org/1999/xlink" width="50px" height="50px" style="-ms-transform: rotate(360deg); -webkit-transform: rotate(360deg); transform: rotate(360deg);" preserveAspectRatio="xMidYMid meet" viewBox="0 0 24 24"><path d="m 12.12890625 10.256510734558105 c 2.0 0.0 3.3728359441229294 0.5834283910282956 4.125 1.74609375 c 0.5920486617443824 0.9151653345533789 0.890625 2.41796875 0.890625 4.51171875 c 0.0 2.2734375 -0.36699817338680774 3.905445090238363 -1.11328125 4.88671875 c -0.4351196338548288 0.5721306685454728 -0.9716843526011534 0.9791174001178469 -1.60546875 1.21875 c -0.6474551762314574 0.24480149373235546 -1.4921875 0.36328125 -2.53125 0.36328125 c -1.171875 0.0 -2.0952905792540157 -0.1609265822732837 -2.765625 -0.4921875 c -0.9240187785939582 -0.4566247817814749 -1.5698492657218743 -1.2958363289389752 -1.93359375 -2.5078125 c -0.23661660062966106 -0.7883932101671814 -0.3515625 -1.9062501192092896 -0.3515625 -3.3515625 c 0.0 -1.4375 0.1226480512029271 -2.542483763592008 0.36328125 -3.316406488418579 c 0.3617128403151434 -1.1633381776948617 1.0298425271703806 -2.0066022124987857 2.015625 -2.51953125 c 0.6943263011330137 -0.3612765809577088 1.6640625 -0.5390622019767761 2.90625 -0.5390622615814209 m -0.12890625 2.589843451976776 c -0.53125 0.0 -0.8614059482237715 0.3324090659130201 -0.9960938096046448 0.99609375 c -0.10787389829889202 0.5315568409782723 -0.1640625 1.4375 -0.1640625 2.71875 c 0.0 1.421875 0.05854537587356479 2.3984481730728033 0.17578125 2.9296875 c 0.13275772231490546 0.6015745911591167 0.453125 0.90234375 0.9609375 0.90234375 c 0.53125 0.0 0.8705284456153537 -0.34307507380992597 1.0078125 -1.03125 c 0.11210585356126902 -0.5619621145791763 0.1640625 -1.51171875 0.1640625 -2.84765625 c 0.0 -1.4296875 -0.06667807678768733 -2.390551730430733 -0.19921875 -2.8828125 c -0.14091404265024413 -0.5233597611731488 -0.45703113079071045 -0.78515625 -0.9492186903953552 -0.78515625" fill="currentColor"/></svg>