<svg xmlns="http://www.w3.org/2000/svg" xmlns:xlink="http://www.w3.org/1999/xlink" width="50px" height="50px" style="-ms-transform: rotate(360deg); -webkit-transform: rotate(360deg); transform: rotate(360deg);" preserveAspectRatio="xMidYMid meet" viewBox="0 0 24 24"><path d="m 13.65234375 10.256510734558105 c 1.3671875 0.0 2.338142063611997 0.5984807835333807 2.91796875 1.79296875 c 0.44401031060509644 0.9146956934817874 0.66796875 2.36328125 0.66796875 4.34765625 c 0.0 2.3125 -0.2370753051914356 3.9303119047571187 -0.7148438096046448 4.8515625 c -0.600048950941738 1.1570361966593654 -1.5820312499999964 1.7343749407095537 -2.94140625 1.734375 c -0.8828124999999991 3.8912811793981303e-08 -1.5680519208136232 -0.2716039816631266 -2.0625 -0.8085938096046448 c -0.20220410773623207 -0.21960151852752346 -0.39453125 -0.51171875 -0.5742188096046448 -0.8789063096046448 c 0.03125 0.2031250149011612 0.05078125 0.69921875 0.05859375 1.48828125 l 0.0 3.808593988418579 l -4.01953125 0.0 l 0.0 -16.01953125 l 3.87890625 0.0 l 0.0 0.4453125 c 0.0 0.5546875 -0.01171875 0.953125 -0.03515625 1.1953125 c 0.2734375 -0.5859375 0.5575483446757197 -1.0206388572487128 0.85546875 -1.30078125 c 0.46711736026391665 -0.43924273954166887 1.1250001192092896 -0.6562500596046448 1.9687501192092896 -0.6562501192092896 m -1.6054688692092896 2.9882813096046448 c -0.4921875298023224 0.0 -0.8132306574555346 0.30940640242789463 -0.9726563096046448 0.92578125 c -0.10724170011016 0.41462014216476806 -0.1640625 1.1875 -0.1640625 2.3203125 c 0.0 1.4609375 0.07318011950522507 2.4066102058818544 0.22265625 2.8359375 c 0.1551726944910831 0.4456890396236226 0.453125 0.66796875 0.890625 0.66796875 c 0.4765625 0.0 0.8007120994533148 -0.2566072905431298 0.9609375 -0.7734375596046448 c 0.12807421438107863 -0.4131219547747608 0.1875 -1.2109375 0.1875 -2.390625238418579 c 0.0 -1.390625 -0.06043230384782117 -2.313075482024809 -0.1875 -2.765625 c -0.15375130314206797 -0.5475827470867904 -0.46875 -0.8203121423721313 -0.9374999403953552 -0.8203122019767761" fill="currentColor"/></svg>