<svg xmlns="http://www.w3.org/2000/svg" xmlns:xlink="http://www.w3.org/1999/xlink" width="50px" height="50px" style="-ms-transform: rotate(360deg); -webkit-transform: rotate(360deg); transform: rotate(360deg);" preserveAspectRatio="xMidYMid meet" viewBox="0 0 24 24"><path d="m 10.365234375 10.256510734558105 c 0.9140625 0.0 1.6112521629152639 0.26001582728503614 2.0859375 0.78515625 c 0.274526646258098 0.3037065352553039 0.5078125 0.71875 0.703125 1.2421875 c -0.03125 -0.4140625 -0.0468750037252903 -0.8124999403953552 -0.046875 -1.1953125 l 0.0 -0.515625 l 3.92578125 0.0 l 0.0 16.03125 l -4.01953125 0.0 l 0.0 -3.820312261581421 c 0.0078125 -0.6484375 0.03125 -1.15234375 0.0703125 -1.51171875 c -0.171875 0.3515625 -0.3521858218446141 0.6322600802823821 -0.5390625596046448 0.84375 c -0.5095164144594841 0.5766238584880105 -1.2304687499999982 0.8671874708419125 -2.16796875 0.8671875 c -1.4843749999999991 4.820704915114992e-08 -2.5169541206970063 -0.6869419208030187 -3.09375 -2.0625 c -0.36020536386710167 -0.859027285417273 -0.5390625266161173 -2.3203125 -0.5390625596046448 -4.3828125 c -2.974149467503684e-08 -2.3046874999999996 0.276805540986949 -3.906582508301671 0.83203125 -4.8046875 c 0.6087850916556674 -0.9847399369517825 1.5390626192092896 -1.476562738418579 2.7890626192092896 -1.476562738418579 m 1.5351561307907104 2.988281488418579 c -0.4609375 0.0 -0.7687734035996683 0.29218014340937426 -0.9140625596046448 0.87890625 c -0.11978671423212013 0.48373873450189375 -0.17578125 1.359375 -0.17578125 2.625 c 0.0 1.3046875 0.0646622041458279 2.1529410756625964 0.19921875 2.54296875 c 0.16196641647803384 0.46947834710435554 0.47265625 0.703125 0.92578125 0.703125 c 0.4921875 0.0 0.8081024354973814 -0.2824288934974337 0.9609375 -0.8437500596046448 c 0.12151116856626308 -0.44627710961902495 0.1875 -1.3046875 0.1875 -2.578124761581421 c 0.0 -1.3125 -0.0728920775738029 -2.167067680139258 -0.2109375 -2.56640625 c -0.1751553552337612 -0.5066903909826838 -0.49609366059303284 -0.7617188692092896 -0.9726561903953552 -0.7617189288139343" fill="currentColor"/></svg>