<svg xmlns="http://www.w3.org/2000/svg" xmlns:xlink="http://www.w3.org/1999/xlink" width="50px" height="50px" style="-ms-transform: rotate(360deg); -webkit-transform: rotate(360deg); transform: rotate(360deg);" preserveAspectRatio="xMidYMid meet" viewBox="0 0 24 24"><path d="m 11.929686546325684 10.256510734558105 c 1.640625 0.0 2.85670134962319 0.34625995169559687 3.64453125 1.04296875 c 0.625981342629499 0.5535797876873938 0.9375 1.38671875 0.9375 2.49609375 c 0.0 0.08203125 -1.862645149230957e-09 0.08203125 0.0 0.22265625 l -3.48046875 0.0 c 0.0 -0.3828125 -0.03198407782776691 -0.6538103100368797 -0.10546875 -0.8085938096046448 c -0.15733610043189064 -0.3314028832586343 -0.4882812798023224 -0.49218751449116205 -0.9726563096046448 -0.4921875 c -0.6874999999999997 2.173196869681426e-08 -1.03125 0.2890625 -1.03125 0.8671875 c 0.0 0.296875 0.099238799707555 0.5294681698983972 0.29296875 0.703125 c 0.18118275583209953 0.16240969968442712 0.5463677627143682 0.33367686954060716 1.1015625 0.50390625 c 1.3893678625304575 0.42599688827214194 2.3749745109471494 0.7930146993372276 2.953125 1.11328125 c 1.0155802323138594 0.5625808229564241 1.5234375 1.5820311307907104 1.5234375 3.05859375 c 0.0 1.21875 -0.38394205608137355 2.182754033019915 -1.16015625 2.8828125 c -0.4437321200819287 0.4001967886803901 -0.970703125 0.6875 -1.576171875 0.8671875 c -0.60546875 0.1796875 -1.357421875 0.26953125 -2.255859375 0.26953125 c -1.6796875 0.0 -2.9199585979411093 -0.37289139105056535 -3.71484375 -1.125000238418579 c -0.6422372301845977 -0.6076755889574766 -0.9609375290828677 -1.53125 -0.9609375596046448 -2.765625 c -2.2088254142405e-09 -0.09374999999999997 -1.862645149230957e-09 -0.09375 0.0 -0.24609369039535522 l 3.5625 0.0 c 0.0 0.4765624701976776 0.05035257068398202 0.8283176540526469 0.15234375 1.0546875 c 0.18671588314352602 0.41441667785959474 0.53515625 0.62109375 1.04296875 0.62109375 c 0.7421875 0.0 1.11328125 -0.34375 1.11328125 -1.03125 c 0.0 -0.4140625 -0.16008071537799928 -0.7188739306142189 -0.4804688096046448 -0.9140626788139343 c -0.17964517378170028 -0.10944450565557283 -0.8898836257078813 -0.38492319276015863 -2.1328125 -0.8203125596046448 c -1.2102191282572201 -0.42393136960076927 -2.0399964958875376 -0.9094076541985316 -2.484375 -1.46484375 c -0.46190965076490514 -0.5773485680778062 -0.6914062791038305 -1.3554687499999982 -0.6914063096046448 -2.33203125 c -3.7485733628273004e-08 -1.2578124999999993 0.4417473136508736 -2.2026494657372258 1.32421875 -2.8359375 c 0.8049988551759167 -0.5776913807966271 1.937500238418579 -0.867186963558197 3.398437738418579 -0.8671870231628418" fill="currentColor"/></svg>