<svg xmlns="http://www.w3.org/2000/svg" xmlns:xlink="http://www.w3.org/1999/xlink" width="50px" height="50px" style="-ms-transform: rotate(360deg); -webkit-transform: rotate(360deg); transform: rotate(360deg);" preserveAspectRatio="xMidYMid meet" viewBox="0 0 24 24"><path d="m 9.75 7.080729007720947 l 4.01953125 0.0 l 0.0 3.492187261581421 l 1.60546875 0.0 l 0.0 2.671875 l -1.60546875 0.0 l 0.0 5.58984375 c 0.0 0.5234375 0.07797252125020293 0.8557138430448674 0.22265625 1.0078125 c 0.15248891633436112 0.1603038543132142 0.46875 0.24609375 0.9609375 0.24609375 c 0.109375 0.0 0.25 -0.01171875 0.421875 -0.03515622019767761 l 0.0 2.63671875 c -0.625 0.1171875074505806 -1.41015625 0.17578125 -2.35546875 0.17578125 c -0.8828125 0.0 -1.568359375 -0.103515625 -2.056640625 -0.310546875 c -0.48828125 -0.20703125 -0.8153929783923051 -0.5328579886948468 -0.9785156846046448 -0.9785156846046448 c -0.15715617592151018 -0.4293568987753398 -0.2343749850988388 -1.140625 -0.234375 -2.1328125 l 0.0 -6.199218273162842 l -1.40625 0.0 l 0.0 -2.671875 l 1.40625 0.0 l 5.960464477539063e-08 -3.4921877086162567" fill="currentColor"/></svg>