<svg xmlns="http://www.w3.org/2000/svg" xmlns:xlink="http://www.w3.org/1999/xlink" width="50px" height="50px" style="-ms-transform: rotate(360deg); -webkit-transform: rotate(360deg); transform: rotate(360deg);" preserveAspectRatio="xMidYMid meet" viewBox="0 0 24 24"><path d="m 6.92578125 10.572916984558105 l 4.01953125 0.0 l 0.0 7.4765625 c 0.0 0.65625 0.03125 1.08203125 0.09375 1.27734375 c 0.125 0.390625 0.40234375 0.5859375 0.83203125 0.5859375 c 0.5234375 0.0 0.8586658036633263 -0.2346001842910468 1.0078125 -0.7031250596046448 c 0.0622043591448488 -0.19540687342157384 0.09375 -0.54296875 0.09375 -1.04296875 l 0.0 -7.593750476837158 l 4.01953125 0.0 l 0.0 12.09375 l -3.87890625 0.0 l 0.0 -0.28125 c 0.0078125 -0.484375 0.03125 -0.89453125 0.0703125 -1.23046875 c -0.234375 0.3828125 -0.47265626487977386 0.6953124851202226 -0.7148438096046448 0.9375 c -0.5937500364794416 0.5937499635205562 -1.4101562499999982 0.8906249713618379 -2.449218988418579 0.890625 c -1.3437499999999993 4.004687070846557e-08 -2.2539571349241214 -0.468724105433143 -2.73046875 -1.40625 c -0.24221336578870717 -0.47654935420773153 -0.36328125 -1.234375 -0.36328125 -2.273437261581421 l 2.980232238769531e-07 -8.730468451976776" fill="currentColor"/></svg>