<svg xmlns="http://www.w3.org/2000/svg" xmlns:xlink="http://www.w3.org/1999/xlink" width="50px" height="50px" style="-ms-transform: rotate(360deg); -webkit-transform: rotate(360deg); transform: rotate(360deg);" preserveAspectRatio="xMidYMid meet" viewBox="0 0 24 24"><path d="m 3.6796875 10.572916984558105 l 3.99609375 0.0 l 0.69140625 5.51953125 c 0.1640625 1.484375 0.26171875 2.6015625 0.29296875 3.3515625 l 0.09375 0.0 l 0.0234375 -0.19921875 c 0.078125 -0.8984375 0.203125 -1.9921875 0.375 -3.28125 l 0.796875 -5.390624523162842 l 4.2421875 0.0 l 0.9375 6.45703125 l 0.03515625 0.3046875 c 0.09375 0.6171875 0.171875 1.3203125 0.234375 2.109375 l 0.09375 0.0 c 0.03125 -0.5390625 0.09375 -1.24609375 0.1875 -2.12109375 l 0.03515625 -0.33984375 l 0.7734375 -6.410155773162842 l 3.8203125 0.0 l -2.449218988418579 12.09375 l -4.62890625 0.0 l -0.6445313096046448 -3.773437261581421 c -0.328125 -2.2109375 -0.4921875298023224 -3.90625 -0.4921875596046448 -5.0859375 l -0.1171875 0.0 c -0.0625 1.0703125 -0.2460937350988388 2.75 -0.5507813096046448 5.0390625 l -0.6093750596046448 3.8203125 l -4.640625 0.0 l -2.496093273162842 -12.093751192092896" fill="currentColor"/></svg>