<svg xmlns="http://www.w3.org/2000/svg" xmlns:xlink="http://www.w3.org/1999/xlink" width="50px" height="50px" style="-ms-transform: rotate(360deg); -webkit-transform: rotate(360deg); transform: rotate(360deg);" preserveAspectRatio="xMidYMid meet" viewBox="0 0 24 24"><path d="m 6.662109375 10.572916984558105 l 4.21875 0.0 l 0.85546875 4.88671875 c 0.2265625 1.6250001192092896 0.3515625 2.76171875 0.375 3.41015625 l 0.09375 0.0 c 0.078125 -1.4140625 0.19921875 -2.58203125 0.36328125 -3.50390625 l 0.76171875 -4.79296875 l 4.01953125 0.0 l -3.0703125 11.89453125 c -0.28125 1.09375 -0.587221728558406 1.9623193188397146 -0.9257813096046448 2.6015625 c -0.3566191010491597 0.6733418322196306 -0.8703001260479599 1.123433359206107 -1.53515625 1.34765625 c -0.515016621256339 0.1736894817762569 -1.24609375 0.2578125 -2.19140625 0.2578125 c -0.5546875 0.0 -1.15234375 -0.02734375 -1.79296875 -0.08203125 l 0.0 -2.765625 c 0.3046875 0.0390625 0.5546875 0.05859375 0.75 0.05859375 c 0.6796875 0.0 1.1101050796133105 -0.15771134776110785 1.27734375 -0.4804686903953552 c 0.10448072389646874 -0.201639493565422 0.1796875 -0.4335937201976776 0.234375 -0.6914063096046448 l -3.4335936903953552 -12.140625" fill="currentColor"/></svg>